<svg width="160" height="161" viewBox="0 0 160 161" fill="none" xmlns="http://www.w3.org/2000/svg">
<path opacity="0.2" d="M129.125 59.6243C132.572 55.8199 134.424 50.8354 134.298 45.703C134.172 40.5707 132.076 35.6834 128.446 32.0532C124.816 28.4229 119.929 26.3277 114.796 26.2014C109.664 26.075 104.679 27.9272 100.875 31.3743L80 52.1868L108.313 80.4994L129.125 59.6243Z" fill="white"/>
<path opacity="0.2" d="M30.8753 101.375C27.4281 105.179 25.576 110.164 25.7024 115.296C25.8287 120.429 27.9239 125.316 31.5542 128.946C35.1844 132.576 40.0716 134.672 45.204 134.798C50.3364 134.924 55.3208 133.072 59.1253 129.625L80.0003 108.813L51.6878 80.5L30.8753 101.375Z" fill="white"/>
<path opacity="0.2" d="M59.1253 31.3743C55.3208 27.9272 50.3364 26.075 45.204 26.2014C40.0716 26.3277 35.1844 28.4229 31.5542 32.0532C27.9239 35.6834 25.8287 40.5707 25.7024 45.703C25.576 50.8354 27.4281 55.8199 30.8753 59.6243L51.6878 80.4994L80.0003 52.1868L59.1253 31.3743Z" fill="white"/>
<path opacity="0.2" d="M108.313 80.5L80 108.813L100.875 129.625C104.679 133.072 109.664 134.924 114.796 134.798C119.929 134.672 124.816 132.576 128.446 128.946C132.076 125.316 134.172 120.429 134.298 115.296C134.424 110.164 132.572 105.179 129.125 101.375L108.313 80.5Z" fill="white"/>
<path d="M30.8753 59.6243C27.4281 55.8199 25.576 50.8354 25.7024 45.703C25.8287 40.5707 27.9239 35.6834 31.5542 32.0532C35.1844 28.4229 40.0716 26.3277 45.204 26.2014C50.3364 26.075 55.3208 27.9272 59.1253 31.3743L129.125 101.374C132.573 105.179 134.425 110.163 134.298 115.296C134.172 120.428 132.077 125.315 128.446 128.946C124.816 132.576 119.929 134.671 114.797 134.797C109.664 134.924 104.68 133.072 100.875 129.624L30.8753 59.6243Z" stroke="white" stroke-width="2" stroke-linecap="round" stroke-linejoin="round"/>
<path d="M100.875 31.3743C104.68 27.9272 109.664 26.075 114.797 26.2014C119.929 26.3277 124.816 28.4229 128.446 32.0532C132.077 35.6834 134.172 40.5707 134.298 45.703C134.425 50.8354 132.573 55.8199 129.125 59.6243L59.1253 129.624C55.3208 133.072 50.3364 134.924 45.204 134.797C40.0716 134.671 35.1844 132.576 31.5542 128.946C27.9239 125.315 25.8287 120.428 25.7024 115.296C25.576 110.163 27.4281 105.179 30.8753 101.374L100.875 31.3743Z" stroke="white" stroke-width="2" stroke-linecap="round" stroke-linejoin="round"/>
<path opacity="0.5" d="M80 83C81.3807 83 82.5 81.8807 82.5 80.5C82.5 79.1193 81.3807 78 80 78C78.6193 78 77.5 79.1193 77.5 80.5C77.5 81.8807 78.6193 83 80 83Z" stroke="white" stroke-width="2" stroke-linecap="round" stroke-linejoin="round"/>
<path d="M80 88C84.1421 88 87.5 84.6421 87.5 80.5C87.5 76.3579 84.1421 73 80 73C75.8579 73 72.5 76.3579 72.5 80.5C72.5 84.6421 75.8579 88 80 88Z" fill="white"/>
</svg>
