<svg width="160" height="161" viewBox="0 0 160 161" fill="none" xmlns="http://www.w3.org/2000/svg">
<path opacity="0.2" d="M129.125 59.6251C132.572 55.8206 134.424 50.8362 134.298 45.7038C134.172 40.5714 132.076 35.6842 128.446 32.0539C124.816 28.4237 119.929 26.3285 114.796 26.2021C109.664 26.0757 104.679 27.9279 100.875 31.3751L80 52.1876L108.313 80.5001L129.125 59.6251Z" fill="white"/>
<path opacity="0.2" d="M30.8753 101.375C27.4281 105.179 25.576 110.164 25.7024 115.296C25.8287 120.429 27.9239 125.316 31.5542 128.946C35.1844 132.576 40.0716 134.672 45.204 134.798C50.3364 134.924 55.3208 133.072 59.1253 129.625L80.0003 108.813L51.6878 80.5L30.8753 101.375Z" fill="white"/>
<path opacity="0.2" d="M59.1253 31.3751C55.3208 27.9279 50.3364 26.0757 45.204 26.2021C40.0716 26.3285 35.1844 28.4237 31.5542 32.0539C27.9239 35.6842 25.8287 40.5714 25.7024 45.7038C25.576 50.8362 27.4281 55.8206 30.8753 59.6251L51.6878 80.5001L80.0003 52.1876L59.1253 31.3751Z" fill="white"/>
<path opacity="0.2" d="M108.313 80.5L80 108.813L100.875 129.625C104.679 133.072 109.664 134.924 114.796 134.798C119.929 134.672 124.816 132.576 128.446 128.946C132.076 125.316 134.172 120.429 134.298 115.296C134.424 110.164 132.572 105.179 129.125 101.375L108.313 80.5Z" fill="white"/>
<path d="M30.8753 59.6251C27.4281 55.8206 25.576 50.8362 25.7024 45.7038C25.8287 40.5714 27.9239 35.6842 31.5542 32.0539C35.1844 28.4237 40.0716 26.3285 45.204 26.2021C50.3364 26.0757 55.3208 27.9279 59.1253 31.3751L129.125 101.375C132.573 105.18 134.425 110.164 134.298 115.296C134.172 120.429 132.077 125.316 128.446 128.946C124.816 132.576 119.929 134.672 114.797 134.798C109.664 134.924 104.68 133.072 100.875 129.625L30.8753 59.6251Z" stroke="white" stroke-width="2" stroke-linecap="round" stroke-linejoin="round"/>
<path d="M100.875 31.3751C104.68 27.9279 109.664 26.0757 114.797 26.2021C119.929 26.3285 124.816 28.4237 128.446 32.0539C132.077 35.6842 134.172 40.5714 134.298 45.7038C134.425 50.8362 132.573 55.8206 129.125 59.6251L59.1253 129.625C55.3208 133.072 50.3364 134.924 45.204 134.798C40.0716 134.672 35.1844 132.576 31.5542 128.946C27.9239 125.316 25.8287 120.429 25.7024 115.296C25.576 110.164 27.4281 105.18 30.8753 101.375L100.875 31.3751Z" stroke="white" stroke-width="2" stroke-linecap="round" stroke-linejoin="round"/>
<path opacity="0.5" d="M80 83C81.3807 83 82.5 81.8807 82.5 80.5C82.5 79.1193 81.3807 78 80 78C78.6193 78 77.5 79.1193 77.5 80.5C77.5 81.8807 78.6193 83 80 83Z" stroke="white" stroke-width="2" stroke-linecap="round" stroke-linejoin="round"/>
<path d="M80 88C84.1421 88 87.5 84.6421 87.5 80.5C87.5 76.3579 84.1421 73 80 73C75.8579 73 72.5 76.3579 72.5 80.5C72.5 84.6421 75.8579 88 80 88Z" fill="white"/>
</svg>
