<svg width="42" height="42" viewBox="0 0 42 42" fill="none" xmlns="http://www.w3.org/2000/svg">
<path d="M21 3.9375C17.6254 3.9375 14.3265 4.9382 11.5206 6.81305C8.71468 8.6879 6.52773 11.3527 5.23631 14.4705C3.94489 17.5882 3.607 21.0189 4.26536 24.3287C4.92372 27.6385 6.54876 30.6788 8.935 33.065C11.3212 35.4512 14.3615 37.0763 17.6713 37.7346C20.9811 38.393 24.4118 38.0551 27.5295 36.7637C30.6473 35.4723 33.3121 33.2853 35.187 30.4794C37.0618 27.6735 38.0625 24.3746 38.0625 21C38.0538 16.4774 36.2534 12.1425 33.0554 8.94457C29.8575 5.74661 25.5226 3.94617 21 3.9375ZM26.4797 21.968L19.9172 27.8742C19.6736 28.093 19.3587 28.2155 19.0313 28.2188C18.849 28.2197 18.6686 28.1822 18.5018 28.1087C18.335 28.0352 18.1856 27.9274 18.0633 27.7922C17.8284 27.5354 17.7051 27.1959 17.7205 26.8483C17.7359 26.5006 17.8887 26.1733 18.1453 25.9383L23.625 21L18.1453 16.0617C17.8972 15.8246 17.7519 15.4997 17.7405 15.1568C17.729 14.8138 17.8523 14.4799 18.084 14.2268C18.3157 13.9736 18.6374 13.8213 18.98 13.8024C19.3227 13.7835 19.6591 13.8996 19.9172 14.1258L26.4797 20.032C26.614 20.155 26.7212 20.3046 26.7946 20.4712C26.8679 20.6378 26.9058 20.8179 26.9058 21C26.9058 21.1821 26.8679 21.3622 26.7946 21.5288C26.7212 21.6954 26.614 21.845 26.4797 21.968Z" fill="#FF6858"/>
</svg>
