<svg width="42" height="42" viewBox="0 0 42 42" fill="none" xmlns="http://www.w3.org/2000/svg">
<path d="M21 3.9375C17.6254 3.9375 14.3265 4.9382 11.5206 6.81305C8.71468 8.6879 6.52773 11.3527 5.23631 14.4705C3.94489 17.5882 3.607 21.0189 4.26536 24.3287C4.92372 27.6385 6.54876 30.6788 8.935 33.065C11.3212 35.4512 14.3615 37.0763 17.6713 37.7346C20.9811 38.393 24.4118 38.0551 27.5295 36.7637C30.6473 35.4723 33.3121 33.2853 35.187 30.4794C37.0618 27.6735 38.0625 24.3746 38.0625 21C38.0538 16.4774 36.2534 12.1425 33.0554 8.94457C29.8575 5.74661 25.5226 3.94617 21 3.9375ZM24.5109 25.9383C24.7676 26.1733 24.9204 26.5006 24.9358 26.8483C24.9512 27.1959 24.8279 27.5354 24.593 27.7922C24.4707 27.9274 24.3213 28.0352 24.1545 28.1087C23.9877 28.1822 23.8073 28.2197 23.625 28.2188C23.2976 28.2155 22.9826 28.093 22.7391 27.8742L16.1766 21.968C16.0423 21.845 15.9351 21.6954 15.8617 21.5288C15.7883 21.3622 15.7505 21.1821 15.7505 21C15.7505 20.8179 15.7883 20.6378 15.8617 20.4712C15.9351 20.3046 16.0423 20.155 16.1766 20.032L22.7391 14.1258C22.8654 14.005 23.0146 13.9107 23.1778 13.8484C23.3411 13.7861 23.5151 13.757 23.6898 13.7628C23.8644 13.7686 24.0362 13.8093 24.1949 13.8824C24.3536 13.9555 24.4962 14.0595 24.6142 14.1884C24.7322 14.3173 24.8232 14.4685 24.882 14.6331C24.9408 14.7976 24.9661 14.9723 24.9565 15.1468C24.9469 15.3213 24.9025 15.4921 24.826 15.6492C24.7495 15.8063 24.6424 15.9466 24.5109 16.0617L19.0313 21L24.5109 25.9383Z" fill="#FF6858"/>
</svg>
