<svg width="160" height="161" viewBox="0 0 160 161" fill="none" xmlns="http://www.w3.org/2000/svg">
<path d="M64.9996 20.5V59.125C64.9936 60.0239 64.7569 60.9063 64.3121 61.6875L24.5621 127.937C24.111 128.693 23.8674 129.555 23.8559 130.435C23.8444 131.315 24.0654 132.182 24.4966 132.95C24.9278 133.717 25.554 134.357 26.3117 134.805C27.0695 135.253 27.932 135.492 28.8121 135.5H131.187C132.067 135.492 132.93 135.253 133.688 134.805C134.445 134.357 135.071 133.717 135.503 132.95C135.934 132.182 136.155 131.315 136.143 130.435C136.132 129.555 135.888 128.693 135.437 127.937L95.6871 61.6875C95.2424 60.9063 95.0056 60.0239 94.9996 59.125V20.5" stroke="white" stroke-width="2" stroke-linecap="round" stroke-linejoin="round"/>
<path d="M55 20.5H105" stroke="white" stroke-width="2" stroke-linecap="round" stroke-linejoin="round"/>
<path d="M39.125 103.625C46.5 98.188 59.1875 95.1255 80 105.5C102.313 116.688 115.312 112.25 122.437 106.188" stroke="white" stroke-width="2" stroke-linecap="round" stroke-linejoin="round"/>
<path opacity="0.2" d="M39.1246 103.625L24.5621 127.938C24.111 128.694 23.8674 129.555 23.8559 130.435C23.8444 131.315 24.0654 132.183 24.4966 132.95C24.9278 133.718 25.554 134.357 26.3117 134.805C27.0695 135.253 27.932 135.493 28.8121 135.5H131.187C132.067 135.493 132.93 135.253 133.688 134.805C134.445 134.357 135.071 133.718 135.503 132.95C135.934 132.183 136.155 131.315 136.143 130.435C136.132 129.555 135.888 128.694 135.437 127.938L122.437 106.188C115.312 112.25 102.312 116.688 79.9996 105.5C59.1871 95.1255 46.4996 98.188 39.1246 103.625Z" fill="white"/>
</svg>
