<svg width="161" height="161" viewBox="0 0 161 161" fill="none" xmlns="http://www.w3.org/2000/svg">
<path d="M65.3331 20.5V59.125C65.3271 60.0239 65.0904 60.9063 64.6456 61.6875L24.8956 127.937C24.4445 128.693 24.2009 129.555 24.1894 130.435C24.1779 131.315 24.3989 132.182 24.8301 132.95C25.2613 133.717 25.8875 134.357 26.6452 134.805C27.403 135.253 28.2655 135.492 29.1456 135.5H131.521C132.401 135.492 133.263 135.253 134.021 134.805C134.779 134.357 135.405 133.717 135.836 132.95C136.267 132.182 136.488 131.315 136.477 130.435C136.465 129.555 136.222 128.693 135.771 127.937L96.0206 61.6875C95.5759 60.9063 95.3391 60.0239 95.3331 59.125V20.5" stroke="white" stroke-width="2" stroke-linecap="round" stroke-linejoin="round"/>
<path d="M55.333 20.5H105.333" stroke="white" stroke-width="2" stroke-linecap="round" stroke-linejoin="round"/>
<path d="M39.458 103.625C46.833 98.188 59.5205 95.1255 80.333 105.5C102.646 116.688 115.646 112.25 122.771 106.188" stroke="white" stroke-width="2" stroke-linecap="round" stroke-linejoin="round"/>
<path opacity="0.2" d="M39.4581 103.625L24.8956 127.938C24.4445 128.694 24.2009 129.555 24.1894 130.435C24.1779 131.315 24.3989 132.183 24.8301 132.95C25.2613 133.718 25.8875 134.357 26.6452 134.805C27.403 135.253 28.2655 135.493 29.1456 135.5H131.521C132.401 135.493 133.263 135.253 134.021 134.805C134.779 134.357 135.405 133.718 135.836 132.95C136.267 132.183 136.488 131.315 136.477 130.435C136.465 129.555 136.222 128.694 135.771 127.938L122.771 106.188C115.646 112.25 102.646 116.688 80.3331 105.5C59.5206 95.1255 46.8331 98.188 39.4581 103.625Z" fill="white"/>
</svg>
