<svg width="214" height="29" viewBox="0 0 214 29" fill="none" xmlns="http://www.w3.org/2000/svg">
<path d="M39.999 14.48V13.26H40.139C40.3657 13.26 40.579 13.2267 40.779 13.16C40.979 13.08 41.1657 12.94 41.339 12.74C41.5124 12.54 41.6657 12.2533 41.799 11.88L46.059 0.2H49.679L53.759 11.92C53.879 12.2267 54.019 12.48 54.179 12.68C54.339 12.88 54.519 13.0267 54.719 13.12C54.9324 13.2133 55.159 13.26 55.399 13.26H55.619V14.48H48.219V13.26H49.019C49.2324 13.26 49.4257 13.22 49.599 13.14C49.7724 13.06 49.859 12.8933 49.859 12.64C49.859 12.5067 49.8457 12.38 49.819 12.26C49.7924 12.1267 49.759 12.0067 49.719 11.9C49.6924 11.7933 49.6657 11.7133 49.639 11.66L49.019 9.84H44.459L43.999 11.28C43.9724 11.3867 43.9324 11.52 43.879 11.68C43.839 11.84 43.799 12.0067 43.759 12.18C43.7324 12.34 43.719 12.4867 43.719 12.62C43.719 12.82 43.7724 12.98 43.879 13.1C43.9857 13.2067 44.179 13.26 44.459 13.26H45.439V14.48H39.999ZM44.899 8.46H48.579L47.439 4.64C47.3724 4.4 47.299 4.16 47.219 3.92C47.1524 3.66667 47.0857 3.40667 47.019 3.14C46.9524 2.86 46.8924 2.57333 46.839 2.28C46.7857 2.49333 46.7257 2.70667 46.659 2.92C46.6057 3.12 46.5524 3.32 46.499 3.52C46.4457 3.72 46.3857 3.91333 46.319 4.1C46.2657 4.27333 46.2124 4.44667 46.159 4.62L44.899 8.46Z" fill="#F1E5D4"/>
<path d="M56.0407 14.48V13.26H57.1007C57.2207 13.26 57.3407 13.2267 57.4607 13.16C57.5807 13.08 57.6807 12.9667 57.7607 12.82C57.8407 12.6733 57.8807 12.5 57.8807 12.3V2.44C57.8807 2.21333 57.8341 2.02667 57.7407 1.88C57.6607 1.72 57.5474 1.60667 57.4007 1.54C57.2674 1.46 57.1141 1.42 56.9407 1.42H56.0407V0.2H63.7407V1.42H62.7607C62.5207 1.42 62.3407 1.46 62.2207 1.54C62.1007 1.60667 62.0141 1.71333 61.9607 1.86C61.9207 2.00667 61.9007 2.18667 61.9007 2.4V13.1H65.4607C65.7007 13.1 65.9141 13.0533 66.1007 12.96C66.3007 12.8533 66.4741 12.6733 66.6207 12.42C66.7807 12.1667 66.9207 11.8267 67.0407 11.4L67.4607 9.9H68.6407L68.5007 14.48H56.0407Z" fill="#F1E5D4"/>
<path d="M69.5759 14.48V13.26H70.6359C70.7559 13.26 70.8759 13.2267 70.9959 13.16C71.1159 13.08 71.2159 12.9667 71.2959 12.82C71.3759 12.6733 71.4159 12.5 71.4159 12.3V2.44C71.4159 2.21333 71.3692 2.02667 71.2759 1.88C71.1959 1.72 71.0826 1.60667 70.9359 1.54C70.8026 1.46 70.6492 1.42 70.4759 1.42H69.5759V0.2H77.2759V1.42H76.2959C76.0559 1.42 75.8759 1.46 75.7559 1.54C75.6359 1.60667 75.5492 1.71333 75.4959 1.86C75.4559 2.00667 75.4359 2.18667 75.4359 2.4V13.1H78.9959C79.2359 13.1 79.4492 13.0533 79.6359 12.96C79.8359 12.8533 80.0092 12.6733 80.1559 12.42C80.3159 12.1667 80.4559 11.8267 80.5759 11.4L80.9959 9.9H82.1759L82.0359 14.48H69.5759Z" fill="#F1E5D4"/>
<path d="M83.1111 14.48V13.26H84.1711C84.2911 13.26 84.4111 13.2267 84.5311 13.16C84.6511 13.08 84.7511 12.9733 84.8311 12.84C84.9111 12.6933 84.9511 12.52 84.9511 12.32V2.48C84.9511 2.24 84.9111 2.04 84.8311 1.88C84.7511 1.72 84.6511 1.60667 84.5311 1.54C84.4111 1.46 84.2911 1.42 84.1711 1.42H83.1111V0.2H90.8111V1.42H89.7111C89.5511 1.42 89.4111 1.46 89.2911 1.54C89.1844 1.62 89.0977 1.74 89.0311 1.9C88.9777 2.04667 88.9511 2.24667 88.9511 2.5V12.28C88.9511 12.4667 88.9844 12.64 89.0511 12.8C89.1311 12.9467 89.2244 13.06 89.3311 13.14C89.4511 13.22 89.5777 13.26 89.7111 13.26H90.8111V14.48H83.1111Z" fill="#F1E5D4"/>
<path d="M91.3467 14.48V13.26H91.4867C91.7133 13.26 91.9267 13.2267 92.1267 13.16C92.3267 13.08 92.5133 12.94 92.6867 12.74C92.86 12.54 93.0133 12.2533 93.1467 11.88L97.4067 0.2H101.027L105.107 11.92C105.227 12.2267 105.367 12.48 105.527 12.68C105.687 12.88 105.867 13.0267 106.067 13.12C106.28 13.2133 106.507 13.26 106.747 13.26H106.967V14.48H99.5667V13.26H100.367C100.58 13.26 100.773 13.22 100.947 13.14C101.12 13.06 101.207 12.8933 101.207 12.64C101.207 12.5067 101.193 12.38 101.167 12.26C101.14 12.1267 101.107 12.0067 101.067 11.9C101.04 11.7933 101.013 11.7133 100.987 11.66L100.367 9.84H95.8067L95.3467 11.28C95.32 11.3867 95.28 11.52 95.2267 11.68C95.1867 11.84 95.1467 12.0067 95.1067 12.18C95.08 12.34 95.0667 12.4867 95.0667 12.62C95.0667 12.82 95.12 12.98 95.2267 13.1C95.3333 13.2067 95.5267 13.26 95.8067 13.26H96.7867V14.48H91.3467ZM96.2467 8.46H99.9267L98.7867 4.64C98.72 4.4 98.6467 4.16 98.5667 3.92C98.5 3.66667 98.4333 3.40667 98.3667 3.14C98.3 2.86 98.24 2.57333 98.1867 2.28C98.1333 2.49333 98.0733 2.70667 98.0067 2.92C97.9533 3.12 97.9 3.32 97.8467 3.52C97.7933 3.72 97.7333 3.91333 97.6667 4.1C97.6133 4.27333 97.56 4.44667 97.5067 4.62L96.2467 8.46Z" fill="#F1E5D4"/>
<path d="M107.388 14.48V13.26H108.048C108.288 13.26 108.495 13.2333 108.668 13.18C108.855 13.1267 108.995 13.0133 109.088 12.84C109.182 12.6667 109.228 12.4067 109.228 12.06V2.54C109.228 2.20667 109.182 1.96667 109.088 1.82C108.995 1.66 108.868 1.55333 108.708 1.5C108.562 1.44667 108.402 1.42 108.228 1.42H107.388V0.2H112.408L119.388 9.38V2.54C119.388 2.26 119.342 2.04 119.248 1.88C119.168 1.72 119.055 1.60667 118.908 1.54C118.775 1.46 118.615 1.42 118.428 1.42H117.568V0.2H122.928V1.42H122.068C121.868 1.42 121.695 1.46 121.548 1.54C121.402 1.62 121.288 1.74667 121.208 1.92C121.128 2.09333 121.088 2.32667 121.088 2.62V14.48H118.948L110.928 3.82V12.06C110.928 12.4067 110.955 12.6667 111.008 12.84C111.075 13.0133 111.182 13.1267 111.328 13.18C111.475 13.2333 111.662 13.26 111.888 13.26H112.748V14.48H107.388Z" fill="#F1E5D4"/>
<path d="M131.442 14.68C129.828 14.68 128.482 14.3733 127.402 13.76C126.322 13.1467 125.508 12.2933 124.962 11.2C124.428 10.0933 124.162 8.8 124.162 7.32C124.162 5.88 124.435 4.61333 124.982 3.52C125.528 2.41333 126.342 1.55333 127.422 0.94C128.502 0.313333 129.835 0 131.422 0C132.528 0 133.442 0.106667 134.162 0.320001C134.895 0.533334 135.442 0.82 135.802 1.18C136.175 1.54 136.362 1.94 136.362 2.38C136.362 2.92667 136.108 3.39333 135.602 3.78C135.108 4.16667 134.342 4.36 133.302 4.36C133.302 3.90667 133.235 3.46 133.102 3.02C132.982 2.56667 132.768 2.19333 132.462 1.9C132.155 1.59333 131.735 1.44 131.202 1.44C130.482 1.44 129.915 1.67333 129.502 2.14C129.088 2.59333 128.795 3.26 128.622 4.14C128.448 5.00667 128.362 6.06667 128.362 7.32C128.362 8.66667 128.482 9.75333 128.722 10.58C128.962 11.3933 129.355 11.98 129.902 12.34C130.462 12.7 131.202 12.88 132.122 12.88C132.842 12.88 133.448 12.7733 133.942 12.56C134.448 12.3333 134.875 12.06 135.222 11.74C135.568 11.42 135.855 11.1133 136.082 10.82C136.175 10.9133 136.248 11.0533 136.302 11.24C136.355 11.4267 136.382 11.5933 136.382 11.74C136.382 12.0467 136.308 12.3733 136.162 12.72C136.028 13.0533 135.782 13.3733 135.422 13.68C135.062 13.9733 134.555 14.2133 133.902 14.4C133.262 14.5867 132.442 14.68 131.442 14.68Z" fill="#F1E5D4"/>
<path d="M137.662 14.48V13.26H138.682C138.869 13.26 139.022 13.22 139.142 13.14C139.262 13.0467 139.349 12.9267 139.402 12.78C139.469 12.6333 139.502 12.4667 139.502 12.28V2.5C139.502 2.18 139.462 1.94667 139.382 1.8C139.302 1.64 139.195 1.54 139.062 1.5C138.929 1.44667 138.789 1.42 138.642 1.42H137.662V0.2H149.522L149.582 4.02H147.922L147.822 3.02C147.795 2.66 147.735 2.38 147.642 2.18C147.549 1.96667 147.409 1.81333 147.222 1.72C147.049 1.62667 146.802 1.58 146.482 1.58H143.482V6.34H148.202V7.7H143.482V13.1H147.062C147.355 13.1 147.595 13.04 147.782 12.92C147.969 12.8 148.115 12.6333 148.222 12.42C148.342 12.2067 148.422 11.9533 148.462 11.66L148.622 10.66H150.262L150.122 14.48H137.662Z" fill="#F1E5D4"/>
<path d="M164.293 14.68C162.68 14.68 161.333 14.3733 160.253 13.76C159.173 13.1467 158.36 12.2933 157.813 11.2C157.28 10.0933 157.013 8.8 157.013 7.32C157.013 5.88 157.287 4.61333 157.833 3.52C158.38 2.41333 159.193 1.55333 160.273 0.94C161.353 0.313333 162.687 0 164.273 0C165.38 0 166.293 0.106667 167.013 0.320001C167.747 0.533334 168.293 0.82 168.653 1.18C169.027 1.54 169.213 1.94 169.213 2.38C169.213 2.92667 168.96 3.39333 168.453 3.78C167.96 4.16667 167.193 4.36 166.153 4.36C166.153 3.90667 166.087 3.46 165.953 3.02C165.833 2.56667 165.62 2.19333 165.313 1.9C165.007 1.59333 164.587 1.44 164.053 1.44C163.333 1.44 162.767 1.67333 162.353 2.14C161.94 2.59333 161.647 3.26 161.473 4.14C161.3 5.00667 161.213 6.06667 161.213 7.32C161.213 8.66667 161.333 9.75333 161.573 10.58C161.813 11.3933 162.207 11.98 162.753 12.34C163.313 12.7 164.053 12.88 164.973 12.88C165.693 12.88 166.3 12.7733 166.793 12.56C167.3 12.3333 167.727 12.06 168.073 11.74C168.42 11.42 168.707 11.1133 168.933 10.82C169.027 10.9133 169.1 11.0533 169.153 11.24C169.207 11.4267 169.233 11.5933 169.233 11.74C169.233 12.0467 169.16 12.3733 169.013 12.72C168.88 13.0533 168.633 13.3733 168.273 13.68C167.913 13.9733 167.407 14.2133 166.753 14.4C166.113 14.5867 165.293 14.68 164.293 14.68Z" fill="#F1E5D4"/>
<path d="M170.233 14.48V13.26H170.373C170.6 13.26 170.813 13.2267 171.013 13.16C171.213 13.08 171.4 12.94 171.573 12.74C171.747 12.54 171.9 12.2533 172.033 11.88L176.293 0.2H179.913L183.993 11.92C184.113 12.2267 184.253 12.48 184.413 12.68C184.573 12.88 184.753 13.0267 184.953 13.12C185.167 13.2133 185.393 13.26 185.633 13.26H185.853V14.48H178.453V13.26H179.253C179.467 13.26 179.66 13.22 179.833 13.14C180.007 13.06 180.093 12.8933 180.093 12.64C180.093 12.5067 180.08 12.38 180.053 12.26C180.027 12.1267 179.993 12.0067 179.953 11.9C179.927 11.7933 179.9 11.7133 179.873 11.66L179.253 9.84H174.693L174.233 11.28C174.207 11.3867 174.167 11.52 174.113 11.68C174.073 11.84 174.033 12.0067 173.993 12.18C173.967 12.34 173.953 12.4867 173.953 12.62C173.953 12.82 174.007 12.98 174.113 13.1C174.22 13.2067 174.413 13.26 174.693 13.26H175.673V14.48H170.233ZM175.133 8.46H178.813L177.673 4.64C177.607 4.4 177.533 4.16 177.453 3.92C177.387 3.66667 177.32 3.40667 177.253 3.14C177.187 2.86 177.127 2.57333 177.073 2.28C177.02 2.49333 176.96 2.70667 176.893 2.92C176.84 3.12 176.787 3.32 176.733 3.52C176.68 3.72 176.62 3.91333 176.553 4.1C176.5 4.27333 176.447 4.44667 176.393 4.62L175.133 8.46Z" fill="#F1E5D4"/>
<path d="M186.275 14.48V13.26H187.035C187.208 13.26 187.375 13.24 187.535 13.2C187.695 13.1467 187.828 13.04 187.935 12.88C188.055 12.72 188.115 12.48 188.115 12.16V2.54C188.115 2.20667 188.048 1.96667 187.915 1.82C187.795 1.66 187.648 1.55333 187.475 1.5C187.315 1.44667 187.168 1.42 187.035 1.42H186.275V0.2H193.495C194.988 0.2 196.175 0.36 197.055 0.679999C197.935 0.986666 198.562 1.42667 198.935 2C199.322 2.56 199.515 3.22 199.515 3.98C199.515 4.74 199.382 5.36667 199.115 5.86C198.862 6.35333 198.522 6.74 198.095 7.02C197.668 7.3 197.195 7.51333 196.675 7.66L198.955 11.52C199.142 11.8267 199.308 12.0933 199.455 12.32C199.602 12.5333 199.742 12.7133 199.875 12.86C200.022 12.9933 200.168 13.0933 200.315 13.16C200.462 13.2267 200.615 13.26 200.775 13.26H200.915V14.48H199.975C199.402 14.48 198.868 14.46 198.375 14.42C197.882 14.3667 197.435 14.28 197.035 14.16C196.635 14.0267 196.288 13.84 195.995 13.6C195.702 13.36 195.462 13.0533 195.275 12.68L193.175 8.36H192.115V12.16C192.115 12.48 192.155 12.72 192.235 12.88C192.315 13.04 192.428 13.1467 192.575 13.2C192.735 13.24 192.908 13.26 193.095 13.26H193.575V14.48H186.275ZM193.015 7.04C193.535 7.04 193.962 6.94 194.295 6.74C194.628 6.52667 194.868 6.21333 195.015 5.8C195.175 5.37333 195.255 4.84667 195.255 4.22C195.255 3.58 195.168 3.06667 194.995 2.68C194.822 2.28 194.562 1.99333 194.215 1.82C193.882 1.63333 193.468 1.54 192.975 1.54H192.115V7.04H193.015Z" fill="#F1E5D4"/>
<path d="M201.334 14.48V13.26H202.354C202.54 13.26 202.694 13.22 202.814 13.14C202.934 13.0467 203.02 12.9267 203.074 12.78C203.14 12.6333 203.174 12.4667 203.174 12.28V2.5C203.174 2.18 203.134 1.94667 203.054 1.8C202.974 1.64 202.867 1.54 202.734 1.5C202.6 1.44667 202.46 1.42 202.314 1.42H201.334V0.2H213.194L213.254 4.02H211.594L211.494 3.02C211.467 2.66 211.407 2.38 211.314 2.18C211.22 1.96667 211.08 1.81333 210.894 1.72C210.72 1.62667 210.474 1.58 210.154 1.58H207.154V6.34H211.874V7.7H207.154V13.1H210.734C211.027 13.1 211.267 13.04 211.454 12.92C211.64 12.8 211.787 12.6333 211.894 12.42C212.014 12.2067 212.094 11.9533 212.134 11.66L212.294 10.66H213.934L213.794 14.48H201.334Z" fill="#F1E5D4"/>
<path d="M41.6833 28.4803V27.8923H42.1033C42.2473 27.8923 42.3753 27.8763 42.4873 27.8443C42.5993 27.8043 42.6873 27.7283 42.7513 27.6163C42.8233 27.5043 42.8593 27.3323 42.8593 27.1003V20.5963H41.8273C41.5873 20.5963 41.3993 20.6363 41.2633 20.7163C41.1273 20.7883 41.0273 20.8923 40.9633 21.0283C40.8993 21.1643 40.8553 21.3203 40.8313 21.4963L40.7593 22.1563H40.0273L40.0873 19.9123H47.2873L47.3473 22.1563H46.6153L46.5313 21.4963C46.5153 21.3203 46.4713 21.1643 46.3993 21.0283C46.3353 20.8923 46.2353 20.7883 46.0993 20.7163C45.9633 20.6363 45.7753 20.5963 45.5353 20.5963H44.5033V27.0883C44.5033 27.3203 44.5353 27.4963 44.5993 27.6163C44.6633 27.7283 44.7553 27.8043 44.8753 27.8443C44.9953 27.8763 45.1233 27.8923 45.2593 27.8923H45.6793V28.4803H41.6833Z" fill="#F1E5D4"/>
<path d="M47.8957 28.4803V27.8923H48.2677C48.4037 27.8923 48.5277 27.8763 48.6397 27.8443C48.7517 27.8123 48.8437 27.7443 48.9157 27.6403C48.9877 27.5283 49.0237 27.3643 49.0237 27.1483V21.3043C49.0237 21.0643 48.9877 20.8883 48.9157 20.7763C48.8517 20.6643 48.7637 20.5923 48.6517 20.5603C48.5397 20.5203 48.4117 20.5003 48.2677 20.5003H47.8957V19.9123H54.3157L54.3757 22.0843H53.6197L53.5597 21.5323C53.5437 21.3403 53.4997 21.1763 53.4277 21.0403C53.3637 20.9043 53.2717 20.7963 53.1517 20.7163C53.0317 20.6363 52.8757 20.5963 52.6837 20.5963H50.6677V23.6683H53.5237V24.3403H50.6677V27.7963H53.0317C53.2237 27.7963 53.3797 27.7563 53.4997 27.6763C53.6277 27.5883 53.7277 27.4763 53.7997 27.3403C53.8717 27.1963 53.9197 27.0363 53.9437 26.8603L54.0277 26.3083H54.7837L54.6997 28.4803H47.8957Z" fill="#F1E5D4"/>
<path d="M59.8429 28.6003C58.9629 28.6003 58.2269 28.4163 57.6349 28.0483C57.0509 27.6803 56.6109 27.1683 56.3149 26.5123C56.0269 25.8483 55.8829 25.0723 55.8829 24.1843C55.8829 23.3203 56.0349 22.5603 56.3389 21.9043C56.6429 21.2403 57.0949 20.7243 57.6949 20.3563C58.2949 19.9803 59.0349 19.7923 59.9149 19.7923C60.4989 19.7923 60.9829 19.8523 61.3669 19.9723C61.7589 20.0923 62.0509 20.2563 62.2429 20.4643C62.4349 20.6723 62.5309 20.9043 62.5309 21.1603C62.5309 21.4483 62.4109 21.6843 62.1709 21.8683C61.9389 22.0443 61.6149 22.1323 61.1989 22.1323C61.1989 21.8763 61.1549 21.6243 61.0669 21.3763C60.9869 21.1283 60.8469 20.9243 60.6469 20.7643C60.4549 20.5963 60.1909 20.5123 59.8549 20.5123C59.3109 20.5123 58.8749 20.6563 58.5469 20.9443C58.2269 21.2323 57.9949 21.6483 57.8509 22.1923C57.7069 22.7363 57.6349 23.4003 57.6349 24.1843C57.6349 24.9283 57.7149 25.5643 57.8749 26.0923C58.0429 26.6203 58.3069 27.0203 58.6669 27.2923C59.0269 27.5643 59.4989 27.7003 60.0829 27.7003C60.4749 27.7003 60.8109 27.6483 61.0909 27.5443C61.3709 27.4323 61.6069 27.2923 61.7989 27.1243C61.9909 26.9563 62.1549 26.7843 62.2909 26.6083C62.3549 26.6563 62.4069 26.7243 62.4469 26.8123C62.4869 26.9003 62.5069 27.0003 62.5069 27.1123C62.5069 27.2723 62.4589 27.4403 62.3629 27.6163C62.2669 27.7843 62.1149 27.9443 61.9069 28.0963C61.6989 28.2483 61.4229 28.3723 61.0789 28.4683C60.7429 28.5563 60.3309 28.6003 59.8429 28.6003Z" fill="#F1E5D4"/>
<path d="M63.3762 28.4803V27.8923H63.7482C63.8842 27.8923 64.0082 27.8763 64.1202 27.8443C64.2402 27.8043 64.3322 27.7283 64.3962 27.6163C64.4682 27.4963 64.5042 27.3203 64.5042 27.0883V21.2563C64.5042 21.0323 64.4682 20.8683 64.3962 20.7643C64.3242 20.6523 64.2322 20.5803 64.1202 20.5483C64.0082 20.5163 63.8842 20.5003 63.7482 20.5003H63.3762V19.9123H67.2642V20.5003H66.8922C66.7562 20.5003 66.6282 20.5203 66.5082 20.5603C66.3962 20.5923 66.3042 20.6643 66.2322 20.7763C66.1682 20.8883 66.1362 21.0643 66.1362 21.3043V23.6683H69.5562V21.3043C69.5562 21.0643 69.5202 20.8883 69.4482 20.7763C69.3842 20.6643 69.2962 20.5923 69.1842 20.5603C69.0722 20.5203 68.9442 20.5003 68.8002 20.5003H68.4282V19.9123H72.3162V20.5003H71.9442C71.8162 20.5003 71.6922 20.5203 71.5722 20.5603C71.4522 20.5923 71.3602 20.6643 71.2962 20.7763C71.2322 20.8883 71.2002 21.0643 71.2002 21.3043V27.1483C71.2002 27.3643 71.2322 27.5283 71.2962 27.6403C71.3682 27.7443 71.4602 27.8123 71.5722 27.8443C71.6922 27.8763 71.8162 27.8923 71.9442 27.8923H72.3162V28.4803H68.4282V27.8923H68.8002C68.9442 27.8923 69.0722 27.8763 69.1842 27.8443C69.2962 27.8043 69.3842 27.7283 69.4482 27.6163C69.5202 27.4963 69.5562 27.3203 69.5562 27.0883V24.3523H66.1362V27.0883C66.1362 27.3203 66.1682 27.4963 66.2322 27.6163C66.3042 27.7283 66.3962 27.8043 66.5082 27.8443C66.6282 27.8763 66.7562 27.8923 66.8922 27.8923H67.2642V28.4803H63.3762Z" fill="#F1E5D4"/>
<path d="M73.0793 28.4803V27.8923H73.4513C73.5873 27.8923 73.7113 27.8763 73.8233 27.8443C73.9433 27.8043 74.0353 27.7283 74.0993 27.6163C74.1713 27.4963 74.2073 27.3203 74.2073 27.0883V21.2563C74.2073 21.0323 74.1713 20.8683 74.0993 20.7643C74.0273 20.6523 73.9353 20.5803 73.8233 20.5483C73.7113 20.5163 73.5873 20.5003 73.4513 20.5003H73.0793V19.9123H75.5633L79.8233 26.1403V21.2563C79.8233 21.0323 79.7873 20.8683 79.7153 20.7643C79.6433 20.6523 79.5513 20.5803 79.4393 20.5483C79.3273 20.5163 79.2033 20.5003 79.0673 20.5003H78.6953V19.9123H81.7793V20.5003H81.4073C81.2793 20.5003 81.1553 20.5203 81.0353 20.5603C80.9153 20.5923 80.8233 20.6643 80.7593 20.7763C80.6953 20.8883 80.6633 21.0643 80.6633 21.3043V28.4803H79.6553L75.0353 21.7603V27.0883C75.0353 27.3203 75.0673 27.4963 75.1313 27.6163C75.2033 27.7283 75.2953 27.8043 75.4073 27.8443C75.5273 27.8763 75.6553 27.8923 75.7913 27.8923H76.1633V28.4803H73.0793Z" fill="#F1E5D4"/>
<path d="M86.6668 28.6003C85.7788 28.6003 85.0428 28.4163 84.4588 28.0483C83.8748 27.6803 83.4348 27.1643 83.1388 26.5003C82.8508 25.8363 82.7068 25.0603 82.7068 24.1723C82.7068 23.2843 82.8508 22.5123 83.1388 21.8563C83.4348 21.2003 83.8748 20.6923 84.4588 20.3323C85.0508 19.9643 85.7908 19.7803 86.6788 19.7803C87.5268 19.7803 88.2428 19.9643 88.8268 20.3323C89.4108 20.6923 89.8548 21.2043 90.1588 21.8683C90.4628 22.5243 90.6148 23.2963 90.6148 24.1843C90.6148 25.0723 90.4628 25.8483 90.1588 26.5123C89.8548 27.1683 89.4068 27.6803 88.8148 28.0483C88.2308 28.4163 87.5148 28.6003 86.6668 28.6003ZM86.6668 27.8683C87.0748 27.8683 87.4148 27.7883 87.6868 27.6283C87.9668 27.4603 88.1908 27.2203 88.3588 26.9083C88.5348 26.5883 88.6628 26.2003 88.7428 25.7443C88.8228 25.2883 88.8628 24.7683 88.8628 24.1843C88.8628 23.6083 88.8228 23.0923 88.7428 22.6363C88.6628 22.1803 88.5388 21.7963 88.3708 21.4843C88.2028 21.1643 87.9788 20.9243 87.6988 20.7643C87.4188 20.5963 87.0788 20.5123 86.6788 20.5123C86.2788 20.5123 85.9348 20.5963 85.6468 20.7643C85.3668 20.9243 85.1388 21.1643 84.9628 21.4843C84.7948 21.7963 84.6708 22.1803 84.5908 22.6363C84.5108 23.0923 84.4708 23.6083 84.4708 24.1843C84.4708 24.7683 84.5108 25.2883 84.5908 25.7443C84.6708 26.2003 84.7948 26.5883 84.9628 26.9083C85.1388 27.2203 85.3668 27.4603 85.6468 27.6283C85.9348 27.7883 86.2748 27.8683 86.6668 27.8683Z" fill="#F1E5D4"/>
<path d="M91.6652 28.4803V27.8923H92.0372C92.1812 27.8923 92.3092 27.8763 92.4212 27.8443C92.5332 27.8043 92.6212 27.7283 92.6852 27.6163C92.7572 27.4963 92.7932 27.3203 92.7932 27.0883V21.3043C92.7932 21.0643 92.7572 20.8883 92.6852 20.7763C92.6212 20.6643 92.5332 20.5923 92.4212 20.5603C92.3092 20.5203 92.1812 20.5003 92.0372 20.5003H91.6652V19.9123H95.5532V20.5003H95.1812C95.0452 20.5003 94.9212 20.5163 94.8092 20.5483C94.6972 20.5803 94.6052 20.6523 94.5332 20.7643C94.4692 20.8683 94.4372 21.0323 94.4372 21.2563V27.7963H96.7172C96.9172 27.7963 97.0852 27.7523 97.2212 27.6643C97.3652 27.5763 97.4772 27.4523 97.5572 27.2923C97.6372 27.1243 97.6972 26.9403 97.7372 26.7403L97.8932 25.8403H98.5532L98.4692 28.4803H91.6652Z" fill="#F1E5D4"/>
<path d="M103.6 28.6003C102.712 28.6003 101.976 28.4163 101.392 28.0483C100.808 27.6803 100.368 27.1643 100.072 26.5003C99.7844 25.8363 99.6404 25.0603 99.6404 24.1723C99.6404 23.2843 99.7844 22.5123 100.072 21.8563C100.368 21.2003 100.808 20.6923 101.392 20.3323C101.984 19.9643 102.724 19.7803 103.612 19.7803C104.46 19.7803 105.176 19.9643 105.76 20.3323C106.344 20.6923 106.788 21.2043 107.092 21.8683C107.396 22.5243 107.548 23.2963 107.548 24.1843C107.548 25.0723 107.396 25.8483 107.092 26.5123C106.788 27.1683 106.34 27.6803 105.748 28.0483C105.164 28.4163 104.448 28.6003 103.6 28.6003ZM103.6 27.8683C104.008 27.8683 104.348 27.7883 104.62 27.6283C104.9 27.4603 105.124 27.2203 105.292 26.9083C105.468 26.5883 105.596 26.2003 105.676 25.7443C105.756 25.2883 105.796 24.7683 105.796 24.1843C105.796 23.6083 105.756 23.0923 105.676 22.6363C105.596 22.1803 105.472 21.7963 105.304 21.4843C105.136 21.1643 104.912 20.9243 104.632 20.7643C104.352 20.5963 104.012 20.5123 103.612 20.5123C103.212 20.5123 102.868 20.5963 102.58 20.7643C102.3 20.9243 102.072 21.1643 101.896 21.4843C101.728 21.7963 101.604 22.1803 101.524 22.6363C101.444 23.0923 101.404 23.6083 101.404 24.1843C101.404 24.7683 101.444 25.2883 101.524 25.7443C101.604 26.2003 101.728 26.5883 101.896 26.9083C102.072 27.2203 102.3 27.4603 102.58 27.6283C102.868 27.7883 103.208 27.8683 103.6 27.8683Z" fill="#F1E5D4"/>
<path d="M113.195 28.6003C112.227 28.6003 111.423 28.4163 110.783 28.0483C110.143 27.6803 109.667 27.1683 109.355 26.5123C109.043 25.8483 108.887 25.0723 108.887 24.1843C108.887 23.3203 109.051 22.5603 109.379 21.9043C109.707 21.2403 110.195 20.7243 110.843 20.3563C111.499 19.9803 112.303 19.7923 113.255 19.7923C113.895 19.7923 114.427 19.8523 114.851 19.9723C115.275 20.0923 115.591 20.2563 115.799 20.4643C116.015 20.6723 116.123 20.9043 116.123 21.1603C116.123 21.4323 115.999 21.6603 115.751 21.8443C115.511 22.0283 115.175 22.1203 114.743 22.1203C114.743 21.8243 114.687 21.5563 114.575 21.3163C114.471 21.0683 114.307 20.8723 114.083 20.7283C113.867 20.5843 113.579 20.5123 113.219 20.5123C112.595 20.5123 112.095 20.6563 111.719 20.9443C111.343 21.2323 111.067 21.6483 110.891 22.1923C110.723 22.7363 110.639 23.4003 110.639 24.1843C110.639 24.9683 110.727 25.6323 110.903 26.1763C111.087 26.7123 111.379 27.1243 111.779 27.4123C112.179 27.6923 112.711 27.8323 113.375 27.8323C113.559 27.8323 113.735 27.8243 113.903 27.8083C114.079 27.7923 114.243 27.7643 114.395 27.7243V25.9003C114.395 25.6763 114.355 25.5043 114.275 25.3843C114.203 25.2643 114.099 25.1803 113.963 25.1323C113.835 25.0843 113.679 25.0603 113.495 25.0603H113.375V24.4723H116.903V25.0603H116.783C116.623 25.0603 116.487 25.0883 116.375 25.1443C116.263 25.1923 116.175 25.2803 116.111 25.4083C116.055 25.5283 116.027 25.7083 116.027 25.9483V27.9883C115.587 28.1963 115.139 28.3523 114.683 28.4563C114.227 28.5523 113.731 28.6003 113.195 28.6003Z" fill="#F1E5D4"/>
<path d="M117.575 28.4803V27.8923H117.947C118.091 27.8923 118.219 27.8763 118.331 27.8443C118.443 27.8043 118.531 27.7283 118.595 27.6163C118.667 27.4963 118.703 27.3203 118.703 27.0883V21.3043C118.703 21.0643 118.667 20.8883 118.595 20.7763C118.531 20.6643 118.443 20.5923 118.331 20.5603C118.219 20.5203 118.091 20.5003 117.947 20.5003H117.575V19.9123H121.463V20.5003H121.091C120.955 20.5003 120.827 20.5203 120.707 20.5603C120.595 20.5923 120.507 20.6643 120.443 20.7763C120.379 20.8883 120.347 21.0643 120.347 21.3043V27.0883C120.347 27.3203 120.379 27.4963 120.443 27.6163C120.507 27.7283 120.595 27.8043 120.707 27.8443C120.827 27.8763 120.955 27.8923 121.091 27.8923H121.463V28.4803H117.575Z" fill="#F1E5D4"/>
<path d="M122.228 28.4803V27.8923H122.6C122.736 27.8923 122.86 27.8763 122.972 27.8443C123.084 27.8123 123.176 27.7443 123.248 27.6403C123.32 27.5283 123.356 27.3643 123.356 27.1483V21.3043C123.356 21.0643 123.32 20.8883 123.248 20.7763C123.184 20.6643 123.096 20.5923 122.984 20.5603C122.872 20.5203 122.744 20.5003 122.6 20.5003H122.228V19.9123H128.648L128.708 22.0843H127.952L127.892 21.5323C127.876 21.3403 127.832 21.1763 127.76 21.0403C127.696 20.9043 127.604 20.7963 127.484 20.7163C127.364 20.6363 127.208 20.5963 127.016 20.5963H125V23.6683H127.856V24.3403H125V27.7963H127.364C127.556 27.7963 127.712 27.7563 127.832 27.6763C127.96 27.5883 128.06 27.4763 128.132 27.3403C128.204 27.1963 128.252 27.0363 128.276 26.8603L128.36 26.3083H129.116L129.032 28.4803H122.228Z" fill="#F1E5D4"/>
<path d="M132.639 28.6003C132.151 28.6003 131.739 28.5563 131.403 28.4683C131.067 28.3723 130.795 28.2443 130.587 28.0843C130.379 27.9243 130.227 27.7443 130.131 27.5443C130.035 27.3363 129.987 27.1283 129.987 26.9203C129.987 26.6883 130.039 26.5003 130.143 26.3563C130.247 26.2043 130.387 26.0923 130.563 26.0203C130.747 25.9483 130.943 25.9123 131.151 25.9123C131.159 26.3203 131.227 26.6763 131.355 26.9803C131.483 27.2843 131.667 27.5203 131.907 27.6883C132.155 27.8483 132.451 27.9283 132.795 27.9283C133.291 27.9283 133.675 27.8043 133.947 27.5563C134.227 27.3003 134.367 26.9643 134.367 26.5483C134.367 26.2683 134.299 26.0283 134.163 25.8283C134.027 25.6283 133.815 25.4443 133.527 25.2763C133.239 25.1083 132.867 24.9323 132.411 24.7483C132.019 24.5883 131.679 24.4163 131.391 24.2323C131.103 24.0483 130.871 23.8523 130.695 23.6443C130.519 23.4363 130.387 23.2083 130.299 22.9603C130.219 22.7043 130.179 22.4203 130.179 22.1083C130.179 21.6363 130.303 21.2283 130.551 20.8843C130.799 20.5323 131.135 20.2643 131.559 20.0803C131.983 19.8883 132.467 19.7923 133.011 19.7923C133.555 19.7923 134.007 19.8563 134.367 19.9843C134.727 20.1043 134.995 20.2683 135.171 20.4763C135.355 20.6843 135.447 20.9123 135.447 21.1603C135.447 21.4323 135.339 21.6563 135.123 21.8323C134.907 22.0003 134.587 22.0843 134.163 22.0843C134.163 21.8523 134.119 21.6123 134.031 21.3643C133.951 21.1163 133.815 20.9083 133.623 20.7403C133.439 20.5643 133.187 20.4763 132.867 20.4763C132.619 20.4763 132.395 20.5243 132.195 20.6203C132.003 20.7083 131.851 20.8443 131.739 21.0283C131.627 21.2043 131.571 21.4203 131.571 21.6763C131.571 21.9403 131.627 22.1723 131.739 22.3723C131.851 22.5723 132.047 22.7643 132.327 22.9483C132.607 23.1323 133.003 23.3283 133.515 23.5363C134.035 23.7443 134.459 23.9683 134.787 24.2083C135.123 24.4403 135.371 24.7083 135.531 25.0123C135.699 25.3083 135.783 25.6563 135.783 26.0563C135.783 26.5683 135.651 27.0163 135.387 27.4003C135.131 27.7763 134.767 28.0723 134.295 28.2883C133.831 28.4963 133.279 28.6003 132.639 28.6003Z" fill="#F1E5D4"/>
<path d="M21.6696 22.6867C19.9446 22.6867 18.2184 22.7005 16.4935 22.6804C15.6461 22.6703 15.6285 22.6072 16.0464 21.8997C16.6235 20.9222 17.2183 19.9549 17.7663 18.9611C18.154 18.2598 18.7286 18.0328 19.4925 18.0631C20.6063 18.1072 21.7213 18.1186 22.8364 18.1199C23.5738 18.1199 23.7228 17.8285 23.3415 17.1651C21.5218 13.9932 19.6971 10.8238 17.8737 7.65317C17.486 6.97843 17.0693 6.32008 16.7157 5.62769C16.3318 4.87349 15.7093 4.59602 14.915 4.58972C14.0311 4.58341 13.1471 4.56954 12.2632 4.57963C11.7682 4.58594 11.729 4.41567 11.9614 4.02344C12.5953 2.95773 13.2178 1.88445 13.8252 0.803601C14.1384 0.251196 14.5905 -0.00861089 15.2168 0.000217495C16.1424 0.0140907 17.068 0.0178743 17.9936 0.0367923C18.5695 0.048143 18.9672 0.325607 19.2577 0.831347C22.4904 6.46512 25.7268 12.0951 28.9797 17.7163C29.4419 18.5146 29.4508 19.2423 28.9532 20.018C28.5112 20.7078 28.0996 21.4192 27.717 22.1431C27.4922 22.5668 27.2093 22.7434 26.7206 22.7358C25.0374 22.7106 23.3541 22.7258 21.6708 22.7258C21.6708 22.7119 21.6708 22.6993 21.6708 22.6854L21.6696 22.6867Z" fill="#F1E5D4"/>
<path d="M4.59552 28.9129C3.98561 28.9129 3.37569 28.9053 2.76577 28.9154C2.25308 28.9243 1.87804 28.7124 1.62549 28.2684C1.17847 27.4827 0.754174 26.6844 0.273058 25.9201C-0.125977 25.2857 -0.0641015 24.732 0.30589 24.104C1.99169 21.2448 3.64971 18.368 5.31657 15.4963C6.85715 12.844 8.4192 10.203 9.92568 7.53181C10.427 6.64267 11.071 6.19116 12.109 6.27818C12.7353 6.33115 13.373 6.32737 14.0006 6.2807C14.8252 6.22016 15.3329 6.58213 15.7218 7.28335C17.0187 9.61531 18.3471 11.9296 19.6642 14.2502C19.9862 14.8165 20.3082 15.3828 20.634 15.9465C20.8386 16.3009 20.7678 16.5141 20.3322 16.5052C18.9457 16.4788 17.5579 16.4573 16.1714 16.4018C15.6208 16.3804 15.3505 15.9453 15.1081 15.5152C14.4893 14.4167 13.8706 13.3182 13.2518 12.2209C12.9071 11.6093 12.8705 11.6055 12.5257 12.1995C10.1707 16.2505 7.81938 20.3027 5.46431 24.3537C5.1865 24.8329 5.18145 25.2996 5.46431 25.7826C5.96311 26.6339 6.44548 27.4966 6.94175 28.3504C7.16779 28.7401 7.09455 28.928 6.61596 28.9192C5.9429 28.9079 5.26984 28.9167 4.59679 28.9167V28.9142L4.59552 28.9129Z" fill="#F1E5D4"/>
<path d="M20.4286 24.4575C22.7016 24.4575 24.9746 24.4399 27.2476 24.4676C28.0368 24.4777 28.5545 24.1788 28.917 23.4814C29.3337 22.6805 29.8312 21.9225 30.2669 21.1305C30.5118 20.6853 30.6886 20.7622 30.9046 21.1418C31.5385 22.2567 32.18 23.3666 32.8202 24.4777C33.0626 24.8989 33.0588 25.3164 32.8139 25.7339C32.2936 26.623 31.7759 27.5134 31.2493 28.3988C30.9551 28.8944 30.4676 29.0079 29.9411 28.9978C27.3549 28.9499 24.7688 29.0142 22.1801 28.9247C19.1772 28.82 16.168 28.8969 13.1626 28.8944C12.1107 28.8944 11.0576 28.8831 10.0057 28.8957C9.48796 28.902 9.12302 28.6977 8.8692 28.2499C8.40324 27.4264 7.92844 26.6091 7.44985 25.7931C7.13795 25.2609 7.20992 24.7602 7.51299 24.2482C8.82122 22.0423 10.1193 19.8314 11.4187 17.6206C11.8241 16.932 12.2332 16.2459 12.6184 15.5459C12.8545 15.1171 13.0225 15.1448 13.2498 15.5522C13.8736 16.6721 14.51 17.7845 15.154 18.8944C15.476 19.4493 15.3055 19.9424 15.0151 20.4356C14.3433 21.5769 13.6867 22.7272 12.9972 23.8585C12.7005 24.3465 12.8457 24.4588 13.3571 24.4563C15.7147 24.4436 18.071 24.4512 20.4286 24.4512V24.4588V24.4575Z" fill="#F1E5D4"/>
</svg>
