<svg width="214" height="29" viewBox="0 0 214 29" fill="none" xmlns="http://www.w3.org/2000/svg">
<path d="M39.999 14.48V13.26H40.139C40.3657 13.26 40.579 13.2267 40.779 13.16C40.979 13.08 41.1657 12.94 41.339 12.74C41.5124 12.54 41.6657 12.2533 41.799 11.88L46.059 0.2H49.679L53.759 11.92C53.879 12.2267 54.019 12.48 54.179 12.68C54.339 12.88 54.519 13.0267 54.719 13.12C54.9324 13.2133 55.159 13.26 55.399 13.26H55.619V14.48H48.219V13.26H49.019C49.2324 13.26 49.4257 13.22 49.599 13.14C49.7724 13.06 49.859 12.8933 49.859 12.64C49.859 12.5067 49.8457 12.38 49.819 12.26C49.7924 12.1267 49.759 12.0067 49.719 11.9C49.6924 11.7933 49.6657 11.7133 49.639 11.66L49.019 9.84H44.459L43.999 11.28C43.9724 11.3867 43.9324 11.52 43.879 11.68C43.839 11.84 43.799 12.0067 43.759 12.18C43.7324 12.34 43.719 12.4867 43.719 12.62C43.719 12.82 43.7724 12.98 43.879 13.1C43.9857 13.2067 44.179 13.26 44.459 13.26H45.439V14.48H39.999ZM44.899 8.46H48.579L47.439 4.64C47.3724 4.4 47.299 4.16 47.219 3.92C47.1524 3.66667 47.0857 3.40667 47.019 3.14C46.9524 2.86 46.8924 2.57333 46.839 2.28C46.7857 2.49333 46.7257 2.70667 46.659 2.92C46.6057 3.12 46.5524 3.32 46.499 3.52C46.4457 3.72 46.3857 3.91333 46.319 4.1C46.2657 4.27333 46.2124 4.44667 46.159 4.62L44.899 8.46Z" fill="#F1E5D4"/>
<path d="M56.0407 14.48V13.26H57.1007C57.2207 13.26 57.3407 13.2267 57.4607 13.16C57.5807 13.08 57.6807 12.9667 57.7607 12.82C57.8407 12.6733 57.8807 12.5 57.8807 12.3V2.44C57.8807 2.21333 57.8341 2.02667 57.7407 1.88C57.6607 1.72 57.5474 1.60667 57.4007 1.54C57.2674 1.46 57.1141 1.42 56.9407 1.42H56.0407V0.2H63.7407V1.42H62.7607C62.5207 1.42 62.3407 1.46 62.2207 1.54C62.1007 1.60667 62.0141 1.71333 61.9607 1.86C61.9207 2.00667 61.9007 2.18667 61.9007 2.4V13.1H65.4607C65.7007 13.1 65.9141 13.0533 66.1007 12.96C66.3007 12.8533 66.4741 12.6733 66.6207 12.42C66.7807 12.1667 66.9207 11.8267 67.0407 11.4L67.4607 9.9H68.6407L68.5007 14.48H56.0407Z" fill="#F1E5D4"/>
<path d="M69.5759 14.48V13.26H70.6359C70.7559 13.26 70.8759 13.2267 70.9959 13.16C71.1159 13.08 71.2159 12.9667 71.2959 12.82C71.3759 12.6733 71.4159 12.5 71.4159 12.3V2.44C71.4159 2.21333 71.3692 2.02667 71.2759 1.88C71.1959 1.72 71.0826 1.60667 70.9359 1.54C70.8026 1.46 70.6492 1.42 70.4759 1.42H69.5759V0.2H77.2759V1.42H76.2959C76.0559 1.42 75.8759 1.46 75.7559 1.54C75.6359 1.60667 75.5492 1.71333 75.4959 1.86C75.4559 2.00667 75.4359 2.18667 75.4359 2.4V13.1H78.9959C79.2359 13.1 79.4492 13.0533 79.6359 12.96C79.8359 12.8533 80.0092 12.6733 80.1559 12.42C80.3159 12.1667 80.4559 11.8267 80.5759 11.4L80.9959 9.9H82.1759L82.0359 14.48H69.5759Z" fill="#F1E5D4"/>
<path d="M83.1111 14.48V13.26H84.1711C84.2911 13.26 84.4111 13.2267 84.5311 13.16C84.6511 13.08 84.7511 12.9733 84.8311 12.84C84.9111 12.6933 84.9511 12.52 84.9511 12.32V2.48C84.9511 2.24 84.9111 2.04 84.8311 1.88C84.7511 1.72 84.6511 1.60667 84.5311 1.54C84.4111 1.46 84.2911 1.42 84.1711 1.42H83.1111V0.2H90.8111V1.42H89.7111C89.5511 1.42 89.4111 1.46 89.2911 1.54C89.1844 1.62 89.0977 1.74 89.0311 1.9C88.9777 2.04667 88.9511 2.24667 88.9511 2.5V12.28C88.9511 12.4667 88.9844 12.64 89.0511 12.8C89.1311 12.9467 89.2244 13.06 89.3311 13.14C89.4511 13.22 89.5777 13.26 89.7111 13.26H90.8111V14.48H83.1111Z" fill="#F1E5D4"/>
<path d="M91.3467 14.48V13.26H91.4867C91.7133 13.26 91.9267 13.2267 92.1267 13.16C92.3267 13.08 92.5133 12.94 92.6867 12.74C92.86 12.54 93.0133 12.2533 93.1467 11.88L97.4067 0.2H101.027L105.107 11.92C105.227 12.2267 105.367 12.48 105.527 12.68C105.687 12.88 105.867 13.0267 106.067 13.12C106.28 13.2133 106.507 13.26 106.747 13.26H106.967V14.48H99.5667V13.26H100.367C100.58 13.26 100.773 13.22 100.947 13.14C101.12 13.06 101.207 12.8933 101.207 12.64C101.207 12.5067 101.193 12.38 101.167 12.26C101.14 12.1267 101.107 12.0067 101.067 11.9C101.04 11.7933 101.013 11.7133 100.987 11.66L100.367 9.84H95.8067L95.3467 11.28C95.32 11.3867 95.28 11.52 95.2267 11.68C95.1867 11.84 95.1467 12.0067 95.1067 12.18C95.08 12.34 95.0667 12.4867 95.0667 12.62C95.0667 12.82 95.12 12.98 95.2267 13.1C95.3333 13.2067 95.5267 13.26 95.8067 13.26H96.7867V14.48H91.3467ZM96.2467 8.46H99.9267L98.7867 4.64C98.72 4.4 98.6467 4.16 98.5667 3.92C98.5 3.66667 98.4333 3.40667 98.3667 3.14C98.3 2.86 98.24 2.57333 98.1867 2.28C98.1333 2.49333 98.0733 2.70667 98.0067 2.92C97.9533 3.12 97.9 3.32 97.8467 3.52C97.7933 3.72 97.7333 3.91333 97.6667 4.1C97.6133 4.27333 97.56 4.44667 97.5067 4.62L96.2467 8.46Z" fill="#F1E5D4"/>
<path d="M107.388 14.48V13.26H108.048C108.288 13.26 108.495 13.2333 108.668 13.18C108.855 13.1267 108.995 13.0133 109.088 12.84C109.182 12.6667 109.228 12.4067 109.228 12.06V2.54C109.228 2.20667 109.182 1.96667 109.088 1.82C108.995 1.66 108.868 1.55333 108.708 1.5C108.562 1.44667 108.402 1.42 108.228 1.42H107.388V0.2H112.408L119.388 9.38V2.54C119.388 2.26 119.342 2.04 119.248 1.88C119.168 1.72 119.055 1.60667 118.908 1.54C118.775 1.46 118.615 1.42 118.428 1.42H117.568V0.2H122.928V1.42H122.068C121.868 1.42 121.695 1.46 121.548 1.54C121.402 1.62 121.288 1.74667 121.208 1.92C121.128 2.09333 121.088 2.32667 121.088 2.62V14.48H118.948L110.928 3.82V12.06C110.928 12.4067 110.955 12.6667 111.008 12.84C111.075 13.0133 111.182 13.1267 111.328 13.18C111.475 13.2333 111.662 13.26 111.888 13.26H112.748V14.48H107.388Z" fill="#F1E5D4"/>
<path d="M131.442 14.68C129.828 14.68 128.482 14.3733 127.402 13.76C126.322 13.1467 125.508 12.2933 124.962 11.2C124.428 10.0933 124.162 8.8 124.162 7.32C124.162 5.88 124.435 4.61333 124.982 3.52C125.528 2.41333 126.342 1.55333 127.422 0.94C128.502 0.313333 129.835 0 131.422 0C132.528 0 133.442 0.106667 134.162 0.320001C134.895 0.533334 135.442 0.82 135.802 1.18C136.175 1.54 136.362 1.94 136.362 2.38C136.362 2.92667 136.108 3.39333 135.602 3.78C135.108 4.16667 134.342 4.36 133.302 4.36C133.302 3.90667 133.235 3.46 133.102 3.02C132.982 2.56667 132.768 2.19333 132.462 1.9C132.155 1.59333 131.735 1.44 131.202 1.44C130.482 1.44 129.915 1.67333 129.502 2.14C129.088 2.59333 128.795 3.26 128.622 4.14C128.448 5.00667 128.362 6.06667 128.362 7.32C128.362 8.66667 128.482 9.75333 128.722 10.58C128.962 11.3933 129.355 11.98 129.902 12.34C130.462 12.7 131.202 12.88 132.122 12.88C132.842 12.88 133.448 12.7733 133.942 12.56C134.448 12.3333 134.875 12.06 135.222 11.74C135.568 11.42 135.855 11.1133 136.082 10.82C136.175 10.9133 136.248 11.0533 136.302 11.24C136.355 11.4267 136.382 11.5933 136.382 11.74C136.382 12.0467 136.308 12.3733 136.162 12.72C136.028 13.0533 135.782 13.3733 135.422 13.68C135.062 13.9733 134.555 14.2133 133.902 14.4C133.262 14.5867 132.442 14.68 131.442 14.68Z" fill="#F1E5D4"/>
<path d="M137.662 14.48V13.26H138.682C138.869 13.26 139.022 13.22 139.142 13.14C139.262 13.0467 139.349 12.9267 139.402 12.78C139.469 12.6333 139.502 12.4667 139.502 12.28V2.5C139.502 2.18 139.462 1.94667 139.382 1.8C139.302 1.64 139.195 1.54 139.062 1.5C138.929 1.44667 138.789 1.42 138.642 1.42H137.662V0.2H149.522L149.582 4.02H147.922L147.822 3.02C147.795 2.66 147.735 2.38 147.642 2.18C147.549 1.96667 147.409 1.81333 147.222 1.72C147.049 1.62667 146.802 1.58 146.482 1.58H143.482V6.34H148.202V7.7H143.482V13.1H147.062C147.355 13.1 147.595 13.04 147.782 12.92C147.969 12.8 148.115 12.6333 148.222 12.42C148.342 12.2067 148.422 11.9533 148.462 11.66L148.622 10.66H150.262L150.122 14.48H137.662Z" fill="#F1E5D4"/>
<path d="M164.293 14.68C162.68 14.68 161.333 14.3733 160.253 13.76C159.173 13.1467 158.36 12.2933 157.813 11.2C157.28 10.0933 157.013 8.8 157.013 7.32C157.013 5.88 157.287 4.61333 157.833 3.52C158.38 2.41333 159.193 1.55333 160.273 0.94C161.353 0.313333 162.687 0 164.273 0C165.38 0 166.293 0.106667 167.013 0.320001C167.747 0.533334 168.293 0.82 168.653 1.18C169.027 1.54 169.213 1.94 169.213 2.38C169.213 2.92667 168.96 3.39333 168.453 3.78C167.96 4.16667 167.193 4.36 166.153 4.36C166.153 3.90667 166.087 3.46 165.953 3.02C165.833 2.56667 165.62 2.19333 165.313 1.9C165.007 1.59333 164.587 1.44 164.053 1.44C163.333 1.44 162.767 1.67333 162.353 2.14C161.94 2.59333 161.647 3.26 161.473 4.14C161.3 5.00667 161.213 6.06667 161.213 7.32C161.213 8.66667 161.333 9.75333 161.573 10.58C161.813 11.3933 162.207 11.98 162.753 12.34C163.313 12.7 164.053 12.88 164.973 12.88C165.693 12.88 166.3 12.7733 166.793 12.56C167.3 12.3333 167.727 12.06 168.073 11.74C168.42 11.42 168.707 11.1133 168.933 10.82C169.027 10.9133 169.1 11.0533 169.153 11.24C169.207 11.4267 169.233 11.5933 169.233 11.74C169.233 12.0467 169.16 12.3733 169.013 12.72C168.88 13.0533 168.633 13.3733 168.273 13.68C167.913 13.9733 167.407 14.2133 166.753 14.4C166.113 14.5867 165.293 14.68 164.293 14.68Z" fill="#F1E5D4"/>
<path d="M170.233 14.48V13.26H170.373C170.6 13.26 170.813 13.2267 171.013 13.16C171.213 13.08 171.4 12.94 171.573 12.74C171.747 12.54 171.9 12.2533 172.033 11.88L176.293 0.2H179.913L183.993 11.92C184.113 12.2267 184.253 12.48 184.413 12.68C184.573 12.88 184.753 13.0267 184.953 13.12C185.167 13.2133 185.393 13.26 185.633 13.26H185.853V14.48H178.453V13.26H179.253C179.467 13.26 179.66 13.22 179.833 13.14C180.007 13.06 180.093 12.8933 180.093 12.64C180.093 12.5067 180.08 12.38 180.053 12.26C180.027 12.1267 179.993 12.0067 179.953 11.9C179.927 11.7933 179.9 11.7133 179.873 11.66L179.253 9.84H174.693L174.233 11.28C174.207 11.3867 174.167 11.52 174.113 11.68C174.073 11.84 174.033 12.0067 173.993 12.18C173.967 12.34 173.953 12.4867 173.953 12.62C173.953 12.82 174.007 12.98 174.113 13.1C174.22 13.2067 174.413 13.26 174.693 13.26H175.673V14.48H170.233ZM175.133 8.46H178.813L177.673 4.64C177.607 4.4 177.533 4.16 177.453 3.92C177.387 3.66667 177.32 3.40667 177.253 3.14C177.187 2.86 177.127 2.57333 177.073 2.28C177.02 2.49333 176.96 2.70667 176.893 2.92C176.84 3.12 176.787 3.32 176.733 3.52C176.68 3.72 176.62 3.91333 176.553 4.1C176.5 4.27333 176.447 4.44667 176.393 4.62L175.133 8.46Z" fill="#F1E5D4"/>
<path d="M186.275 14.48V13.26H187.035C187.208 13.26 187.375 13.24 187.535 13.2C187.695 13.1467 187.828 13.04 187.935 12.88C188.055 12.72 188.115 12.48 188.115 12.16V2.54C188.115 2.20667 188.048 1.96667 187.915 1.82C187.795 1.66 187.648 1.55333 187.475 1.5C187.315 1.44667 187.168 1.42 187.035 1.42H186.275V0.2H193.495C194.988 0.2 196.175 0.36 197.055 0.679999C197.935 0.986666 198.562 1.42667 198.935 2C199.322 2.56 199.515 3.22 199.515 3.98C199.515 4.74 199.382 5.36667 199.115 5.86C198.862 6.35333 198.522 6.74 198.095 7.02C197.668 7.3 197.195 7.51333 196.675 7.66L198.955 11.52C199.142 11.8267 199.308 12.0933 199.455 12.32C199.602 12.5333 199.742 12.7133 199.875 12.86C200.022 12.9933 200.168 13.0933 200.315 13.16C200.462 13.2267 200.615 13.26 200.775 13.26H200.915V14.48H199.975C199.402 14.48 198.868 14.46 198.375 14.42C197.882 14.3667 197.435 14.28 197.035 14.16C196.635 14.0267 196.288 13.84 195.995 13.6C195.702 13.36 195.462 13.0533 195.275 12.68L193.175 8.36H192.115V12.16C192.115 12.48 192.155 12.72 192.235 12.88C192.315 13.04 192.428 13.1467 192.575 13.2C192.735 13.24 192.908 13.26 193.095 13.26H193.575V14.48H186.275ZM193.015 7.04C193.535 7.04 193.962 6.94 194.295 6.74C194.628 6.52667 194.868 6.21333 195.015 5.8C195.175 5.37333 195.255 4.84667 195.255 4.22C195.255 3.58 195.168 3.06667 194.995 2.68C194.822 2.28 194.562 1.99333 194.215 1.82C193.882 1.63333 193.468 1.54 192.975 1.54H192.115V7.04H193.015Z" fill="#F1E5D4"/>
<path d="M201.334 14.48V13.26H202.354C202.54 13.26 202.694 13.22 202.814 13.14C202.934 13.0467 203.02 12.9267 203.074 12.78C203.14 12.6333 203.174 12.4667 203.174 12.28V2.5C203.174 2.18 203.134 1.94667 203.054 1.8C202.974 1.64 202.867 1.54 202.734 1.5C202.6 1.44667 202.46 1.42 202.314 1.42H201.334V0.2H213.194L213.254 4.02H211.594L211.494 3.02C211.467 2.66 211.407 2.38 211.314 2.18C211.22 1.96667 211.08 1.81333 210.894 1.72C210.72 1.62667 210.474 1.58 210.154 1.58H207.154V6.34H211.874V7.7H207.154V13.1H210.734C211.027 13.1 211.267 13.04 211.454 12.92C211.64 12.8 211.787 12.6333 211.894 12.42C212.014 12.2067 212.094 11.9533 212.134 11.66L212.294 10.66H213.934L213.794 14.48H201.334Z" fill="#F1E5D4"/>
<path d="M41.6829 28.4793V27.8913H42.1029C42.2469 27.8913 42.3749 27.8753 42.4869 27.8433C42.5989 27.8033 42.6869 27.7273 42.7509 27.6153C42.8229 27.5033 42.8589 27.3313 42.8589 27.0993V20.5953H41.8269C41.5869 20.5953 41.3989 20.6353 41.2629 20.7153C41.1269 20.7873 41.0269 20.8913 40.9629 21.0273C40.8989 21.1633 40.8549 21.3193 40.8309 21.4953L40.7589 22.1553H40.0269L40.0869 19.9113H47.2869L47.3469 22.1553H46.6149L46.5309 21.4953C46.5149 21.3193 46.4709 21.1633 46.3989 21.0273C46.3349 20.8913 46.2349 20.7873 46.0989 20.7153C45.9629 20.6353 45.7749 20.5953 45.5349 20.5953H44.5029V27.0873C44.5029 27.3193 44.5349 27.4953 44.5989 27.6153C44.6629 27.7273 44.7549 27.8033 44.8749 27.8433C44.9949 27.8753 45.1229 27.8913 45.2589 27.8913H45.6789V28.4793H41.6829Z" fill="#F1E5D4"/>
<path d="M47.8952 28.4793V27.8913H48.2672C48.4032 27.8913 48.5272 27.8753 48.6392 27.8433C48.7512 27.8113 48.8432 27.7433 48.9152 27.6393C48.9872 27.5273 49.0232 27.3633 49.0232 27.1473V21.3033C49.0232 21.0633 48.9872 20.8873 48.9152 20.7753C48.8512 20.6633 48.7632 20.5913 48.6512 20.5593C48.5392 20.5193 48.4112 20.4993 48.2672 20.4993H47.8952V19.9113H54.3152L54.3752 22.0833H53.6192L53.5592 21.5313C53.5432 21.3393 53.4992 21.1753 53.4272 21.0393C53.3632 20.9033 53.2712 20.7953 53.1512 20.7153C53.0312 20.6353 52.8752 20.5953 52.6832 20.5953H50.6672V23.6673H53.5232V24.3393H50.6672V27.7953H53.0312C53.2232 27.7953 53.3792 27.7553 53.4992 27.6753C53.6272 27.5873 53.7272 27.4753 53.7992 27.3393C53.8712 27.1953 53.9192 27.0353 53.9432 26.8593L54.0272 26.3073H54.7832L54.6992 28.4793H47.8952Z" fill="#F1E5D4"/>
<path d="M59.8424 28.5993C58.9624 28.5993 58.2264 28.4153 57.6344 28.0473C57.0504 27.6793 56.6104 27.1673 56.3144 26.5113C56.0264 25.8473 55.8824 25.0713 55.8824 24.1833C55.8824 23.3193 56.0344 22.5593 56.3384 21.9033C56.6424 21.2393 57.0944 20.7233 57.6944 20.3553C58.2944 19.9793 59.0344 19.7913 59.9144 19.7913C60.4984 19.7913 60.9824 19.8513 61.3664 19.9713C61.7584 20.0913 62.0504 20.2553 62.2424 20.4633C62.4344 20.6713 62.5304 20.9033 62.5304 21.1593C62.5304 21.4473 62.4104 21.6833 62.1704 21.8673C61.9384 22.0433 61.6144 22.1313 61.1984 22.1313C61.1984 21.8753 61.1544 21.6233 61.0664 21.3753C60.9864 21.1273 60.8464 20.9233 60.6464 20.7633C60.4544 20.5953 60.1904 20.5113 59.8544 20.5113C59.3104 20.5113 58.8744 20.6553 58.5464 20.9433C58.2264 21.2313 57.9944 21.6473 57.8504 22.1913C57.7064 22.7353 57.6344 23.3993 57.6344 24.1833C57.6344 24.9273 57.7144 25.5633 57.8744 26.0913C58.0424 26.6193 58.3064 27.0193 58.6664 27.2913C59.0264 27.5633 59.4984 27.6993 60.0824 27.6993C60.4744 27.6993 60.8104 27.6473 61.0904 27.5433C61.3704 27.4313 61.6064 27.2913 61.7984 27.1233C61.9904 26.9553 62.1544 26.7833 62.2904 26.6073C62.3544 26.6553 62.4064 26.7233 62.4464 26.8113C62.4864 26.8993 62.5064 26.9993 62.5064 27.1113C62.5064 27.2713 62.4584 27.4393 62.3624 27.6153C62.2664 27.7833 62.1144 27.9433 61.9064 28.0953C61.6984 28.2473 61.4224 28.3713 61.0784 28.4673C60.7424 28.5553 60.3304 28.5993 59.8424 28.5993Z" fill="#F1E5D4"/>
<path d="M63.3757 28.4793V27.8913H63.7477C63.8837 27.8913 64.0077 27.8753 64.1197 27.8433C64.2397 27.8033 64.3317 27.7273 64.3957 27.6153C64.4677 27.4953 64.5037 27.3193 64.5037 27.0873V21.2553C64.5037 21.0313 64.4677 20.8673 64.3957 20.7633C64.3237 20.6513 64.2317 20.5793 64.1197 20.5473C64.0077 20.5153 63.8837 20.4993 63.7477 20.4993H63.3757V19.9113H67.2637V20.4993H66.8917C66.7557 20.4993 66.6277 20.5193 66.5077 20.5593C66.3957 20.5913 66.3037 20.6633 66.2317 20.7753C66.1677 20.8873 66.1357 21.0633 66.1357 21.3033V23.6673H69.5557V21.3033C69.5557 21.0633 69.5197 20.8873 69.4477 20.7753C69.3837 20.6633 69.2957 20.5913 69.1837 20.5593C69.0717 20.5193 68.9437 20.4993 68.7997 20.4993H68.4277V19.9113H72.3157V20.4993H71.9437C71.8157 20.4993 71.6917 20.5193 71.5717 20.5593C71.4517 20.5913 71.3597 20.6633 71.2957 20.7753C71.2317 20.8873 71.1997 21.0633 71.1997 21.3033V27.1473C71.1997 27.3633 71.2317 27.5273 71.2957 27.6393C71.3677 27.7433 71.4597 27.8113 71.5717 27.8433C71.6917 27.8753 71.8157 27.8913 71.9437 27.8913H72.3157V28.4793H68.4277V27.8913H68.7997C68.9437 27.8913 69.0717 27.8753 69.1837 27.8433C69.2957 27.8033 69.3837 27.7273 69.4477 27.6153C69.5197 27.4953 69.5557 27.3193 69.5557 27.0873V24.3513H66.1357V27.0873C66.1357 27.3193 66.1677 27.4953 66.2317 27.6153C66.3037 27.7273 66.3957 27.8033 66.5077 27.8433C66.6277 27.8753 66.7557 27.8913 66.8917 27.8913H67.2637V28.4793H63.3757Z" fill="#F1E5D4"/>
<path d="M73.0788 28.4793V27.8913H73.4508C73.5868 27.8913 73.7108 27.8753 73.8228 27.8433C73.9428 27.8033 74.0348 27.7273 74.0988 27.6153C74.1708 27.4953 74.2068 27.3193 74.2068 27.0873V21.2553C74.2068 21.0313 74.1708 20.8673 74.0988 20.7633C74.0268 20.6513 73.9348 20.5793 73.8228 20.5473C73.7108 20.5153 73.5868 20.4993 73.4508 20.4993H73.0788V19.9113H75.5628L79.8228 26.1393V21.2553C79.8228 21.0313 79.7868 20.8673 79.7148 20.7633C79.6428 20.6513 79.5508 20.5793 79.4388 20.5473C79.3268 20.5153 79.2028 20.4993 79.0668 20.4993H78.6948V19.9113H81.7788V20.4993H81.4068C81.2788 20.4993 81.1548 20.5193 81.0348 20.5593C80.9148 20.5913 80.8228 20.6633 80.7588 20.7753C80.6948 20.8873 80.6628 21.0633 80.6628 21.3033V28.4793H79.6548L75.0348 21.7593V27.0873C75.0348 27.3193 75.0668 27.4953 75.1308 27.6153C75.2028 27.7273 75.2948 27.8033 75.4068 27.8433C75.5268 27.8753 75.6548 27.8913 75.7908 27.8913H76.1628V28.4793H73.0788Z" fill="#F1E5D4"/>
<path d="M86.6664 28.5993C85.7784 28.5993 85.0424 28.4153 84.4584 28.0473C83.8744 27.6793 83.4344 27.1633 83.1384 26.4993C82.8504 25.8353 82.7064 25.0593 82.7064 24.1713C82.7064 23.2833 82.8504 22.5113 83.1384 21.8553C83.4344 21.1993 83.8744 20.6913 84.4584 20.3313C85.0504 19.9633 85.7904 19.7793 86.6784 19.7793C87.5264 19.7793 88.2424 19.9633 88.8264 20.3313C89.4104 20.6913 89.8544 21.2033 90.1584 21.8673C90.4624 22.5233 90.6144 23.2953 90.6144 24.1833C90.6144 25.0713 90.4624 25.8473 90.1584 26.5113C89.8544 27.1673 89.4064 27.6793 88.8144 28.0473C88.2304 28.4153 87.5144 28.5993 86.6664 28.5993ZM86.6664 27.8673C87.0744 27.8673 87.4144 27.7873 87.6864 27.6273C87.9664 27.4593 88.1904 27.2193 88.3584 26.9073C88.5344 26.5873 88.6624 26.1993 88.7424 25.7433C88.8224 25.2873 88.8624 24.7673 88.8624 24.1833C88.8624 23.6073 88.8224 23.0913 88.7424 22.6353C88.6624 22.1793 88.5384 21.7953 88.3704 21.4833C88.2024 21.1633 87.9784 20.9233 87.6984 20.7633C87.4184 20.5953 87.0784 20.5113 86.6784 20.5113C86.2784 20.5113 85.9344 20.5953 85.6464 20.7633C85.3664 20.9233 85.1384 21.1633 84.9624 21.4833C84.7944 21.7953 84.6704 22.1793 84.5904 22.6353C84.5104 23.0913 84.4704 23.6073 84.4704 24.1833C84.4704 24.7673 84.5104 25.2873 84.5904 25.7433C84.6704 26.1993 84.7944 26.5873 84.9624 26.9073C85.1384 27.2193 85.3664 27.4593 85.6464 27.6273C85.9344 27.7873 86.2744 27.8673 86.6664 27.8673Z" fill="#F1E5D4"/>
<path d="M91.6647 28.4793V27.8913H92.0367C92.1807 27.8913 92.3087 27.8753 92.4207 27.8433C92.5327 27.8033 92.6207 27.7273 92.6847 27.6153C92.7567 27.4953 92.7927 27.3193 92.7927 27.0873V21.3033C92.7927 21.0633 92.7567 20.8873 92.6847 20.7753C92.6207 20.6633 92.5327 20.5913 92.4207 20.5593C92.3087 20.5193 92.1807 20.4993 92.0367 20.4993H91.6647V19.9113H95.5527V20.4993H95.1807C95.0447 20.4993 94.9207 20.5153 94.8087 20.5473C94.6967 20.5793 94.6047 20.6513 94.5327 20.7633C94.4687 20.8673 94.4367 21.0313 94.4367 21.2553V27.7953H96.7167C96.9167 27.7953 97.0847 27.7513 97.2207 27.6633C97.3647 27.5753 97.4767 27.4513 97.5567 27.2913C97.6367 27.1233 97.6967 26.9393 97.7367 26.7393L97.8927 25.8393H98.5527L98.4687 28.4793H91.6647Z" fill="#F1E5D4"/>
<path d="M103.6 28.5993C102.712 28.5993 101.976 28.4153 101.392 28.0473C100.808 27.6793 100.368 27.1633 100.072 26.4993C99.784 25.8353 99.6399 25.0593 99.6399 24.1713C99.6399 23.2833 99.784 22.5113 100.072 21.8553C100.368 21.1993 100.808 20.6913 101.392 20.3313C101.984 19.9633 102.724 19.7793 103.612 19.7793C104.46 19.7793 105.176 19.9633 105.76 20.3313C106.344 20.6913 106.788 21.2033 107.092 21.8673C107.396 22.5233 107.548 23.2953 107.548 24.1833C107.548 25.0713 107.396 25.8473 107.092 26.5113C106.788 27.1673 106.34 27.6793 105.748 28.0473C105.164 28.4153 104.448 28.5993 103.6 28.5993ZM103.6 27.8673C104.008 27.8673 104.348 27.7873 104.62 27.6273C104.9 27.4593 105.124 27.2193 105.292 26.9073C105.468 26.5873 105.596 26.1993 105.676 25.7433C105.756 25.2873 105.796 24.7673 105.796 24.1833C105.796 23.6073 105.756 23.0913 105.676 22.6353C105.596 22.1793 105.472 21.7953 105.304 21.4833C105.136 21.1633 104.912 20.9233 104.632 20.7633C104.352 20.5953 104.012 20.5113 103.612 20.5113C103.212 20.5113 102.868 20.5953 102.58 20.7633C102.3 20.9233 102.072 21.1633 101.896 21.4833C101.728 21.7953 101.604 22.1793 101.524 22.6353C101.444 23.0913 101.404 23.6073 101.404 24.1833C101.404 24.7673 101.444 25.2873 101.524 25.7433C101.604 26.1993 101.728 26.5873 101.896 26.9073C102.072 27.2193 102.3 27.4593 102.58 27.6273C102.868 27.7873 103.208 27.8673 103.6 27.8673Z" fill="#F1E5D4"/>
<path d="M113.194 28.5993C112.226 28.5993 111.422 28.4153 110.782 28.0473C110.142 27.6793 109.666 27.1673 109.354 26.5113C109.042 25.8473 108.886 25.0713 108.886 24.1833C108.886 23.3193 109.05 22.5593 109.378 21.9033C109.706 21.2393 110.194 20.7233 110.842 20.3553C111.498 19.9793 112.302 19.7913 113.254 19.7913C113.894 19.7913 114.426 19.8513 114.85 19.9713C115.274 20.0913 115.59 20.2553 115.798 20.4633C116.014 20.6713 116.122 20.9033 116.122 21.1593C116.122 21.4313 115.998 21.6593 115.75 21.8433C115.51 22.0273 115.174 22.1193 114.742 22.1193C114.742 21.8233 114.686 21.5553 114.574 21.3153C114.47 21.0673 114.306 20.8713 114.082 20.7273C113.866 20.5833 113.578 20.5113 113.218 20.5113C112.594 20.5113 112.094 20.6553 111.718 20.9433C111.342 21.2313 111.066 21.6473 110.89 22.1913C110.722 22.7353 110.638 23.3993 110.638 24.1833C110.638 24.9673 110.726 25.6313 110.902 26.1753C111.086 26.7113 111.378 27.1233 111.778 27.4113C112.178 27.6913 112.71 27.8313 113.374 27.8313C113.558 27.8313 113.734 27.8233 113.902 27.8073C114.078 27.7913 114.242 27.7633 114.394 27.7233V25.8993C114.394 25.6753 114.354 25.5033 114.274 25.3833C114.202 25.2633 114.098 25.1793 113.962 25.1313C113.834 25.0833 113.678 25.0593 113.494 25.0593H113.374V24.4713H116.902V25.0593H116.782C116.622 25.0593 116.486 25.0873 116.374 25.1433C116.262 25.1913 116.174 25.2793 116.11 25.4073C116.054 25.5273 116.026 25.7073 116.026 25.9473V27.9873C115.586 28.1953 115.138 28.3513 114.682 28.4553C114.226 28.5513 113.73 28.5993 113.194 28.5993Z" fill="#F1E5D4"/>
<path d="M117.575 28.4793V27.8913H117.947C118.091 27.8913 118.219 27.8753 118.331 27.8433C118.443 27.8033 118.531 27.7273 118.595 27.6153C118.667 27.4953 118.703 27.3193 118.703 27.0873V21.3033C118.703 21.0633 118.667 20.8873 118.595 20.7753C118.531 20.6633 118.443 20.5913 118.331 20.5593C118.219 20.5193 118.091 20.4993 117.947 20.4993H117.575V19.9113H121.463V20.4993H121.091C120.955 20.4993 120.827 20.5193 120.707 20.5593C120.595 20.5913 120.507 20.6633 120.443 20.7753C120.379 20.8873 120.347 21.0633 120.347 21.3033V27.0873C120.347 27.3193 120.379 27.4953 120.443 27.6153C120.507 27.7273 120.595 27.8033 120.707 27.8433C120.827 27.8753 120.955 27.8913 121.091 27.8913H121.463V28.4793H117.575Z" fill="#F1E5D4"/>
<path d="M122.227 28.4793V27.8913H122.599C122.735 27.8913 122.859 27.8753 122.971 27.8433C123.083 27.8113 123.175 27.7433 123.247 27.6393C123.319 27.5273 123.355 27.3633 123.355 27.1473V21.3033C123.355 21.0633 123.319 20.8873 123.247 20.7753C123.183 20.6633 123.095 20.5913 122.983 20.5593C122.871 20.5193 122.743 20.4993 122.599 20.4993H122.227V19.9113H128.647L128.707 22.0833H127.951L127.891 21.5313C127.875 21.3393 127.831 21.1753 127.759 21.0393C127.695 20.9033 127.603 20.7953 127.483 20.7153C127.363 20.6353 127.207 20.5953 127.015 20.5953H124.999V23.6673H127.855V24.3393H124.999V27.7953H127.363C127.555 27.7953 127.711 27.7553 127.831 27.6753C127.959 27.5873 128.059 27.4753 128.131 27.3393C128.203 27.1953 128.251 27.0353 128.275 26.8593L128.359 26.3073H129.115L129.031 28.4793H122.227Z" fill="#F1E5D4"/>
<path d="M132.638 28.5993C132.15 28.5993 131.738 28.5553 131.402 28.4673C131.066 28.3713 130.794 28.2433 130.586 28.0833C130.378 27.9233 130.226 27.7433 130.13 27.5433C130.034 27.3353 129.986 27.1273 129.986 26.9193C129.986 26.6873 130.038 26.4993 130.142 26.3553C130.246 26.2033 130.386 26.0913 130.562 26.0193C130.746 25.9473 130.942 25.9113 131.15 25.9113C131.158 26.3193 131.226 26.6753 131.354 26.9793C131.482 27.2833 131.666 27.5193 131.906 27.6873C132.154 27.8473 132.45 27.9273 132.794 27.9273C133.29 27.9273 133.674 27.8033 133.946 27.5553C134.226 27.2993 134.366 26.9633 134.366 26.5473C134.366 26.2673 134.298 26.0273 134.162 25.8273C134.026 25.6273 133.814 25.4433 133.526 25.2753C133.238 25.1073 132.866 24.9313 132.41 24.7473C132.018 24.5873 131.678 24.4153 131.39 24.2313C131.102 24.0473 130.87 23.8513 130.694 23.6433C130.518 23.4353 130.386 23.2073 130.298 22.9593C130.218 22.7033 130.178 22.4193 130.178 22.1073C130.178 21.6353 130.302 21.2273 130.55 20.8833C130.798 20.5313 131.134 20.2633 131.558 20.0793C131.982 19.8873 132.466 19.7913 133.01 19.7913C133.554 19.7913 134.006 19.8553 134.366 19.9833C134.726 20.1033 134.994 20.2673 135.17 20.4753C135.354 20.6833 135.446 20.9113 135.446 21.1593C135.446 21.4313 135.338 21.6553 135.122 21.8313C134.906 21.9993 134.586 22.0833 134.162 22.0833C134.162 21.8513 134.118 21.6113 134.03 21.3633C133.95 21.1153 133.814 20.9073 133.622 20.7393C133.438 20.5633 133.186 20.4753 132.866 20.4753C132.618 20.4753 132.394 20.5233 132.194 20.6193C132.002 20.7073 131.85 20.8433 131.738 21.0273C131.626 21.2033 131.57 21.4193 131.57 21.6753C131.57 21.9393 131.626 22.1713 131.738 22.3713C131.85 22.5713 132.046 22.7633 132.326 22.9473C132.606 23.1313 133.002 23.3273 133.514 23.5353C134.034 23.7433 134.458 23.9673 134.786 24.2073C135.122 24.4393 135.37 24.7073 135.53 25.0113C135.698 25.3073 135.782 25.6553 135.782 26.0553C135.782 26.5673 135.65 27.0153 135.386 27.3993C135.13 27.7753 134.766 28.0713 134.294 28.2873C133.83 28.4953 133.278 28.5993 132.638 28.5993Z" fill="#F1E5D4"/>
<path d="M21.6696 22.6867C19.9446 22.6867 18.2184 22.7005 16.4935 22.6804C15.6461 22.6703 15.6285 22.6072 16.0464 21.8997C16.6235 20.9222 17.2183 19.9549 17.7663 18.9611C18.154 18.2598 18.7286 18.0328 19.4925 18.0631C20.6063 18.1072 21.7213 18.1186 22.8364 18.1199C23.5738 18.1199 23.7228 17.8285 23.3415 17.1651C21.5218 13.9932 19.6971 10.8238 17.8737 7.65317C17.486 6.97843 17.0693 6.32008 16.7157 5.62769C16.3318 4.87349 15.7093 4.59602 14.915 4.58972C14.0311 4.58341 13.1471 4.56954 12.2632 4.57963C11.7682 4.58594 11.729 4.41567 11.9614 4.02344C12.5953 2.95773 13.2178 1.88445 13.8252 0.803601C14.1384 0.251196 14.5905 -0.00861089 15.2168 0.000217495C16.1424 0.0140907 17.068 0.0178743 17.9936 0.0367923C18.5695 0.048143 18.9672 0.325607 19.2577 0.831347C22.4904 6.46512 25.7268 12.0951 28.9797 17.7163C29.4419 18.5146 29.4508 19.2423 28.9532 20.018C28.5112 20.7078 28.0996 21.4192 27.717 22.1431C27.4922 22.5668 27.2093 22.7434 26.7206 22.7358C25.0374 22.7106 23.3541 22.7258 21.6708 22.7258C21.6708 22.7119 21.6708 22.6993 21.6708 22.6854L21.6696 22.6867Z" fill="#F1E5D4"/>
<path d="M4.59552 28.9129C3.98561 28.9129 3.37569 28.9053 2.76577 28.9154C2.25308 28.9243 1.87804 28.7124 1.62549 28.2684C1.17847 27.4827 0.754174 26.6844 0.273058 25.9201C-0.125977 25.2857 -0.0641015 24.732 0.30589 24.104C1.99169 21.2448 3.64971 18.368 5.31657 15.4963C6.85715 12.844 8.4192 10.203 9.92568 7.53181C10.427 6.64267 11.071 6.19116 12.109 6.27818C12.7353 6.33115 13.373 6.32737 14.0006 6.2807C14.8252 6.22016 15.3329 6.58213 15.7218 7.28335C17.0187 9.61531 18.3471 11.9296 19.6642 14.2502C19.9862 14.8165 20.3082 15.3828 20.634 15.9465C20.8386 16.3009 20.7678 16.5141 20.3322 16.5052C18.9457 16.4788 17.5579 16.4573 16.1714 16.4018C15.6208 16.3804 15.3505 15.9453 15.1081 15.5152C14.4893 14.4167 13.8706 13.3182 13.2518 12.2209C12.9071 11.6093 12.8705 11.6055 12.5257 12.1995C10.1707 16.2505 7.81938 20.3027 5.46431 24.3537C5.1865 24.8329 5.18145 25.2996 5.46431 25.7826C5.96311 26.6339 6.44548 27.4966 6.94175 28.3504C7.16779 28.7401 7.09455 28.928 6.61596 28.9192C5.9429 28.9079 5.26984 28.9167 4.59679 28.9167V28.9142L4.59552 28.9129Z" fill="#F1E5D4"/>
<path d="M20.4281 24.4565C22.7011 24.4565 24.9741 24.4389 27.2471 24.4666C28.0363 24.4767 28.5541 24.1778 28.9165 23.4804C29.3332 22.6795 29.8307 21.9215 30.2664 21.1295C30.5114 20.6843 30.6881 20.7612 30.9041 21.1409C31.538 22.2558 32.1795 23.3656 32.8197 24.4767C33.0622 24.898 33.0584 25.3154 32.8134 25.7329C32.2931 26.622 31.7754 27.5124 31.2488 28.3978C30.9546 28.8934 30.4672 29.007 29.9406 28.9969C27.3544 28.9489 24.7683 29.0133 22.1796 28.9237C19.1767 28.819 16.1675 28.896 13.1621 28.8934C12.1102 28.8934 11.0571 28.8821 10.0052 28.8947C9.48747 28.901 9.12253 28.6967 8.86872 28.249C8.40275 27.4254 7.92795 26.6081 7.44936 25.7922C7.13746 25.2599 7.20943 24.7592 7.5125 24.2472C8.82073 22.0413 10.1189 19.8305 11.4183 17.6196C11.8236 16.931 12.2327 16.2449 12.6179 15.5449C12.854 15.1161 13.022 15.1439 13.2493 15.5512C13.8731 16.6712 14.5095 17.7835 15.1535 18.8934C15.4755 19.4483 15.3051 19.9415 15.0146 20.4346C14.3428 21.576 13.6862 22.7262 12.9967 23.8575C12.7 24.3456 12.8452 24.4578 13.3566 24.4553C15.7142 24.4427 18.0705 24.4502 20.4281 24.4502V24.4578V24.4565Z" fill="#F1E5D4"/>
</svg>
