<svg width="214" height="29" viewBox="0 0 214 29" fill="none" xmlns="http://www.w3.org/2000/svg">
<path d="M40 14.4802V13.2602H40.14C40.3667 13.2602 40.58 13.2269 40.78 13.1602C40.98 13.0802 41.1667 12.9402 41.34 12.7402C41.5133 12.5402 41.6667 12.2536 41.8 11.8802L46.06 0.200244H49.68L53.76 11.9202C53.88 12.2269 54.02 12.4802 54.18 12.6802C54.34 12.8802 54.52 13.0269 54.72 13.1202C54.9333 13.2136 55.16 13.2602 55.4 13.2602H55.62V14.4802H48.22V13.2602H49.02C49.2333 13.2602 49.4267 13.2202 49.6 13.1402C49.7733 13.0602 49.86 12.8936 49.86 12.6402C49.86 12.5069 49.8467 12.3802 49.82 12.2602C49.7933 12.1269 49.76 12.0069 49.72 11.9002C49.6933 11.7936 49.6667 11.7136 49.64 11.6602L49.02 9.84025H44.46L44 11.2802C43.9733 11.3869 43.9333 11.5202 43.88 11.6802C43.84 11.8402 43.8 12.0069 43.76 12.1802C43.7333 12.3402 43.72 12.4869 43.72 12.6202C43.72 12.8202 43.7733 12.9802 43.88 13.1002C43.9867 13.2069 44.18 13.2602 44.46 13.2602H45.44V14.4802H40ZM44.9 8.46024H48.58L47.44 4.64024C47.3733 4.40024 47.3 4.16024 47.22 3.92025C47.1533 3.66691 47.0867 3.40691 47.02 3.14024C46.9533 2.86024 46.8933 2.57358 46.84 2.28024C46.7867 2.49358 46.7267 2.70691 46.66 2.92024C46.6067 3.12024 46.5533 3.32024 46.5 3.52024C46.4467 3.72024 46.3867 3.91358 46.32 4.10024C46.2667 4.27358 46.2133 4.44691 46.16 4.62024L44.9 8.46024Z" fill="#F1E5D4"/>
<path d="M56.0417 14.4802V13.2602H57.1017C57.2217 13.2602 57.3417 13.2269 57.4617 13.1602C57.5817 13.0802 57.6817 12.9669 57.7617 12.8202C57.8417 12.6736 57.8817 12.5002 57.8817 12.3002V2.44024C57.8817 2.21358 57.8351 2.02691 57.7417 1.88024C57.6617 1.72024 57.5484 1.60691 57.4017 1.54024C57.2684 1.46024 57.1151 1.42024 56.9417 1.42024H56.0417V0.200244H63.7417V1.42024H62.7617C62.5217 1.42024 62.3417 1.46024 62.2217 1.54024C62.1017 1.60691 62.0151 1.71358 61.9617 1.86024C61.9217 2.00691 61.9017 2.18691 61.9017 2.40024V13.1002H65.4617C65.7017 13.1002 65.9151 13.0536 66.1017 12.9602C66.3017 12.8536 66.4751 12.6736 66.6217 12.4202C66.7817 12.1669 66.9217 11.8269 67.0417 11.4002L67.4617 9.90024H68.6417L68.5017 14.4802H56.0417Z" fill="#F1E5D4"/>
<path d="M69.5769 14.4802V13.2602H70.6369C70.7569 13.2602 70.8769 13.2269 70.9969 13.1602C71.1169 13.0802 71.2169 12.9669 71.2969 12.8202C71.3769 12.6736 71.4169 12.5002 71.4169 12.3002V2.44024C71.4169 2.21358 71.3702 2.02691 71.2769 1.88024C71.1969 1.72024 71.0835 1.60691 70.9369 1.54024C70.8035 1.46024 70.6502 1.42024 70.4769 1.42024H69.5769V0.200244H77.2769V1.42024H76.2969C76.0569 1.42024 75.8769 1.46024 75.7569 1.54024C75.6369 1.60691 75.5502 1.71358 75.4969 1.86024C75.4569 2.00691 75.4369 2.18691 75.4369 2.40024V13.1002H78.9969C79.2369 13.1002 79.4502 13.0536 79.6369 12.9602C79.8369 12.8536 80.0102 12.6736 80.1569 12.4202C80.3169 12.1669 80.4569 11.8269 80.5769 11.4002L80.9969 9.90024H82.1769L82.0369 14.4802H69.5769Z" fill="#F1E5D4"/>
<path d="M83.112 14.4802V13.2602H84.172C84.292 13.2602 84.412 13.2269 84.532 13.1602C84.652 13.0802 84.752 12.9736 84.832 12.8402C84.912 12.6936 84.952 12.5202 84.952 12.3202V2.48024C84.952 2.24024 84.912 2.04024 84.832 1.88024C84.752 1.72024 84.652 1.60691 84.532 1.54024C84.412 1.46024 84.292 1.42024 84.172 1.42024H83.112V0.200244H90.812V1.42024H89.712C89.552 1.42024 89.412 1.46024 89.292 1.54024C89.1854 1.62024 89.0987 1.74024 89.032 1.90024C88.9787 2.04691 88.952 2.24691 88.952 2.50024V12.2802C88.952 12.4669 88.9854 12.6402 89.052 12.8002C89.132 12.9469 89.2254 13.0602 89.332 13.1402C89.452 13.2202 89.5787 13.2602 89.712 13.2602H90.812V14.4802H83.112Z" fill="#F1E5D4"/>
<path d="M91.3477 14.4802V13.2602H91.4877C91.7143 13.2602 91.9277 13.2269 92.1277 13.1602C92.3277 13.0802 92.5143 12.9402 92.6877 12.7402C92.861 12.5402 93.0143 12.2536 93.1477 11.8802L97.4077 0.200244H101.028L105.108 11.9202C105.228 12.2269 105.368 12.4802 105.528 12.6802C105.688 12.8802 105.868 13.0269 106.068 13.1202C106.281 13.2136 106.508 13.2602 106.748 13.2602H106.968V14.4802H99.5677V13.2602H100.368C100.581 13.2602 100.774 13.2202 100.948 13.1402C101.121 13.0602 101.208 12.8936 101.208 12.6402C101.208 12.5069 101.194 12.3802 101.168 12.2602C101.141 12.1269 101.108 12.0069 101.068 11.9002C101.041 11.7936 101.014 11.7136 100.988 11.6602L100.368 9.84025H95.8077L95.3477 11.2802C95.321 11.3869 95.281 11.5202 95.2277 11.6802C95.1877 11.8402 95.1477 12.0069 95.1077 12.1802C95.081 12.3402 95.0677 12.4869 95.0677 12.6202C95.0677 12.8202 95.121 12.9802 95.2277 13.1002C95.3343 13.2069 95.5277 13.2602 95.8077 13.2602H96.7877V14.4802H91.3477ZM96.2477 8.46024H99.9277L98.7877 4.64024C98.721 4.40024 98.6477 4.16024 98.5677 3.92025C98.501 3.66691 98.4343 3.40691 98.3677 3.14024C98.301 2.86024 98.241 2.57358 98.1877 2.28024C98.1343 2.49358 98.0743 2.70691 98.0077 2.92024C97.9543 3.12024 97.901 3.32024 97.8477 3.52024C97.7943 3.72024 97.7343 3.91358 97.6677 4.10024C97.6143 4.27358 97.561 4.44691 97.5077 4.62024L96.2477 8.46024Z" fill="#F1E5D4"/>
<path d="M107.389 14.4802V13.2602H108.049C108.289 13.2602 108.496 13.2336 108.669 13.1802C108.856 13.1269 108.996 13.0136 109.089 12.8402C109.183 12.6669 109.229 12.4069 109.229 12.0602V2.54024C109.229 2.20691 109.183 1.96691 109.089 1.82024C108.996 1.66024 108.869 1.55358 108.709 1.50024C108.563 1.44691 108.403 1.42024 108.229 1.42024H107.389V0.200244H112.409L119.389 9.38024V2.54024C119.389 2.26024 119.343 2.04024 119.249 1.88024C119.169 1.72024 119.056 1.60691 118.909 1.54024C118.776 1.46024 118.616 1.42024 118.429 1.42024H117.569V0.200244H122.929V1.42024H122.069C121.869 1.42024 121.696 1.46024 121.549 1.54024C121.403 1.62024 121.289 1.74691 121.209 1.92024C121.129 2.09358 121.089 2.32691 121.089 2.62024V14.4802H118.949L110.929 3.82024V12.0602C110.929 12.4069 110.956 12.6669 111.009 12.8402C111.076 13.0136 111.183 13.1269 111.329 13.1802C111.476 13.2336 111.663 13.2602 111.889 13.2602H112.749V14.4802H107.389Z" fill="#F1E5D4"/>
<path d="M131.443 14.6802C129.829 14.6802 128.483 14.3736 127.403 13.7602C126.323 13.1469 125.509 12.2936 124.963 11.2002C124.429 10.0936 124.163 8.80025 124.163 7.32024C124.163 5.88024 124.436 4.61358 124.983 3.52024C125.529 2.41358 126.343 1.55358 127.423 0.940244C128.503 0.313577 129.836 0.000244141 131.423 0.000244141C132.529 0.000244141 133.443 0.106911 134.163 0.320245C134.896 0.533578 135.443 0.820244 135.803 1.18024C136.176 1.54024 136.363 1.94024 136.363 2.38024C136.363 2.92691 136.109 3.39358 135.603 3.78024C135.109 4.16691 134.343 4.36024 133.303 4.36024C133.303 3.90691 133.236 3.46024 133.103 3.02024C132.983 2.56691 132.769 2.19358 132.463 1.90024C132.156 1.59358 131.736 1.44024 131.203 1.44024C130.483 1.44024 129.916 1.67358 129.503 2.14024C129.089 2.59358 128.796 3.26024 128.623 4.14024C128.449 5.00691 128.363 6.06691 128.363 7.32024C128.363 8.66691 128.483 9.75358 128.723 10.5802C128.963 11.3936 129.356 11.9802 129.903 12.3402C130.463 12.7002 131.203 12.8802 132.123 12.8802C132.843 12.8802 133.449 12.7736 133.943 12.5602C134.449 12.3336 134.876 12.0602 135.223 11.7402C135.569 11.4202 135.856 11.1136 136.083 10.8202C136.176 10.9136 136.249 11.0536 136.303 11.2402C136.356 11.4269 136.383 11.5936 136.383 11.7402C136.383 12.0469 136.309 12.3736 136.163 12.7202C136.029 13.0536 135.783 13.3736 135.423 13.6802C135.063 13.9736 134.556 14.2136 133.903 14.4002C133.263 14.5869 132.443 14.6802 131.443 14.6802Z" fill="#F1E5D4"/>
<path d="M137.663 14.4802V13.2602H138.683C138.869 13.2602 139.023 13.2202 139.143 13.1402C139.263 13.0469 139.349 12.9269 139.403 12.7802C139.469 12.6336 139.503 12.4669 139.503 12.2802V2.50024C139.503 2.18024 139.463 1.94691 139.383 1.80024C139.303 1.64024 139.196 1.54024 139.063 1.50024C138.929 1.44691 138.789 1.42024 138.643 1.42024H137.663V0.200244H149.523L149.583 4.02024H147.923L147.823 3.02024C147.796 2.66024 147.736 2.38024 147.643 2.18024C147.549 1.96691 147.409 1.81358 147.223 1.72024C147.049 1.62691 146.803 1.58024 146.483 1.58024H143.483V6.34024H148.203V7.70024H143.483V13.1002H147.063C147.356 13.1002 147.596 13.0402 147.783 12.9202C147.969 12.8002 148.116 12.6336 148.223 12.4202C148.343 12.2069 148.423 11.9536 148.463 11.6602L148.623 10.6602H150.263L150.123 14.4802H137.663Z" fill="#F1E5D4"/>
<path d="M164.294 14.6802C162.681 14.6802 161.334 14.3736 160.254 13.7602C159.174 13.1469 158.361 12.2936 157.814 11.2002C157.281 10.0936 157.014 8.80025 157.014 7.32024C157.014 5.88024 157.288 4.61358 157.834 3.52024C158.381 2.41358 159.194 1.55358 160.274 0.940244C161.354 0.313577 162.688 0.000244141 164.274 0.000244141C165.381 0.000244141 166.294 0.106911 167.014 0.320245C167.748 0.533578 168.294 0.820244 168.654 1.18024C169.028 1.54024 169.214 1.94024 169.214 2.38024C169.214 2.92691 168.961 3.39358 168.454 3.78024C167.961 4.16691 167.194 4.36024 166.154 4.36024C166.154 3.90691 166.088 3.46024 165.954 3.02024C165.834 2.56691 165.621 2.19358 165.314 1.90024C165.008 1.59358 164.588 1.44024 164.054 1.44024C163.334 1.44024 162.768 1.67358 162.354 2.14024C161.941 2.59358 161.648 3.26024 161.474 4.14024C161.301 5.00691 161.214 6.06691 161.214 7.32024C161.214 8.66691 161.334 9.75358 161.574 10.5802C161.814 11.3936 162.208 11.9802 162.754 12.3402C163.314 12.7002 164.054 12.8802 164.974 12.8802C165.694 12.8802 166.301 12.7736 166.794 12.5602C167.301 12.3336 167.728 12.0602 168.074 11.7402C168.421 11.4202 168.708 11.1136 168.934 10.8202C169.028 10.9136 169.101 11.0536 169.154 11.2402C169.208 11.4269 169.234 11.5936 169.234 11.7402C169.234 12.0469 169.161 12.3736 169.014 12.7202C168.881 13.0536 168.634 13.3736 168.274 13.6802C167.914 13.9736 167.408 14.2136 166.754 14.4002C166.114 14.5869 165.294 14.6802 164.294 14.6802Z" fill="#F1E5D4"/>
<path d="M170.234 14.4802V13.2602H170.374C170.601 13.2602 170.814 13.2269 171.014 13.1602C171.214 13.0802 171.401 12.9402 171.574 12.7402C171.748 12.5402 171.901 12.2536 172.034 11.8802L176.294 0.200244H179.914L183.994 11.9202C184.114 12.2269 184.254 12.4802 184.414 12.6802C184.574 12.8802 184.754 13.0269 184.954 13.1202C185.168 13.2136 185.394 13.2602 185.634 13.2602H185.854V14.4802H178.454V13.2602H179.254C179.468 13.2602 179.661 13.2202 179.834 13.1402C180.008 13.0602 180.094 12.8936 180.094 12.6402C180.094 12.5069 180.081 12.3802 180.054 12.2602C180.028 12.1269 179.994 12.0069 179.954 11.9002C179.928 11.7936 179.901 11.7136 179.874 11.6602L179.254 9.84025H174.694L174.234 11.2802C174.208 11.3869 174.168 11.5202 174.114 11.6802C174.074 11.8402 174.034 12.0069 173.994 12.1802C173.968 12.3402 173.954 12.4869 173.954 12.6202C173.954 12.8202 174.008 12.9802 174.114 13.1002C174.221 13.2069 174.414 13.2602 174.694 13.2602H175.674V14.4802H170.234ZM175.134 8.46024H178.814L177.674 4.64024C177.608 4.40024 177.534 4.16024 177.454 3.92025C177.388 3.66691 177.321 3.40691 177.254 3.14024C177.188 2.86024 177.128 2.57358 177.074 2.28024C177.021 2.49358 176.961 2.70691 176.894 2.92024C176.841 3.12024 176.788 3.32024 176.734 3.52024C176.681 3.72024 176.621 3.91358 176.554 4.10024C176.501 4.27358 176.448 4.44691 176.394 4.62024L175.134 8.46024Z" fill="#F1E5D4"/>
<path d="M186.276 14.4802V13.2602H187.036C187.209 13.2602 187.376 13.2402 187.536 13.2002C187.696 13.1469 187.829 13.0402 187.936 12.8802C188.056 12.7202 188.116 12.4802 188.116 12.1602V2.54024C188.116 2.20691 188.049 1.96691 187.916 1.82024C187.796 1.66024 187.649 1.55358 187.476 1.50024C187.316 1.44691 187.169 1.42024 187.036 1.42024H186.276V0.200244H193.496C194.989 0.200244 196.176 0.360244 197.056 0.680243C197.936 0.98691 198.563 1.42691 198.936 2.00024C199.323 2.56024 199.516 3.22024 199.516 3.98024C199.516 4.74024 199.383 5.36691 199.116 5.86024C198.863 6.35358 198.523 6.74024 198.096 7.02024C197.669 7.30024 197.196 7.51358 196.676 7.66024L198.956 11.5202C199.143 11.8269 199.309 12.0936 199.456 12.3202C199.603 12.5336 199.743 12.7136 199.876 12.8602C200.023 12.9936 200.169 13.0936 200.316 13.1602C200.463 13.2269 200.616 13.2602 200.776 13.2602H200.916V14.4802H199.976C199.403 14.4802 198.869 14.4602 198.376 14.4202C197.883 14.3669 197.436 14.2802 197.036 14.1602C196.636 14.0269 196.289 13.8402 195.996 13.6002C195.703 13.3602 195.463 13.0536 195.276 12.6802L193.176 8.36024H192.116V12.1602C192.116 12.4802 192.156 12.7202 192.236 12.8802C192.316 13.0402 192.429 13.1469 192.576 13.2002C192.736 13.2402 192.909 13.2602 193.096 13.2602H193.576V14.4802H186.276ZM193.016 7.04024C193.536 7.04024 193.963 6.94024 194.296 6.74024C194.629 6.52691 194.869 6.21358 195.016 5.80024C195.176 5.37358 195.256 4.84691 195.256 4.22024C195.256 3.58024 195.169 3.06691 194.996 2.68024C194.823 2.28024 194.563 1.99358 194.216 1.82024C193.883 1.63358 193.469 1.54024 192.976 1.54024H192.116V7.04024H193.016Z" fill="#F1E5D4"/>
<path d="M201.335 14.4802V13.2602H202.355C202.541 13.2602 202.695 13.2202 202.815 13.1402C202.935 13.0469 203.021 12.9269 203.075 12.7802C203.141 12.6336 203.175 12.4669 203.175 12.2802V2.50024C203.175 2.18024 203.135 1.94691 203.055 1.80024C202.975 1.64024 202.868 1.54024 202.735 1.50024C202.601 1.44691 202.461 1.42024 202.315 1.42024H201.335V0.200244H213.195L213.255 4.02024H211.595L211.495 3.02024C211.468 2.66024 211.408 2.38024 211.315 2.18024C211.221 1.96691 211.081 1.81358 210.895 1.72024C210.721 1.62691 210.475 1.58024 210.155 1.58024H207.155V6.34024H211.875V7.70024H207.155V13.1002H210.735C211.028 13.1002 211.268 13.0402 211.455 12.9202C211.641 12.8002 211.788 12.6336 211.895 12.4202C212.015 12.2069 212.095 11.9536 212.135 11.6602L212.295 10.6602H213.935L213.795 14.4802H201.335Z" fill="#F1E5D4"/>
<path d="M41.6833 28.4802V27.8922H42.1033C42.2473 27.8922 42.3753 27.8762 42.4873 27.8442C42.5993 27.8042 42.6873 27.7282 42.7513 27.6162C42.8233 27.5042 42.8593 27.3322 42.8593 27.1002V20.5962H41.8273C41.5873 20.5962 41.3993 20.6362 41.2633 20.7162C41.1273 20.7882 41.0273 20.8922 40.9633 21.0282C40.8993 21.1642 40.8553 21.3202 40.8313 21.4962L40.7593 22.1562H40.0273L40.0873 19.9122H47.2873L47.3473 22.1562H46.6153L46.5313 21.4962C46.5153 21.3202 46.4713 21.1642 46.3993 21.0282C46.3353 20.8922 46.2353 20.7882 46.0993 20.7162C45.9633 20.6362 45.7753 20.5962 45.5353 20.5962H44.5033V27.0882C44.5033 27.3202 44.5353 27.4962 44.5993 27.6162C44.6633 27.7282 44.7553 27.8042 44.8753 27.8442C44.9953 27.8762 45.1233 27.8922 45.2593 27.8922H45.6793V28.4802H41.6833Z" fill="#F1E5D4"/>
<path d="M47.8957 28.4802V27.8922H48.2677C48.4037 27.8922 48.5277 27.8762 48.6397 27.8442C48.7517 27.8122 48.8437 27.7442 48.9157 27.6402C48.9877 27.5282 49.0237 27.3642 49.0237 27.1482V21.3042C49.0237 21.0642 48.9877 20.8882 48.9157 20.7762C48.8517 20.6642 48.7637 20.5922 48.6517 20.5602C48.5397 20.5202 48.4117 20.5002 48.2677 20.5002H47.8957V19.9122H54.3157L54.3757 22.0842H53.6197L53.5597 21.5322C53.5437 21.3402 53.4997 21.1762 53.4277 21.0402C53.3637 20.9042 53.2717 20.7962 53.1517 20.7162C53.0317 20.6362 52.8757 20.5962 52.6837 20.5962H50.6677V23.6682H53.5237V24.3402H50.6677V27.7962H53.0317C53.2237 27.7962 53.3797 27.7562 53.4997 27.6762C53.6277 27.5882 53.7277 27.4762 53.7997 27.3402C53.8717 27.1962 53.9197 27.0362 53.9437 26.8602L54.0277 26.3082H54.7837L54.6997 28.4802H47.8957Z" fill="#F1E5D4"/>
<path d="M59.8429 28.6002C58.9629 28.6002 58.2269 28.4162 57.6349 28.0482C57.0509 27.6802 56.6109 27.1682 56.3149 26.5122C56.0269 25.8482 55.8829 25.0722 55.8829 24.1842C55.8829 23.3202 56.0349 22.5602 56.3389 21.9042C56.6429 21.2402 57.0949 20.7242 57.6949 20.3562C58.2949 19.9802 59.0349 19.7922 59.9149 19.7922C60.4989 19.7922 60.9829 19.8522 61.3669 19.9722C61.7589 20.0922 62.0509 20.2562 62.2429 20.4642C62.4349 20.6722 62.5309 20.9042 62.5309 21.1602C62.5309 21.4482 62.4109 21.6842 62.1709 21.8682C61.9389 22.0442 61.6149 22.1322 61.1989 22.1322C61.1989 21.8762 61.1549 21.6242 61.0669 21.3762C60.9869 21.1282 60.8469 20.9242 60.6469 20.7642C60.4549 20.5962 60.1909 20.5122 59.8549 20.5122C59.3109 20.5122 58.8749 20.6562 58.5469 20.9442C58.2269 21.2322 57.9949 21.6482 57.8509 22.1922C57.7069 22.7362 57.6349 23.4002 57.6349 24.1842C57.6349 24.9282 57.7149 25.5642 57.8749 26.0922C58.0429 26.6202 58.3069 27.0202 58.6669 27.2922C59.0269 27.5642 59.4989 27.7002 60.0829 27.7002C60.4749 27.7002 60.8109 27.6482 61.0909 27.5442C61.3709 27.4322 61.6069 27.2922 61.7989 27.1242C61.9909 26.9562 62.1549 26.7842 62.2909 26.6082C62.3549 26.6562 62.4069 26.7242 62.4469 26.8122C62.4869 26.9002 62.5069 27.0002 62.5069 27.1122C62.5069 27.2722 62.4589 27.4402 62.3629 27.6162C62.2669 27.7842 62.1149 27.9442 61.9069 28.0962C61.6989 28.2482 61.4229 28.3722 61.0789 28.4682C60.7429 28.5562 60.3309 28.6002 59.8429 28.6002Z" fill="#F1E5D4"/>
<path d="M63.3762 28.4802V27.8922H63.7482C63.8842 27.8922 64.0082 27.8762 64.1202 27.8442C64.2402 27.8042 64.3322 27.7282 64.3962 27.6162C64.4682 27.4962 64.5042 27.3202 64.5042 27.0882V21.2562C64.5042 21.0322 64.4682 20.8682 64.3962 20.7642C64.3242 20.6522 64.2322 20.5802 64.1202 20.5482C64.0082 20.5162 63.8842 20.5002 63.7482 20.5002H63.3762V19.9122H67.2642V20.5002H66.8922C66.7562 20.5002 66.6282 20.5202 66.5082 20.5602C66.3962 20.5922 66.3042 20.6642 66.2322 20.7762C66.1682 20.8882 66.1362 21.0642 66.1362 21.3042V23.6682H69.5562V21.3042C69.5562 21.0642 69.5202 20.8882 69.4482 20.7762C69.3842 20.6642 69.2962 20.5922 69.1842 20.5602C69.0722 20.5202 68.9442 20.5002 68.8002 20.5002H68.4282V19.9122H72.3162V20.5002H71.9442C71.8162 20.5002 71.6922 20.5202 71.5722 20.5602C71.4522 20.5922 71.3602 20.6642 71.2962 20.7762C71.2322 20.8882 71.2002 21.0642 71.2002 21.3042V27.1482C71.2002 27.3642 71.2322 27.5282 71.2962 27.6402C71.3682 27.7442 71.4602 27.8122 71.5722 27.8442C71.6922 27.8762 71.8162 27.8922 71.9442 27.8922H72.3162V28.4802H68.4282V27.8922H68.8002C68.9442 27.8922 69.0722 27.8762 69.1842 27.8442C69.2962 27.8042 69.3842 27.7282 69.4482 27.6162C69.5202 27.4962 69.5562 27.3202 69.5562 27.0882V24.3522H66.1362V27.0882C66.1362 27.3202 66.1682 27.4962 66.2322 27.6162C66.3042 27.7282 66.3962 27.8042 66.5082 27.8442C66.6282 27.8762 66.7562 27.8922 66.8922 27.8922H67.2642V28.4802H63.3762Z" fill="#F1E5D4"/>
<path d="M73.0793 28.4802V27.8922H73.4513C73.5873 27.8922 73.7113 27.8762 73.8233 27.8442C73.9433 27.8042 74.0353 27.7282 74.0993 27.6162C74.1713 27.4962 74.2073 27.3202 74.2073 27.0882V21.2562C74.2073 21.0322 74.1713 20.8682 74.0993 20.7642C74.0273 20.6522 73.9353 20.5802 73.8233 20.5482C73.7113 20.5162 73.5873 20.5002 73.4513 20.5002H73.0793V19.9122H75.5633L79.8233 26.1402V21.2562C79.8233 21.0322 79.7873 20.8682 79.7153 20.7642C79.6433 20.6522 79.5513 20.5802 79.4393 20.5482C79.3273 20.5162 79.2033 20.5002 79.0673 20.5002H78.6953V19.9122H81.7793V20.5002H81.4073C81.2793 20.5002 81.1553 20.5202 81.0353 20.5602C80.9153 20.5922 80.8233 20.6642 80.7593 20.7762C80.6953 20.8882 80.6633 21.0642 80.6633 21.3042V28.4802H79.6553L75.0353 21.7602V27.0882C75.0353 27.3202 75.0673 27.4962 75.1313 27.6162C75.2033 27.7282 75.2953 27.8042 75.4073 27.8442C75.5273 27.8762 75.6553 27.8922 75.7913 27.8922H76.1633V28.4802H73.0793Z" fill="#F1E5D4"/>
<path d="M86.6668 28.6002C85.7788 28.6002 85.0428 28.4162 84.4588 28.0482C83.8748 27.6802 83.4348 27.1642 83.1388 26.5002C82.8508 25.8362 82.7068 25.0602 82.7068 24.1722C82.7068 23.2842 82.8508 22.5122 83.1388 21.8562C83.4348 21.2002 83.8748 20.6922 84.4588 20.3322C85.0508 19.9642 85.7908 19.7802 86.6788 19.7802C87.5268 19.7802 88.2428 19.9642 88.8268 20.3322C89.4108 20.6922 89.8548 21.2042 90.1588 21.8682C90.4628 22.5242 90.6148 23.2962 90.6148 24.1842C90.6148 25.0722 90.4628 25.8482 90.1588 26.5122C89.8548 27.1682 89.4068 27.6802 88.8148 28.0482C88.2308 28.4162 87.5148 28.6002 86.6668 28.6002ZM86.6668 27.8682C87.0748 27.8682 87.4148 27.7882 87.6868 27.6282C87.9668 27.4602 88.1908 27.2202 88.3588 26.9082C88.5348 26.5882 88.6628 26.2002 88.7428 25.7442C88.8228 25.2882 88.8628 24.7682 88.8628 24.1842C88.8628 23.6082 88.8228 23.0922 88.7428 22.6362C88.6628 22.1802 88.5388 21.7962 88.3708 21.4842C88.2028 21.1642 87.9788 20.9242 87.6988 20.7642C87.4188 20.5962 87.0788 20.5122 86.6788 20.5122C86.2788 20.5122 85.9348 20.5962 85.6468 20.7642C85.3668 20.9242 85.1388 21.1642 84.9628 21.4842C84.7948 21.7962 84.6708 22.1802 84.5908 22.6362C84.5108 23.0922 84.4708 23.6082 84.4708 24.1842C84.4708 24.7682 84.5108 25.2882 84.5908 25.7442C84.6708 26.2002 84.7948 26.5882 84.9628 26.9082C85.1388 27.2202 85.3668 27.4602 85.6468 27.6282C85.9348 27.7882 86.2748 27.8682 86.6668 27.8682Z" fill="#F1E5D4"/>
<path d="M91.6652 28.4802V27.8922H92.0372C92.1812 27.8922 92.3092 27.8762 92.4212 27.8442C92.5332 27.8042 92.6212 27.7282 92.6852 27.6162C92.7572 27.4962 92.7932 27.3202 92.7932 27.0882V21.3042C92.7932 21.0642 92.7572 20.8882 92.6852 20.7762C92.6212 20.6642 92.5332 20.5922 92.4212 20.5602C92.3092 20.5202 92.1812 20.5002 92.0372 20.5002H91.6652V19.9122H95.5532V20.5002H95.1812C95.0452 20.5002 94.9212 20.5162 94.8092 20.5482C94.6972 20.5802 94.6052 20.6522 94.5332 20.7642C94.4692 20.8682 94.4372 21.0322 94.4372 21.2562V27.7962H96.7172C96.9172 27.7962 97.0852 27.7522 97.2212 27.6642C97.3652 27.5762 97.4772 27.4522 97.5572 27.2922C97.6372 27.1242 97.6972 26.9402 97.7372 26.7402L97.8932 25.8402H98.5532L98.4692 28.4802H91.6652Z" fill="#F1E5D4"/>
<path d="M103.6 28.6002C102.712 28.6002 101.976 28.4162 101.392 28.0482C100.808 27.6802 100.368 27.1642 100.072 26.5002C99.7844 25.8362 99.6404 25.0602 99.6404 24.1722C99.6404 23.2842 99.7844 22.5122 100.072 21.8562C100.368 21.2002 100.808 20.6922 101.392 20.3322C101.984 19.9642 102.724 19.7802 103.612 19.7802C104.46 19.7802 105.176 19.9642 105.76 20.3322C106.344 20.6922 106.788 21.2042 107.092 21.8682C107.396 22.5242 107.548 23.2962 107.548 24.1842C107.548 25.0722 107.396 25.8482 107.092 26.5122C106.788 27.1682 106.34 27.6802 105.748 28.0482C105.164 28.4162 104.448 28.6002 103.6 28.6002ZM103.6 27.8682C104.008 27.8682 104.348 27.7882 104.62 27.6282C104.9 27.4602 105.124 27.2202 105.292 26.9082C105.468 26.5882 105.596 26.2002 105.676 25.7442C105.756 25.2882 105.796 24.7682 105.796 24.1842C105.796 23.6082 105.756 23.0922 105.676 22.6362C105.596 22.1802 105.472 21.7962 105.304 21.4842C105.136 21.1642 104.912 20.9242 104.632 20.7642C104.352 20.5962 104.012 20.5122 103.612 20.5122C103.212 20.5122 102.868 20.5962 102.58 20.7642C102.3 20.9242 102.072 21.1642 101.896 21.4842C101.728 21.7962 101.604 22.1802 101.524 22.6362C101.444 23.0922 101.404 23.6082 101.404 24.1842C101.404 24.7682 101.444 25.2882 101.524 25.7442C101.604 26.2002 101.728 26.5882 101.896 26.9082C102.072 27.2202 102.3 27.4602 102.58 27.6282C102.868 27.7882 103.208 27.8682 103.6 27.8682Z" fill="#F1E5D4"/>
<path d="M113.195 28.6002C112.227 28.6002 111.423 28.4162 110.783 28.0482C110.143 27.6802 109.667 27.1682 109.355 26.5122C109.043 25.8482 108.887 25.0722 108.887 24.1842C108.887 23.3202 109.051 22.5602 109.379 21.9042C109.707 21.2402 110.195 20.7242 110.843 20.3562C111.499 19.9802 112.303 19.7922 113.255 19.7922C113.895 19.7922 114.427 19.8522 114.851 19.9722C115.275 20.0922 115.591 20.2562 115.799 20.4642C116.015 20.6722 116.123 20.9042 116.123 21.1602C116.123 21.4322 115.999 21.6602 115.751 21.8442C115.511 22.0282 115.175 22.1202 114.743 22.1202C114.743 21.8242 114.687 21.5562 114.575 21.3162C114.471 21.0682 114.307 20.8722 114.083 20.7282C113.867 20.5842 113.579 20.5122 113.219 20.5122C112.595 20.5122 112.095 20.6562 111.719 20.9442C111.343 21.2322 111.067 21.6482 110.891 22.1922C110.723 22.7362 110.639 23.4002 110.639 24.1842C110.639 24.9682 110.727 25.6322 110.903 26.1762C111.087 26.7122 111.379 27.1242 111.779 27.4122C112.179 27.6922 112.711 27.8322 113.375 27.8322C113.559 27.8322 113.735 27.8242 113.903 27.8082C114.079 27.7922 114.243 27.7642 114.395 27.7242V25.9002C114.395 25.6762 114.355 25.5042 114.275 25.3842C114.203 25.2642 114.099 25.1802 113.963 25.1322C113.835 25.0842 113.679 25.0602 113.495 25.0602H113.375V24.4722H116.903V25.0602H116.783C116.623 25.0602 116.487 25.0882 116.375 25.1442C116.263 25.1922 116.175 25.2802 116.111 25.4082C116.055 25.5282 116.027 25.7082 116.027 25.9482V27.9882C115.587 28.1962 115.139 28.3522 114.683 28.4562C114.227 28.5522 113.731 28.6002 113.195 28.6002Z" fill="#F1E5D4"/>
<path d="M117.575 28.4802V27.8922H117.947C118.091 27.8922 118.219 27.8762 118.331 27.8442C118.443 27.8042 118.531 27.7282 118.595 27.6162C118.667 27.4962 118.703 27.3202 118.703 27.0882V21.3042C118.703 21.0642 118.667 20.8882 118.595 20.7762C118.531 20.6642 118.443 20.5922 118.331 20.5602C118.219 20.5202 118.091 20.5002 117.947 20.5002H117.575V19.9122H121.463V20.5002H121.091C120.955 20.5002 120.827 20.5202 120.707 20.5602C120.595 20.5922 120.507 20.6642 120.443 20.7762C120.379 20.8882 120.347 21.0642 120.347 21.3042V27.0882C120.347 27.3202 120.379 27.4962 120.443 27.6162C120.507 27.7282 120.595 27.8042 120.707 27.8442C120.827 27.8762 120.955 27.8922 121.091 27.8922H121.463V28.4802H117.575Z" fill="#F1E5D4"/>
<path d="M122.228 28.4802V27.8922H122.6C122.736 27.8922 122.86 27.8762 122.972 27.8442C123.084 27.8122 123.176 27.7442 123.248 27.6402C123.32 27.5282 123.356 27.3642 123.356 27.1482V21.3042C123.356 21.0642 123.32 20.8882 123.248 20.7762C123.184 20.6642 123.096 20.5922 122.984 20.5602C122.872 20.5202 122.744 20.5002 122.6 20.5002H122.228V19.9122H128.648L128.708 22.0842H127.952L127.892 21.5322C127.876 21.3402 127.832 21.1762 127.76 21.0402C127.696 20.9042 127.604 20.7962 127.484 20.7162C127.364 20.6362 127.208 20.5962 127.016 20.5962H125V23.6682H127.856V24.3402H125V27.7962H127.364C127.556 27.7962 127.712 27.7562 127.832 27.6762C127.96 27.5882 128.06 27.4762 128.132 27.3402C128.204 27.1962 128.252 27.0362 128.276 26.8602L128.36 26.3082H129.116L129.032 28.4802H122.228Z" fill="#F1E5D4"/>
<path d="M132.639 28.6002C132.151 28.6002 131.739 28.5562 131.403 28.4682C131.067 28.3722 130.795 28.2442 130.587 28.0842C130.379 27.9242 130.227 27.7442 130.131 27.5442C130.035 27.3362 129.987 27.1282 129.987 26.9202C129.987 26.6882 130.039 26.5002 130.143 26.3562C130.247 26.2042 130.387 26.0922 130.563 26.0202C130.747 25.9482 130.943 25.9122 131.151 25.9122C131.159 26.3202 131.227 26.6762 131.355 26.9802C131.483 27.2842 131.667 27.5202 131.907 27.6882C132.155 27.8482 132.451 27.9282 132.795 27.9282C133.291 27.9282 133.675 27.8042 133.947 27.5562C134.227 27.3002 134.367 26.9642 134.367 26.5482C134.367 26.2682 134.299 26.0282 134.163 25.8282C134.027 25.6282 133.815 25.4442 133.527 25.2762C133.239 25.1082 132.867 24.9322 132.411 24.7482C132.019 24.5882 131.679 24.4162 131.391 24.2322C131.103 24.0482 130.871 23.8522 130.695 23.6442C130.519 23.4362 130.387 23.2082 130.299 22.9602C130.219 22.7042 130.179 22.4202 130.179 22.1082C130.179 21.6362 130.303 21.2282 130.551 20.8842C130.799 20.5322 131.135 20.2642 131.559 20.0802C131.983 19.8882 132.467 19.7922 133.011 19.7922C133.555 19.7922 134.007 19.8562 134.367 19.9842C134.727 20.1042 134.995 20.2682 135.171 20.4762C135.355 20.6842 135.447 20.9122 135.447 21.1602C135.447 21.4322 135.339 21.6562 135.123 21.8322C134.907 22.0002 134.587 22.0842 134.163 22.0842C134.163 21.8522 134.119 21.6122 134.031 21.3642C133.951 21.1162 133.815 20.9082 133.623 20.7402C133.439 20.5642 133.187 20.4762 132.867 20.4762C132.619 20.4762 132.395 20.5242 132.195 20.6202C132.003 20.7082 131.851 20.8442 131.739 21.0282C131.627 21.2042 131.571 21.4202 131.571 21.6762C131.571 21.9402 131.627 22.1722 131.739 22.3722C131.851 22.5722 132.047 22.7642 132.327 22.9482C132.607 23.1322 133.003 23.3282 133.515 23.5362C134.035 23.7442 134.459 23.9682 134.787 24.2082C135.123 24.4402 135.371 24.7082 135.531 25.0122C135.699 25.3082 135.783 25.6562 135.783 26.0562C135.783 26.5682 135.651 27.0162 135.387 27.4002C135.131 27.7762 134.767 28.0722 134.295 28.2882C133.831 28.4962 133.279 28.6002 132.639 28.6002Z" fill="#F1E5D4"/>
<path d="M21.6696 22.6867C19.9446 22.6867 18.2184 22.7005 16.4935 22.6804C15.6461 22.6703 15.6285 22.6072 16.0464 21.8997C16.6235 20.9222 17.2183 19.9549 17.7663 18.9611C18.154 18.2598 18.7286 18.0328 19.4925 18.0631C20.6063 18.1072 21.7213 18.1186 22.8364 18.1199C23.5738 18.1199 23.7228 17.8285 23.3415 17.1651C21.5218 13.9932 19.6971 10.8238 17.8737 7.65317C17.486 6.97843 17.0693 6.32008 16.7157 5.62769C16.3318 4.87349 15.7093 4.59602 14.915 4.58972C14.0311 4.58341 13.1471 4.56954 12.2632 4.57963C11.7682 4.58594 11.729 4.41567 11.9614 4.02344C12.5953 2.95773 13.2178 1.88445 13.8252 0.803601C14.1384 0.251196 14.5905 -0.00861089 15.2168 0.000217495C16.1424 0.0140907 17.068 0.0178743 17.9936 0.0367923C18.5695 0.048143 18.9672 0.325607 19.2577 0.831347C22.4904 6.46512 25.7268 12.0951 28.9797 17.7163C29.4419 18.5146 29.4508 19.2423 28.9532 20.018C28.5112 20.7078 28.0996 21.4192 27.717 22.1431C27.4922 22.5668 27.2093 22.7434 26.7206 22.7358C25.0374 22.7106 23.3541 22.7258 21.6708 22.7258C21.6708 22.7119 21.6708 22.6993 21.6708 22.6854L21.6696 22.6867Z" fill="#F1E5D4"/>
<path d="M4.59552 28.9132C3.98561 28.9132 3.37569 28.9056 2.76577 28.9157C2.25308 28.9246 1.87804 28.7127 1.62549 28.2687C1.17847 27.483 0.754174 26.6847 0.273058 25.9204C-0.125977 25.286 -0.0641015 24.7323 0.30589 24.1043C1.99169 21.2451 3.64971 18.3683 5.31657 15.4966C6.85715 12.8443 8.4192 10.2033 9.92568 7.53212C10.427 6.64297 11.071 6.19146 12.109 6.27848C12.7353 6.33145 13.373 6.32767 14.0006 6.28101C14.8252 6.22047 15.3329 6.58243 15.7218 7.28366C17.0187 9.61562 18.3471 11.9299 19.6642 14.2505C19.9862 14.8168 20.3082 15.3831 20.634 15.9468C20.8386 16.3012 20.7678 16.5144 20.3322 16.5055C18.9457 16.4791 17.5579 16.4576 16.1714 16.4021C15.6208 16.3807 15.3505 15.9456 15.1081 15.5155C14.4893 14.417 13.8706 13.3185 13.2518 12.2213C12.9071 11.6096 12.8705 11.6058 12.5257 12.1998C10.1707 16.2508 7.81938 20.303 5.46431 24.354C5.1865 24.8332 5.18145 25.2999 5.46431 25.7829C5.96311 26.6342 6.44548 27.4969 6.94175 28.3507C7.16779 28.7404 7.09455 28.9284 6.61596 28.9195C5.9429 28.9082 5.26984 28.917 4.59679 28.917V28.9145L4.59552 28.9132Z" fill="#F1E5D4"/>
<path d="M20.4286 24.4574C22.7016 24.4574 24.9746 24.4397 27.2476 24.4675C28.0368 24.4776 28.5545 24.1787 28.917 23.4812C29.3337 22.6804 29.8312 21.9224 30.2669 21.1304C30.5118 20.6852 30.6886 20.7621 30.9046 21.1417C31.5385 22.2566 32.18 23.3665 32.8202 24.4776C33.0626 24.8988 33.0588 25.3163 32.8139 25.7337C32.2936 26.6229 31.7759 27.5133 31.2493 28.3986C30.9551 28.8943 30.4676 29.0078 29.9411 28.9977C27.3549 28.9498 24.7688 29.0141 22.1801 28.9246C19.1772 28.8199 16.168 28.8968 13.1626 28.8943C12.1107 28.8943 11.0576 28.8829 10.0057 28.8956C9.48796 28.9019 9.12302 28.6976 8.8692 28.2498C8.40324 27.4263 7.92844 26.609 7.44985 25.793C7.13795 25.2608 7.20992 24.7601 7.51299 24.248C8.82122 22.0422 10.1193 19.8313 11.4187 17.6204C11.8241 16.9318 12.2332 16.2457 12.6184 15.5458C12.8545 15.117 13.0225 15.1447 13.2498 15.5521C13.8736 16.672 14.51 17.7844 15.154 18.8943C15.476 19.4492 15.3055 19.9423 15.0151 20.4354C14.3433 21.5768 13.6867 22.727 12.9972 23.8583C12.7005 24.3464 12.8457 24.4587 13.3571 24.4561C15.7147 24.4435 18.071 24.4511 20.4286 24.4511V24.4587V24.4574Z" fill="#F1E5D4"/>
</svg>
