<svg width="74" height="74" viewBox="0 0 74 74" fill="none" xmlns="http://www.w3.org/2000/svg">
<path d="M37 4.625C30.2559 4.63265 23.7902 7.31512 19.0214 12.0839C14.2526 16.8527 11.5702 23.3184 11.5625 30.0625C11.5625 51.8289 34.6875 68.2766 35.6703 68.9703C36.0642 69.2326 36.5268 69.3725 37 69.3725C37.4732 69.3725 37.9358 69.2326 38.3297 68.9703C39.3125 68.2766 62.4375 51.8289 62.4375 30.0625C62.4298 23.3184 59.7474 16.8527 54.9786 12.0839C50.2098 7.31512 43.7441 4.63265 37 4.625ZM37 20.8125C38.8295 20.8125 40.6179 21.355 42.139 22.3714C43.6602 23.3878 44.8458 24.8325 45.5459 26.5227C46.246 28.2129 46.4292 30.0728 46.0723 31.8671C45.7154 33.6614 44.8344 35.3096 43.5407 36.6032C42.2471 37.8969 40.5989 38.7778 38.8046 39.1348C37.0103 39.4917 35.1504 39.3085 33.4602 38.6084C31.77 37.9083 30.3253 36.7227 29.3089 35.2015C28.2925 33.6804 27.75 31.892 27.75 30.0625C27.75 27.6092 28.7246 25.2565 30.4593 23.5218C32.194 21.787 34.5467 20.8125 37 20.8125Z" fill="#FF6858"/>
</svg>
