<svg width="12" height="11" viewBox="0 0 12 11" fill="none" xmlns="http://www.w3.org/2000/svg">
<path d="M0 9.42338C1.29171 9.49974 2.42125 9.18256 3.52283 8.34261C2.41007 8.1429 1.6384 7.60839 1.21902 6.50412C1.54334 6.45713 1.82852 6.54524 2.16403 6.40427C1.06804 5.89913 0.357877 5.14141 0.329918 3.83156C0.676609 3.86093 0.939426 4.10176 1.35322 4.06651C0.346696 3.03273 0.0391426 1.90497 0.671016 0.536387C1.72227 1.80512 2.95247 2.66856 4.45667 3.07385C4.54054 3.09735 4.61882 3.12084 4.7027 3.13846C5.08854 3.23244 5.54707 3.43215 5.78192 3.40278C6.18453 3.34992 5.78192 2.86239 5.88258 2.22803C6.20131 0.254447 8.27027 -0.644238 9.80243 0.512892C10.2498 0.85357 10.6021 0.847696 11.0438 0.642115C11.2731 0.536387 11.5079 0.43066 11.7819 0.307311C11.7204 0.871192 11.3066 1.1825 10.9767 1.59954C11.3514 1.68764 11.6533 1.57604 12 1.45857C11.8826 1.86386 11.5918 2.09293 11.329 2.31614C11.055 2.54521 10.9487 2.78604 10.9376 3.16196C10.7698 8.85363 4.61324 13.2531 0.402614 9.75231C-0.00558771 9.41163 0.391426 9.75231 0 9.42338Z" fill="white"/>
</svg>
