<svg width="69" height="23" viewBox="0 0 69 23" fill="none" xmlns="http://www.w3.org/2000/svg">
<path d="M65.6133 0.567897C61.7411 0.394579 58.2157 1.00119 56.7997 1.46337C55.3259 1.92555 49.5753 2.18553 46.2811 2.27219C45.8476 2.27219 45.4141 2.27219 44.9806 2.27219C43.189 2.27219 41.484 1.6078 39.6924 1.52114C38.103 1.43448 36.6294 2.18552 35.0689 2.15664C33.3929 2.06998 31.7458 2.6477 30.0697 2.58993C25.7929 2.35884 22.123 6.40292 17.5861 4.46754C17.5861 4.58309 17.5861 4.69863 17.615 4.81417C18.1641 5.1897 18.8576 5.33413 19.2622 5.94074C19.0599 6.46069 19.002 6.54735 17.297 6.77844L17.0081 6.83621C17.0081 6.83621 17.0947 7.0673 17.1236 7.15396C16.9503 7.40431 16.6806 7.60651 16.3146 7.76057C16.2568 7.96278 16.2568 8.25164 16.3146 8.45384C15.7945 8.94491 15.6789 9.06046 12.4135 9.20489C11.5755 9.23377 11.4887 9.26266 11.0553 9.55152C12.6543 9.89816 13.5404 10.1678 13.7138 10.3603C13.7138 10.3603 13.7138 10.4181 12.0955 11.198C12.4423 12.2957 11.431 12.3246 8.94584 12.3246C8.19451 13.0756 7.3082 13.4704 6.28717 13.5089C7.67424 14.1155 7.87654 14.3755 7.93433 14.9244C7.81874 15.0399 7.08665 15.2421 5.73811 15.531C5.59363 17.9574 2.38609 16.2531 0.738944 16.7442C0.738944 16.8309 0.681241 16.9753 0.652344 17.0619C2.2128 18.8529 4.46673 17.2064 6.20057 18.1596C6.28726 18.2463 6.4317 18.3618 6.5184 18.4196C8.04995 18.1019 12.7025 19.1706 12.9337 20.615C12.8759 20.7016 12.7602 20.846 12.7025 20.9327C14.2629 21.9148 27.2088 22.8681 28.1624 22.8681C24.897 20.8749 20.7936 20.7016 17.8461 17.9863C16.7287 16.9464 17.1431 15.7813 19.0888 14.4911C19.2333 12.8446 22.0651 10.6781 24.1746 10.5914H24.3769C24.2613 10.3892 24.1747 10.1004 24.1169 9.89816C24.2036 9.78261 24.3191 9.63818 24.4347 9.52263C25.1861 8.88713 26.1975 9.66707 26.9488 9.06046C27.5267 8.59828 26.9488 8.02055 26.9199 7.5006C26.9199 7.5006 28.7114 7.24062 32.2947 6.72067L58.8513 3.081C66.4802 2.6477 67.9251 1.83889 68.4741 1.52114C68.4741 1.4056 68.4741 1.29005 68.4741 1.17451C68.0407 1.00119 67.3182 0.683442 65.5844 0.596784" fill="#C5C5C5"/>
</svg>
