<svg width="98" height="52" viewBox="0 0 98 52" fill="none" xmlns="http://www.w3.org/2000/svg">
<path d="M71.642 35.4908L67.0761 34.9708L61.9614 30.7246C63.0306 29.7713 65.2267 27.8359 65.8046 27.0849C65.978 26.8538 66.1515 26.6516 66.6428 26.3339C68.001 25.4962 70.3127 24.8607 71.6998 24.7451C72.8846 24.6585 73.8093 24.774 74.4162 25.1495C79.5599 28.0959 79.5597 28.587 79.5309 29.2514C79.5309 29.6269 79.2997 29.9447 79.242 30.0313C79.1842 30.118 79.1264 30.2046 79.0686 30.2624C78.6929 30.7246 78.2016 31.0134 77.7971 31.4178C77.4503 31.7645 77.5081 32.4 77.0457 32.66C76.6412 32.9103 75.4275 33.0066 73.4046 32.9488C73.4046 32.9488 73.2891 32.9488 73.2313 32.9488C72.7111 33.671 72.3066 34.3353 72.0466 34.7397L71.642 35.433M74.6472 0.105148C73.4335 1.20283 71.8731 1.86722 69.9659 2.09831C68.0586 4.55364 65.1691 4.98693 63.6086 4.98693C62.2504 5.85352 62.3081 7.76001 60.921 8.59771C60.921 8.59771 59.0716 9.72426 55.8929 9.75315C54.5636 11.053 54.6214 13.5372 52.2808 13.9416C51.2694 14.115 45.9523 14.9238 40.2596 12.584C39.489 12.2759 38.9014 12.1122 38.4969 12.0929C34.0852 16.137 31.388 18.2842 30.4055 18.5345C30.4055 18.5345 21.3607 19.6034 21.3607 16.4259C21.3607 16.3103 21.3607 16.137 21.3896 16.0215C21.5341 14.9816 21.5341 14.8371 22.7189 14.4038C22.4877 13.7972 22.2566 13.2195 20.5805 10.8508C21.0814 19.5937 21.1199 24.1577 20.6961 24.5429C16.9394 28.0092 6.6521 27.5182 4.5426 25.6695C4.25363 25.4191 3.75269 24.6681 3.03989 23.4163C2.23077 23.9941 1.76842 25.034 0.699219 25.294C2.14408 26.8827 10.7266 37.7728 10.9866 38.1772C12.2292 40.257 13.6452 42.6546 10.0619 43.0012C9.94631 45.1677 12.4893 45.8032 12.8072 47.7386C15.0612 48.8362 17.6041 49.3851 19.6558 50.9738C20.2723 51.1472 20.8791 51.0509 21.4764 50.685C24.8284 48.5763 54.0435 47.883 54.2457 47.9119C55.1705 46.872 55.6618 46.2943 59.2162 46.352C75.572 46.7275 82.9119 31.9378 94.991 25.1207C95.7423 24.7162 96.6381 24.2252 97.2738 20.2677C94.3263 20.3255 91.7255 22.6075 88.6046 21.5099C88.0556 21.3077 82.5073 18.159 84.7612 15.7904C87.7088 12.6995 90.5119 13.5661 91.6967 13.9416C91.87 10.3886 91.4367 9.08875 91.4078 9.05986C90.1363 6.20012 87.6221 4.1781 86.2061 1.40502C83.5476 1.07764 79.6946 0.625088 74.6472 0.0473633" fill="#C5C5C5"/>
</svg>
