<svg width="16" height="7" viewBox="0 0 16 7" fill="none" xmlns="http://www.w3.org/2000/svg">
<path d="M8.99881 0.555664C9.60566 1.45114 9.37445 2.28883 8.33414 2.9821C8.30525 2.9821 3.82622 5.43743 2.06349 5.14857C1.63003 5.06191 1.34106 4.88859 1.16768 4.74416C1.16768 5.52409 1.19651 5.69741 0.0117188 6.62177C1.51438 5.9285 2.52581 6.27512 3.01706 6.44844C5.50222 3.73313 7.46728 4.80193 7.84294 5.03302C8.79655 4.51307 9.43223 4.36863 10.0391 4.28197H10.2703C11.5129 4.2242 11.7152 4.65749 10.906 5.52408C10.7905 5.66851 10.646 5.78407 10.5304 5.89962L10.9927 5.81296L11.7441 5.75518L11.8019 5.81296C12.6977 5.46633 13.6224 5.0908 14.5182 4.74416C13.9403 4.2531 13.6224 3.99311 13.9691 3.47316C14.1425 3.1843 14.4604 2.98211 14.7783 2.72213C15.0094 2.54882 15.5007 2.20218 15.2117 1.99998C15.0383 1.88443 14.7205 1.62445 12.2642 1.36448C10.5015 1.16227 9.63455 0.960072 8.99881 0.555664Z" fill="#C5C5C5"/>
</svg>
