<svg width="17" height="22" viewBox="0 0 17 22" fill="none" xmlns="http://www.w3.org/2000/svg">
<path d="M3.80598 0.718262C3.54591 0.949352 3.1701 1.18042 2.21649 1.15154C2.10091 1.15154 1.95658 1.15154 1.84099 1.15154C1.52312 2.2781 1.75415 5.54227 2.59217 6.09111C2.59217 6.09111 4.78846 7.76649 0.887333 7.9687C0.800641 7.9687 0.684946 7.9687 0.598255 7.9687C0.742741 9.90408 0.395995 10.7129 0.078125 11.2329C0.511584 11.695 1.34974 12.5616 4.00829 13.5438C12.533 12.1572 10.8569 16.6057 9.75881 19.5232C9.8744 19.6676 10.1634 20.072 12.4462 21.9208C12.5329 20.6787 13.6599 19.9565 15.8561 19.7832H16.2318C16.2318 19.7832 16.4052 19.4943 16.2896 18.7722C16.0873 17.5301 16.2318 16.9234 16.4341 16.3168C16.4341 16.2302 16.4917 16.0858 16.4917 15.9991C16.2028 15.6525 15.0759 14.9881 13.8911 14.3526C11.0014 15.6236 2.41882 10.1352 4.61502 4.64679C5.09664 3.43357 4.81736 2.14333 3.77706 0.776047" fill="#C5C5C5"/>
</svg>
