<svg width="45" height="17" viewBox="0 0 45 17" fill="none" xmlns="http://www.w3.org/2000/svg">
<path d="M21.616 1.01472L21.2693 1.10139C20.6721 1.54431 20.3253 1.78503 20.229 1.82354C18.8997 2.45904 17.4837 1.62134 16.1544 2.08352C15.1719 2.43016 15.3164 2.69012 15.432 2.97899C16.0099 4.19221 14.7962 4.45219 14.016 4.50997C13.1491 5.23212 11.8775 5.0588 11.0395 5.80984C10.9625 6.63791 9.11308 7.5045 5.49129 8.40961C5.27938 8.46738 3.76707 8.4385 0.954402 8.32295C0.781018 10.0272 3.46849 9.96947 3.15062 11.7893C3.11209 11.9819 2.0814 12.4922 0.0585938 13.3203C1.11816 13.7825 1.67689 14.5046 1.73468 15.4867C2.08145 15.5445 2.08151 15.5445 2.34159 15.4001C3.49748 14.7068 4.21979 14.3024 6.01142 14.3024C9.73917 14.3024 13.3803 15.2556 17.108 15.3712C20.1134 15.429 23.0608 16.0067 26.0661 16.1511C27.3665 15.9778 27.9156 15.8912 29.7072 16.5844C31.2677 17.2199 32.886 16.5555 34.4753 16.8155C34.4753 16.3244 34.7354 15.8623 37.5674 14.649L37.8563 14.5335C38.2608 14.5335 38.8099 14.5335 39.8502 14.4757C38.1741 12.1359 36.7003 10.1139 40.5437 10.7205C42.1812 10.9709 43.4142 10.9709 44.2426 10.7205C42.2776 9.07399 39.5612 9.10288 37.4806 7.74522C34.6487 5.8965 34.5331 5.78096 34.5909 4.74105C34.5909 4.62551 34.3885 3.06564 34.1573 2.92121C34.1573 2.92121 32.2791 2.37238 30.8632 2.28572C29.1293 2.45904 28.1371 2.52644 27.8867 2.48793C27.0775 2.31461 26.5285 1.56356 25.6905 1.53467C24.3034 1.65022 22.9742 1.10138 21.616 0.98584" fill="#C5C5C5"/>
</svg>
