<svg width="68" height="44" viewBox="0 0 68 44" fill="none" xmlns="http://www.w3.org/2000/svg">
<path d="M10.8585 0.479899C6.96699 0.441384 4.53008 0.595432 3.54757 0.942067C3.54757 1.37536 3.5475 1.98196 8.17106 7.38369C9.67372 9.17464 7.30418 10.8212 8.02661 12.5832C8.98022 14.8941 11.0897 16.5118 11.8121 18.9671C12.0144 19.6315 12.0144 20.007 12.0144 20.3248C12.0144 22.2313 9.73161 23.7622 8.08446 24.8888C6.89968 25.7554 5.57023 26.7375 4.29875 29.2506C3.66301 30.5216 3.89423 32.0237 3.2585 33.2947C2.59386 34.6234 1.14907 35.3167 0.628922 36.7321C0.224361 37.8587 0.542125 39.043 0.339844 40.1985C0.397638 40.1985 10.5985 40.4585 11.8121 40.9206C13.3437 41.5272 14.2684 41.7872 16.8402 41.845L38.8599 42.1628C43.6858 45.0225 62.6423 43.6648 62.8157 43.6359L56.4584 38.6098L56.2272 25.1776L66.1968 25.582L66.8903 25.1776C67.0637 23.4156 67.3238 21.0758 67.4972 19.3426C66.5725 19.487 59.2037 20.4114 59.1748 20.4114H58.7702C56.7763 19.9492 56.4295 19.1404 57.123 16.6562C57.1808 15.8474 55.9382 15.0097 54.869 14.4609C53.9731 13.9698 53.771 13.8253 53.5976 12.9876C53.3376 11.6011 54.6378 10.619 54.5511 9.26132C54.4933 7.99033 53.3375 7.18149 53.193 5.93938C50.679 6.14158 48.2805 5.18833 45.8243 4.98613C44.206 4.85132 43.2619 5.25577 42.9922 6.19939C42.6166 7.47038 42.3277 8.2214 40.7094 8.25029H40.4493C37.3572 7.93254 34.3809 9.2902 31.3178 8.79913C29.3817 8.51027 28.2835 7.52813 27.2432 6.17047C26.3185 4.95725 23.8622 4.72618 24.3535 2.64637C24.5846 1.69312 23.8046 0.82652 23.7757 0.82652C23.5445 0.739861 23.2555 0.653216 10.9453 0.479899" fill="#C5C5C5"/>
</svg>
