<svg width="47" height="58" viewBox="0 0 47 58" fill="none" xmlns="http://www.w3.org/2000/svg">
<path d="M15.9866 0.166099H15.6399C15.6399 0.166099 15.4087 0.281631 15.2931 0.310518C15.2642 1.14822 15.0909 1.40821 14.4552 1.72596C14.5419 2.93918 17.4605 3.80577 16.1023 4.52793C15.4377 4.87457 13.3858 4.41239 12.1433 3.80577C11.5942 3.51691 11.5655 3.5169 9.22478 4.58569C5.35255 6.34775 7.83766 10.4207 6.99964 13.3093L7.28854 13.8293C6.59501 14.4937 6.16155 14.5514 2.78058 13.8582C2.98286 14.4648 4.68788 19.751 2.14492 19.9821C1.79815 20.4443 1.65363 20.8486 1.56694 21.6864V21.9752C1.24907 22.0908 0.931151 22.2352 0.613281 22.3507C0.613281 22.4374 0.613281 22.5529 0.613281 22.6396C4.34103 25.326 8.99345 26.4526 12.3166 29.8034C14.8885 32.4032 17.8361 35.3495 16.3623 38.4981L16.2757 38.6137C20.3213 39.9425 21.1594 40.2024 21.8818 39.4514C21.9107 39.4225 25.725 35.7251 26.9676 36.0139C27.0254 36.0139 32.2269 38.0649 34.7699 42.5422C36.0606 44.9109 36.9083 46.3649 37.3128 46.9041C38.2664 48.2039 38.931 48.8394 39.798 49.3305C43.1211 51.237 43.9592 54.9922 46.1265 57.7942C46.7622 56.8409 46.7333 54.79 46.7044 54.79L42.8034 50.1104C42.3121 49.5905 41.8498 49.1861 41.0118 48.7528C38.0931 47.1929 37.1683 45.9797 36.9082 45.5464V41.6179L37.255 41.3868C35.8101 40.4046 35.7235 40.3469 35.3189 39.3359C35.2322 39.1337 35.03 38.9315 34.8277 38.8737C29.2794 36.4761 29.2505 36.245 28.1525 30.0923C28.0947 29.5434 27.9213 28.2724 31.938 28.5613C34.2787 28.7635 36.2725 27.2614 38.5843 27.2903C38.8444 26.857 39.0178 26.6837 40.2026 26.4237C40.3759 26.3948 40.5782 26.337 40.7516 26.2793C40.7227 25.846 40.6939 25.7015 41.0118 25.0949C40.5205 25.0949 39.6247 25.0372 38.6422 24.6616C38.5555 24.6327 38.4109 24.575 38.3242 24.5172C37.3706 24.0839 37.0817 22.8129 35.8969 22.6396C34.5098 22.447 33.614 22.2545 33.2095 22.0619C33.2095 22.0619 33.0071 21.9463 32.9204 21.8886C31.8512 21.2242 31.9957 20.2132 32.0824 19.4332V19.231C31.9669 19.0192 31.7164 18.8844 31.3311 18.8266C28.1524 18.3644 26.9099 16.1113 26.7076 15.3025C25.4072 15.0136 24.1067 15.2158 22.8064 15.1292L21.9684 15.0136C21.4771 14.7248 17.3159 12.0961 22.2573 8.34092C24.1356 6.8966 22.4886 4.61458 21.3327 3.34358C19.8012 3.14138 18.1828 2.93917 17.2292 0.859363C16.9402 0.223866 16.2179 0.137207 15.9 0.137207" fill="#C5C5C5"/>
</svg>
