<svg width="309" height="85" viewBox="0 0 309 85" fill="none" xmlns="http://www.w3.org/2000/svg">
<path opacity="0.4" d="M170.746 3.86411L170.428 4.26852L170.024 4.93289C128.152 9.23694 72.2355 14.5809 30.4211 19.4627C28.0227 23.709 26.4334 26.5109 21.8098 25.6155C22.3685 24.46 23.1583 23.6993 24.1793 23.3334C23.8326 23.0157 23.3991 22.5824 23.0524 22.2646C20.5961 22.6113 20.3649 22.6113 18.3421 22.7846C18.082 23.2179 17.7641 23.7956 17.5041 24.2289C17.8797 25.0666 18.0532 26.3376 17.9087 27.2331C18.2843 27.5219 18.7756 27.9264 19.1512 28.2152C18.2265 29.1588 17.2729 29.698 16.2904 29.8329C16.2904 29.8329 8.19921 39.5964 5.19389 42.3695C5.19389 44.6033 3.65269 48.5897 0.570312 54.3284C3.88386 58.1414 5.57911 60.0768 5.65617 60.1345C5.65617 61.03 5.28057 62.2721 4.81821 63.052C5.62734 63.6587 6.78317 64.3808 7.65009 64.9008C8.37252 65.594 9.23944 66.6051 9.81738 67.4139C11.9558 67.5872 14.0075 68.3671 16.1748 68.5115C20.2204 68.0494 21.6075 69.0893 21.9253 72.7867L34.2645 70.6203C35.6709 71.0824 41.4021 71.9105 51.4583 73.1045L65.9648 71.5446L68.4789 70.0714L78.1305 69.1182C80.529 70.6202 83.3898 71.429 85.3549 73.6244C85.2971 74.0866 85.2393 74.7221 85.1815 75.2132C86.5397 75.7331 87.58 76.1375 90.0651 76.6864C93.9952 73.6437 100.17 74.6258 108.588 79.6328C108.964 82.608 108.935 82.7814 108.935 83.0702C110.264 83.5613 111.911 84.1679 115.437 84.2545C115.235 83.8213 114.946 83.2435 114.743 82.7814C120.523 74.4044 138.237 70.418 139.075 70.4469C140.549 69.4648 141.04 69.1182 142.283 68.9448C142.774 68.9737 143.438 69.0026 143.93 69.0893C146.097 68.3093 148.12 69.5514 150.258 69.407H150.576C151 69.0989 153.523 69.2144 158.147 69.7537C158.638 69.7248 159.303 69.667 159.823 69.6381H160.285C161.817 68.4538 162.597 68.0205 164.187 68.4538C164.273 67.9627 164.36 67.2983 164.418 66.8073C165.891 66.0562 166.99 65.5074 170.833 65.0452C171.555 65.0163 172.48 64.9874 173.203 64.9585H173.52L189.934 66.0273C190.396 65.9407 191.032 65.8251 191.495 65.7385C195.232 63.9668 199.181 64.583 203.342 67.5872C202.745 71.5542 202.841 73.8844 203.631 74.5777C203.545 75.0398 203.429 75.6464 203.342 76.1375C205.038 77.1967 206.126 78.304 206.608 79.4594C207.07 79.4594 207.677 79.4594 208.139 79.4883C213.745 73.8555 205.163 66.2006 210.827 60.5678C210.942 60.4523 227.558 48.4356 241.833 45.8647L242.354 45.7781C242.122 45.3736 241.805 44.8537 241.573 44.4493C243.481 42.1673 246.313 43.265 248.653 42.485C248.22 42.3117 247.642 42.0806 247.208 41.9073C247.382 41.4451 247.584 40.8674 247.757 40.4052C248.075 40.2897 248.48 40.1163 248.798 40.0008C247.902 39.6831 246.688 39.3075 245.764 39.1053C246.11 38.2676 246.284 37.0255 246.168 36.1301C245.735 35.9567 245.157 35.7257 244.723 35.5234C244.926 35.0902 245.157 34.5124 245.359 34.0791C248.74 32.9815 250.069 28.2152 254.491 28.9663C253.999 29.804 253.161 30.815 252.439 31.4505C252.872 32.2882 253.306 33.5303 253.479 34.4546C254.173 33.7903 254.982 32.8081 255.502 32.0282C255.213 31.6238 254.866 31.1039 254.577 30.6994C254.664 30.5839 267.436 19.9249 284.11 19.8382C283.879 19.4049 283.561 18.8561 283.359 18.4228C283.677 17.9317 284.023 17.1518 284.544 16.8918C284.544 16.8918 292.384 13.8299 308.066 7.70597C306.361 4.87512 305.668 3.71967 307.17 0.831048C298.472 -0.237744 293.155 6.86827 285.96 9.49692L285.613 9.61247C279.631 10.0169 273.62 10.4502 267.639 10.8835C254.779 14.6965 242.614 20.387 229.87 24.4311C220.71 27.2909 217.993 26.2798 216.173 25.0955C216.491 23.6223 216.953 21.6003 222.27 21.8602C222.906 19.1642 223.224 17.768 223.224 17.6717C221.374 17.9606 219.64 18.7694 217.791 19.1161H217.011C217.126 18.1917 218.552 16.6126 221.288 14.3787C221.23 13.9165 221.143 13.281 221.085 12.79C207.908 7.35934 207.504 30.4972 194.153 26.5109C193.026 23.5356 194.442 21.9469 199.499 16.9496C199.412 16.4585 199.268 15.7941 199.181 15.3031C202.437 13.1847 209.497 11.2397 220.363 9.46803L219.814 9.29472L201.897 9.35248C200.944 9.23694 199.701 8.83253 198.834 8.42812C192.477 10.7968 186.36 11.7982 180.485 11.4323C180.427 10.9701 180.34 10.3346 180.282 9.87244C181.323 9.23694 184.53 7.27268 191.841 5.77059C191.292 5.77059 190.541 5.77059 189.992 5.85725C186.582 7.27268 185.686 6.86827 183.779 5.9728H183.548C179.993 6.175 171.006 5.27953 170.949 5.25064C170.891 4.81735 170.833 4.21075 170.804 3.77746" fill="#FF6858"/>
</svg>
