<svg width="269" height="97" viewBox="0 0 269 97" fill="none" xmlns="http://www.w3.org/2000/svg">
<path d="M191.377 0.286865C182.621 0.604614 173.866 1.269 165.11 1.73118C164.214 1.73118 163 1.84672 162.104 1.93338C161.893 2.28002 150.179 3.18511 126.965 4.64868C127.832 4.822 128.988 5.16864 129.797 5.54416C128.95 6.08337 126.455 6.51666 122.313 6.84404C125.174 7.82617 128.237 8.08615 131.098 9.12606C131.04 9.53047 130.924 10.0504 130.866 10.4548C122.428 11.0037 114.453 7.13291 105.986 7.88395C107.286 8.4039 108.644 8.77942 109.945 9.29937C109.685 9.64601 109.367 10.1082 109.107 10.4548C107.816 10.6281 105.976 10.6667 103.587 10.5704L103.038 10.7148C100.64 10.5704 98.4437 9.50158 96.0742 9.2416C95.8719 11.3214 95.4962 12.5346 90.208 13.3434C90.2658 12.4769 90.5547 11.3503 90.9015 10.5704C90.6703 10.2237 90.3525 9.79044 90.0924 9.44381C85.5844 9.15495 81.2498 10.5415 76.7996 10.8303C74.4301 10.9748 73.5921 11.0325 71.5982 11.3792C72.0027 11.5236 72.5229 11.7258 72.9274 11.8702C68.9107 15.6832 64.2293 12.5057 59.9236 13.1412C60.2704 15.2596 56.9472 16.3572 49.9541 16.4343C43.9434 17.2142 32.4424 20.1606 28.7146 21.5183C29.6683 21.5471 30.9397 21.5183 31.8933 21.5183C36.9792 21.2005 37.0659 21.2005 38.8575 21.5183C38.7708 21.9516 38.6552 22.5004 38.5685 22.9337C26.894 30.4441 13.0523 27.7577 0.453125 31.1085C0.7132 31.4262 1.08886 31.8595 1.34893 32.2062C16.7415 31.9173 25.0542 32.0232 26.2872 32.5239C26.2005 32.9283 26.085 33.4483 25.9983 33.8527C24.8617 34.2764 17.6085 35.0467 4.23866 36.1636C6.63713 36.3369 9.03555 36.0192 11.4051 36.5391C10.9428 37.1746 10.1048 37.8679 9.38237 38.2145C16.6934 39.5722 23.8888 37.4924 31.142 37.4057C44.5214 35.7014 56.8605 38.8789 56.9472 38.9078C56.9472 39.3411 56.8894 39.8899 56.8605 40.3232C62.0813 43.0193 64.5858 44.7139 64.3739 45.4072C65.0385 45.9271 65.9921 46.5626 66.7145 46.9959C66.57 47.4003 66.3967 47.9203 66.2811 48.3247C66.9457 48.7291 67.6681 49.5957 67.986 50.3179C66.0595 51.377 64.6531 52.5421 63.7669 53.8131C67.2057 56.384 70.0954 52.831 73.3319 52.9465C73.6209 53.7264 74.1411 54.7086 74.6034 55.4307C79.6893 56.0084 80.7586 56.124 82.8392 57.5683C82.608 57.9438 82.2901 58.406 82.059 58.7815C77.6666 59.7059 73.3609 58.0594 68.9685 58.3193C72.0894 59.6481 76.3373 59.8503 77.1753 59.8792C80.4696 59.5615 81.1053 60.2258 82.2901 61.3813C79.5738 66.4364 79.1981 66.4364 72.6674 66.5519C69.402 66.9275 69.3442 66.9275 63.7092 71.3471C63.8826 71.4626 65.2311 71.944 67.7548 72.7914C67.1961 73.6002 65.9921 74.2838 64.1426 74.8423C64.0848 75.2467 63.9982 75.7666 63.9115 76.1711C67.1672 77.7694 68.8818 78.6553 69.0552 78.8286C68.6506 79.8974 68.0149 80.9084 67.7837 82.0639L67.8415 82.1505L68.1594 82.1216C68.5639 82.1216 69.1418 82.1216 69.5464 82.1216C70.4326 84.1244 72.0894 85.5302 74.5167 86.339C74.3145 91.7696 83.3593 93.9939 83.446 93.9939C85.0835 93.8013 86.8559 93.9457 88.7632 94.4272C93.4156 94.1383 97.3745 98.0668 102.229 96.7092C102.316 96.7092 110.552 92.7518 110.436 88.3033C110.089 88.13 109.598 87.87 109.222 87.6967C110.205 86.2235 110.436 85.848 114.135 85.7902C114.135 85.7902 116.061 84.6251 119.914 82.2949C119.914 81.8905 119.857 81.3417 119.828 80.9373C120.435 80.3018 121.475 79.7241 122.313 79.493C121.764 78.8864 121.128 77.9909 120.752 77.2687C121.947 76.6717 123.642 76.5755 125.838 76.9799C125.896 76.5755 125.954 76.0555 126.012 75.6511C128.786 74.6112 131.762 74.7267 134.594 73.9468C134.768 73.6002 145.055 70.7982 165.456 65.5409C166.246 64.0966 170.224 63.2204 177.391 62.9123C183.402 62.6619 195.259 60.5243 212.964 56.4995C206.895 56.0759 201.472 55.941 196.694 56.0951C196.608 55.6907 196.521 55.1419 196.434 54.7086C198.082 53.842 198.688 53.5242 200.971 53.2931C200.827 52.8887 200.624 52.3688 200.48 51.9933C205.595 45.6383 211.865 54.2464 217.703 53.6109C218.194 52.9465 218.714 51.9355 218.945 51.1267C215.68 49.1335 211.865 48.6425 208.427 47.1404C208.427 46.736 208.427 46.1871 208.427 45.7827C212.039 44.9739 216.142 48.8735 219.35 44.8295C214.408 43.3852 209.409 46.8804 204.468 44.685C204.641 44.2806 204.901 43.7607 205.075 43.3563C206.076 43.0674 207.358 42.8459 208.918 42.6919C208.947 42.2875 209.005 41.7386 209.034 41.3053C212.53 40.3521 215.767 41.9986 219.148 42.2586C221.575 41.9697 224.031 41.9408 226.43 41.5653C224.811 40.4388 222.817 40.2366 221.055 39.4855C222.442 38.1279 222.5 38.0412 231.573 38.1279C232.18 38.1279 232.989 38.099 233.538 37.9257C225.938 37.319 225.534 36.5969 224.754 35.1815C227.73 33.3905 231.169 34.546 234.261 33.6505C234.261 33.2172 234.29 32.6395 234.29 32.1773C230.331 29.3175 225.534 30.5597 221.228 29.4042C221.286 28.9998 221.373 28.451 221.43 28.0466C224.494 27.5844 239.231 27.3822 239.376 27.3822H239.722C239.433 27.0644 239.058 26.66 238.74 26.3711C233.808 26.4289 230.822 26.2652 229.782 25.8801C229.84 25.4757 229.926 24.9268 229.984 24.5224C231.101 24.2528 232.46 24.1469 234.058 24.2047C230.244 23.5114 226.603 25.5623 222.818 24.8979C224.58 22.1826 234.983 17.9941 235.099 17.9653C235.243 17.5608 235.417 17.0409 235.532 16.6365C237.555 15.7699 238.393 15.3944 243.45 15.2211C242.872 14.99 242.034 14.7011 241.399 14.6722C235.735 15.3462 232.864 15.6736 232.787 15.6544C232.96 15.2788 233.221 14.7589 233.423 14.3834C234.27 14.133 239.26 13.6034 248.392 12.7946C245.589 12.2747 242.786 12.7946 239.983 12.5924C240.243 12.2458 240.56 11.7547 240.821 11.4081C264.516 8.75053 265.181 8.6061 268.938 7.65286C266.828 7.13291 252.004 5.02421 248.189 7.7684C245.213 9.93487 235.59 8.08615 235.532 8.02838C229.522 8.80831 224.118 11.928 218.078 12.6791C217.674 12.6213 217.154 12.5057 216.749 12.448C219.494 9.64601 223.424 9.12606 226.69 7.27734C226.401 6.95959 226.025 6.52629 225.736 6.20855C225.389 6.20855 224.898 6.17966 224.551 6.15077C217.443 6.64184 210.883 10.2526 203.601 9.8771C203.774 9.50158 204.034 9.01051 204.208 8.63499C205.855 8.17281 206.086 8.11504 210.652 7.19068C200.451 6.06411 190.568 11.7258 180.252 8.6061C195.596 0.200204 212.357 5.28418 228.395 3.52212C227.123 3.0792 225.409 2.83848 223.251 2.79997C212.53 3.1466 202.069 0.055771 191.377 0.344634" fill="#C5C5C5"/>
</svg>
