<svg width="13" height="4" viewBox="0 0 13 4" fill="none" xmlns="http://www.w3.org/2000/svg">
<path d="M12.3182 0.311322C10.5266 0.311322 8.76393 0.686841 6.9723 0.715728C4.92059 0.7735 3.50458 0.397974 3.12891 0.282429C3.04222 0.282429 2.86878 0.195758 2.34863 0.224644C1.5973 0.224644 0.932705 0.426847 0.585938 0.62905C1.56844 1.20678 4.11148 1.58232 5.18068 1.75563C5.78752 1.84229 6.68332 2.0156 7.69473 2.33335C8.87951 2.70887 9.86194 3.48879 11.0467 3.83543C11.0756 3.83543 11.1335 3.83543 11.1624 3.83543H11.2201C11.2201 3.83543 11.278 3.83543 11.3069 3.83543C11.4514 3.57545 11.3068 3.11328 11.2201 2.8533C10.9889 2.21781 10.8734 1.49565 12.3182 0.282429" fill="#C5C5C5"/>
</svg>
