<svg width="15" height="20" viewBox="0 0 15 20" fill="none" xmlns="http://www.w3.org/2000/svg">
<path d="M11.0374 0.756898C10.8641 0.901329 10.8061 1.10353 10.9217 1.36351C11.1529 2.02789 11.0085 2.57673 9.53472 3.12557C8.17655 3.76107 7.25191 4.16548 3.46637 4.19437C2.31048 4.19437 1.53014 5.14761 0.460938 5.40759C0.634321 6.36083 0.836715 6.47639 2.0215 6.82303C4.39108 7.48741 5.0557 8.20956 4.53555 9.56721C4.50665 9.62499 4.44875 9.74054 4.41985 9.79831C5.09412 10.299 5.63353 13.5054 6.03809 19.4174C8.13796 19.3019 9.40946 19.1478 9.85255 18.9552L10.4305 18.7242C8.6678 16.8177 8.08989 12.5425 10.8351 10.5493C15.2564 7.34296 15.5165 7.16966 14.0716 2.49009C11.3842 2.23011 11.1818 1.21907 11.124 0.843553L11.0085 0.728027" fill="#C5C5C5"/>
</svg>
