<svg width="9" height="9" viewBox="0 0 9 9" fill="none" xmlns="http://www.w3.org/2000/svg">
<path d="M2.50654 0.761719C1.8708 0.761719 1.26394 0.963908 0.859375 1.10834C2.6799 1.59941 4.87624 3.93919 4.61616 5.64348C4.44278 6.68339 5.91648 7.95438 6.7256 8.3299C7.01458 8.21436 7.24572 7.66552 7.59249 6.59673C8.05484 5.18131 8.25717 4.63247 8.71952 4.02586C8.77732 3.96809 8.83508 3.88142 8.86397 3.79476C7.73698 3.44813 7.01452 3.04373 6.66775 2.58154C6.57143 2.466 6.1959 2.31195 5.54089 2.11938C4.76067 1.88829 3.3447 1.48386 2.65117 0.906137C2.59337 0.877251 2.56433 0.790589 2.50654 0.790589" fill="#C5C5C5"/>
</svg>
