<svg width="52" height="14" viewBox="0 0 52 14" fill="none" xmlns="http://www.w3.org/2000/svg">
<path d="M5.78673 0.799631C3.24377 0.568541 3.01257 0.915167 2.6947 1.37735C2.20345 2.0995 1.24991 2.24393 0.960938 2.27281C2.11683 2.9372 3.38828 2.2728 4.54417 2.61944C5.78675 2.99496 6.24904 4.43929 7.54942 4.75703C14.2825 6.46132 14.4848 6.43244 17.8947 6.02804C24.57 5.24811 29.7716 9.78324 35.8689 11.0253L50.5486 13.1629C51.0687 13.2207 51.4156 12.7296 51.9068 12.7008C51.2133 12.2771 48.8918 11.7957 44.9425 11.2564C39.6254 10.5343 38.4696 8.85886 40.0301 8.07894C36.6009 7.67453 33.0079 6.91388 29.2513 5.79694C26.6505 7.79009 14.5715 2.87942 14.4559 2.85053C12.6932 2.0706 8.82097 1.05958 5.81566 0.770717" fill="#C5C5C5"/>
</svg>
