<svg width="9" height="4" viewBox="0 0 9 4" fill="none" xmlns="http://www.w3.org/2000/svg">
<path d="M7.22694 0.530703C7.02466 0.530703 6.41796 0.444044 6.10009 0.530703C5.9267 1.33952 5.4931 1.54171 3.06573 1.31062C1.62087 1.15656 0.898438 1.24323 0.898438 1.57061C0.898438 1.57061 1.01408 3.59264 3.12358 3.91039C3.15248 3.91039 3.18131 3.91039 3.23911 3.91039C3.23911 3.91039 3.32586 3.82373 3.29696 3.62153C3.21027 3.04381 3.35477 2.61052 4.39507 2.32166C5.05971 2.14834 6.53341 2.2061 7.94938 2.66828C9.27865 3.10157 8.87411 1.33951 8.87411 1.31062C8.75852 0.963987 8.64288 0.675128 7.19802 0.50181" fill="#C5C5C5"/>
</svg>
