<svg width="53" height="43" viewBox="0 0 53 43" fill="none" xmlns="http://www.w3.org/2000/svg">
<path d="M51.6091 0.382958C49.673 0.758479 47.968 1.94282 45.9741 2.17391C41.7262 2.63609 37.4784 2.28945 33.2016 2.46277C31.3232 2.54943 29.5893 3.50268 27.711 3.61823C26.3528 3.70489 24.9947 3.53156 23.6077 3.47379C20.3712 3.35824 17.337 5.1203 14.0716 4.39815C11.6731 3.87819 8.95678 0.0363346 6.84728 2.80942C6.84728 2.80942 9.10119 5.00476 10.1993 5.43805C11.4708 5.92912 12.4245 6.99791 13.7538 7.40232C17.5682 8.58666 21.527 9.1355 25.3703 10.1176C27.5665 10.6954 30.2829 11.3886 33.1437 11.5908C35.022 11.7064 37.1316 11.8508 37.6806 12.7174C38.7498 14.3639 22.0472 23.1164 20.1399 23.1164C18.1171 23.1164 16.0944 22.5965 14.0716 23.1164C12.2222 23.6075 10.6617 24.9652 8.6389 24.9363C8.34992 24.9363 7.48298 24.9363 4.99781 25.1385L2.85944 27.1316L0.75 29.2692L2.88837 41.1415C3.43742 41.6036 4.18861 42.2391 4.73766 42.7013C13.3201 36.6641 20.0822 32.9378 24.8502 31.6668C28.4913 30.6846 35.8601 26.0628 40.6282 21.7299C41.0905 21.3255 41.8419 20.6322 42.4487 19.8812C43.4023 18.7546 43.5179 17.1948 44.4137 16.0393C45.8875 14.1906 47.9391 12.9774 49.384 11.1286C49.4996 10.9842 50.4532 9.77099 51.089 8.52888C51.638 7.46009 53.1117 0.642944 51.5513 0.325195" fill="#C5C5C5"/>
</svg>
