<svg width="18" height="4" viewBox="0 0 18 4" fill="none" xmlns="http://www.w3.org/2000/svg">
<path d="M1.80979 0.40855C1.00067 0.466323 0.827326 0.755191 0.769531 0.899622C1.17409 1.33292 1.8387 1.3618 2.27216 1.76621C2.73451 2.22839 1.98321 2.835 2.47446 3.26829C2.53225 3.32607 2.79228 3.49938 3.60141 3.55715C4.6995 3.61493 6.11548 3.32607 6.9535 3.06609C8.25388 2.66168 9.58321 2.40171 12.6174 2.19951C14.149 2.08396 15.7094 2.05507 17.2409 1.88176C17.4143 1.88176 17.5877 1.82399 17.79 1.7951C17.212 1.21738 13.1953 0.235233 9.49647 0.40855C6.95351 0.697413 4.38167 0.206347 1.83872 0.40855" fill="#C5C5C5"/>
</svg>
