<svg width="23" height="14" viewBox="0 0 23 14" fill="none" xmlns="http://www.w3.org/2000/svg">
<path d="M2.77426 0.723021C1.61837 0.607476 1.12706 0.694131 0.722496 0.809676C0.635804 0.809676 0.520286 0.867445 0.433594 0.896331C0.664772 1.01188 0.78022 1.04078 1.0114 1.09856C2.0517 1.18522 5.17267 1.3874 8.84262 3.61165C10.6631 4.70932 11.3855 5.46038 11.3277 6.15365C11.2988 6.50029 11.8191 7.33797 12.3393 7.91569C13.7841 7.56906 15.489 8.29122 16.2982 8.86894C17.0495 9.41778 17.3096 9.85109 17.3963 10.0533C17.5697 10.4866 17.1361 10.891 17.2806 11.3243C17.2806 11.3243 18.2919 12.0849 20.3147 13.6063C19.9102 12.3353 21.8465 12.4797 22.4533 11.7576C22.3088 11.1798 18.6388 8.40677 18.4076 8.29123C16.6738 7.33798 14.6509 7.3091 12.9171 6.35585C11.9345 5.8359 11.6168 5.46037 11.2701 4.88265C11.2123 4.7671 11.0966 4.5649 10.6342 4.27604C10.4609 4.1605 6.18409 1.64737 6.1552 1.61849C5.60615 1.35851 4.27689 0.925231 2.74534 0.751913" fill="#C5C5C5"/>
</svg>
