<svg width="20" height="10" viewBox="0 0 20 10" fill="none" xmlns="http://www.w3.org/2000/svg">
<path d="M10.3883 0.751953C9.00123 0.925271 7.67201 1.44521 6.28494 1.53187C5.18684 1.61853 4.08871 1.35856 2.99061 1.30079C4.1754 2.08072 3.7708 2.60067 3.13506 3.06285L2.90383 3.20728C5.85135 4.24719 7.64301 4.88269 5.27343 6.00925C4.56063 6.35589 4.18492 6.54845 4.14639 6.58697C3.79963 6.90472 3.71297 7.45356 3.27951 7.71354C3.07723 7.82909 2.49937 8.14683 0.476562 8.60901C0.476562 8.60901 1.71913 10.1689 5.88034 9.70669C6.54497 9.64892 9.89708 9.21562 12.4111 8.08905C12.8735 7.88685 13.7981 7.45356 15.1852 7.33802C16.3989 7.25136 17.6126 7.56911 18.8263 7.33802C18.8551 7.33802 18.9131 7.33802 18.942 7.33802C19.1153 7.30913 19.4332 7.22247 19.6355 6.50031C19.7222 6.12479 19.8376 5.22931 19.5198 3.75612C19.3464 3.03396 18.7684 2.51401 18.595 1.79185C17.9593 1.53187 17.497 0.896377 16.7168 0.925264C15.9077 1.96517 15.821 2.1096 14.5784 2.1096C14.5495 2.1096 10.8507 1.73408 10.4462 0.838608V0.751953" fill="#C5C5C5"/>
</svg>
