<svg width="9" height="16" viewBox="0 0 9 16" fill="none" xmlns="http://www.w3.org/2000/svg">
<path d="M0.550781 0.17627C0.724165 0.56142 0.964975 0.831043 1.27321 0.985103C2.94925 1.70726 2.83375 3.0649 2.80485 3.49819C2.51588 5.66466 2.40027 6.47349 2.60255 7.25342C2.86263 8.35109 3.70065 9.21767 4.04741 10.2865C4.36528 11.2397 4.22075 12.2507 4.53862 13.204C4.56751 13.2906 4.62542 13.4062 4.65432 13.5217C4.94329 14.2439 5.55015 15.0816 5.75243 15.3416C6.44596 15.0816 7.11047 14.9083 8.15077 14.7349C8.03519 12.944 7.86188 10.5176 7.6885 9.27544C7.6018 8.5244 7.60184 7.74449 7.54405 6.96456C7.48625 6.0402 7.37053 5.95352 7.05267 5.75132C6.79259 5.578 6.47474 5.26026 6.53254 4.7403C6.56143 4.39367 6.995 4.1337 6.82161 3.72929C6.79272 3.64263 6.64827 3.58487 5.95473 3.35378C3.67185 2.66051 2.94929 2.34274 2.57362 0.407365C1.90899 0.320706 1.24434 0.234042 0.579707 0.17627" fill="#C5C5C5"/>
</svg>
