<svg width="30" height="21" viewBox="0 0 30 21" fill="none" xmlns="http://www.w3.org/2000/svg">
<path d="M15.2375 0.478027C15.382 2.26898 15.2375 3.13555 15.0641 4.34878L14.8907 5.04206C11.1052 5.15761 7.34858 5.04206 3.56304 5.33092L3.44734 5.44647C4.42984 5.93753 7.05956 7.20852 4.6033 8.104C4.19874 8.24843 3.59195 8.33509 3.21629 8.42175C2.95621 8.47952 2.6093 8.53729 2.34923 8.59506C2.29143 9.51942 1.62686 10.2416 0.0664062 11.0504C0.673249 11.5703 1.33796 11.9748 1.9448 12.4658C2.55164 12.928 2.81174 13.7368 3.41859 14.199C4.97904 15.4122 6.85733 16.1344 8.44668 17.3187C9.2847 17.9542 9.92043 18.8497 10.7874 19.4563C11.1919 19.7452 11.452 19.8896 11.8855 20.1496C12.7813 19.7163 13.6481 19.543 14.8618 19.543C14.9774 19.543 15.1219 19.543 15.2375 19.543C15.093 19.2541 15.0063 19.1096 14.544 18.4742C13.8793 17.492 12.29 15.1811 17.9538 15.2389H18.6184L18.9075 15.3256C21.2482 11.2815 24.1668 14.3434 24.7159 14.9789L25.2071 15.4989C26.4785 15.4989 27.6922 16.0188 28.9637 16.0477C29.3971 16.0477 29.9174 16.0188 29.7729 12.8124C29.7729 11.4259 29.7728 11.1948 29.6861 10.8482C29.2815 8.73949 26.1895 9.60609 25.8427 7.41073C25.7849 6.97744 25.9294 6.13973 27.6922 5.61978C28.7614 5.30203 28.7903 4.98428 28.7614 4.89762C28.7036 4.60876 28.4725 4.46433 28.1257 4.29101C26.1607 4.00215 24.1957 5.44647 22.2018 4.3199C21.7202 4.0503 21.6431 2.8852 21.9706 0.824648C19.7166 0.73799 17.4626 0.680234 15.2375 0.593575" fill="#C5C5C5"/>
</svg>
