<svg width="32" height="10" viewBox="0 0 32 10" fill="none" xmlns="http://www.w3.org/2000/svg">
<path d="M13.9546 0.176758C13.9546 0.176758 11.1515 0.523389 9.93781 2.16991C9.85111 2.28545 9.7356 2.40099 9.6489 2.51654C9.07096 3.15204 8.57964 3.4409 7.68382 3.98974C6.70132 4.59635 6.7591 5.92512 5.86328 6.56062C4.50511 7.54275 0.950772 8.64043 0.921875 8.64043C2.94468 8.40934 4.88082 7.48498 6.99032 7.77385C8.11731 7.91828 7.88613 8.26491 7.07701 9.44924C7.21186 9.4685 7.36599 9.47812 7.53937 9.47812C12.1629 9.13149 15.8618 5.72292 20.5721 5.60738C22.2192 5.5496 23.3173 5.92512 23.7796 6.09844C25.0511 6.53173 27.8252 6.61839 30.1081 6.30064C30.5416 6.24287 30.9751 6.12733 31.4085 6.06956C29.877 5.00077 24.791 5.89624 26.3804 3.84531C26.207 3.64311 25.9469 3.32536 21.3233 2.74763C13.2321 1.73661 13.5211 1.10112 13.9835 0.176758" fill="#C5C5C5"/>
</svg>
