<svg width="67" height="31" viewBox="0 0 67 31" fill="none" xmlns="http://www.w3.org/2000/svg">
<path d="M16.7126 0.134911C15.8168 0.597091 15.2388 0.885966 14.1696 0.914852H13.9675C12.1181 0.712649 10.9332 0.625985 9.71949 0.683757C7.36918 3.91902 6.07854 5.66182 5.84736 5.91216C6.77207 9.12817 5.96287 12.0842 3.41991 14.7802L3.27546 15.0113C-0.82795 16.4268 1.42596 22.2329 3.01531 23.0706C5.87614 24.5727 9.08372 23.4461 12.0312 24.2549C12.089 24.2549 17.0017 25.7281 17.5796 28.3279C17.753 29.1078 19.2268 30.1766 19.9203 30.4366C21.7408 30.3499 23.4746 29.6567 25.2952 29.6278C30.6893 29.6663 33.685 28.5397 34.2822 26.2481L34.34 25.9881C40.813 21.944 41.9977 21.944 42.749 21.9152C47.0644 22.0114 49.6748 22.3773 50.5803 23.0128C54.7993 18.314 57.005 15.9261 57.1977 15.849L57.7757 15.5313C57.6312 13.2493 60.6942 10.1007 61.301 9.49405C63.4683 7.35647 63.5551 7.26981 66.2425 7.12538C66.3389 6.91355 66.4353 6.58618 66.5316 6.14326C66.5316 6.14326 66.3582 5.91217 66.3004 5.82551C65.5779 4.98781 64.3354 5.10335 63.613 4.29454C63.1217 3.7457 63.8729 2.96577 63.3239 2.41693L61.1566 0.799305C59.7984 1.46369 58.7004 2.64802 57.0821 2.85023C53.7301 3.28352 50.5225 1.95474 47.1993 1.98363C44.483 1.98363 42.0556 3.48571 39.3681 3.63015C35.2936 3.86124 33.6176 3.25462 31.826 2.59024C29.4275 1.69476 27.0868 2.93689 24.7172 2.87912C24.3704 2.87912 23.9369 2.82134 23.6191 2.73468C22.3765 2.30138 21.8853 0.712631 20.4404 0.625972C17.753 0.452655 17.6662 0.452666 16.886 0.163804C16.8282 0.163804 16.7416 0.106035 16.6838 0.0771484" fill="#C5C5C5"/>
</svg>
