<svg width="56" height="51" viewBox="0 0 56 51" fill="none" xmlns="http://www.w3.org/2000/svg">
<path d="M39.6152 0.879048C38.6905 1.51455 38.8639 3.10329 37.4768 3.33438C36.4076 3.50769 31.4661 2.78555 29.9923 2.55446C29.9635 2.72777 29.9924 2.95885 30.0213 3.13217C30.3102 3.94099 30.2524 4.72092 25.8311 4.69203C24.4152 4.69203 23.6639 4.9809 23.4039 5.12533C22.797 5.44308 22.7391 6.25189 22.1901 6.59853C22.1323 6.6563 22.0168 6.71407 21.959 6.74295C23.2016 8.04284 18.5491 10.0938 18.4913 10.0938C18.6069 10.6137 18.8958 11.8558 14.6768 11.8558H14.3879C14.3879 11.8558 14.1855 11.8558 14.0989 11.8269C14.1567 13.8105 13.1837 15.4666 11.1802 16.7954C11.1802 16.7954 11.0358 16.9109 10.9492 16.9687C15.2837 18.0664 12.2784 19.5685 12.1339 19.6262C11.0647 20.1462 9.44648 19.8573 8.57956 19.7129C6.67234 19.3951 3.1758 21.0705 4.2739 22.5437C4.38948 22.6882 4.56285 22.8904 4.62065 23.0926C4.76513 23.6414 4.10046 23.9303 4.21604 24.4791C4.33163 25.0857 5.11191 25.259 5.1697 25.9234C5.1697 25.9234 4.98668 26.3952 4.62065 27.3389C5.31418 28.7543 7.51035 27.5411 8.0305 29.2453C8.14609 29.6209 8.31942 30.8052 5.80536 31.0941C8.31942 32.0473 7.16356 34.3004 6.38334 34.5893C5.7765 34.8204 4.76516 34.8204 4.10052 34.8204C4.01383 34.8204 3.89813 34.8204 3.81144 34.8204C3.2046 38.72 2.36666 38.7489 1.18187 38.7778C1.00848 38.7778 0.777299 38.7489 0.632812 38.72C0.921785 39.2978 1.18187 39.6733 2.45335 40.251C3.86932 40.8865 4.12928 42.5041 5.22738 43.3996C6.32547 44.324 7.56821 45.0172 8.63741 45.9994C8.7241 46.086 8.81069 46.2016 8.89739 46.2882C9.24415 46.7215 8.92629 47.2704 8.72401 47.7037C9.32122 47.8577 9.83182 48.7532 10.2556 50.3901C10.5832 50.3516 11.7294 50.2745 13.6944 50.159C13.81 49.0036 14.5902 48.214 16.0351 47.7903C16.5264 47.6459 16.8731 47.617 17.2777 47.5592C17.451 47.5592 18.9248 47.3859 21.0343 47.8192C21.6411 47.9348 21.7277 47.8192 21.8722 47.6748C22.9125 46.5386 24.03 46.2208 25.2244 46.7215C25.2244 46.7215 25.4845 46.4327 25.6001 46.3171H25.3689L24.5309 46.2593C24.1263 45.9705 23.7796 45.6816 23.8085 45.2772L25.051 39.9333C25.2533 39.4711 25.6578 38.5178 28.0274 38.1712C29.1255 38.0268 30.7726 37.7957 31.9863 36.9002C31.7358 36.4765 32.5738 35.7544 34.5003 34.7337C34.5003 34.7337 32.1019 32.625 28.3741 32.4517C27.854 32.4517 26.6403 32.3939 26.2068 31.8162L25.2244 28.6098C25.2822 28.0899 27.0161 25.028 27.045 24.9991C27.2472 24.6524 27.9408 24.3347 28.3164 24.248C30.686 23.757 32.333 21.7349 34.6737 21.1861C34.7315 21.1861 40.5688 19.6551 42.9095 18.7885C43.0251 18.7308 43.1984 18.673 43.3429 18.6441C44.1231 18.3552 44.3254 18.2108 44.7877 17.9797C44.5566 17.2287 43.3429 17.2576 43.4007 16.2754C43.4007 16.1888 43.4585 16.0443 43.5162 15.9866C44.0075 15.3511 44.5855 14.8022 45.0479 14.1378C45.857 12.9535 47.3596 13.3001 48.4288 12.6935C49.2187 12.2699 51.6076 12.0965 55.5955 12.1736H55.711C54.4973 11.4418 53.852 10.8737 53.7749 10.4693C54.1217 10.0071 55.162 10.1804 55.0464 9.4005C54.873 8.41836 53.4858 8.70723 53.3125 7.75398C53.1102 6.56964 51.6365 5.84749 52.0988 4.40317C51.7906 4.2106 47.7353 3.00701 39.933 0.792393L39.673 0.734619" fill="#C5C5C5"/>
</svg>
