<svg width="39" height="30" viewBox="0 0 39 30" fill="none" xmlns="http://www.w3.org/2000/svg">
<path d="M6.18795 24.0423C5.87008 24.1001 5.58108 24.1579 5.26321 24.2156H5.55229C5.55229 24.2156 5.7545 24.1579 5.84119 24.129C5.95678 24.1001 6.04343 24.0712 6.15902 24.0423M6.39025 23.9845C6.39025 23.9845 6.24571 24.0134 6.15902 24.0423C6.24571 24.0423 6.30356 24.0134 6.39025 23.9845ZM6.96823 0.67334C6.04352 0.731112 5.49438 1.51104 5.43659 2.26208C5.40769 2.83981 4.30967 3.30198 3.70282 3.53307C3.52944 3.61973 3.29823 3.70639 3.12484 3.79305C3.21154 4.05303 3.35601 4.42855 2.74917 4.89073C2.63358 4.9485 2.48908 5.03516 2.37349 5.09293C3.73166 5.69954 0.986503 6.68168 0.292969 7.4905C1.62224 7.75047 4.1363 8.21265 2.63364 9.33922C2.74923 9.74362 2.74931 10.148 2.89379 10.5236C3.73181 10.6102 4.07844 9.94583 4.19403 9.71474C4.5408 9.05036 4.88771 8.58817 6.33257 8.55929C7.63295 8.67483 7.71959 9.19479 7.71959 9.19479C7.74848 9.45476 7.83511 11.3901 7.83511 11.3901C7.80621 11.5346 7.71953 11.8812 6.9393 12.5167C6.79482 12.6322 6.62151 12.7767 6.47703 12.8922C6.36144 12.9789 6.18798 13.1233 6.0435 13.2389C8.61535 13.3544 10.9561 11.9679 13.528 12.1701C14.7705 12.2567 15.5219 13.0655 14.6261 13.9321C14.366 14.1921 14.0191 14.3077 13.759 14.5676C14.4814 15.6942 16.1865 14.5676 16.7934 15.9253C16.8512 16.0697 16.0709 18.5828 16.042 18.6984C16.0131 18.8428 15.8974 18.9872 15.7819 19.1028C15.0594 19.9116 11.1006 20.0271 9.2223 19.6227C9.04892 19.9694 8.96213 20.1138 8.03741 20.6337L7.89296 20.7204C8.84657 20.8648 11.7941 21.3559 10.0892 22.6847C9.13557 23.4068 7.1128 23.869 6.33257 24.0134C6.60228 23.9749 8.10493 24.1579 10.8405 24.5623C12.7478 24.8511 14.6838 24.3601 16.5911 24.6778C17.3135 24.7934 17.8626 25.1689 17.5158 25.66C17.4002 25.8333 16.2732 27.3065 11.534 27.0176C10.2337 26.9309 9.54008 26.9021 5.69674 29.0108C6.93932 28.7797 8.21087 28.5197 9.91581 29.1263L10.2047 29.213C10.956 28.4619 11.3028 28.1153 12.5165 28.0864H12.8055C14.077 28.2019 15.3196 27.7398 16.62 27.8264C17.6314 27.8553 18.3538 27.8842 19.6542 27.3931C19.8565 27.3065 20.2321 27.162 20.8678 27.162C21.9659 27.162 22.9483 27.7398 24.0464 27.7398C26.0692 27.7398 28.0632 27.2198 30.086 27.1909C30.664 27.1909 31.7621 27.1909 34.7674 26.4399C33.3225 26.2954 32.4267 25.5733 33.6982 24.5045C34.3917 23.9268 35.5188 23.4646 36.6458 23.0602C38.3218 22.4247 38.6396 22.1358 38.7263 21.7314C38.0039 21.0959 35.8654 20.6915 35.432 21.0093C34.1316 21.9625 29.9126 21.2981 30.7795 19.305C30.2016 18.785 29.6334 18.0147 29.0747 16.9941C29.0747 16.9941 28.0633 15.2031 26.3584 14.9431C23.7865 14.5387 22.9484 13.5855 22.2548 11.7945C22.0814 11.3516 20.8486 10.8124 18.5561 10.1769C18.0359 10.0325 16.7934 10.148 16.4177 10.1769C15.6953 10.2347 14.0191 10.408 13.7879 9.54142C13.5857 8.90592 15.1751 7.98157 16.3598 7.54827C18.296 6.88389 19.9431 3.9086 19.972 3.87972C16.8511 3.50419 13.7302 4.45743 10.6093 4.05303C9.04886 3.85082 8.18186 3.0709 8.9043 2.46428C10.0602 1.48215 11.6495 1.51104 12.8632 0.731114C12.2467 0.846659 10.2721 0.846659 6.9393 0.731114" fill="#C5C5C5"/>
</svg>
