<svg width="15" height="9" viewBox="0 0 15 9" fill="none" xmlns="http://www.w3.org/2000/svg">
<path d="M2.8572 0.0810547C2.56823 0.0810547 2.13476 0.138826 0.863281 0.283258C2.85719 2.01643 3.40618 2.39194 3.86853 2.65192C5.68906 3.7496 7.04726 4.84729 7.50962 5.39613C8.54992 6.63824 8.11642 6.98487 7.65407 7.3315C7.53848 7.41816 7.42299 7.90922 7.94315 8.74692C9.27242 7.7359 9.27248 7.73592 9.27248 7.27374C9.27248 6.52269 9.76373 6.14716 10.1683 5.97384C11.1508 5.54055 11.9887 5.68498 14.2138 6.08939C14.0693 5.8583 13.8093 5.65611 13.7804 5.62722C12.9135 4.93395 11.8732 4.50064 11.0352 3.80737C10.2838 3.20076 9.79247 2.33418 8.92555 1.872C7.79856 1.26539 6.49821 1.46759 5.34232 1.0343C4.5621 0.745433 3.8108 0.369912 3.03058 0.109936C3.00168 0.109936 2.97284 0.109936 2.91505 0.109936" fill="#C5C5C5"/>
</svg>
