<svg width="7" height="7" viewBox="0 0 7 7" fill="none" xmlns="http://www.w3.org/2000/svg">
<path d="M5.07754 0.172043C4.23951 0.172043 3.51706 0.576457 2.70794 0.720889C1.92771 0.86532 1.40753 0.836424 0.511719 0.778651C1.62908 1.83781 2.21679 2.4059 2.27459 2.48293C2.50576 2.82956 2.79464 3.37841 2.53456 4.07168C2.1589 5.11159 2.53458 5.80486 2.73686 6.06484C3.17032 5.86264 3.97943 5.45823 5.42429 5.25603C5.65547 5.22714 6.06008 5.16935 6.20457 4.96715C6.43575 4.6494 6.37792 3.69616 6.34902 2.91623C6.29123 1.81855 6.3202 1.24082 6.60917 0.634211C6.58028 0.518666 6.46472 0.143144 5.01986 0.114258" fill="#C5C5C5"/>
</svg>
