<svg width="22" height="15" viewBox="0 0 22 15" fill="none" xmlns="http://www.w3.org/2000/svg">
<path d="M2.38419 0.0136719C2.05669 0.206247 1.864 0.3892 1.80621 0.562518C1.54613 1.51576 1.77737 2.4979 1.69068 3.45114C1.57509 4.8088 0.563562 5.90648 0.47687 7.29302C0.447973 7.72631 0.534728 8.04405 1.80621 8.44845C2.87541 8.7662 4.00241 8.7951 5.07161 9.14174C5.93853 9.40172 6.48762 9.71946 6.92108 10.0372C6.94998 10.0372 7.00774 10.095 7.06553 10.1239C5.2739 5.09765 9.98421 6.97524 11.458 7.66851C13.8275 8.76619 13.7409 9.69057 13.6253 10.846C14.6078 11.5393 15.7637 11.8859 16.7173 12.6081C17.5553 13.2436 17.873 13.8502 18.0175 14.1679C18.0464 14.2546 18.1044 14.3701 18.1622 14.4568C18.6245 14.4568 21.3986 14.1102 21.8609 13.9657C21.7164 13.7058 21.0517 13.2436 20.5316 12.9258C20.1559 12.6947 19.6935 12.4059 19.2601 11.9726C18.4799 11.1927 18.4221 10.4416 18.3643 9.89277C18.3065 9.34393 18.2488 9.11283 18.0754 8.93951C17.9598 8.82397 17.7574 8.73732 17.6418 8.67955C13.394 6.71528 12.7872 5.44429 12.7005 4.98211C12.6427 4.54882 12.8739 4.05775 14.3188 3.9422C16.2549 3.82666 18.9423 2.9023 20.0693 2.18014C17.2085 1.86239 12.7294 2.20901 12.6716 3.24892C12.6427 3.82664 11.8914 4.34659 10.3309 4.14439C7.93246 3.85552 4.32033 2.26681 2.41311 0.0714567" fill="#C5C5C5"/>
</svg>
