<svg width="22" height="12" viewBox="0 0 22 12" fill="none" xmlns="http://www.w3.org/2000/svg">
<path d="M1.33571 0.444824C1.33571 0.444824 1.1335 0.502599 1.04681 0.560372C1.10461 0.656659 1.20086 0.74333 1.33571 0.82036C1.74027 1.08034 2.69399 1.65805 3.06965 2.20689C3.27194 2.49575 4.25436 5.23995 4.25436 5.41326C4.25436 5.81767 3.7921 6.1932 4.16776 6.59761C4.60122 7.08868 4.63003 7.4353 4.25436 7.66639C4.00392 7.82045 2.79021 7.83972 0.613281 7.72417C0.873357 8.09969 0.931137 8.21525 0.960034 8.47522C1.28754 8.6678 2.67461 8.83148 5.12125 8.96628C7.6931 9.11071 8.84897 9.57289 14.3106 11.826C13.9349 10.0351 13.935 10.0062 15.1776 9.65955C17.4316 9.05294 19.6566 10.0062 21.9105 9.7462L21.3327 9.45734C20.697 8.7063 20.5235 8.47522 21.9395 7.52197C21.506 7.40642 21.1882 7.00202 20.6969 7.00202C19.6566 7.00202 18.703 7.43532 17.6627 7.43532C14.2818 7.14645 5.06353 2.52464 2.49167 0.964778C1.65365 0.444825 1.33571 0.473717 1.33571 0.473717" fill="#C5C5C5"/>
</svg>
