<svg width="12" height="8" viewBox="0 0 12 8" fill="none" xmlns="http://www.w3.org/2000/svg">
<path d="M7.50887 0.651855C6.06401 0.796287 4.41698 1.48953 4.01242 1.7495C3.86793 1.83616 3.8389 1.86507 3.69441 2.03838C3.54993 2.2117 2.91419 2.93386 0.804688 4.84035L3.72334 7.23792C3.95452 7.23792 4.24352 7.29569 4.4747 7.32457C5.71728 5.30254 5.97733 4.8981 9.32942 5.12919C9.38721 5.12919 9.445 5.12919 9.50279 5.12919C9.90735 4.2626 10.7744 3.80046 11.4101 3.13608C11.4101 2.90499 10.2253 2.26946 9.53172 1.89394C8.37583 1.28733 7.91346 0.969604 7.5378 0.651855" fill="#C5C5C5"/>
</svg>
