<svg width="83" height="45" viewBox="0 0 83 45" fill="none" xmlns="http://www.w3.org/2000/svg">
<path d="M64.6245 1.48078C59.163 1.50966 55.6086 3.21395 54.6839 3.84945C54.7128 5.29376 56.9089 6.18926 55.8686 7.86466C55.4062 8.6157 53.3834 9.4534 51.1873 9.51118C50.5804 9.51118 49.4534 9.54006 48.2397 9.30897C45.2633 8.73125 42.6047 7.17138 39.5994 6.68031C37.1721 6.27591 34.687 6.4781 32.2596 5.92926C30.0056 5.40931 29.1386 4.57162 28.9363 4.34053C28.5029 3.84947 28.503 3.47393 28.5319 3.04064C27.9251 2.60734 20.874 0.845294 16.3372 1.13416C14.5166 1.2497 13.1007 1.16304 11.2801 0.816406C10.7889 2.26072 10.7022 2.52069 8.21704 2.75178H8.10151C6.74334 3.30062 5.52958 4.10944 4.2292 4.74494C3.28522 7.44099 2.11964 9.02974 0.732569 9.51118C0.530288 9.59783 0.241343 9.68448 0.0390625 9.77114C1.84996 11.5621 2.60137 13.3434 2.29313 15.1151C3.13115 16.155 3.56457 16.906 1.88853 18.0904C1.91743 18.5814 2.20641 19.0147 2.26421 19.4769C3.0348 20.4205 3.1985 21.0753 2.75541 21.4412C2.11967 21.7589 1.45514 22.0189 0.877196 22.4522C2.9578 23.8387 3.4201 27.1607 6.5988 27.2762C8.27484 27.334 11.8292 28.1428 11.8581 28.1428C13.3319 28.5472 13.8231 30.2515 15.239 30.7137C17.5797 31.4936 20.0937 30.9159 22.4055 31.638C23.0702 31.8402 24.3995 32.3602 26.1044 33.429L35.0049 30.8292L77.7149 44.0302L77.5994 42.8748L82.8298 42.9903C81.6739 32.0136 79.5644 21.1812 78.6396 10.1755L79.5933 5.0338C79.5933 5.0338 79.5354 4.74494 79.5065 4.62939C78.7552 4.51385 78.293 4.42718 75.8367 4.19609C72.109 3.82057 68.8435 1.74075 65.0868 1.48078H64.5667" fill="#C5C5C5"/>
</svg>
