<svg width="56" height="27" viewBox="0 0 56 27" fill="none" xmlns="http://www.w3.org/2000/svg">
<path d="M50.6505 0.403466C49.1478 0.692329 48.8878 2.54104 47.4429 2.94545C46.287 3.2632 45.1312 3.17655 43.9465 3.29209C43.5419 3.81204 43.3396 4.10091 41.2301 4.01425C39.9394 3.91796 39.0724 3.87944 38.6293 3.8987C37.7624 4.82306 36.202 4.50532 34.1502 3.72539C32.6476 3.14766 29.1798 2.2233 28.8041 2.16553C26.7813 2.28107 24.8453 0.490121 22.7647 1.93443C21.7822 2.6277 21.2331 2.68548 20.3083 2.68548C20.1061 2.6566 19.8171 2.59882 19.6148 2.56994C19.297 2.91657 19.1236 3.20544 18.8635 4.44755C18.7864 4.89047 16.5132 5.60299 12.0438 6.58512C12.3905 9.38709 6.23545 8.31831 5.57081 7.76947C5.3011 7.55764 4.87727 7.43245 4.29932 7.39393C2.54622 7.29765 1.74668 7.49024 1.9008 7.97167C2.21867 8.95381 1.35174 9.58929 0.80269 9.9937C0.109156 10.4751 0.87023 13.4023 3.08569 18.7751C5.33967 19.1795 12.2461 20.3928 7.94041 23.3969C6.9868 24.0613 5.91751 24.5235 4.9639 25.2168C5.88862 25.7656 16.783 27.4121 33.11 26.17C31.7518 23.4258 30.8271 21.5771 36.5198 21.7504H36.8087C37.4734 21.8371 38.138 21.9237 38.8027 21.9526C38.8894 21.9526 39.0049 21.9526 39.0916 21.9526C39.6117 20.2483 44.6977 20.075 46.3737 20.826C46.4315 20.7683 46.5472 20.7105 46.605 20.6527C46.5472 19.4684 45.1312 18.4285 46.2004 17.1286C47.3273 15.7421 49.0323 16.6375 50.3616 16.0887C48.5121 14.8466 46.894 13.7778 48.6278 13.3734C50.4772 12.9401 52.1821 13.8067 53.9448 14.0089C53.9737 13.8356 53.9449 13.6045 53.8582 13.4312C53.55 12.7764 54.0604 11.7943 55.3897 10.4848C56.69 9.18488 52.7889 9.1849 53.0201 7.36506C53.0779 6.81623 53.3958 6.4407 54.754 6.29626C53.8678 5.85334 53.4631 4.77491 53.5402 3.061C51.7871 1.77074 50.8432 0.942669 50.7083 0.576776L50.6217 0.345703" fill="#C5C5C5"/>
</svg>
