<svg width="123" height="42" viewBox="0 0 123 42" fill="none" xmlns="http://www.w3.org/2000/svg">
<path d="M25.2276 1.11302C24.3895 1.19968 4.73942 3.01952 0.867188 11.3388C0.982777 11.5121 1.12728 11.7143 1.24287 11.8876C7.60026 11.8683 10.962 11.9358 11.328 12.0898C11.2991 12.292 11.2413 12.5809 11.1835 12.7831C10.5767 13.1297 9.44971 13.7941 6.50219 13.823C3.99776 13.8615 2.32166 13.9193 1.47401 13.9963C2.20607 14.9014 11.9734 15.2962 30.7759 15.1806C35.8329 14.7473 40.8321 13.9963 45.918 13.7941C45.0318 13.4282 44.5021 13.0912 44.3287 12.7831C46.6405 9.14341 60.0488 13.9674 60.9735 15.6717C60.858 15.8161 60.6845 16.0183 60.54 16.1628C62.8518 16.0665 64.4219 16.6346 65.2503 17.8671C70.5674 16.8272 72.9658 20.178 72.359 21.5356C72.0411 22.2 71.1742 22.951 70.3073 23.6732C75.0465 24.5398 80.0746 20.2935 84.6115 24.482C83.6868 26.3596 75.9423 27.6595 74.3241 27.3129C73.6594 23.2977 61.8983 26.6485 61.7827 26.764C61.6382 26.9085 61.5514 27.1395 61.4647 27.3129C61.6959 27.9195 62.0716 28.4394 62.3317 29.046C61.8886 29.9319 55.2518 31.1933 42.4215 32.8301C41.4967 32.9457 39.3294 33.379 39.0404 34.8233C39.2524 34.9196 42.3733 34.7463 48.4032 34.3033C49.7903 34.2167 50.4838 34.2167 51.7841 34.2456H52.3044C53.9226 32.7146 56.321 32.5702 61.118 32.8301C61.5611 32.8494 63.7476 33.6678 67.6776 35.2855C67.9666 36.1521 67.4176 36.932 67.3887 37.7408L89.8996 41.1205C87.7035 36.672 82.5597 38.1741 79.3232 35.8921C80.4791 34.1878 86.6343 34.4478 89.6685 35.6032C89.7263 35.6032 96.0548 37.9719 101.198 34.9099C100.476 34.39 99.5513 34.3033 98.8289 33.8123C98.4821 28.2372 91.1133 31.3858 88.4548 28.0639C88.5704 27.284 88.5993 27.024 90.6799 26.4174C90.5065 24.1643 94.1765 22.5755 97.8176 24.0776C104.502 26.8122 108.182 27.8328 108.856 27.1395C108.856 27.1395 116.919 23.211 122.525 21.7378C121.86 21.5645 120.646 21.2756 118.537 21.3623C114.231 21.6512 113.913 20.7557 113.913 19.658C112.411 18.2426 108.567 18.1848 108.163 18.1848C105.389 18.5603 92.8183 17.6071 93.8875 14.9784C93.9742 14.7473 94.5521 13.6785 97.2396 13.4475C96.8639 13.3897 96.4016 13.1875 96.0837 12.9564C96.4594 12.032 96.5749 11.7432 99.4646 11.2232C99.3779 11.021 99.2913 10.7899 99.2335 10.5877C98.9445 10.4722 98.5977 10.2989 98.3088 10.2122C96.4015 11.0499 95.3612 11.5121 93.7719 11.1077C93.743 10.9344 93.6852 10.6744 93.6274 10.5011C94.0705 10.0389 94.6774 9.5767 95.448 9.11452C92.6449 7.06359 87.7035 12.0609 86.4031 7.95907C83.5712 7.35246 81.0571 10.0678 78.1384 8.82566C78.1095 8.65234 78.0518 8.39237 77.994 8.21905C79.6989 6.8614 82.0107 7.29468 83.8024 6.22589C80.248 4.34829 73.9772 10.1544 72.648 5.04156C71.0875 4.66604 69.4115 5.12821 67.8799 4.5216C67.851 4.3194 67.7933 4.05943 67.7355 3.88611C67.8511 3.77057 67.9956 3.59724 68.0822 3.4817C65.6838 2.15293 56.5811 2.70177 55.3096 4.69492C54.9917 5.21488 51.8708 6.6303 50.5127 4.78158C47.594 4.83935 45.08 8.68123 41.9013 6.11036C42.566 4.63716 44.502 4.17497 44.7332 2.38403C43.9626 1.5367 43.481 0.814539 43.2883 0.217557C41.5256 -0.5046 24.9097 2.90397 23.7827 4.72381C23.9561 5.03193 24.4474 5.48448 25.2565 6.08146C25.006 6.46661 23.6768 7.13099 21.2686 8.07461C22.569 8.39236 24.0139 8.1035 25.1698 8.97009C24.8519 12.4364 16.7318 10.0967 16.2406 9.5767C15.0847 8.27682 17.3097 7.23692 16.7318 5.93703C18.2922 3.56836 26.3835 1.1708 26.4702 1.14192C26.1234 1.08414 25.6322 1.02637 25.2854 1.05526" fill="#C5C5C5"/>
</svg>
