<svg width="21" height="11" viewBox="0 0 21 11" fill="none" xmlns="http://www.w3.org/2000/svg">
<path d="M5.2796 0.771973C7.99594 1.92742 6.78224 2.56292 6.34878 2.73624C5.1062 3.22731 2.18766 2.93844 0.656105 2.21629C0.482722 2.15851 0.251509 2.04296 0.078125 1.98519C1.26291 2.82289 1.34956 3.14064 1.29176 3.54505C1.29176 3.54505 4.09482 6.00038 4.38379 6.11593C5.77086 6.73217 6.9461 7.53136 7.90935 8.51349C9.4987 8.05131 11.0303 7.32914 12.6485 6.92474C12.8797 6.86696 13.6021 6.69364 14.5557 6.89584C16.5785 7.30025 16.8385 8.97567 16.4917 10.2756C16.6651 10.3622 17.012 10.5066 17.85 10.7666C18.428 8.80235 21.4333 8.28238 20.9131 5.65374C20.7397 4.72937 20.5952 4.61383 16.145 1.92741C15.6826 2.10072 15.307 2.18739 14.5557 2.27405L14.0934 2.33183C13.0531 2.99622 12.8219 3.14063 11.0303 2.67845L10.7701 2.62069H10.7123C8.71838 2.53403 7.15792 1.17636 5.2796 0.800843" fill="#C5C5C5"/>
</svg>
