<svg width="49" height="31" viewBox="0 0 49 31" fill="none" xmlns="http://www.w3.org/2000/svg">
<path d="M21.185 0.361194C7.60326 1.11224 4.8291 3.91418 4.36674 5.53181C3.44203 8.88262 2.11274 11.0202 0.378906 11.8868C1.33252 12.6378 3.78877 14.4576 6.41842 15.3531C8.12336 15.9308 9.48154 17.3174 11.3888 17.4041C15.0587 17.5774 16.9081 17.6929 18.8731 18.9928C22.4275 21.3615 27.1667 19.6861 30.6055 22.488C30.7211 22.5747 31.2123 23.0658 30.5477 23.8168C30.4899 23.8746 30.4321 23.9612 30.3743 23.9901C29.1606 25.1456 27.629 25.8966 26.2998 26.8788C24.9994 27.8609 24.7104 29.5652 23.4967 30.5762C31.9058 30.4318 32.8594 30.7206 33.4085 30.8939C35.0556 31.0961 36.4138 29.9407 38.0032 29.8252C38.5811 29.8541 43.1757 28.583 44.2449 27.2832C45.4875 25.7811 48.8107 16.8552 48.8107 16.7974C46.7879 16.6241 45.1119 18.9351 42.9157 17.6063C40.3149 16.0175 41.2107 12.2912 38.6678 10.6736C38.5233 10.7313 25.664 12.7534 28.207 7.81381C28.9583 6.33098 29.1028 5.19481 28.6404 4.40525C27.9758 3.27869 27.4846 2.41209 29.5074 1.45884L29.4495 1.4011C27.3111 1.57442 25.4907 0.187868 23.3812 0.216754L21.156 0.33228" fill="#C5C5C5"/>
</svg>
