<svg width="242" height="124" viewBox="0 0 242 124" fill="none" xmlns="http://www.w3.org/2000/svg">
<path d="M145.917 2.81788C145.686 3.13563 145.397 3.54004 145.195 3.85779C148.142 11.5126 157.129 34.7661 139.935 26.4468C137.739 25.378 136.063 23.4427 133.549 22.9516C133.434 22.9516 127.134 19.9474 114.65 13.9391C113.263 13.2651 112.204 12.591 111.472 11.917C111.645 11.4549 111.934 10.7327 112.396 10.5305C112.685 10.2994 113.061 9.98167 113.379 9.7217C112.859 9.0862 112.136 8.24851 111.53 7.69967C111.53 7.32415 111.587 6.80419 111.616 6.42867C112.396 6.25535 113.437 6.08205 114.246 5.99539C114.448 5.70653 114.737 5.3021 114.939 4.98435C114.679 4.89769 114.333 4.75328 114.073 4.63773H113.812C113.177 4.48367 112.011 3.91554 110.316 2.93341C109.622 3.22227 108.582 3.51113 107.831 3.42447L84.8284 0.275879C84.366 0.622514 83.6147 1.02692 83.0368 0.998035C83.0368 1.02692 81.1875 4.37773 81.1586 5.56207C80.8696 5.79316 80.4939 6.1109 80.2049 6.37088C80.8695 7.98851 82.6322 8.76845 83.2391 10.4439C81.9676 10.9638 79.4826 10.3476 75.7837 8.59513C75.7837 8.97066 75.8414 9.43283 75.8703 9.80835C72.316 10.9638 70.9289 7.35301 70.8711 7.17969C67.2879 6.22645 64.0225 4.26218 60.1791 4.29107C60.2369 4.66659 60.2947 5.18655 60.3236 5.56207C59.553 6.12054 57.9732 6.11092 55.5844 5.5332C55.5844 5.90872 55.5845 6.39978 55.5556 6.74642C55.3245 6.80419 55.0355 6.91974 54.8043 6.97751C54.2552 7.43969 53.3016 7.87297 52.5791 7.95963C52.897 9.17286 53.4749 10.2994 53.7928 11.5126C52.8488 11.8208 51.7412 11.7534 50.4697 11.3104C50.8454 12.0037 51.3943 12.8992 51.7989 13.5924C51.6833 13.968 51.5388 14.4591 51.4232 14.8346C51.2209 14.9212 50.9319 15.0368 50.7297 15.1234C47.7243 16.1922 46.2796 13.1303 43.9389 12.4948C43.6499 12.7259 43.2452 13.0436 42.9274 13.2747C43.0622 13.9487 43.6787 15.1041 44.7768 16.741C40.789 23.6737 20.9656 27.8623 16.3131 24.0493C11.8629 24.0493 4.52292 27.5734 4.46513 27.6023C4.11836 28.9888 3.97401 29.5088 2.61583 29.5088L1.83555 29.3932C1.51768 29.1621 1.11319 28.8733 0.824219 28.6711L4.1473 39.5034C8.04843 42.4498 8.25079 43.2008 8.74204 44.8185C8.33748 45.2229 7.70177 45.7429 7.15273 45.7429H7.09487C6.69031 45.9162 6.17007 46.2339 5.73661 46.205C35.2696 75.8712 26.7161 78.6732 25.6469 78.8754C38.1305 90.8343 52.5213 80.3775 65.8718 82.3129C75.09 83.6705 83.0946 76.8822 92.3129 78.3265C102.889 79.4531 113.697 77.951 124.158 80.8686C126.614 81.0708 128.955 81.8796 131.353 82.3417C132.74 82.5728 139.531 83.9305 138.664 87.8879C142.767 89.6788 144.761 94.0118 148.605 96.1494C150.685 93.7807 150.916 93.5496 154.037 93.3763C154.644 85.7503 160.539 90.1122 160.597 90.1699C160.915 90.4588 161.233 90.9209 161.493 91.2676C161.348 92.5097 160.77 93.6363 160.51 94.8495C165.249 98.9706 167.504 101.291 167.272 101.811C167.908 101.753 168.746 101.724 169.382 101.753C172.763 102.591 177.155 105.682 178.571 109.408C179.322 114.781 189.148 116.37 189.234 116.399C191.43 116.716 198.799 119.056 202.556 121.136C205.85 121.454 208.596 116.832 212.121 119.721C214.635 120.529 216.571 122.32 218.796 123.591C226.907 121.3 232.628 120.308 235.961 120.616C236.25 120.356 236.655 120.038 236.944 119.778C232.985 102.418 239.862 99.2402 241.278 98.778C242.405 93.2319 238.157 88.0612 240.209 82.4573C239.14 81.1574 238.822 79.4242 237.724 78.1532L236.973 78.0088C235.759 77.0267 234.401 75.9001 232.84 70.7006C228.217 69.834 226.83 64.3745 222.322 63.3634C220.992 63.1901 219.837 63.0457 218.449 61.2837L218.363 61.1392C215.704 60.5037 214.173 59.5216 212.699 55.5642C212.034 55.3909 211.138 55.0153 210.56 54.6109C208.971 54.8998 207.931 55.0731 206.862 54.3799C202.643 51.7512 201.024 46.5228 196.574 44.1541C191.199 41.2944 183.108 43.663 180.305 35.806C169.016 23.8856 162.437 17.9254 160.568 17.9254C158.565 17.5595 153.7 12.5044 145.975 2.7601" fill="#C5C5C5"/>
</svg>
