<svg width="44" height="17" viewBox="0 0 44 17" fill="none" xmlns="http://www.w3.org/2000/svg">
<path d="M29.0357 0.34082C27.8509 0.485252 27.0418 1.92956 27.2152 2.70949C27.4753 3.9516 25.828 3.83605 25.1634 4.41377C25.5102 5.10704 25.6258 5.45369 25.0479 5.91587C25.0479 6.63803 25.9727 6.98466 25.8282 7.79348C25.7704 8.05346 25.5103 8.3712 24.5856 8.28454H24.3544L24.181 8.19789C21.089 9.6422 19.1818 8.14011 16.8122 6.23362C15.7719 7.21575 15.2228 8.48674 15.3095 9.72885C15.3673 10.5954 14.9338 10.9421 14.6737 11.0865C14.587 11.1443 14.4715 11.1732 14.3848 11.2309C11.6973 12.4442 9.09659 10.9421 6.43804 11.0287C4.29965 11.1154 7.30501 14.8995 5.22441 15.3617C4.03962 15.6216 1.58323 14.7839 0.398438 14.3795C2.44051 15.3617 5.51326 15.8624 9.61667 15.8816C11.3216 15.8816 12.8243 14.8417 14.5582 14.8995C17.13 14.9861 18.5171 15.7661 19.2395 16.1705C19.4707 16.3149 19.5285 16.3438 20.3955 16.1705C22.216 15.7372 24.1521 15.8239 24.181 15.8239C24.181 15.1017 23.4874 14.4951 23.7185 13.7151C23.8341 13.3107 24.3255 13.1663 24.3833 12.733C24.47 12.1842 23.892 11.7509 24.1521 11.2021C24.5855 10.2488 26.8107 10.9132 26.3483 9.75775C25.857 8.51564 25.597 7.90902 26.5506 7.36018C30.7696 5.02039 34.9308 9.12223 39.1498 7.5046C38.6489 6.69578 38.5718 6.23362 38.9185 6.11807C40.3345 5.59812 41.7793 6.17583 43.2242 6.06029C43.2242 6.00251 43.2242 5.88699 43.2242 5.82921C42.2417 5.10706 41.1148 4.90485 40.7969 4.87596C36.9247 4.87596 34.2082 3.77827 33.6303 2.76726C33.0523 1.75624 29.7004 0.398599 29.0357 0.369713" fill="#C5C5C5"/>
</svg>
