<svg width="40" height="17" viewBox="0 0 40 17" fill="none" xmlns="http://www.w3.org/2000/svg">
<path d="M8.4445 0.438965C8.18443 0.843372 7.86656 1.21889 6.99964 1.56553C9.13804 3.41425 4.86121 3.90533 4.80342 3.90533C3.70532 3.98236 2.47247 4.30973 1.10466 4.88745C0.960175 4.94522 0.757768 5.03188 0.613281 5.08965C2.67462 6.611 3.85953 7.43907 4.16776 7.57387C7.20198 8.87376 8.38667 9.79813 9.31139 10.6358C10.4962 10.0292 11.2475 8.81599 12.5189 8.32492C13.4437 7.9494 14.2529 8.00718 15.4954 8.15161C17.7205 8.35382 19.9167 7.14059 22.1418 8.12272C23.9141 8.89302 25.3205 10.4818 26.3608 12.889C27.9791 13.2645 29.6262 12.0801 31.2445 13.0334C32.3426 13.6689 33.065 15.3732 32.8917 16.2398C32.805 16.6153 32.8338 16.6153 33.0072 16.8464C33.9319 16.5864 34.5098 15.7487 35.4634 15.5176C36.5615 15.2576 37.2551 15.5465 37.573 15.7487L37.9487 15.5465C35.7814 13.2067 39.5091 12.8312 39.538 12.8023C39.6247 12.8023 39.7691 12.8023 39.8558 12.8023C39.7113 12.6579 39.4802 12.4557 39.3646 12.2823C39.0756 11.8779 39.5379 11.4446 39.2778 11.0402C38.9022 10.4914 38.0352 10.6358 37.804 9.91368C37.6018 9.33595 37.6884 8.81599 38.1508 7.68942C37.544 7.25613 37.3418 7.08281 37.1684 6.12956C37.1684 6.0429 37.1105 5.95625 37.1105 5.8696C35.5501 5.60962 35.0299 4.8008 35.8101 3.87644C34.8276 3.06762 34.2208 1.91217 33.3539 0.987811C30.3775 2.4899 29.8574 2.77876 27.459 2.14327C27.1989 2.08549 26.8809 1.99883 26.6208 1.94106C25.5516 2.86542 24.3091 2.69211 23.2399 2.46102C23.0954 2.46102 22.8932 2.51879 22.7487 2.57656C22.2863 2.80765 21.3905 2.95207 20.6103 2.72098C19.8879 2.48989 19.6855 1.45 18.7319 1.53666C17.027 1.70997 14.7153 1.73885 13.0103 1.59442C12.7502 1.59442 12.4033 1.53665 12.1433 1.50776C10.8429 1.33445 9.68703 0.641169 8.38665 0.438965" fill="#C5C5C5"/>
</svg>
