<svg width="14" height="5" viewBox="0 0 14 5" fill="none" xmlns="http://www.w3.org/2000/svg">
<path d="M3.86755 0.971153C3.86755 0.971153 1.67146 1.43333 1.2669 1.69331C0.688957 2.06883 0.660066 2.73322 0.371094 3.25317C1.3825 3.36871 2.27819 3.91756 3.31849 4.00422C4.55144 4.04273 5.52435 4.14865 6.23715 4.32197C7.53752 4.63972 7.79763 4.69748 8.43337 4.66859C8.7994 4.66859 10.3117 4.77451 12.9703 4.98634C12.9703 4.98634 13.1148 4.98634 13.1726 4.98634C13.2593 4.4375 12.0455 3.28205 11.6698 2.93542C11.4387 2.73322 11.1785 2.32881 10.8896 2.24216C10.8318 2.24216 10.774 2.24215 10.7162 2.21326C9.93596 2.06883 9.15574 2.18437 8.37551 2.09772C6.81506 1.9244 5.4858 0.855618 3.86755 0.91339" fill="#C5C5C5"/>
</svg>
