<svg width="66" height="35" viewBox="0 0 66 35" fill="none" xmlns="http://www.w3.org/2000/svg">
<path d="M6.0833 0.32201C4.92741 0.206465 4.60948 0.206465 4.03153 0.32201C3.56918 2.14184 1.51762 1.13083 0.390625 1.91076C4.14727 2.14185 4.75403 2.74845 7.35479 5.23266C7.64376 5.52153 10.1868 5.84889 14.9837 6.21479C17.9601 6.53254 19.3761 8.41017 18.5959 9.04567C18.5959 9.04567 12.6141 9.27675 11.1692 8.90123L15.3015 12.252C15.2437 11.4432 15.157 10.4033 17.2665 11.0966C17.3243 11.0966 24.4908 13.6097 25.7045 14.3029C30.8193 17.2205 36.7432 17.4516 42.1181 19.4736C47.0595 21.3223 48.4178 22.5066 48.8512 22.911C54.6018 28.0239 57.4914 30.5948 53.677 30.6526C51.5001 30.6911 50.1323 30.9318 49.5736 31.3747C49.8337 31.6058 50.0938 31.8369 56.6535 32.0391C59.9093 32.1354 63.0108 33.079 65.9583 34.8699C62.953 28.7172 58.9364 20.5135 55.9311 14.3607C49.8338 12.3965 43.8809 10.0567 37.6969 8.32351C36.6566 8.03465 36.6277 8.06351 36.252 8.20795C35.2117 8.67013 35.2407 10.3456 33.7959 10.4033C32.8904 10.4226 31.9656 10.7114 31.0217 11.2699C30.0391 11.8765 27.3805 13.4364 24.982 12.8875C22.2946 12.2521 20.1274 9.62337 17.989 6.76363C15.735 3.75946 13.0379 1.86259 9.89776 1.07304C9.11753 0.870833 7.70155 0.524214 6.0833 0.32201Z" fill="#C5C5C5"/>
</svg>
