<svg width="113" height="54" viewBox="0 0 113 54" fill="none" xmlns="http://www.w3.org/2000/svg">
<path d="M0.974676 0.837891C1.00357 1.58893 1.03253 1.82002 0.136719 2.16666C2.82416 7.36618 5.33819 12.3057 9.67278 12.8546C13.4294 13.3167 14.9321 16.0321 11.0887 19.1518C11.0887 19.1807 14.4986 23.918 20.3359 24.7846C20.3937 24.7846 26.2309 26.1134 24.8149 29.3197C26.7799 30.5618 27.907 33.1038 30.6522 33.2194C31.6347 32.7861 32.3571 32.4972 33.9753 33.1905C40.5639 33.7393 43.9448 40.4409 50.2155 41.6253C56.3707 42.7807 61.7167 46.9692 68.3053 46.3915C74.0847 45.8908 77.0997 45.6694 77.3501 45.7271C80.3554 46.5648 81.6847 50.0601 84.8923 50.58C85.0079 50.58 101.826 52.9198 104.716 53.1798C105.843 50.4067 106.334 49.2801 112.836 48.9913C112.114 48.298 111.998 48.2691 111.304 48.0092C109.484 47.3159 109.224 44.9183 107.317 44.3406C103.993 43.3585 102.404 42.3474 101.884 42.0008C100.15 40.9031 98.0406 40.3543 96.6824 38.6789C94.8908 36.5413 99.5433 35.9347 100.699 34.3171C100.092 33.8549 99.9477 33.7393 97.5493 33.3349C95.0352 32.9305 94.6596 32.8439 92.5501 28.2509C90.8741 24.6113 90.9319 24.4957 93.6482 18.9496C93.0703 18.0252 92.6657 17.0142 92.03 16.1476C87.2908 15.7721 83.5052 12.3346 78.7371 12.0457C74.4025 11.9013 70.6171 9.21489 66.2247 9.44598C65.5601 9.8215 57.9311 11.5836 54.9258 11.6125C45.3319 21.4627 18.7175 4.39089 18.7753 3.87093C18.8042 3.49541 18.9199 3.00435 18.9199 2.62882C13.9785 1.30006 7.93896 8.89715 4.26901 3.06212C3.38282 2.79252 2.30401 2.06075 1.03253 0.866783" fill="#C4C4C4"/>
</svg>
