<svg width="54" height="34" viewBox="0 0 54 34" fill="none" xmlns="http://www.w3.org/2000/svg">
<path d="M28.6319 0.120117C27.216 0.293435 25.8001 0.149018 24.3841 0.495653C23.1415 0.784515 22.3034 1.93995 20.9741 2.05549C19.8182 2.14215 19.0381 1.85329 17.5065 0.842274C16.9286 0.457123 15.609 0.495663 13.5476 0.957843C11.4863 1.42002 9.06854 1.70885 6.2944 1.8244C6.81455 9.98958 7.03604 14.1781 6.95898 14.3899C6.58331 15.3143 6.06323 15.3721 0.890625 15.6609C1.06401 18.6651 1.29505 22.6803 1.46843 25.6845C5.65853 26.9266 7.88366 31.7795 6.20762 32.8483C6.14983 32.906 5.97641 32.9927 5.62964 33.1082C5.62964 33.2238 5.60086 33.3971 5.57197 33.5415C8.90479 33.7534 11.8811 33.0023 14.5011 31.2884C15.946 30.3641 16.0615 28.3131 17.7087 27.5332C18.2288 27.3021 19.6738 26.8688 22.13 27.7932C28.4296 30.2485 31.9262 29.3241 32.5619 29.1219C34.4691 28.4864 33.0532 26.0022 34.7292 25.2512C36.203 24.5868 37.879 25.049 39.3816 24.4135C40.8843 23.778 40.682 21.987 41.7512 21.0627C43.0805 19.9361 44.8722 20.2827 46.3749 19.705C47.3574 19.3295 47.733 18.2318 48.6577 17.7696C49.6691 17.2497 50.9117 17.6252 51.9231 17.0763C51.9231 17.0763 52.3565 16.7586 53.3101 15.8342C53.3101 15.7476 53.2524 15.6321 53.2524 15.5743C52.8768 15.4299 52.5878 15.2854 51.0273 15.2276C50.2182 15.2276 48.311 15.1698 46.2304 13.7833C46.0571 13.6678 41.8958 9.21929 41.8958 9.1904C40.2487 6.01291 36.2608 7.71722 34.1801 5.46409C33.3132 4.53973 33.1977 3.15319 32.273 2.25772L28.7475 0.177902" fill="#C5C5C5"/>
</svg>
