<svg width="24" height="14" viewBox="0 0 24 14" fill="none" xmlns="http://www.w3.org/2000/svg">
<path d="M23.9263 0.347168C22.0769 0.838234 20.3719 1.82037 18.4647 2.13812C17.1065 2.25367 15.7484 2.13813 14.4191 2.45587C14.265 2.49439 14.0627 2.64844 13.8123 2.91804C13.3788 3.38022 12.3385 4.01573 11.0093 4.39125C9.01534 4.96897 6.93472 4.9401 4.94081 5.48894C4.7289 6.58662 3.67897 7.54949 1.79102 8.37757L1.53095 8.49309C1.24198 8.55086 0.837401 8.63752 0.519531 8.69529C0.924093 8.83973 1.21304 8.95529 1.76209 9.30192L7.5994 13.0571C7.5994 13.0571 14.3324 12.7683 15.7773 13.1149C16.1818 10.4285 19.1005 9.38858 19.8518 6.90436C19.8807 6.8177 19.9096 6.67327 19.9385 6.58661C20.5453 4.47791 21.0077 3.49578 22.3369 2.68697C22.5681 2.55217 23.0883 1.78186 23.8974 0.37606" fill="#C5C5C5"/>
</svg>
