<svg width="55" height="28" viewBox="0 0 55 28" fill="none" xmlns="http://www.w3.org/2000/svg">
<path d="M40.0246 0.746656C35.141 0.25559 35.4877 0.977747 35.9789 1.98877C36.8747 3.77971 34.9387 4.15524 34.2162 4.29968H33.8695C34.014 4.6752 34.1873 5.02183 34.1873 5.31069C34.1873 5.88842 33.5226 6.1484 33.4359 6.69724C33.3493 7.53494 34.7076 8.48816 33.7539 9.15255C33.2916 9.47029 27.801 10.4236 26.0093 9.81696C18.2649 7.24608 8.87328 12.85 2.19801 5.02183C0.63756 5.97508 0.550854 7.33272 1.0999 7.93933C2.34248 9.29698 4.07636 10.1058 5.11666 11.6946C5.86799 12.8307 7.13949 13.7936 8.93112 14.5832C11.7053 15.7964 12.5722 16.7208 13.1213 17.934C14.1616 20.1871 17.3692 22.2669 17.8605 22.2669C17.976 22.2669 18.0916 22.1802 18.2072 22.1514C19.0741 21.8336 21.3858 21.7759 24.0733 23.769C24.2659 23.9038 26.2598 24.0386 30.055 24.1734C31.6444 24.2312 38.6086 25.8777 40.1691 27.4665C40.5158 27.8131 40.6602 27.9864 44.9659 27.322C45.4572 27.2354 46.3819 27.3509 46.5842 26.8888C46.6131 26.8021 46.642 26.6865 46.6709 26.5999C47.0755 24.6645 45.6306 23.018 45.8907 21.1115C46.1218 19.4939 48.5204 19.6094 48.5493 17.8184C48.5493 16.4319 46.3531 15.0743 47.798 13.8321C49.8497 12.0701 52.3926 13.0233 54.6755 12.59C52.9417 11.3768 50.6877 11.2324 49.0405 9.81696C48.1447 9.03703 47.7402 7.8238 46.6999 7.1883C45.0238 6.17728 43.8679 5.28181 43.2322 4.50188C42.6542 3.77972 42.7408 3.25977 43.5211 2.97091C43.1454 2.33541 42.5097 1.87323 42.3363 1.0933C41.5561 1.00664 40.7759 0.919992 40.0246 0.833334" fill="#C5C5C5"/>
</svg>
