<svg width="23" height="20" viewBox="0 0 23 20" fill="none" xmlns="http://www.w3.org/2000/svg">
<path d="M6.71767 0.436523C5.47509 0.436523 3.88587 0.436526 2.87446 0.552071C3.16343 1.41866 3.82809 2.14081 3.97257 3.09405C3.97257 3.18071 4.03036 3.6429 3.42352 4.16285C4.92617 6.70484 5.07068 9.04462 5.07068 9.07351C5.07068 9.10239 5.07068 9.16017 5.07068 9.18906C5.01289 9.44903 4.89719 9.59347 4.7816 9.7379C4.26145 10.3445 3.45244 10.5467 2.90339 11.0956C2.84559 11.1533 2.81664 11.2689 2.84554 11.3555C2.84554 12.0488 1.94972 13.0309 1.40067 13.6375C0.687874 14.4271 0.784128 15.4477 1.68958 16.6995C2.59502 17.9512 3.04784 18.8467 3.04784 19.3859C3.36571 19.4437 4.31937 19.6459 5.44636 19.9059C5.90872 20.0214 6.84298 19.9251 8.24931 19.617C12.8729 18.5771 17.4098 17.2483 22.0334 16.2084C22.0334 16.1506 22.0333 16.064 22.0044 16.0062C21.6866 15.053 20.8486 14.3597 20.5885 13.3776C20.3284 12.3666 20.4151 11.2978 20.0394 10.3156C19.6927 9.36237 19.3459 8.84241 19.0858 8.43801C18.4211 7.42699 18.479 6.15601 18.7969 3.98954C18.9414 3.06518 18.9991 2.51634 18.2189 2.19859C17.6699 1.99638 17.323 1.76528 16.9185 1.01424C16.485 1.07201 15.907 1.1298 15.4158 0.869822C14.9245 0.609845 9.95416 0.465416 6.71767 0.465416" fill="#C5C5C5"/>
</svg>
