<svg width="151" height="145" viewBox="0 0 151 145" fill="none" xmlns="http://www.w3.org/2000/svg">
<path d="M76.1185 0.95557C70.1079 3.8442 65.8889 9.36146 59.7916 12.1345C59.1847 16.4097 57.7398 19.6738 57.7398 19.7027C58.6645 20.9159 59.4448 21.9559 53.7809 23.6024C52.336 27.9642 45.2274 32.4994 45.1696 32.4994C46.6722 37.1212 41.4996 38.3055 39.679 41.1941C37.0783 45.296 43.4068 47.318 42.0776 51.1599C40.7483 55.0306 36.0958 58.7569 36.038 58.7858C35.9802 63.6676 29.9696 64.9964 29.5362 69.6471C29.3628 71.4958 29.3339 71.6691 28.9004 72.709C31.6746 74.5 28.8715 76.4642 27.0509 76.9264C26.7042 77.013 26.213 77.0997 25.8373 77.1575C25.6061 78.4863 25.0281 81.5482 20.1734 85.3901C20.7224 89.3186 18.1795 92.3517 17.2548 95.8758C18.5263 97.6956 18.6419 97.8978 17.7172 99.3132C19.191 100.584 19.0753 101.393 17.2548 102.664C17.2837 102.751 17.3415 102.866 17.3703 102.924C22.2251 102.029 21.5316 104.975 21.3004 105.322C20.8381 106.015 19.8266 106.333 19.1909 106.535C19.1524 108.441 18.2951 109.683 16.6191 110.261L16.359 110.319C16.359 110.319 16.7925 115.721 14.3651 116.761C14.2206 118.118 14.0761 119.389 11.0997 119.967L10.7818 120.025C10.0882 121.556 10.0305 121.7 8.84571 122.509C12.7757 128.084 0.956762 128.633 0.0898438 134.035C1.39022 135.537 1.39022 135.565 0.898963 137.01C4.61708 136.952 6.68803 137.145 7.11186 137.588C9.04797 139.552 6.24491 141.949 7.71867 143.943C7.97875 144.289 8.75903 144.116 9.22139 144.058C19.1331 142.729 21.0981 143.365 22.543 143.827C22.9186 143.943 23.4099 144.174 23.7567 144.318C24.6814 144.26 25.1148 144.231 26.7042 144.434C20.4046 139.147 27.4555 132.33 32.3103 131.666H32.8016C36.6738 130.857 37.0783 126.437 40.0836 124.733C42.9445 123.087 46.2676 122.307 49.0129 120.4C49.2152 120.256 49.4463 120.054 49.6197 119.909C50.7756 118.956 50.7756 117.396 51.5269 116.241C35.4312 115.287 41.9041 108.875 42.6844 108.152C46.5277 104.599 52.5095 103.762 54.7346 103.444C54.7346 103.357 57.4509 95.1825 62.8547 93.796C60.9764 91.9762 63.9817 90.994 64.5885 90.8207C58.1156 88.6831 63.6637 81.8371 63.7793 81.8082C67.6227 80.0172 71.0615 82.7037 74.7314 82.8192C77.9101 82.6459 79.9329 82.0104 80.7709 80.8838C80.193 78.5441 80.3953 77.7063 83.0249 76.3198L83.4585 76.1176C80.3375 72.7957 84.8166 71.2647 86.2615 71.2936C112.76 71.5824 118.858 64.4475 122.499 60.2013C121.227 58.9014 118.829 60.2013 117.904 58.1792C117.124 56.5038 118.886 55.1462 119.811 54.424C117.124 53.0952 113.685 54.5395 111.258 52.142C111.258 52.142 110.044 50.4666 114.35 48.9645C112.413 46.3936 117.731 34.1748 124.55 29.9285C129.29 26.9821 133.508 23.2846 138.421 20.5982C141.831 18.7495 145.992 18.7784 149.229 16.4675C150.413 15.6298 149.893 11.8746 149.893 11.8168C149.431 11.7012 148.766 11.6435 148.275 11.6435C147.581 13.8388 145.905 17.6229 142.149 17.9696C140.473 18.4895 138.999 19.5005 137.236 19.7316H136.861C134.433 20.136 120.736 21.8981 118.077 19.7027C118.135 19.385 118.8 16.583 126.111 11.7301C116.69 5.83733 104.062 8.32153 95.5375 0.0600586C94.6706 0.0600586 92.2047 1.01332 88.1398 2.91981C85.1345 4.33524 82.8227 1.59106 80.0774 1.53329C78.1991 1.5044 77.7079 1.50438 76.4075 1.01331L76.1763 0.86887" fill="#C5C5C5"/>
</svg>
