<svg width="45" height="18" viewBox="0 0 45 18" fill="none" xmlns="http://www.w3.org/2000/svg">
<path d="M28.417 0.888672C24.6989 2.04412 22.4931 2.66036 21.7996 2.73739C21.6551 2.73739 21.4239 2.76629 21.2795 2.79518C20.4125 4.12394 18.2163 3.9795 17.2916 3.86395C17.0604 3.83507 16.7715 3.77731 16.5692 3.74843C15.683 4.65353 14.8353 5.1831 14.0262 5.33716C14.0262 5.33716 13.8528 5.42382 13.7661 5.45271C13.1303 7.61917 9.80717 6.60815 8.73797 6.26152C8.62238 6.49261 8.39123 6.95478 8.21784 7.79248V8.05247C7.03306 8.80351 6.51285 10.2189 5.27027 10.8833C4.22997 11.461 3.04527 11.6344 1.57151 11.6921C1.91828 12.3276 1.57155 13.4831 0.53125 15.1585C2.29398 15.7651 3.56543 17.4116 5.55935 17.5272C7.66885 16.3139 11.7723 16.0829 13.8818 16.7183C12.8993 14.8985 12.2057 13.5986 14.1996 13.1076C16.3091 12.5876 25.0649 12.9054 25.1516 12.9054C27.4056 12.992 28.4171 13.1364 28.8795 13.1942C29.8042 12.501 30.6999 12.4432 31.3067 12.4143C32.9828 12.501 34.63 12.8187 36.3061 12.8476C38.8105 11.981 40.2649 11.5477 40.6694 11.5477C43.4436 11.4899 43.7905 11.2588 44.0794 11.1144C44.2239 11.0278 44.3972 10.97 44.5417 10.9122C44.4261 10.8255 44.2527 10.7678 44.1082 10.7389H43.4147C42.5767 10.2478 42.4322 10.1612 42.3744 9.20793C41.1029 8.68797 39.6003 9.09238 38.4155 8.16802C37.8665 7.73473 37.0574 7.87915 36.5084 7.38808C36.046 6.95479 36.335 6.17486 35.7859 5.77046C35.6126 5.62602 35.0924 5.36604 34.2832 5.01941C33.3007 4.58611 32.925 4.44168 32.2025 3.344L32.0292 2.99738C31.3067 2.65074 31.0756 2.36188 31.1623 1.35086C30.2376 1.29309 29.3417 0.975337 28.3881 0.917564" fill="#C5C5C5"/>
</svg>
