<svg width="115" height="60" viewBox="0 0 115 60" fill="none" xmlns="http://www.w3.org/2000/svg">
<path d="M88.6866 0.546387C66.0889 1.18188 49.4346 3.39651 38.7233 7.19023C40.8039 8.86564 40.6594 9.93442 40.2837 12.5053C45.2829 16.4049 42.2777 17.156 40.7461 17.3004C36.8161 17.6759 32.9149 18.5425 28.9271 18.6003H28.5225C28.2624 20.8534 28.2336 21.1423 26.4709 21.229C25.2572 22.1533 24.4481 22.1533 21.4428 22.1822C19.2177 24.0309 17.3104 25.5908 10.3462 25.7641C7.74542 25.7352 2.05262 27.9883 0.376582 28.6816C0.376582 29.5193 0.347656 30.357 0.347656 31.2236V32.2635C44.9843 48.8635 67.6108 57.8567 68.2273 59.2433C70.3079 59.5032 76.6076 58.29 80.7688 57.5101L91.0273 52.9461C97.9626 50.6063 107.21 47.4577 114.145 45.1179C113.191 43.6158 113.134 43.6158 112.18 43.558C112.122 43.558 104.465 42.0271 104.262 41.9115L100.072 36.2498C100.534 35.6432 100.65 35.4699 102.239 34.6899C101.806 34.1989 101.604 33.9678 101.546 33.5345C100.852 31.888 101.112 31.6858 102.239 30.7903L100.592 25.3597C99.0029 23.9443 98.8295 23.6843 99.8409 22.8755C99.8409 22.8177 99.7254 17.907 95.622 16.6649C88.5711 14.4985 85.7969 9.35669 89.2646 9.29892C89.2935 9.29892 93.4547 6.55474 93.6281 6.17922C94.4083 4.44604 92.5588 3.20392 92.8189 1.5574C92.7033 1.41297 92.5588 1.23966 92.4432 1.09523C91.2006 0.979688 89.9581 0.69083 88.7155 0.604172" fill="#C5C5C5"/>
</svg>
