<svg width="141" height="92" viewBox="0 0 141 92" fill="none" xmlns="http://www.w3.org/2000/svg">
<path d="M35.7086 0.535645H34.9572C31.8363 7.52612 24.1496 1.31559 18.8036 2.03774C20.1906 6.71732 25.4788 6.68842 28.1662 9.83702C28.0796 10.0681 27.993 10.357 27.9063 10.5592C27.2127 10.7903 26.5866 12.1479 26.0279 14.6322C25.5848 14.8825 24.8239 15.0751 23.7451 15.2099C23.6584 15.672 23.5716 16.3076 23.5428 16.7986C22.9841 17.2223 22.2039 17.4919 21.2021 17.6074C19.2563 19.9376 17.6862 21.2086 16.4918 21.4204C15.1818 23.3462 13.9681 24.3379 12.8507 24.3957H12.5908C10.4813 23.9913 8.31389 24.5401 6.20439 23.9624L5.56874 23.7891C4.12388 24.6268 4.06609 24.6557 3.22807 25.2912C3.31476 25.4934 3.43028 25.7245 3.51697 25.9267C6.98464 27.111 15.7983 33.7837 12.5329 35.4014C11.3192 36.008 9.09414 35.6614 8.02494 35.488C0.511648 34.8814 0.511719 35.5747 0.511719 36.7012C3.22806 38.4633 4.61503 39.1277 7.27358 38.7811C10.1344 38.4055 11.2903 38.8677 11.6082 40.5431C10.799 41.2653 10.4234 41.6119 5.65534 41.6119C5.74203 41.6986 15.2203 49.5267 20.104 44.7316C17.9078 42.2474 21.5778 41.9008 21.6067 41.9008C22.6855 41.9008 26.8467 48.015 34.0903 60.2436C35.3907 62.4678 58.6818 88.8409 64.2878 91.5562C67.0909 91.2963 68.3625 89.9386 73.6507 84.2191C72.7549 80.8972 75.6446 77.2864 72.9282 74.0801C67.9001 68.1584 71.3966 66.7718 82.9555 62.15L98.5601 54.2063C98.9069 53.956 99.0994 52.839 99.1379 50.8555C100.034 50.0756 100.987 49.2379 108.385 49.469C108.472 49.2668 108.587 48.9779 108.645 48.7757C106.594 45.396 102.374 43.5184 102.057 38.9833C102.557 38.5596 103.155 38.3285 103.848 38.29C101.113 36.7301 99.716 35.7962 99.6582 35.488C100.39 34.4674 102.904 34.4481 107.2 35.4302C109.974 36.0657 111.795 38.7811 114.8 38.9255C119.395 39.1277 121.447 39.3588 122.603 39.7343C123.094 39.8787 124.221 40.2543 124.568 41.1208C124.568 41.1497 124.972 44.4428 120.955 44.645C120.898 45.0494 120.955 45.6271 121.129 46.0026C124.115 44.982 126.504 45.8197 128.295 48.5157C128.209 46.9847 128.324 44.1828 128.324 44.1828C128.864 44.125 130.126 44.2791 132.11 44.645C133.612 42.0741 130.809 39.2721 132.543 36.7301C133.15 35.8347 137.889 33.9571 139.392 34.0148C139.594 34.0437 139.883 34.1015 140.085 34.1304C139.854 33.7837 139.71 33.2349 139.71 32.8305C139.912 32.6861 140.143 32.455 140.374 32.3972C138.438 31.1262 136.358 30.0574 134.422 28.7286C132.399 29.5375 123.354 29.9996 123.267 29.9996H123.036C122.516 30.8373 121.071 32.1372 119.626 32.1661C119.424 32.1661 119.135 32.2239 118.933 32.2528C119.53 33.9859 119.809 34.9296 119.771 35.0836C118.73 35.6902 118.644 35.6902 109.165 34.5925C107.663 34.5925 107.027 34.5059 105.409 33.957L105.12 33.8126H104.86C101.565 33.3793 100.785 31.184 100.381 30.0285C100.149 30.1152 99.8605 30.2307 99.6293 30.2885H99.427C100.313 32.4261 100.718 33.6393 100.641 33.9282C98.1844 35.3725 92.6651 34.6214 92.0582 34.5348L73.4484 29.9707C67.9868 27.6021 61.9184 27.0243 56.6591 24.1646C55.8114 23.7024 55.3779 22.3833 55.3587 20.2072C55.6765 19.8895 56.1677 19.485 56.5723 19.2539C56.2641 18.8495 55.7921 18.5222 55.1564 18.2718L54.8385 18.1274C50.764 15.0654 43.5397 16.8853 42.0371 9.86592C42.4994 9.2593 43.0485 8.53715 45.4758 9.54816C45.6781 9.60594 45.9671 9.66372 46.1983 9.6926C43.9732 4.60862 37.1534 0.824507 35.8241 0.535645" fill="#C5C5C5"/>
</svg>
