<svg width="30" height="10" viewBox="0 0 30 10" fill="none" xmlns="http://www.w3.org/2000/svg">
<path d="M23.6425 1.10176C20.2037 1.04398 19.4812 1.39062 19.25 1.50616C18.123 2.055 16.8227 2.34386 15.349 2.31497C11.7079 2.16091 9.79108 2.08388 9.59843 2.08388H9.22275C7.46002 2.05499 5.75509 1.70837 3.99236 1.62171H3.79005C3.6552 1.62171 2.69196 1.30395 0.900327 0.668457C0.900327 0.668457 0.264602 1.07286 1.27601 1.56392C4.4547 3.18155 4.39681 4.45256 2.25841 4.51033C2.11393 4.59699 1.94062 4.71253 1.79614 4.79919C1.88283 5.05917 1.9116 5.17472 1.85381 5.6369C1.85381 5.72356 1.85381 5.8391 1.85381 5.92575C4.33897 7.19675 4.8592 7.60116 5.00369 7.91891L5.26384 8.03446C5.45649 8.13075 9.36725 8.45812 16.9961 9.01658C18.1809 9.10324 18.2387 9.07435 18.4121 8.98769C18.441 8.72771 18.5275 8.20777 20.637 7.97668C20.637 6.35905 26.9656 7.13897 27.0523 7.13897C25.6075 6.01241 25.0873 4.62586 26.6477 4.337C27.977 4.10591 28.6128 2.77715 29.7976 2.28608C26.8501 1.53504 24.8272 1.14988 23.7291 1.13063" fill="#C5C5C5"/>
</svg>
