<svg width="45" height="14" viewBox="0 0 45 14" fill="none" xmlns="http://www.w3.org/2000/svg">
<path d="M17.5878 0.955566C18.1079 1.1 18.1079 1.1 18.2524 1.35997C17.9057 2.1399 16.2585 2.45765 14.9581 2.5732C14.409 2.60208 13.8889 2.63097 13.3399 2.68874C13.1954 2.68874 13.022 2.71763 12.8775 2.71763C13.5421 2.83317 13.571 2.86206 13.8022 3.12204C13.4844 3.84419 12.2707 4.30637 6.6646 4.82633C4.98856 4.97076 4.90188 5.46182 4.87298 5.63514C6.05777 6.41507 7.56039 5.34628 8.71628 6.27064C8.54289 7.45497 7.18472 7.57052 0.769531 8.06159C1.26078 8.35045 1.89652 8.32156 2.38777 8.6682C2.85013 8.98595 2.70569 9.82365 3.42812 9.93919C4.26614 10.0547 5.65317 9.93919 9.43871 9.41924C15.276 8.61042 15.9985 8.6682 16.3741 9.27481C15.9985 10.1992 15.2471 10.3436 8.08053 11.6435C8.25392 11.7205 8.56218 11.8072 9.00527 11.9035C11.1437 12.3656 11.9528 12.5678 11.8661 13.0589C11.8083 13.1167 11.7505 13.2322 11.6927 13.29C16.0851 14.301 19.1193 13.4922 20.5642 13.0878C22.587 12.539 24.6965 13.1745 26.7193 12.7989C26.8927 12.77 27.355 12.5678 28.5976 11.759C29.7728 10.9887 32.3831 9.95845 36.4287 8.6682C39.2029 7.77272 42.1216 7.71495 44.8957 6.99279C44.6356 6.81948 44.4333 6.70393 42.2371 6.96391C36.5733 7.62829 36.0821 6.47284 38.7695 5.34628C38.1916 5.05742 37.3535 5.34628 37.0645 4.50857C37.209 4.21971 37.2957 4.10417 38.1048 3.75753C37.9122 3.69976 37.6617 3.67088 37.3535 3.67088C35.2729 5.49071 32.0942 4.85521 31.6607 3.43979C29.7535 2.83317 27.7885 2.94872 25.8235 2.68874C23.7718 2.39988 21.8935 1.47552 19.8707 1.12888C18.9749 0.984451 18.1946 0.984454 17.5878 1.01334" fill="#C5C5C5"/>
</svg>
