<svg width="78" height="42" viewBox="0 0 78 42" fill="none" xmlns="http://www.w3.org/2000/svg">
<path d="M62.8806 0.209961C62.3894 0.383278 61.8403 0.585477 60.8867 0.701022L47.7095 1.82758C49.4819 3.11784 49.6649 4.80287 48.2586 6.88268C49.0677 9.19358 49.3857 10.1757 43.8953 9.1358C44.6466 9.65576 46.6405 11.0423 43.3462 11.7356C42.4215 11.9378 41.6122 11.9378 40.8609 11.9378C40.543 13.3532 42.2191 14.7686 40.8609 16.1552C40.283 16.7329 38.3759 16.9062 37.0177 15.8952C34.4747 15.8374 32.2785 17.5706 29.7066 17.3106C28.8397 17.224 28.0017 17.1373 26.6146 17.8595C26.9902 18.8994 27.7415 19.766 28.0305 20.8636C27.7993 21.1814 20.1705 23.3767 0.578125 21.1525C1.8496 22.1924 4.00741 23.2323 7.05126 24.2722L12.6284 28.9807C15.1136 31.1471 12.8595 31.4649 12.3972 31.4938C8.46715 31.8115 5.34625 32.0715 5.8953 34.2957C6.26133 34.392 7.30168 34.4691 9.01625 34.5268C9.39192 34.5268 9.88315 34.5557 10.2588 34.5846C12.6284 34.6713 14.9402 33.8624 17.3098 34.0069C19.7371 34.1513 22.0778 34.9601 24.5341 35.0179C26.1812 35.0468 26.8458 34.8735 27.3659 34.7579C28.3099 34.5076 31.1803 35.509 35.9773 37.7621C37.191 38.3398 37.3354 40.0152 38.6647 40.4485C39.994 40.8818 41.3811 41.0551 42.7393 41.4306C46.5826 36.6933 51.4085 41.4884 55.5986 40.073C55.5986 39.9286 55.5986 39.7552 55.6275 39.6397C55.3964 39.4086 54.7605 38.7153 53.6624 38.1087L45.5135 31.9848C44.7044 30.7716 46.5248 29.6451 48.3165 28.6918C49.559 28.0274 56.87 28.8073 56.9278 28.8362C57.8525 29.1251 58.3438 28.0274 58.4016 27.4208C58.4305 26.8431 58.5173 26.0054 62.4762 25.7165C63.0541 24.8211 62.5918 23.5789 63.4009 22.7701C64.1522 21.9902 65.2214 22.3368 66.0594 21.9902C65.7126 20.6903 66.0016 19.8815 68.4001 19.7082C68.978 18.3505 67.9954 16.3574 69.9315 15.5774C69.4114 15.4619 69.3826 15.4619 69.0936 15.433H68.7179C67.7065 15.3175 65.7993 15.1153 63.1408 11.7356L63.054 11.62C62.6205 10.0313 59.6154 7.77815 61.7537 6.88268C65.3081 5.40948 68.4579 7.6626 71.8099 7.98035C75.2969 6.8249 77.0403 6.23757 77.0403 6.21831C72.9562 4.87028 70.5674 3.76297 69.8739 2.89638C69.0936 1.91425 65.2502 0.41216 64.1521 0.498819L63.4875 0.556582L62.9674 0.296616" fill="#C5C5C5"/>
</svg>
