<svg width="31" height="19" viewBox="0 0 31 19" fill="none" xmlns="http://www.w3.org/2000/svg">
<path d="M11.1504 0.181641C9.60921 0.451246 8.75189 0.595659 8.5785 0.614917C7.5382 0.961552 7.39371 1.01933 4.41729 6.70992C3.72376 8.03869 3.60823 9.56966 2.8569 10.8695C2.36565 11.7361 1.52755 12.4005 1.15189 13.3538C0.949606 13.8159 0.631743 15.0292 0.97851 15.2314C1.44087 15.5202 2.1633 15.4047 2.42337 16.0691C2.62565 16.5601 2.10552 17.369 1.90324 17.6578L2.36561 17.7156C2.36561 17.7156 2.48119 17.7156 2.53899 17.7156C3.4926 17.6289 5.28425 17.4556 8.43405 18.0333C9.79222 18.2933 11.0637 18.9288 12.4797 18.871C15.196 17.9467 18.0279 18.5822 20.7732 18.2644C24.7321 17.8022 25.8013 16.9357 29.3846 14.0759C28.8066 12.545 29.0378 11.3028 29.7024 9.28079C30.0203 8.29866 30.1358 7.95205 29.8758 7.6343C29.4423 7.11435 26.0325 5.69889 24.3853 5.12117C21.8712 4.25458 20.7732 3.70577 19.8773 2.89696C19.0104 3.53245 18.5192 3.85017 17.6234 3.9946H17.3922C14.5025 4.11015 14.2713 -0.107238 11.2371 0.210511" fill="#C5C5C5"/>
</svg>
