<svg width="406" height="114" viewBox="0 0 406 114" fill="none" xmlns="http://www.w3.org/2000/svg">
<path d="M190.871 93.4842C190.322 93.5131 189.657 93.542 189.397 93.0798C189.195 92.7332 189.455 92.0977 189.657 91.6355C190.033 90.74 190.322 89.9601 189.831 89.469C189.571 89.2091 189.224 89.1224 188.964 89.0358C187.692 88.6891 185.988 88.1981 184.803 86.696C183.994 85.6272 183.994 84.0096 184.803 83.0274C186.305 81.1787 191.767 79.821 193.616 80.8321C194.108 81.092 194.368 81.5253 194.628 82.4497C194.686 82.623 194.715 82.8252 194.743 82.9985C194.743 83.0852 194.772 83.2007 194.801 83.2874C195.003 84.4428 195.061 85.5983 195.235 86.7538C195.35 87.4759 195.726 88.1403 195.755 88.8913C195.841 90.4223 194.426 92.9065 191.131 93.4265H190.842M140.272 57.2898C140.59 57.2609 140.937 57.2031 141.457 56.972C144.549 55.6721 159.893 50.7037 158.102 53.3323C156.975 54.9789 139.001 60.2362 138.827 60.2939C137.382 60.6406 135.793 60.2939 134.493 61.2761C133.25 62.2582 132.499 62.8359 129.811 63.2692C128.54 63.4714 117.443 65.1468 116.403 63.7892L116.316 63.4714C116.923 63.0959 117.154 62.9515 117.414 62.8359C117.501 62.807 117.617 62.7493 117.732 62.7204C119.321 62.2004 121.113 62.7204 122.558 61.6227C123.425 60.9872 125.766 59.4273 129.118 58.9652C129.147 58.9074 129.204 58.8207 129.233 58.7341C128.771 57.8097 127.528 58.3586 127.008 57.5498C127.557 55.701 135.995 55.0366 137.007 56.1632C138.018 57.2898 139.463 57.3187 140.243 57.232M99.758 48.335C98.1687 48.5083 97.3018 48.4506 96.4927 48.335L95.828 48.2195C96.6661 47.4684 96.7528 47.3529 97.7642 47.064C98.0532 46.9774 116.461 42.4711 116.576 42.4422C124.263 40.6802 124.812 41.2868 125.014 41.5468C124.957 42.1245 124.465 42.5578 121.691 43.5688C121.489 43.6555 121.2 43.7421 120.969 43.8288C122.789 44.0888 126.228 43.3666 127.644 42.6444C128.598 42.1534 130.678 41.5179 132.094 41.6334C132.73 41.6912 133.452 42.0378 132.152 43.02C131.256 43.6843 127.268 45.5908 125.39 46.1686C123.425 46.7752 121.344 46.6018 119.322 47.0351C120.449 47.6418 119.119 48.4795 117.414 48.9994C109.207 51.4547 108.485 51.5414 108.138 51.5992H107.734H107.011C107.108 51.2718 108.996 50.1837 112.675 48.335C111.866 48.4506 109.034 49.4038 108.225 50.1549C106.982 51.3103 99.8158 52.6969 99.2379 51.2237C99.498 50.617 100.278 50.2126 101.579 50.0104C102.706 49.2594 103.284 48.855 105.104 48.335C104.642 46.6885 108.283 46.4285 110.45 46.2841C110.45 46.2841 108.918 45.793 106.722 46.573C102.763 47.9595 100.509 48.2484 99.758 48.335ZM267.247 0.499393C264.906 0.75937 262.854 0.96157 259.791 1.56818C259.415 2.05925 258.924 2.72363 258.549 3.24358C257.999 3.24358 257.248 3.24358 256.699 3.24358C255.399 5.06341 255.89 7.54763 254.503 9.33858C252.914 10.7251 250.804 11.4473 249.533 13.2382C248.29 13.3538 246.614 13.4982 245.371 13.5849C245.371 14.1915 245.371 15.0292 245.371 15.6647C244.765 16.0113 243.984 16.5024 243.377 16.849C243.724 17.369 244.215 18.0622 244.562 18.5822C247.491 18.6977 249.61 18.8518 250.92 19.0444C250.717 19.4777 250.486 20.0554 250.284 20.5176V20.6909C250.775 21.0664 251.411 21.5863 251.902 21.9619C250.65 23.2714 246.845 24.8794 240.488 26.7859C240.343 27.3925 240.112 28.2013 239.968 28.8079C237.367 29.7612 237.049 29.8767 233.61 29.3279C233.899 28.2013 234.911 26.8148 235.922 26.2082C231.905 26.3815 231.703 26.1793 230.865 25.3416H230.692C229.767 25.746 228.409 26.2082 227.397 26.2082C225.837 27.7488 216.869 28.9716 200.494 29.8767C191.17 30.6663 185.361 31.2921 183.069 31.7543C182.838 32.9964 182.346 34.6141 181.797 35.7695C181.306 35.8851 180.67 36.0584 180.179 36.2028C179.023 36.7228 177.347 37.156 176.105 37.2427C176.307 36.665 176.596 35.9139 176.798 35.3362C176.018 34.9896 174.949 34.5274 174.284 34.0074C173.562 34.0074 172.579 34.1519 171.914 33.9208C163.505 32.6498 155.674 36.5494 147.41 36.6939C147.467 36.0873 147.525 35.2784 147.583 34.6429C148.97 34.1519 150.877 33.5742 152.322 33.1986C150.781 32.3513 149.134 31.9758 147.381 32.0721C135.273 36.0584 122.616 33.2275 110.306 34.9029L110.161 33.3719L110.883 32.2743C106.549 34.3156 103.64 35.5095 102.157 35.8562C101.521 35.6828 100.712 35.4518 100.076 35.2784C99.9604 34.6718 99.8159 33.8919 99.7003 33.2853C98.4577 33.1697 96.7527 33.3431 95.5391 33.6897C91.06 36.3183 89.4417 36.2606 88.2858 36.2317L88.1703 36.0006L88.3437 35.8562C80.9749 37.7915 74.1551 41.489 66.5551 42.6733C67.3835 41.229 73.9625 38.6774 86.292 35.0185C79.9057 35.7406 74.2418 39.1492 67.8266 39.8714C67.2198 40.0447 66.4395 40.3046 65.8327 40.5069C65.6304 40.218 65.3703 39.8425 65.168 39.5825C62.6251 40.5935 59.8799 40.8824 57.2791 41.7778C57.1635 42.3845 57.048 43.1933 56.9324 43.7999C54.8518 44.1754 52.7422 43.8577 50.6616 43.9154C45.5179 44.4932 40.432 42.9333 35.2883 43.511C24.7697 54.5456 10.7256 69.2198 0.207031 80.2543C0.929463 80.1099 1.88303 79.8788 2.60546 79.7633L3.09676 79.7055C6.21766 79.1085 8.28861 78.8582 9.30965 78.9545C9.38671 79.2048 10.3885 80.5336 12.315 82.9408C28.2952 77.5968 28.9309 77.3946 32.3118 88.2847C36.3767 89.4787 38.5922 90.1816 38.9583 90.3934C38.1202 91.2889 37.34 92.8487 37.1955 94.062C36.0107 94.5819 34.4503 95.2463 33.2366 95.7085C33.2366 95.9107 33.2077 96.1418 33.1788 96.344C32.4564 97.355 31.4161 98.626 30.5781 99.5215C31.7918 99.4926 33.4099 99.2037 34.5658 98.8282C34.6814 99.4348 34.8259 100.273 34.9415 100.879C34.7392 100.995 34.4791 101.168 34.3058 101.312C36.6753 100.735 37.2244 100.619 39.8829 102.815C39.1316 103.421 38.0335 104.172 37.1088 104.403H36.9643C37.051 105.039 37.1666 105.848 37.2533 106.454C38.1492 106.57 39.3339 106.714 40.2008 106.656C40.4898 106.618 42.4548 106.993 46.0959 107.783C46.7605 107.639 47.6274 107.465 48.292 107.35C48.4365 107.927 48.6678 108.707 48.8122 109.285C51.5575 108.765 52.6844 108.736 53.6091 109.141L53.8114 109.256C54.4472 109.256 55.3141 109.285 55.9787 109.314C56.2099 109.921 56.5567 110.7 56.7011 111.307C128.886 103.662 176.384 98.3179 199.194 95.2752C199.482 95.824 199.829 96.5462 200.118 97.095C201.072 97.3261 202.343 97.615 203.326 97.7594C205.002 97.278 207.371 97.278 210.435 97.7594C222.6 97.615 234.679 94.7264 246.874 96.6617C249.446 107.754 265.022 95.4196 269.125 106.021C268.229 106.512 266.958 107.147 265.946 107.321C264.116 107.321 262.527 107.147 261.178 106.801C257.768 108.505 255.832 112.029 252.509 113.849C254.503 113.56 256.468 112.982 258.462 112.665C262.527 112.665 265.253 112.405 266.64 111.885C266.409 111.336 266.091 110.585 265.86 110.007C283.776 99.9259 306.46 107.321 323.538 94.2642C322.267 94.7264 320.562 95.2752 319.262 95.6218C319.406 95.0152 319.608 94.1775 319.753 93.5709C320.331 93.3206 322.257 92.1555 325.532 90.0757L326.139 89.8157H326.688C330.907 88.4003 334.577 85.5116 339.201 85.1361C356.597 77.7123 396.446 74.506 396.793 74.506C398.662 74.2171 400.713 73.5431 402.948 72.4839C402.428 72.1373 401.706 71.6462 401.156 71.2996C402.63 70.433 404.364 70.1153 405.664 68.9598L405.809 68.7865C404.711 68.2473 402.505 68.1414 399.191 68.4688C398.96 67.891 398.671 67.14 398.469 66.5623C395.03 66.2734 391.967 67.9777 388.673 68.4688C387.459 68.7865 385.87 69.2487 384.685 69.5953C384.194 69.2487 383.529 68.7576 383.009 68.411C386.361 65.7534 395.695 64.3958 398.469 64.0492C392.747 63.4522 389.395 63.0381 388.413 62.807C383.731 63.587 380.582 59.6007 376.363 58.9363C376.594 58.3586 376.912 57.5786 377.143 57.0298C378.414 57.0298 380.09 56.8565 381.333 56.5676C379.859 55.4411 378.992 53.7945 377.663 52.5524C374.687 49.0572 372.606 46.1686 372.606 46.1397C369.283 46.5152 368.936 46.9485 367.26 49.0283L366.624 49.3172C366.017 49.9527 365.064 50.8481 364.197 50.9926C363.677 51.3392 363.012 51.8303 362.492 52.1769C361.885 52.0325 361.134 51.6281 360.498 51.657C358.822 52.8124 357.608 53.6501 353.274 54.1989C352.609 53.9967 351.511 53.8812 351.106 53.3035H351.078C347.205 52.2058 344.816 51.0503 343.911 49.8371C344.547 48.7972 345.125 47.2662 345.356 46.053C344.922 45.6775 344.373 45.1575 343.94 44.7531C340.992 44.7146 338.806 44.4546 337.38 43.9732C337.38 43.771 337.322 43.511 337.322 43.3377L335.733 42.3845L335.675 42.2689C328.856 38.7159 309.321 42.6156 309.205 42.6733C309.754 42.9622 310.506 43.3955 311.055 43.6843C310.708 44.291 310.39 45.3597 309.726 45.5908C309.205 45.9375 308.512 46.3997 307.992 46.7174C308.396 47.9017 308.656 49.606 308.685 50.877C307.847 51.3681 306.662 52.0036 305.709 52.1769C304.669 53.0435 303.137 54.0545 301.952 54.69C303.397 56.221 305.42 56.9142 307.125 58.0986C308.281 68.4976 288.168 70.4908 287.966 70.5197C289.7 72.9172 288.544 75.8059 289.237 78.3767C287.966 79.6477 287.099 81.2365 285.799 82.4497L285.134 82.7386C284.44 82.6519 283.516 82.6808 282.88 82.4208C280.029 83.7111 277.409 84.1058 275.02 83.6051C273.662 81.4964 273.402 81.092 268.72 78.55C268.72 78.4923 270.628 72.5706 272.275 71.2418C272.072 71.1841 244.013 66.6489 240.257 66.9089L239.765 66.9667L239.505 67.0244C235.575 66.6778 230.952 66.9859 225.635 67.9488H224.71C225.692 66.4467 226.087 64.4921 225.895 62.0849C225.577 61.9693 225.143 61.8249 224.797 61.7094C221.984 61.9212 219.99 61.4205 218.815 60.2073C225.23 49.2594 242.395 44.782 247.51 43.6843C243.753 42.5578 239.765 42.8177 236.038 41.5179V41.1712C241.586 38.6581 247.365 41.0268 253 40.478C254.214 39.0722 257.161 38.3693 261.843 38.3693C263.037 38.0226 265.667 36.8479 269.732 34.8451C266.235 34.3541 262.623 34.7874 259.242 33.4586C259.56 32.9387 259.964 32.2165 260.253 31.6965C260.774 31.6099 261.496 31.4655 262.016 31.3788C269.857 31.6869 275.164 31.2729 277.939 30.1367C277.332 29.9923 276.494 29.79 275.887 29.6456C280.395 26.0348 284.498 28.3169 284.527 28.3457C285.163 28.288 285.972 28.1724 286.608 28.1146C286.232 27.6236 285.712 26.9881 285.307 26.5259C289.758 24.2728 294.757 26.9303 299.207 24.966C300.392 24.5616 301.952 23.955 303.079 23.464C302.357 22.8862 301.403 21.9041 301.23 20.9797C301.259 20.3731 301.288 19.5354 301.345 18.9288C304.177 18.6207 306.017 18.3318 306.865 18.0622C305.969 17.1668 301.49 14.7692 292.878 15.4336C293.139 15.9824 293.456 16.7335 293.717 17.2823C293.196 17.6578 292.503 18.1778 291.954 18.5533C291.318 18.9577 290.509 19.6799 289.758 19.7665C284.412 21.2108 280.453 25.4282 275.222 27.1036C274.211 26.3237 272.882 25.2838 271.87 24.5328C272.304 23.4351 273.575 22.193 274.673 21.7308C274.413 21.1531 274.037 20.402 273.749 19.8532C273.171 19.651 272.361 19.4199 271.783 19.2177C267.824 21.6152 264.241 23.3484 264.212 23.3484H264.039C263.663 22.2219 263.577 20.5753 263.808 19.391C264.386 19.1888 265.195 18.9288 265.773 18.6977C264.964 18.5533 263.866 18.38 263.056 18.2356C261.872 18.5822 260.253 18.871 259.011 18.9577C260.022 16.589 260.225 16.098 262.479 15.6647C261.467 15.0003 259.907 14.4226 258.722 14.3359C258.953 13.7582 259.242 13.0071 259.473 12.4583C258.664 11.8228 257.45 11.014 256.41 10.8695C255.803 10.8118 254.965 10.6962 254.358 10.6385C254.907 10.003 255.745 9.10749 256.584 8.93418C259.069 8.14462 260.668 7.04694 261.38 5.64114C261.93 5.5256 262.652 5.38117 263.201 5.29451C267.613 5.17897 272.824 3.57096 278.834 0.470501C274.991 0.528273 271.148 0.297181 267.304 0.61493" fill="#C5C5C5"/>
</svg>
