<svg width="57" height="18" viewBox="0 0 57 18" fill="none" xmlns="http://www.w3.org/2000/svg">
<path d="M49.7926 0.5625C46.4212 1.00542 42.3179 1.14022 37.4825 0.966906C31.0673 0.735816 27.5418 4.69323 27.5129 4.751C26.6749 5.90645 25.3455 5.99311 24.7676 6.022L4.39507 3.48C3.78823 3.33556 3.55707 3.27779 2.43008 4.0866C3.47038 5.93533 3.12353 6.02199 0.898438 6.59972C1.56307 7.63962 1.44753 8.04403 1.30304 8.44844C1.07186 9.11282 1.41861 10.1238 1.82317 10.8171C1.93876 11.0193 2.08329 11.2793 2.22777 11.4815C2.89241 12.4925 3.99047 13.0991 4.7129 14.0813C5.52202 15.1789 4.56849 17.3743 6.41791 17.7209C7.40042 17.8942 13.1412 17.355 23.6406 16.1033C25.49 15.8722 27.0215 14.7167 28.842 14.399C30.7493 14.0812 32.6566 14.6012 34.5638 14.3412C34.9973 14.2835 36.0665 13.6769 36.76 13.2436C37.2513 12.9258 37.5401 12.7525 38.2337 12.5503C41.5857 11.5681 45.0823 11.6259 48.5211 11.1926C51.9887 10.7305 52.3068 10.3261 52.6535 9.22838C53.1159 7.78406 54.9652 7.63963 56.3234 7.55297C56.5256 7.55297 56.7858 7.52407 56.9881 7.49518C54.6185 5.18428 52.22 2.8734 49.8504 0.5625" fill="#C5C5C5"/>
</svg>
