<svg width="60" height="34" viewBox="0 0 60 34" fill="none" xmlns="http://www.w3.org/2000/svg">
<path opacity="0.4" d="M1.19474 0.727051C1.19474 0.727051 1.07919 0.987041 1.05029 1.10259C0.905806 1.96917 1.71491 2.63354 1.57042 3.50013C1.45483 4.22229 0.38574 4.28007 0.414638 5.11777C0.472432 6.35988 1.36811 7.31312 1.5415 8.49746L4.0268 31.4332L36.4784 32.242C38.8768 31.3754 39.5992 31.1154 42.0555 32.242L49.4821 32.4442C50.4068 33.0508 50.8982 33.253 51.7362 33.4263C52.083 32.7908 52.2852 32.6464 52.8054 32.3864C53.7301 31.8953 55.0593 32.7619 55.7817 31.5198C56.4174 30.4221 56.7064 29.9311 58.3247 29.9311C58.8256 29.9888 59.3265 29.8059 59.8274 29.3822C59.8274 28.5734 59.7406 27.6779 59.7406 27.6779L48.8176 17.3655C47.7195 16.6145 47.4015 15.228 46.3901 14.3903C45.1186 13.3504 43.5872 12.7726 42.3446 11.6749C42.2001 11.5594 42.0266 11.3861 41.8821 11.2705C41.1308 10.5484 40.6108 9.884 40.3507 9.50848C39.8883 8.87298 37.7498 5.75327 40.0327 5.31998H40.2639C41.7955 5.34886 42.4023 5.6955 45.6966 9.45071C46.3612 10.2018 48.673 12.5126 50.6092 13.4081C51.505 12.2238 50.9848 10.3751 52.4297 9.42182L52.4874 9.10407L52.9788 8.12195L49.3666 3.99121C46.8236 4.07787 44.3096 3.70235 41.7666 3.67346C37.8077 3.5868 34.0221 2.08471 30.0054 2.40246C26.1621 2.72021 22.4633 4.30895 18.5044 3.41347C12.7827 2.02693 6.88762 1.96916 1.13707 0.813706" fill="#FF6858"/>
</svg>
