<svg width="45" height="25" viewBox="0 0 45 25" fill="none" xmlns="http://www.w3.org/2000/svg">
<path d="M27.4353 0.494202C24.3914 0.494202 22.4939 0.590508 21.7426 0.783083C20.9335 1.01417 21.1646 1.96741 20.6445 2.40071C18.8818 3.90279 16.5411 3.96057 14.5183 4.79827C13.6803 5.14491 12.7555 5.92482 11.5707 6.99361C10.2992 8.1298 6.49438 8.38979 0.15625 7.77355C0.878682 8.64014 2.20796 8.4668 2.8726 9.42004C3.59503 10.4311 3.88407 11.7021 4.75099 12.6264C4.80879 12.7131 4.92443 12.7997 4.98222 12.8575C6.71606 14.1574 8.96995 14.0418 10.8483 14.9662C11.9464 15.515 12.611 16.6128 13.5935 17.306C15.2696 18.5192 15.9053 20.9457 18.3038 21.2634C21.7137 21.3501 23.3319 21.87 24.2566 23.141C24.2855 23.1988 24.3433 23.3143 24.43 23.3143C27.2812 23.4876 28.7935 23.6032 28.9669 23.661C29.2559 23.7188 29.6026 23.8632 29.6604 23.8921C29.9205 24.0365 35.5555 24.6431 35.6132 24.6431C35.671 24.6431 40.8725 21.9278 41.1904 20.9168C41.4794 20.0213 40.9882 19.0103 41.6239 18.2015C42.4619 17.1038 43.8779 16.9594 44.8604 16.0928C44.4558 15.7172 44.2825 15.4862 44.0224 14.7062C43.6757 13.6663 42.173 13.5219 42.1441 12.2509C42.1441 11.0377 43.4733 10.951 43.9067 10.1133C43.9934 9.9689 43.6467 4.97159 43.4155 4.48052C38.7053 3.64282 34.1395 2.02518 29.3426 1.67855H28.4179L27.4642 0.465332" fill="#C5C5C5"/>
</svg>
