<svg width="17" height="7" viewBox="0 0 17 7" fill="none" xmlns="http://www.w3.org/2000/svg">
<path d="M9.72905 0.562256C8.54426 0.677801 7.38843 1.11109 6.17474 1.13998C3.55472 1.25552 2.13867 1.33255 1.92675 1.37107C3.68949 2.00657 3.86294 2.69983 3.08271 3.01758C2.41808 3.30645 1.40664 3.24868 1.05987 3.21979H0.742043L0.453141 3.1909C0.626525 3.33534 1.05981 3.47977 1.72445 3.65308C5.27881 4.51967 4.70087 5.15517 3.89175 5.24183C2.64916 5.38626 1.40664 5.12628 0.164062 5.12628C5.24998 7.32164 6.40591 5.81955 6.34812 5.67512C6.08804 5.06851 6.0302 4.92408 7.56175 4.75076C10.5671 4.40412 13.5724 4.60633 16.5777 4.49078C15.4507 3.79751 14.6416 3.30645 15.5085 3.07536C15.5374 3.07536 15.5953 3.07536 15.6242 3.07536C14.3816 2.72872 13.0522 2.64206 11.8385 2.151C10.7404 1.68882 9.78682 0.764455 9.70012 0.591137" fill="#C5C5C5"/>
</svg>
