<svg width="45" height="30" viewBox="0 0 45 30" fill="none" xmlns="http://www.w3.org/2000/svg">
<path d="M5.55454 0.841943C5.12108 0.841943 5.03434 0.841943 4.60088 0.841943L4.16752 0.78418C4.51429 2.08406 6.10364 2.45957 6.33482 3.81722C6.42151 4.30829 6.04576 4.82824 4.80318 4.74158L4.39857 4.68382C3.41607 4.42384 2.66486 4.19275 1.45117 3.32616C0.815434 3.99055 0.988811 5.08822 0.179688 5.66594C0.208585 5.89703 1.50885 8.17906 1.50885 8.20795C7.83735 8.00574 7.43275 14.1007 6.71032 14.8518C6.68142 14.8807 6.62369 14.9384 6.59479 14.9673C6.537 15.0251 6.45032 15.0829 6.42142 15.1406C7.6929 14.6785 8.81986 13.8985 10.178 13.6963C11.7096 13.4941 12.981 14.5629 14.4837 14.6207C15.6974 14.6784 16.5354 13.5808 17.7202 13.5519C18.7316 13.5519 20.6966 13.6385 22.6038 14.7362C24.4821 15.9206 26.7362 16.4983 28.4122 18.0581C28.7204 18.347 29.048 19.3484 29.3948 21.0623C32.8239 23.2384 34.5674 24.3554 34.6252 24.4131C34.6252 24.4131 37.1391 27.8795 36.8791 29.2082C37.0813 29.266 37.3703 29.3816 37.6015 29.4393C37.3992 26.1463 42.283 29.2949 44.5658 28.7461C43.8916 26.8203 43.2847 25.6552 42.7453 25.2508C42.4274 25.0197 42.0229 24.8175 41.1849 24.4998L32.2556 19.1558C31.562 18.7514 27.083 15.4006 27.0541 15.4006C24.8868 13.523 21.737 13.523 19.5986 11.5876C19.2518 11.2699 17.7781 9.73892 21.7948 9.65226C21.9971 9.65226 22.286 9.65226 22.4883 9.65226C20.4462 7.66874 19.0591 6.80214 18.3271 7.05249C16.9111 7.51467 14.8017 6.85028 13.6747 6.41699C12.2009 5.83927 11.2184 5.20376 10.8139 4.51049C10.496 3.99053 5.69896 0.870835 5.67006 0.870835" fill="#C5C5C5"/>
</svg>
