<svg width="66" height="35" viewBox="0 0 66 35" fill="none" xmlns="http://www.w3.org/2000/svg">
<path d="M46.1811 0.821289C44.9096 1.08127 43.8405 1.19681 40.8062 1.13904H39.3614C39.4962 1.79379 38.9856 2.66041 37.8297 3.73883C40.8639 5.76087 37.3384 8.85169 37.4251 11.4515C39.5828 13.1269 40.7965 13.9549 41.0662 13.9357C44.1293 13.6853 45.6994 13.5986 45.7765 13.6757C46.6434 14.5134 47.9148 17.8064 45.3719 19.0196L45.2274 19.1063C42.9156 19.5685 40.9796 19.5107 39.4769 18.9619C38.2343 18.4997 36.5871 16.9398 36.0092 15.5822C35.9225 15.3511 35.8648 15.2644 33.4086 15.2066C32.5994 15.2066 31.588 15.1489 30.6633 14.6578C29.9408 14.2823 29.5073 14.0223 28.5826 13.1557C27.8313 14.0801 27.7446 14.2245 18.5553 12.9246C17.1971 12.7224 17.1394 10.6426 15.5211 10.8448C13.6139 11.1144 12.5254 11.2011 12.2557 11.1048C11.9379 11.0181 11.7645 10.9604 11.3599 10.7293L10.8109 16.1021L8.4702 17.5175L0.234375 17.1709L0.407752 28.1477C2.45946 29.7653 4.80026 33.4916 7.40102 33.2605C17.9485 32.3073 18.642 33.3183 19.1044 34.0405C19.8846 33.9538 20.2314 33.925 20.9538 33.925C23.4101 34.0694 25.7506 34.8493 28.2069 34.9649C30.5765 34.7915 31.299 32.3362 33.1484 31.4407C34.9689 30.5453 37.0495 30.4297 38.87 29.4764C38.9856 29.4187 39.1013 29.332 39.188 29.2743C39.188 27.9166 39.8237 27.1944 43.5226 26.6456H43.696H47.5392L46.1811 24.2192C48.8107 23.6992 56.7864 22.0816 62.4792 21.0128C61.8434 20.3195 61.8434 20.204 61.9012 19.7129L62.1324 19.3085C63.1149 18.0375 62.2191 15.4666 64.4442 15.1778C64.4153 15.12 62.1035 9.08276 65.5712 8.3606C64.8199 5.47198 62.1324 4.8076 55.6305 3.5366C52.3941 2.90111 49.5043 1.11015 46.1811 0.821289Z" fill="#C5C5C5"/>
</svg>
