<svg width="27" height="10" viewBox="0 0 27 10" fill="none" xmlns="http://www.w3.org/2000/svg">
<path d="M11.5207 0.96875C11.694 1.2865 11.8386 1.922 10.7694 2.64416C11.4918 2.70193 12.2143 2.73082 13.3124 2.64416C14.4394 2.58639 16.5777 2.47084 15.6819 3.45297C15.075 4.11735 12.0409 4.60842 9.32453 4.78173C3.60288 5.04171 0.164062 8.24811 0.164062 8.27699C1.40664 10.1835 5.91459 8.50808 8.71763 6.71713C10.2203 5.76388 11.145 5.27281 13.1389 5.12838C14.3526 5.07061 15.7397 4.98395 26.0849 2.67305C26.2005 2.44196 26.0849 2.21086 26.1427 2.00866C25.8248 1.89311 24.2355 2.26864 24.2066 2.26864C22.5017 2.73082 14.0059 3.27966 13.6591 1.54649C13.4568 1.43094 13.3123 1.34427 12.012 1.0843L11.4918 0.96875" fill="#C5C5C5"/>
</svg>
