<svg width="79" height="165" viewBox="0 0 79 165" fill="none" xmlns="http://www.w3.org/2000/svg">
<path d="M70.4602 0.876953C68.3988 3.20711 66.8192 6.7312 65.7211 11.4493C65.172 13.8468 64.594 16.3311 59.9994 22.2816C60.3461 22.686 60.6929 23.3504 60.8085 23.8704C54.6534 30.3987 55.9249 41.4332 47.169 46.4017C47.3616 48.5778 46.3406 53.344 44.1059 60.7004C43.6821 62.1062 42.5455 64.4267 40.696 67.662C40.6093 67.8353 30.0041 84.1271 25.2938 84.7626C24.1957 88.4023 27.1144 92.2731 24.5714 95.8261C21.1037 100.698 19.5625 103.722 19.9478 104.896C23.2999 104.222 25.1878 104.107 25.6117 104.55C25.6117 104.81 25.5828 105.127 25.5539 105.387C29.0794 106.572 26.074 108.392 25.9295 108.478C25.6405 108.652 25.2649 108.796 24.9759 108.94C25.0722 110.423 24.8411 111.473 24.2824 112.089C23.4348 112.802 22.7893 113.408 22.3462 113.909C22.4907 115.902 20.1212 117.173 20.8436 119.339C20.2657 120.235 20.439 121.506 19.4276 122.199C19.1964 124.318 17.9442 125.608 15.671 126.07C17.5782 128.843 13.706 129.999 11.6543 129.421C10.8741 129.19 10.1227 128.756 9.51586 128.41C8.79343 127.919 8.36002 127.63 5.96155 128.496C6.13494 128.699 6.36612 128.987 6.51061 129.19C6.33722 130.258 6.30831 130.403 4.69007 131.01C5.12352 131.269 5.73037 131.645 6.13493 131.934C11.8566 130.692 11.0185 133.985 10.9896 134.014C10.4406 135.66 8.5045 135.4 7.57979 136.498C9.5737 137.509 11.7698 135.631 13.7638 136.931C14.7752 137.567 14.5729 139.213 12.9836 139.993C12.2515 140.359 10.8452 140.118 8.76459 139.271C8.30223 139.531 7.69539 139.906 7.23304 140.138C9.34254 141.235 8.44667 143.228 6.27938 144.008C5.84592 144.182 5.23911 144.297 4.77675 144.384C3.2452 145.337 1.82918 146.464 0.210938 147.272C0.355424 147.272 0.52879 147.301 0.644379 147.33H1.51135L1.94479 147.619C5.32577 142.275 9.16914 145.279 9.11134 146.204C9.08245 146.897 8.15767 147.735 7.69532 148.139C5.52802 150.479 4.66113 153.945 1.39574 155.303L1.28012 155.736C5.55692 155.274 10.4117 155.187 9.25579 157.469C8.90903 158.134 7.92653 158.567 7.55087 158.711C12.4345 158.163 16.6824 157.672 14.9775 160.733C14.8619 160.936 14.6018 161.138 14.4284 161.311L14.2839 161.427C20.1789 161.051 20.9303 161.86 21.7394 162.669C21.7394 162.929 21.6816 163.247 21.6527 163.507C22.1729 163.709 22.8953 163.969 23.4154 164.142C24.7158 163.42 29.3394 161.369 32.1135 161.629C32.2291 161.456 32.4025 161.196 32.547 161.022C31.6512 160.502 30.5242 159.838 19.7744 161.34C17.8961 161.427 17.4915 161.196 16.4512 160.069C15.0352 159.26 13.677 158.509 15.7288 154.061C12.2996 154.08 10.248 153.868 9.57371 153.425C9.48702 152.905 9.57367 152.183 9.71816 151.721C6.51056 145.395 15.5554 142.333 15.6421 142.304C16.3356 140.802 16.5668 140.455 18.185 139.502C15.9888 136.267 21.5082 133.263 22.8664 132.974C23.0398 131.385 23.0687 130.981 24.8025 130.143C23.56 124.943 26.3919 123.903 27.75 123.441C27.0854 122.835 26.2763 122.43 25.6117 121.795C25.785 120.639 25.8139 120.61 27.2299 120.004C25.1204 118.82 25.1782 117.577 27.4033 116.306C26.9987 115.96 26.5363 115.44 26.2185 115.035C26.3341 114.515 26.6231 113.851 26.9121 113.418C23.8201 110.183 29.0216 106.803 29.0794 106.774C30.3316 100.612 31.1599 97.1645 31.5645 96.4327L37.8063 90.1933C38.0664 90.1066 38.4131 90.0199 38.6732 89.9333C38.3553 89.5 37.893 88.98 37.5173 88.6045C38.4998 82.8465 40.6768 79.2839 44.0481 77.9166C44.2793 77.8299 44.5971 77.6855 44.8283 77.5699C44.8861 76.3278 44.4816 75.0857 44.7995 73.8436C45.6664 70.2906 52.7462 68.9618 50.1166 64.8022C49.9721 64.5711 49.7986 64.2245 49.7986 63.9645C49.7986 63.6757 49.8854 63.2712 49.9143 62.9535C50.1454 60.1226 46.8223 55.9341 50.55 54.4321C51.5325 52.7566 53.4397 52.0056 54.5089 50.4457C53.1218 43.4553 66.8769 36.2048 67.0214 36.147C66.0389 34.8472 66.2123 34.2695 67.8594 33.4606C67.975 27.539 67.975 26.9034 70.7202 25.5747C75.2475 23.3408 77.7712 21.7136 78.2914 20.6929C76.5383 20.6929 75.4209 20.51 74.9393 20.1441C74.6503 17.891 73.7256 15.7534 73.7834 13.4136C71.3753 11.9115 71.2308 9.61022 73.3499 6.50976C71.7605 4.94991 72.5119 2.20572 70.4602 0.876953Z" fill="#C5C5C5"/>
</svg>
