<svg width="48" height="20" viewBox="0 0 48 20" fill="none" xmlns="http://www.w3.org/2000/svg">
<path d="M18.4132 0.712158C15.4368 0.769931 12.4604 1.34765 12.3159 1.34765C10.6399 1.6654 9.13704 2.44534 7.461 2.7342C5.69827 3.05195 3.84888 2.79197 2.08615 3.19638C1.62379 3.31192 1.4215 3.7741 0.988041 3.94742C1.12289 5.46876 1.01698 6.42201 0.670213 6.80716L0.554688 6.9227C1.73948 7.3271 2.34627 7.90484 2.49075 8.77143C3.12649 9.55136 3.09751 10.6779 3.84884 11.429C5.23591 12.8348 6.45928 13.6436 7.51885 13.8554C10.6398 14.4909 11.16 15.0397 11.4201 15.5019C11.5935 15.5886 11.8534 15.7041 12.0268 15.7908C12.8937 15.2419 13.7607 15.2708 15.1478 15.3864C17.0261 15.5597 17.6329 15.6175 18.3842 16.6863C19.6557 16.744 20.7248 16.8018 21.3606 17.0329C22.3431 17.3795 22.9499 18.275 23.9035 18.6505C27.4579 17.9573 30.9257 18.9105 34.4511 18.9972C36.6473 18.9972 38.7568 19.6326 40.9241 19.9215C39.537 16.484 45.7499 17.6684 47.2237 15.2419C46.4723 14.3176 45.2876 13.8265 44.623 12.8155C44.4785 12.5844 43.9872 11.6889 44.2184 10.5913C42.5135 9.78244 41.0686 9.08917 44.2184 7.93372C44.7675 7.73152 45.2875 7.61598 45.6054 7.52932C45.6439 7.04788 45.2298 6.50866 44.3629 5.91168C44.1702 5.77688 43.8619 5.02584 43.4381 3.65856C42.2533 3.19638 40.8374 3.02306 40.7796 3.02306C35.8671 2.3009 30.8679 3.10971 25.9842 2.12758C23.4702 1.60763 20.1759 3.91853 18.3842 0.74104" fill="#C5C5C5"/>
</svg>
