<svg width="22" height="21" viewBox="0 0 22 21" fill="none" xmlns="http://www.w3.org/2000/svg">
<path d="M2.13643 0.825684C2.59879 1.80782 2.02077 2.01003 0.980469 2.01003C1.26944 2.29889 1.55853 2.55887 1.8186 2.84773C1.8475 2.87662 1.90523 2.93437 1.93413 2.96326C2.77215 3.82985 3.08997 5.0142 3.87019 5.90967C5.43065 7.70062 7.59802 8.79829 9.18737 10.5315C12.106 13.709 13.6087 17.8975 16.6718 20.9594C16.5274 20.4395 16.4984 19.8617 16.2962 19.3707C16.0939 18.8507 15.6315 18.5041 15.5159 17.9552C15.4581 17.7241 15.4002 17.4064 15.8048 17.1753C16.4405 16.7998 18.3477 16.8576 21.5842 18.2152C9.15841 7.98949 8.37829 6.86291 8.14711 6.48739C7.48247 5.50525 7.36683 4.26315 6.47102 3.42545C5.19954 2.24111 3.4657 1.89448 2.13643 0.854576" fill="#C5C5C5"/>
</svg>
