<svg width="31" height="14" viewBox="0 0 31 14" fill="none" xmlns="http://www.w3.org/2000/svg">
<path d="M13.378 0.324791C12.251 0.353677 11.1529 0.613639 10.835 0.671412L10.6327 0.729197C10.6327 0.729197 6.67368 1.04694 4.73756 0.786959C3.81285 1.61503 3.10974 2.1061 2.62812 2.26016C2.48363 2.69346 2.10794 3.79113 1.15433 4.59994C0.865355 4.83103 0.46085 5.17766 0.489747 5.69761C0.605336 7.34413 2.2813 7.69077 3.11932 8.73068C5.63338 8.70179 8.0319 7.63301 10.5749 7.74856C10.806 7.74856 11.0661 7.74854 11.4417 7.86408C12.5109 8.09517 13.3201 8.904 14.3893 9.13509C15.8053 9.42395 17.279 9.04842 18.695 9.5106L20.4866 10.175C17.6547 11.186 16.7011 11.5326 14.5916 11.5904C13.1179 11.5904 11.8463 10.6661 10.3436 10.7238C10.228 10.7238 10.0548 10.8105 9.93921 10.8683C7.51184 11.7348 3.75517 11.9948 2.68597 12.0526C2.57038 12.0526 2.42588 12.0526 2.31029 12.0815C2.39698 12.2259 2.42581 12.2837 2.59919 12.4281C3.5528 12.6014 4.62203 12.2837 5.51784 12.9192C6.21138 12.7747 6.81828 12.6014 7.56961 12.3126C7.56961 12.3126 10.6808 12.1104 16.9034 11.706V11.446C21.3247 11.9082 25.6015 13.5258 30.1384 12.8325C30.4562 9.97278 26.3816 10.1461 26.4394 7.45968L25.5436 6.67976C25.3702 6.24646 24.8213 5.17768 23.2897 4.85993C22.5673 4.7155 20.66 4.31109 18.8973 1.97131H17.1346C14.765 0.295904 13.6958 0.295898 13.3201 0.295898" fill="#C5C5C5"/>
</svg>
