<svg width="31" height="9" viewBox="0 0 31 9" fill="none" xmlns="http://www.w3.org/2000/svg">
<path d="M3.2036 0.84078C1.123 0.696349 -0.639677 2.37175 0.371727 3.5272C0.689597 3.90272 1.15191 4.04715 1.41199 4.13381C3.23251 4.71154 4.18609 5.08706 5.71765 5.75145C6.64236 6.15585 7.0759 6.32917 10.3124 6.09808C11.0059 6.04031 11.0348 6.04031 11.3237 6.09808C12.4218 6.21362 13.3177 6.93578 14.4158 7.05133C15.6005 7.19576 16.7276 6.76246 17.9124 6.87801C19.3284 7.05133 20.7442 7.31131 22.1602 7.51351C19.7328 5.99217 18.5193 5.10632 18.5193 4.85597C19.3284 4.19158 23.3161 5.52035 23.4606 6.50248C23.5184 6.84912 25.8881 7.86014 28.6333 8.26455C29.5869 8.38009 29.8181 8.38009 30.0782 8.32232C28.8356 7.1091 28.7199 6.99355 29.9336 6.76246C28.98 5.80921 14.9071 2.60284 13.7512 3.0939C13.6934 3.49831 14.4447 3.7294 14.0979 4.13381C14.0979 4.13381 13.8668 4.33602 12.8843 4.13381C9.50331 3.41166 6.58455 1.38962 3.17468 0.84078" fill="#C5C5C5"/>
</svg>
