<svg width="12" height="4" viewBox="0 0 12 4" fill="none" xmlns="http://www.w3.org/2000/svg">
<path d="M3.78961 0.427979C2.60482 0.485751 2.22913 0.630181 2.22913 0.630181C2.22913 0.630181 0.119645 1.61232 0.524206 1.93007C0.610898 1.98784 0.957718 2.21893 1.39118 2.33447C1.42007 2.33447 1.47781 2.33447 1.5067 2.33447C2.11355 2.4789 2.77816 2.5078 3.38501 2.62334C4.10744 2.76777 4.74324 3.1144 5.43678 3.25883C5.61016 3.28772 5.87021 3.31661 6.13028 3.3455C8.41317 3.43216 11.534 2.70999 11.8808 2.33447V2.24782C9.74241 1.90118 9.45345 1.8723 8.81771 1.17903C8.32645 0.630188 5.81242 0.341326 3.78961 0.456871" fill="#C5C5C5"/>
</svg>
