<svg width="42" height="15" viewBox="0 0 42 15" fill="none" xmlns="http://www.w3.org/2000/svg">
<path d="M5.6707 0.543053C4.39922 1.95848 2.40533 0.976356 0.98936 1.9296C0.98936 2.65176 0.902788 3.37392 0.931685 4.09607C8.21379 6.43586 14.4844 8.48678 17.2296 9.67112C18.9056 10.1044 20.524 9.20894 22.2 9.58447C24.1361 10.0178 25.4943 11.6643 27.4304 12.1553C29.6555 12.7042 31.8517 13.4841 34.1346 13.8596C36.0707 14.2063 40.463 14.2929 41.0988 13.8019C41.1566 12.7331 40.2319 12.1842 39.8562 11.3754L33.2099 10.0466C29.9734 9.78666 23.8761 7.96682 20.6107 6.52251C7.69364 0.716369 6.24865 0.571933 5.6707 0.51416" fill="#C5C5C5"/>
</svg>
