<svg width="32" height="15" viewBox="0 0 32 15" fill="none" xmlns="http://www.w3.org/2000/svg">
<path d="M20.1188 0.199292C17.2869 0.719244 10.207 5.22551 9.83137 6.26541C8.79107 9.12515 6.56601 9.35624 5.35233 9.47179C4.68769 9.50067 3.99417 9.52956 3.01166 9.90509C3.96527 11.7827 1.01766 12.1293 0.0351562 13.2559C0.52641 13.4581 0.844301 13.4292 4.57205 12.967C5.67014 12.8322 7.07654 12.7552 8.79111 12.7359C11.8831 12.7359 12.8656 12.3893 14.5994 11.7827C16.7956 11.0316 17.807 11.5516 18.4139 11.8694C18.9051 12.1293 19.0785 12.1582 19.483 12.1293H19.5408C22.3149 11.8693 21.448 12.9959 21.448 12.9959C21.3613 13.0826 21.2458 13.1981 21.1591 13.2559C23.3553 12.8804 28.4701 11.9849 26.8519 14.1225C26.823 14.1514 26.7652 14.2091 26.7363 14.2669C28.788 14.7002 31.9955 14.3536 31.013 12.7648C30.8396 12.5048 30.6952 12.5626 30.4929 12.6782C28.8746 13.4003 26.2161 12.3893 28.6435 10.6272C27.0542 11.0028 25.407 10.5983 26.4473 8.83629C26.9385 7.99859 27.7187 7.47864 28.0366 7.30532C27.2467 7.20903 26.7267 7.2668 26.4762 7.47863C25.8405 7.99858 24.0488 8.37412 22.0838 8.05637C20.7256 7.82528 17.7781 6.26541 17.807 5.6588L17.8648 5.45659C16.5066 5.51436 15.4374 6.81424 13.9637 6.43872C13.0967 6.20763 13.1256 5.34105 13.9637 4.44557C13.9637 4.44557 19.8587 0.257069 20.061 0.17041" fill="#C5C5C5"/>
</svg>
