<svg width="20" height="15" viewBox="0 0 20 15" fill="none" xmlns="http://www.w3.org/2000/svg">
<path d="M0.751421 0.892578C0.751421 0.892578 0.606977 0.979232 0.433594 1.18144C3.227 2.29837 4.64305 2.87609 4.68158 2.91461C5.5485 3.66565 5.02824 4.41669 4.3925 4.67667C3.93015 4.87887 3.32333 4.87888 2.97657 4.90777H2.80319C2.7454 5.51438 4.2191 7.82527 5.63507 9.21181C6.15522 9.73176 8.03364 11.6094 9.5363 14.4113C10.9234 14.1803 12.2815 14.4113 13.6686 14.3536C14.5933 14.2958 14.5643 14.1514 14.5065 13.8047C14.4199 13.227 14.9978 12.0427 17.3673 11.9849C15.8069 10.5406 15.2579 8.17191 17.5986 8.08525C19.7659 7.99859 19.9103 6.03432 19.9103 6.00544C18.4366 5.68769 14.4199 5.54326 11.4724 5.42772H11.1835C10.7789 5.31217 7.19554 4.35892 6.5598 2.82795C6.47311 2.62575 6.3576 2.36576 5.92414 2.16356C4.33479 1.38363 2.5143 1.58584 0.896049 0.950341L0.780347 0.892578" fill="#C5C5C5"/>
</svg>
