<svg width="16" height="15" viewBox="0 0 16 15" fill="none" xmlns="http://www.w3.org/2000/svg">
<path d="M1.46979 0.0473633C1.03633 0.596202 0.660776 0.85619 0.140625 1.02951C0.4007 3.51373 0.458481 3.91813 0.487378 4.72694C0.545173 6.34457 0.60296 7.2208 0.660755 7.3556C4.07063 8.16442 11.4105 13.3928 11.4683 13.4506C11.7862 13.7106 11.9885 14.0861 12.422 14.2305C13.2889 14.5194 14.2136 14.4616 15.1094 14.606C15.225 14.606 15.3984 14.6638 15.514 14.6927C13.2889 13.855 11.9307 12.4396 11.2949 11.6597C10.7748 11.0242 10.6591 10.1287 10.11 9.52207C9.87886 9.2621 9.59002 9.05989 8.98318 8.56882C8.40523 8.10664 7.39379 7.38447 7.13371 6.74897C7.05665 6.5564 6.81584 6.40235 6.41128 6.28681C4.29215 5.59353 3.0881 5.14098 2.79912 4.92915C2.79912 4.92915 2.59691 4.75584 2.51022 4.66918C1.52771 3.65816 1.41202 2.61824 1.49871 0.0473633" fill="#C5C5C5"/>
</svg>
