<svg width="19" height="5" viewBox="0 0 19 5" fill="none" xmlns="http://www.w3.org/2000/svg">
<path d="M7.98423 0.113273C7.37738 0.171045 6.79945 0.488798 6.19261 1.00875C4.63216 2.39529 3.21618 2.97301 0.673224 3.26187L0.0664062 3.34854C1.74245 3.55074 3.38953 3.17521 5.06558 3.4063C5.41234 3.46408 6.56823 3.69518 6.68382 4.33067C7.8686 4.18624 9.08235 4.21512 10.2671 4.18623C10.3827 4.18623 10.5272 4.12846 10.6139 4.04181C11.1629 3.43519 12.2899 3.08856 13.9371 3.03079C14.9196 2.97302 15.902 3.11745 16.8845 2.91524C17.029 2.88636 17.2024 2.85747 17.3469 2.7997C17.8671 2.65526 18.6185 2.42417 18.0405 1.96199C17.607 1.61536 17.2313 1.70202 16.7112 1.81756C11.1629 3.05967 12.2033 1.55758 12.9835 1.03763C11.3941 1.18206 10.4694 1.03764 9.66023 0.488797C8.96669 0.026617 8.12868 0.0843864 7.9553 0.113273" fill="#C5C5C5"/>
</svg>
