<svg width="36" height="8" viewBox="0 0 36 8" fill="none" xmlns="http://www.w3.org/2000/svg">
<path d="M27.3526 0.134678C26.8903 0.914607 26.6013 1.17458 26.1101 1.31901C24.5496 1.72342 22.9892 1.29013 21.4287 1.46344C20.1862 1.60787 19.1747 2.4167 17.99 2.67667C17.8455 2.70556 17.6432 2.76332 17.4988 2.79221C17.6336 4.02469 17.4409 4.71796 16.9208 4.87202C15.4759 5.30532 14.06 4.61204 12.644 4.6987C11.257 4.75647 9.95652 5.27643 8.59835 5.47863C8.39607 5.50752 8.13605 5.53642 7.93377 5.53642C6.89347 5.5653 5.88207 5.21866 4.87066 5.10312C4.00375 5.01646 3.33906 5.70972 2.47214 5.68083C1.77861 5.68083 1.31618 5.5364 0.59375 5.27643L0.680526 5.65194L5.99752 6.3741C5.99752 6.3741 6.86452 6.31634 7.70254 5.91193C7.76033 5.91193 13.1641 4.38096 14.4067 6.46078C14.4645 6.54743 14.5802 6.69187 14.638 6.77853C14.6957 6.77853 24.0295 7.67399 24.4629 7.67399L31.1671 6.54743C31.6584 6.43189 31.9763 5.94082 32.4964 5.82527C32.4964 5.36309 32.583 5.10312 32.9298 4.90091C32.7564 4.35208 32.5253 3.54325 34.4036 3.51436H34.6637H35.0394C35.1839 3.51436 35.3861 3.51436 35.5306 3.51436C35.5306 3.19662 35.5306 3.08108 35.8484 2.76333C35.4439 2.41669 35.0972 2.09894 34.4614 1.3479C32.0052 1.46344 29.809 0.307994 27.4394 0.0769043" fill="#C5C5C5"/>
</svg>
