<svg width="65" height="39" viewBox="0 0 65 39" fill="none" xmlns="http://www.w3.org/2000/svg">
<path d="M9.00578 0.823388C7.32974 0.842645 6.08722 0.910046 5.2781 1.02559C7.15642 3.59647 8.19667 5.04079 5.04687 5.61852C5.10466 5.82072 5.16242 6.08068 5.19132 6.28289L7.24309 7.03394C3.57314 11.4246 3.11083 11.5691 0.25 12.5223C0.25 12.9845 1.78151 17.2597 4.17999 18.6173C4.67124 18.9062 5.62476 19.5417 6.43388 20.5527L10.1617 25.7234C10.3062 25.9256 10.2772 26.3011 10.2483 26.5611C10.8263 26.8499 14.2073 27.8032 14.8431 27.9187C16.4902 28.2076 21.605 29.4497 23.1366 30.2585C24.8126 31.154 26.5754 30.1141 28.2515 30.4607C28.5404 30.5185 29.0027 30.6629 29.4362 30.894C31.459 31.9339 33.5396 34.9959 34.2909 38C34.9266 38.0578 35.5625 38.1445 36.1982 38.1733C37.383 37.8845 40.5616 37.1045 42.2955 38.9822C43.7981 38.9244 45.2719 38.6933 46.7745 38.6933C47.6125 38.7799 48.4795 38.9244 49.3175 38.9822C49.7799 37.74 50.5023 37.3067 52.0628 37.249C52.737 37.326 53.3727 37.4512 53.9699 37.6245L54.6923 37.7978C56.484 37.1623 56.513 37.1623 58.0445 37.1912C60.3852 37.2778 62.3791 36.0646 64.5753 35.4869C62.4177 34.6011 61.2906 34.1196 61.1942 34.0426C61.1942 34.0426 57.6978 30.1141 57.5244 28.7853C57.4377 27.2543 57.4376 27.1965 57.2642 26.5899C54.9525 25.6367 56.3395 23.7591 57.3798 22.7192C52.7562 20.5816 52.6406 20.235 55.2414 15.0932C50.7045 13.1578 45.6764 10.9914 45.6186 10.9625L44.9251 10.6447V8.56491C38.7699 6.54287 30.5342 3.82756 24.3502 1.77664C23.8879 2.98986 23.281 3.59648 21.9806 4.1742C24.408 6.02292 22.6742 6.51399 21.8072 6.62953C21.7206 6.62953 10.5663 6.13847 9.93051 5.84961C8.34116 5.12746 8.02339 3.45205 8.9481 0.765625" fill="#C5C5C5"/>
</svg>
