<svg width="94" height="49" viewBox="0 0 94 49" fill="none" xmlns="http://www.w3.org/2000/svg">
<path d="M42.1299 0.813965H34.6167L38.7779 27.5338L40.5695 28.5448C40.6273 29.8735 40.7429 32.1267 38.5756 32.4444C38.4022 32.4444 10.7186 33.2821 9.82278 33.1666C9.6205 33.1666 9.36051 33.1088 9.18713 33.1088C7.48219 34.8997 5.48821 34.0043 3.5232 33.1088C3.40761 33.1666 3.23416 33.2532 3.08967 33.3399C2.88739 34.2931 2.48299 34.7553 0.546875 35.2175L1.44268 35.9974C1.2404 37.384 1.26924 37.384 2.82969 38.2794C4.525 39.2808 5.23777 40.8022 4.96806 42.8435C8.22382 42.3813 10.497 42.3139 11.7878 42.6413C13.7239 43.1323 14.8798 41.1969 16.6425 41.1392H16.8737C19.0988 41.5436 20.0236 43.5656 20.197 44.23C21.6996 45.0581 22.4412 45.6262 22.4219 45.9343L22.1909 46.3965C22.4221 46.6661 22.7881 47.3497 23.289 48.4474C26.8337 48.6592 28.6928 48.8133 28.8662 48.9096C29.1551 48.794 29.5019 48.534 29.733 48.3318C31.9003 46.1365 34.3856 48.1874 36.6684 47.8408C37.0441 47.2053 37.7087 46.772 37.911 46.021C38.1133 45.1833 36.8707 44.3455 37.7376 43.5945C39.4137 42.1502 41.9565 42.8146 43.5458 41.1969C46.0503 38.6164 47.6878 37.4225 48.4584 37.615C48.9786 37.7595 49.4699 37.9328 49.99 38.1061C50.4813 37.2684 50.8859 37.124 52.1573 36.8351C55.0856 35.776 56.7519 35.2753 57.1565 35.333C58.8614 34.5242 62.0113 33.051 66.6349 32.3578C69.4668 31.9245 72.2698 33.051 75.1018 32.6755C76.9512 32.0689 78.3093 31.6067 80.4766 31.78C92.8735 32.3578 93.8849 30.509 93.5959 20.8032C91.9777 20.9766 90.3305 21.1788 88.7123 21.381C88.7123 18.2613 87.9033 17.3947 80.7368 16.7014L79.9854 16.6436C73.8881 10.1153 42.4767 0.9295 42.1877 0.871728" fill="#C5C5C5"/>
</svg>
