<svg width="106" height="62" viewBox="0 0 106 62" fill="none" xmlns="http://www.w3.org/2000/svg">
<path d="M74.4326 0.205566C71.3117 1.44768 67.9597 0.638846 64.781 1.27434C59.7914 2.29499 57.2291 3.00753 57.0942 3.41194L56.8343 4.22075L43.4259 2.48758C40.0738 -0.314384 38.3977 0.321097 34.8722 2.71866C35.2479 8.43814 31.1446 18.8083 23.5735 22.6791C23.0822 24.99 23.9202 27.3298 23.2844 29.6118C23.0532 30.3917 21.8974 30.6517 21.3194 30.7672C21.2905 35.0135 12.4191 34.2047 12.3324 34.0891C12.1879 33.858 12.1301 33.4825 12.1012 33.1937C9.55824 32.9337 7.18873 34.8402 4.58798 33.6558C3.86555 33.6558 3.7499 33.6558 0.917969 34.6957C1.55371 35.6201 1.81376 36.0534 2.33391 37.0644C8.24821 36.7948 15.6171 36.7659 24.4404 36.9778H25.2783C26.0875 37.7866 27.6191 39.2309 27.1857 41.0796L27.1278 41.3107C28.8905 42.2062 29.4686 44.4882 31.5492 45.0082C34.3233 45.7014 36.9529 44.4015 39.6693 44.4304H39.7559C40.4205 42.1484 40.9695 40.3575 47.8471 41.484H48.7141C48.7719 41.6573 48.8585 41.8884 48.9163 42.0617C51.1125 42.6684 53.5977 40.4152 55.6205 42.755C56.8341 44.1608 57.1521 46.8761 56.5741 50.9009C58.963 52.9422 60.1573 54.2421 60.1573 54.8006C60.0707 55.0895 59.9551 55.4938 59.8684 55.8116C67.1891 55.8886 71.2347 56.2834 72.0053 56.9959L72.1209 57.0826C75.2803 57.6025 77.2646 58.2573 78.0737 59.0469C78.276 59.0469 78.5649 59.0469 78.7672 59.0469C80.4143 59.0469 81.8015 60.0579 83.3909 60.1734C85.038 60.289 86.1649 58.6713 87.841 58.9313C90.5284 59.3357 92.6957 61.1844 95.3831 61.5888C93.9768 60.2601 93.264 59.4801 93.2448 59.2491C93.1003 57.0537 94.7763 55.3494 94.863 53.2118C93.8227 52.2297 93.5338 51.9408 93.8227 51.2476L97.2904 47.2613C97.4349 47.2613 97.6661 47.2613 97.8106 47.2613C100.874 47.3768 102.665 47.4057 103.966 47.1168C102.058 44.7193 98.7063 43.8816 97.3192 40.9063C96.0188 38.0754 93.8516 30.565 95.7877 29.4384C95.7299 29.1207 95.6432 28.6585 95.5565 28.3408C93.1291 27.3298 93.3315 25.8565 94.8919 25.1055L99.0531 15.082C100.44 13.1177 102.81 12.6266 104.601 11.2979L105.237 10.8935C103.6 10.0847 102.896 8.6211 103.128 6.50277C103.128 6.50277 98.0416 2.80531 95.7009 3.64302L94.7185 4.07631C93.8516 3.59488 93.2063 3.32527 92.7825 3.2675C89.0258 4.27852 85.9627 3.55637 83.7376 1.10103L83.5064 0.89883L79.085 1.24547C76.2242 0.321113 74.8371 0.234453 74.4037 0.205566" fill="#C5C5C5"/>
</svg>
