<svg width="89" height="64" viewBox="0 0 89 64" fill="none" xmlns="http://www.w3.org/2000/svg">
<path d="M71.3007 0.115234C70.7228 0.404097 70.4626 0.519634 69.4512 0.490748H68.8733C68.1797 1.62694 66.8023 2.33946 64.741 2.62832C63.1516 4.73702 60.4353 3.95711 58.4414 2.9172L51.1882 2.715C50.7258 2.45503 50.2346 2.28171 49.8011 1.99285L47.576 2.80166L14.2286 1.99285L14.9221 8.63667L9.6628 8.52112C10.5297 17.4759 10.4238 22.0592 9.34498 22.271C6.80202 22.6947 5.50153 23.282 5.44374 24.0331C5.41484 24.5819 5.01025 25.5351 2.69846 25.9395C2.58288 27.4127 2.4095 27.7883 1.08022 28.2215C1.19581 29.454 0.964664 30.3206 0.386719 30.8213C2.81409 31.6012 3.01634 34.7787 5.41481 35.5876L6.51292 35.9053C6.31064 36.3964 6.0217 37.0608 5.81942 37.5518C8.47797 39.3139 14.0262 42.9824 10.6741 44.5134L12.3213 44.6867C14.6042 47.4887 19.8636 45.2356 21.0773 49.8285C24.3426 51.4172 26.9722 54.1614 30.5555 55.2013L31.1045 55.3457C34.6878 59.9098 37.8953 60.1698 37.9242 60.1698C40.9488 59.5535 43.4725 59.3995 45.4953 59.7076C45.6398 59.7076 45.8422 59.7653 45.9867 59.7942C48.6741 60.4875 50.3213 63.6072 53.5578 63.0873C57.4589 62.4229 57.7766 62.5673 59.9439 63.3761C62.3135 63.5206 64.6832 62.9717 67.0816 63.1162C67.7463 62.8851 68.2954 62.4229 68.96 62.1629L69.5668 61.9029L69.8269 61.7874C72.4566 58.3499 76.5311 61.1808 79.5653 59.5054C79.5653 59.3609 79.6231 59.1876 79.6231 59.0721C78.6117 58.8699 77.4846 58.6677 75.8663 57.83C73.4968 56.6456 71.7631 54.5947 69.4802 53.2371C67.3996 51.9949 64.7988 52.1105 62.8049 50.6373C60.6087 49.0197 63.3828 47.2287 63.4984 47.1421C64.3942 46.5643 66.6481 46.7088 67.7462 46.7665C68.1797 44.8601 68.8733 43.0402 69.2489 41.1337C68.6903 40.479 69.6054 39.7183 71.9942 38.8517C72.341 37.8984 72.0231 36.743 72.8611 35.9342C74.3638 34.4321 76.7334 34.3743 78.1783 32.7278C78.1783 32.7278 79.8542 28.5393 79.4785 27.7305C78.5827 25.824 78.8139 24.8996 79.1607 24.4375C79.7964 23.5998 80.8078 23.1376 81.328 22.1843C81.7036 21.4911 80.779 20.6245 81.5881 19.9601C83.6398 18.3136 86.4139 18.3425 88.5523 16.8981C87.1363 14.2695 83.4374 14.7317 82.0215 12.1319C80.6344 9.58992 81.1258 6.32578 78.8718 4.13042C76.7912 2.0795 73.699 1.90617 71.5028 0.144105" fill="#C5C5C5"/>
</svg>
