<svg width="65" height="26" viewBox="0 0 65 26" fill="none" xmlns="http://www.w3.org/2000/svg">
<path d="M6.01074 1.04417C4.10352 1.44858 2.36971 2.34406 0.433594 2.60404C0.433594 2.71958 0.433594 2.86402 0.433594 2.95068C2.36971 4.04836 2.45635 4.07724 2.54304 5.29046C4.47915 4.79939 5.49061 5.46378 5.66399 6.04151C6.73319 6.07039 7.83127 5.89708 8.90047 6.15705C11.2123 5.37713 13.6395 5.63709 14.2464 6.70588C16.0958 7.05251 16.5583 7.60136 15.6336 8.29463C14.9978 8.7857 12.8015 9.53675 12.0791 9.68118C12.6185 11.0485 12.8498 11.8284 12.7728 12.021C12.7728 12.021 12.6282 12.2809 12.5416 12.3676C12.3682 12.5409 12.0214 12.6853 11.848 12.8587C11.1545 13.5519 11.2412 14.9385 9.88305 14.9962C11.482 16.6524 11.5879 17.5382 10.2009 17.6538C9.79632 17.856 9.79634 17.856 9.68075 18.116C10.6922 18.5781 13.0906 19.618 10.9522 20.4268C9.25693 21.0623 8.56331 21.5534 8.87154 21.9001C12.108 21.8134 14.073 24.6443 16.9338 25.3375C17.9163 24.625 19.5829 24.2784 21.9332 24.2976C26.4122 22.8533 31.0936 23.8932 35.6304 22.9977C36.9308 22.7378 37.6532 21.5245 38.8669 21.1201C39.965 20.7735 41.1208 20.8024 42.2189 20.4846C42.5079 20.398 42.5947 20.1958 42.6814 19.5314C42.7681 18.9825 42.8258 18.6359 43.895 18.0871C44.8197 17.596 45.8311 17.2782 46.7558 16.8161C46.0912 15.5162 45.4554 14.303 46.5535 13.0031L53.7491 8.43907C60.7229 6.85996 64.2868 5.85856 64.4409 5.4349C58.6615 5.4349 54.038 4.7994 52.9399 4.30834C52.7665 4.25056 52.5642 4.13501 52.3908 4.07724C51.3505 4.75125 46.8041 4.17353 38.7514 2.34407C33.1164 2.34407 27.5103 1.88189 21.9042 1.82412C16.5582 1.76634 11.2412 0.95752 5.89522 0.95752" fill="#C4C4C4"/>
</svg>
