<svg width="68" height="65" viewBox="0 0 68 65" fill="none" xmlns="http://www.w3.org/2000/svg">
<path d="M41.7115 1.02068C41.4803 1.02068 41.1914 1.04955 40.9891 1.07844C41.6537 2.14723 39.0241 8.38666 22.9283 11.9974C17.6979 13.1529 14.028 23.6964 8.68196 18.5546L8.45073 18.4102C2.81577 19.3346 3.48043 16.677 3.50933 16.6481C3.68271 16.3015 4.34736 15.8682 4.60744 15.6949C4.75192 15.6082 4.95415 15.4927 5.09864 15.4349C5.04085 15.3483 4.98309 15.2038 4.95419 15.1172C-0.33401 16.9659 0.706313 19.1035 1.54433 20.8078C1.97779 21.7032 2.44007 22.6565 0.648438 23.3786C2.46896 25.6895 5.90777 25.2851 7.7283 27.6249C10.2713 30.8987 11.7258 33.0652 12.0918 34.1243C12.6409 35.6842 13.3633 37.0996 13.6234 37.6484C13.739 37.8507 13.8545 38.1395 13.9701 38.3417C15.1453 40.5563 17.1681 43.262 20.0386 46.4588C21.9747 48.5963 21.6568 49.7807 21.05 50.3873C20.212 51.225 21.2522 52.1204 21.2522 52.1204C22.0035 52.6982 26.7427 54.8357 26.7716 54.8646C32.2043 56.9444 37.9838 57.811 43.4164 59.8042C45.8438 60.6997 47.7799 62.5773 50.2073 63.4728C51.1898 63.8194 52.0856 64.0794 52.7503 64.2816L53.1837 64.426L53.3859 64.4838C53.646 64.3682 53.9639 64.166 54.1662 63.9927C55.2932 62.9239 55.5532 61.3063 56.738 60.2953C57.9806 59.1976 59.7145 58.8221 60.8126 57.4933C57.865 56.5112 58.6453 55.7312 61.2172 53.1026C61.1016 52.6211 61.8529 51.3983 63.4711 49.434C63.5578 45.1011 63.789 44.1478 64.916 43.4546C65.4073 43.2235 65.9274 42.9924 66.3897 42.7035L63.8757 38.1395C63.2977 37.7929 59.6856 38.3706 59.4255 38.4573L58.8476 38.5728C55.9 38.7461 56.2757 36.8974 57.1426 34.0377C55.8134 34.9043 46.8841 37.0707 46.2195 33.6621V33.5755C44.6012 33.6621 43.5031 33.4888 42.983 32.9978C42.8963 32.94 42.7807 32.8244 42.7229 32.7378C42.145 31.5246 42.0293 30.138 41.1046 29.0981C39.4864 27.3071 39.0529 26.2673 40.7868 25.054C40.8157 24.043 40.8734 22.9164 44.7168 21.6166L45.0347 21.5299C44.9191 19.5368 49.3693 16.2148 49.3982 16.1859C53.964 13.8462 59.0498 13.3551 63.8757 11.853C62.8932 10.7842 63.5579 10.322 67.3723 7.8956C65.205 5.38249 62.5753 7.86671 60.2347 7.28899C56.5647 7.0579 50.3807 11.7664 49.2248 6.68238C47.5199 5.64247 47.4621 5.61358 47.751 4.77588C47.6354 4.57367 47.462 4.34259 47.2887 4.19816C46.1617 3.41823 44.6012 4.16926 43.5609 3.12936C42.954 2.55163 43.1564 1.48285 42.3473 0.991783C42.1739 0.876238 41.856 0.991783 41.6248 0.991783" fill="#C5C5C5"/>
</svg>
