<svg width="70" height="27" viewBox="0 0 70 27" fill="none" xmlns="http://www.w3.org/2000/svg">
<path d="M42.6401 0.389648C41.5805 0.466678 38.5655 2.26724 33.5952 5.79136C32.3526 6.68684 31.1966 7.06238 27.7 7.0046C26.8909 7.0046 26.0819 6.97571 25.2728 6.97571C25.5617 8.62223 25.5617 8.68001 20.2158 10.0954C12.4135 12.1752 10.5062 11.482 9.69711 11.1931C8.04996 11.6553 6.22944 11.222 4.64009 12.1175C2.93515 13.0418 0.739 16.1615 0.710103 16.1615C0.0165683 18.588 5.79596 24.6541 5.88265 24.7119C8.57009 26.2428 8.68567 26.2139 9.11913 26.1273C9.20582 25.7518 9.23477 25.6073 9.17698 25.0874L8.94575 24.3075L13.425 23.7875L16.2568 23.3542L20.0135 23.7297L19.8979 22.1121C23.539 19.4257 27.5268 17.1437 33.0461 21.0144C35.8781 21.39 39.6637 21.881 42.4956 22.2277C43.2084 20.8411 45.3467 20.2056 48.9107 20.3212C54.5746 19.7434 57.994 19.522 59.1692 19.6568C59.8338 18.9635 61.0186 17.6636 67.4338 19.5412L69.5145 19.3968C69.5145 19.3968 55.7883 9.45992 52.205 9.31549H51.2514L50.3556 8.16004L48.2751 7.95783C45.7899 6.83127 47.0323 5.79137 48.1304 5.38696C48.3616 5.3003 48.6218 5.12699 48.7663 4.92479C47.986 3.76934 44.6918 0.707381 42.669 0.418519" fill="#C5C5C5"/>
</svg>
