<svg width="140" height="35" viewBox="0 0 140 35" fill="none" xmlns="http://www.w3.org/2000/svg">
<path d="M95.4235 1.19471C85.0494 2.17684 74.7042 3.13009 64.33 4.14111C63.9255 4.42997 61.9027 4.81512 58.2616 5.29656L30.0001 11.0449C18.5279 13.0381 17.4009 12.7492 16.5051 12.547C16.0235 13.0284 15.3589 13.4136 14.5112 13.7025C15.5322 13.6062 16.2931 13.5677 16.794 13.5869C16.7362 13.7891 16.6496 14.0491 16.5629 14.2513C15.6382 14.5979 14.6846 14.8868 13.7598 15.2045C18.8458 16.7355 23.7872 13.7891 28.8731 14.7712C28.7287 15.2045 28.3241 15.7245 27.9773 16.0134C33.1499 17.7754 37.918 14.5402 42.975 14.7712C44.7667 14.8579 55.8631 13.3847 57.7992 11.9404C57.857 11.9115 58.9263 11.1316 60.6312 11.796C60.6312 12.0271 60.6312 12.3448 60.6023 12.5759C59.5427 13.5388 53.3876 14.9061 42.137 16.6777C43.6685 17.4577 45.518 17.3999 46.9339 18.4976C45.1134 20.5196 38.6693 18.902 38.0335 18.5842C36.3864 17.7754 25.1743 17.0244 23.7872 19.7686C23.9317 19.9419 24.1051 20.1441 24.2496 20.3174C31.3583 20.0285 38.1491 23.8126 38.2069 23.8704C37.0221 25.1992 35.6062 25.2281 30.1157 24.8237C21.7066 24.1882 16.8808 25.6614 14.3378 26.9901C18.6435 30.572 22.1689 25.8058 26.0989 25.4303H26.9659C26.6577 26.0658 25.0201 26.9516 22.0533 28.0878C23.2092 28.5211 24.4807 28.6944 25.5788 29.2722C25.5788 29.4744 25.6366 29.7632 25.6655 29.9943C23.7294 31.6408 19.4237 31.843 17.8344 30.7453C17.8055 30.5143 17.7477 30.2254 17.7188 30.0232C15.7248 28.7233 10.8412 29.821 10.2921 29.9365C10.4366 30.1387 10.61 30.3698 10.7545 30.572C12.7773 30.572 12.8929 30.6298 13.6732 31.092C13.3264 31.7853 13.0086 32.4496 9.10743 32.854C4.51276 33.3162 1.44966 34.1828 0.351562 34.5294C2.0854 35.4249 42.5704 33.634 50.6905 30.9187C50.6905 30.6876 50.6906 30.3987 50.7195 30.1676C45.2001 30.2254 39.7096 31.5253 34.1613 30.6009C34.0457 30.3987 33.9301 30.1676 33.8145 29.9654C39.1894 25.4014 45.7491 28.4344 51.6153 27.1923C51.3841 25.6036 51.5286 24.9392 58.1461 24.6792C67.451 24.3326 71.4388 20.4907 71.4677 20.4618C67.5665 18.7864 63.6655 21.0685 59.7643 20.4907C59.8799 20.2596 76.8522 16.36 110.681 8.7918C113.889 8.06964 116.316 7.69412 118.859 7.26082C120.911 6.94307 121.171 6.8853 122.038 6.6831C118.021 6.22092 114.091 7.83855 110.074 7.28971C111.548 5.15213 122.385 4.89215 122.5 4.89215C126.488 5.00769 138.105 2.00352 139.694 1.51246C134.069 1.24285 131.179 0.963621 131.025 0.674759C125.448 -0.33626 120.16 2.66791 114.611 1.94575C114.862 1.44505 115.488 1.01176 116.49 0.645872C116.49 0.645872 100.278 0.81919 95.4524 1.13694" fill="#C5C5C5"/>
</svg>
