<svg width="28" height="18" viewBox="0 0 28 18" fill="none" xmlns="http://www.w3.org/2000/svg">
<path d="M22.5181 0.665207L22.1135 0.780754C21.969 1.06962 21.7379 1.5318 20.7265 1.70511C20.0715 1.82066 18.6363 1.71474 16.4209 1.38736C15.1783 1.21405 14.2245 2.16728 13.0397 2.25394C12.2017 2.31171 11.6239 2.16728 10.5835 1.76288C9.6781 1.41624 8.18511 1.41624 6.10451 1.76288C5.96002 3.26496 5.96006 3.64049 5.96006 4.07379C7.78059 5.02703 9.22538 5.77806 6.97139 7.39569L6.62464 7.62678C6.45126 8.06008 6.16223 8.78224 3.50369 9.18664C3.3592 9.18664 1.59655 10.7176 1.42317 11.5842C1.1342 12.9707 0.180543 14.1551 0.296132 15.6572C0.353927 16.2349 0.324973 16.5815 0.238281 17.1015C0.642843 17.0148 1.85658 16.6971 6.79802 16.1193C7.9828 16.1193 9.60106 16.0616 10.7859 16.0327C12.4908 13.1152 13.9935 11.382 22.8938 12.5663C23.6451 11.2664 23.9631 11.0643 24.5699 10.6887C27.633 8.78225 27.5173 7.30904 27.3729 5.0848L24.9167 3.84269L23.9919 1.35847L22.5181 0.607422" fill="#C5C5C5"/>
</svg>
