<svg width="44" height="26" viewBox="0 0 44 26" fill="none" xmlns="http://www.w3.org/2000/svg">
<path d="M14.3036 0.365537C14.5347 0.885489 14.1878 1.57877 14.708 2.01206C15.6327 2.79199 16.0084 3.13863 15.9506 3.3986C15.8639 3.97633 15.257 4.26518 13.7833 4.35184C12.3962 4.46739 11.038 4.98734 9.62205 4.72737C7.98454 4.39999 6.78049 4.28445 6.00989 4.38074C5.77872 5.07401 6.61676 5.65173 6.2122 6.345C5.89433 6.89384 4.9119 7.35601 4.13168 7.64487C4.9408 8.10705 6.4145 8.97364 4.2472 9.75357C4.18941 10.4757 3.66929 10.9668 1.21303 11.1112C1.38641 12.1222 0.461663 12.9311 0.635046 13.9421C0.779533 14.722 2.02221 14.4331 1.99331 15.3286C1.99331 15.6464 1.9066 15.9063 1.06858 16.3685C1.8488 16.9751 2.1667 17.2929 2.54236 18.1884C4.47848 18.7372 6.47227 19.0261 8.37949 19.5749L8.43734 19.6616H8.72624C11.0669 19.6904 12.0495 20.557 11.356 21.2503C10.6336 21.9725 9.50663 22.2902 9.07317 23.359C8.92869 23.7056 8.92864 23.7056 8.84195 24.2545C9.24651 24.6011 11.2403 24.3411 11.616 24.2545C14.3323 23.619 20.9499 25.0922 20.9788 25.1211C25.14 24.9863 27.2495 24.9092 27.3073 24.89C28.2898 24.4567 32.0176 24.0234 33.8092 24.3989L34.127 24.4856C33.5202 23.359 34.0403 22.7524 35.8608 22.348C36.6699 22.1458 37.3924 21.6258 38.2015 21.4236C36.8722 20.9037 35.6586 20.4704 34.8784 20.2104C34.0308 19.9023 32.9423 18.949 31.613 17.3507C30.5727 16.513 29.6768 15.7619 30.8327 15.2709L41.756 12.9599C42.3917 12.9022 43.143 12.9888 43.4897 13.0466C43.5186 12.9888 43.5764 12.9311 43.6053 12.8733C43.6053 12.8155 43.5765 12.7 43.5476 12.6422C42.9407 11.6889 42.1894 10.8224 41.6981 9.78246C41.1491 8.6559 39.9643 8.19372 39.1551 7.32713C39.0107 7.1827 38.7506 6.7494 39.3285 6.20056C40.2532 5.36286 39.3864 3.91855 39.3864 3.88966C38.4328 2.18537 35.4853 4.12075 35.0807 1.9254C34.9073 1.83874 33.1445 1.05881 29.2434 2.87865C25.2845 4.72737 22.9149 2.99419 23.0883 2.04094C17.8868 1.66542 17.8868 1.63653 17.7134 0.481084C16.5864 0.509971 15.4593 0.307773 14.3323 0.25" fill="#C4C4C4"/>
</svg>
