<svg width="74" height="22" viewBox="0 0 74 22" fill="none" xmlns="http://www.w3.org/2000/svg">
<path d="M24.5745 3.15164C22.5806 3.4405 8.82548 6.96463 5.09774 8.2934C4.96288 8.65929 3.37355 9.55476 0.329707 10.9798C0.329707 10.9798 0.329679 11.2398 0.300781 11.3553C1.31219 11.5287 2.38144 10.922 3.33505 11.6442C3.27725 11.7597 3.2194 11.9331 3.19051 12.0486C3.46021 12.1256 4.57759 11.9523 6.5426 11.5287C12.7266 10.171 13.9981 10.1421 14.605 10.7198C14.1426 11.5287 13.3913 11.7886 8.53652 12.7419C2.78596 13.8684 1.74565 14.1573 0.763148 14.4462C1.60117 15.3128 8.33425 14.6195 11.7152 14.0129C16.281 13.1752 24.979 12.5686 27.1174 13.3774C27.1174 13.5218 27.1752 13.724 27.2041 13.8684C25.9037 14.9661 24.1411 15.2839 14.6916 16.0927C8.13197 16.6415 1.42777 18.1147 0.474158 18.5769C0.724601 18.808 1.63006 19.0391 3.19051 19.2702C6.02244 19.6746 6.51373 19.7612 10.9061 19.1257C14.2582 18.6347 14.5183 18.7791 14.865 19.2991C14.6916 19.7901 14.2582 20.1368 14.1715 20.6567C14.8073 21.0322 15.2695 21.2922 22.0315 20.6567C27.0596 20.1368 31.8277 18.288 36.8558 17.7103C40.468 17.3348 41.3349 17.2481 43.9067 15.9194C46.3052 14.6773 48.8771 14.1573 49.1661 15.515C61.6786 17.277 68.1804 14.244 68.2093 14.2151C68.2093 14.0995 68.1516 13.9262 68.1227 13.8107C67.747 13.5796 67.6025 13.4929 66.9379 13.4929C64.915 14.2729 61.852 15.4283 61.4474 13.6951C63.3835 11.442 69.1052 11.1531 73.7287 10.9509C73.7865 10.8354 73.8732 10.6909 73.931 10.5754C72.7173 9.67993 66.3888 8.87112 66.0131 8.84223C64.7705 8.75558 61.8231 8.40893 61.274 7.16683C61.4089 6.83945 62.0446 6.23284 63.1812 5.347C61.8231 3.78714 61.0428 2.92055 63.7591 0.667418C60.6382 1.64955 57.6329 0.349676 54.5698 0.234131C51.9691 1.21626 54.7722 4.45153 52.7205 5.86695C51.8824 6.44468 51.3622 6.53133 48.039 7.19572L47.7212 7.25349C45.9874 7.39792 46.1318 6.70465 46.5942 5.37588C47.201 3.64271 47.3455 3.18053 43.6756 2.77612C43.9068 2.86278 44.1669 3.09386 44.3113 3.29607C43.9068 4.18191 40.834 5.0485 35.0931 5.89583H34.3996C34.3996 5.89583 34.2551 5.69363 34.1973 5.60698C34.3899 5.31811 34.7656 4.95222 35.3242 4.5093L35.5265 4.33597C34.7752 3.41161 29.4003 3.61382 28.2155 4.88482C25.7593 7.54236 20.6444 6.53134 20.5866 6.53134C20.5866 6.41579 20.5289 6.24248 20.5289 6.12693C21.887 4.88482 23.9099 5.40477 25.3547 4.33597C25.3547 3.98934 25.2873 3.6716 25.1524 3.38273C24.9791 3.26719 24.719 3.15164 24.5456 3.18053" fill="#C5C5C5"/>
</svg>
