<svg width="52" height="29" viewBox="0 0 52 29" fill="none" xmlns="http://www.w3.org/2000/svg">
<path d="M18.8357 0.637436H18.7781L18.9514 0.666329L13.9233 2.6306C11.9872 2.91946 11.6404 3.2661 11.3804 3.49719C11.4382 4.33489 12.4785 4.68153 12.4785 5.54811C12.4785 5.577 12.1027 9.21666 11.2936 10.0544L11.1491 10.1988C11.1491 10.1988 6.40991 11.4987 0.601562 13.0296C1.09282 14.1851 1.90207 15.1961 2.53781 16.2649C6.29445 16.2938 7.68138 16.3227 20.454 21.32C30.3368 25.1908 38.0236 27.4246 43.5141 28.0216C44.3521 26.5773 44.7567 25.9996 45.1613 25.7396C45.9126 25.0463 46.346 24.6419 48.1376 24.5264C49.4669 24.5264 50.2471 24.6419 51.9231 25.4219C51.6919 25.2774 46.4326 22.1866 47.3862 20.1646C47.444 20.049 47.5018 19.8757 47.5596 19.7601C45.1033 18.2292 42.2425 17.6515 39.6418 16.4671L34.1802 12.8563C31.6661 10.2855 35.654 7.62792 35.7118 7.59903C35.4228 6.90576 35.4517 6.79022 35.5095 6.44358C34.238 5.57699 32.5908 5.89474 31.2904 5.11482C30.1634 4.45043 29.5857 3.23721 28.5743 2.45728C25.2222 2.4284 22.1878 0.695213 18.8647 0.550781" fill="#C5C5C5"/>
</svg>
