<svg width="16" height="17" viewBox="0 0 16 17" fill="none" xmlns="http://www.w3.org/2000/svg">
<path d="M6.23805 0.821289C5.92018 0.96572 5.68907 1.02349 5.22672 1.13904C5.13039 1.67825 5.19784 2.10192 5.42902 2.41004C5.6024 2.61225 5.83363 3.5655 4.93781 5.32756C4.21538 6.74299 3.37726 7.81177 3.0305 8.18729C2.36586 8.96722 1.41228 9.42941 0.71875 10.1805C0.747647 10.296 0.776446 10.3249 1.70116 10.7004C2.16351 10.8737 2.62599 11.0182 3.08835 11.2204C5.14005 12.1447 4.79316 13.589 4.04183 16.4777C4.04183 16.4777 5.77578 16.7087 9.21455 16.2177C9.21455 16.2177 8.31865 14.3401 11.4684 13.4735C8.11636 12.1158 11.5553 10.5849 11.5841 10.5849C10.0815 9.68938 8.17418 8.5917 10.9483 7.86954C11.4107 7.754 11.8442 7.69623 12.1043 7.69623C12.0465 7.40737 11.902 6.56967 12.8556 6.04972C13.1735 5.8764 13.2313 5.84751 13.1735 5.61642C13.0579 4.95203 12.3065 4.54761 12.3643 3.79657C12.3643 3.68102 12.3933 3.56549 12.5089 3.42106C12.6052 3.267 13.655 2.78556 15.6586 1.97674C14.9939 1.74565 14.705 1.54346 14.6473 1.19682C14.3005 1.19682 13.9825 1.19681 13.4624 1.34124C13.0867 1.48567 12.5088 1.68789 11.902 1.68789L8.20304 1.51458C7.5384 1.48569 6.64273 1.37014 6.18037 0.879074" fill="#C5C5C5"/>
</svg>
