<svg width="16" height="5" viewBox="0 0 16 5" fill="none" xmlns="http://www.w3.org/2000/svg">
<path d="M15.0909 0.905113C13.7905 1.25175 12.4323 1.16507 11.1031 1.33839C10.1206 1.48282 9.22477 1.85836 8.24226 2.03168C8.06888 2.03168 7.89551 2.08944 7.72213 2.08944C5.35255 2.1761 3.04079 1.5695 0.700117 1.42507C0.613425 2.34943 0.613368 2.86938 0.642266 3.38933C1.19131 3.36045 1.82707 3.33156 2.46281 3.38933C3.64759 3.47599 4.22543 3.82262 4.5144 4.0826C4.57219 4.14037 4.77451 4.16925 5.09238 4.14036C7.19225 3.9863 8.30971 3.90926 8.44456 3.90926C8.44456 3.90926 8.53119 3.90926 8.56009 3.90926C8.84906 3.93815 9.16692 3.96704 9.4559 4.02481C9.54259 4.02481 9.62936 4.02482 9.71605 4.0537C10.3807 3.216 11.1319 2.98492 11.7387 2.86938C11.9988 2.00279 12.0278 1.97389 12.4035 1.7428C13.2415 1.25173 14.2529 1.25174 15.1198 0.876221" fill="#C5C5C5"/>
</svg>
