<svg width="62" height="58" viewBox="0 0 62 58" fill="none" xmlns="http://www.w3.org/2000/svg">
<path d="M57.3275 0.45134C55.3047 0.971292 53.4843 2.18449 51.317 2.09783C49.2075 1.98229 47.1269 2.90664 45.0174 2.27114C44.8729 2.24226 44.6705 2.1845 44.526 2.15562C42.7344 5.93972 31.6668 2.73334 31.5801 2.64668C29.8463 2.41559 28.1414 3.02222 26.4076 2.8489C25.9452 4.98649 28.4303 8.68392 29.5283 10.1571C30.6553 11.6881 32.6783 11.8325 33.9786 13.0746C35.2501 14.2878 34.2965 18.3319 34.2965 18.3608C33.7763 20.094 31.869 19.1407 30.7709 19.8051C29.5572 20.5562 31.32 21.7983 30.9732 22.8382L30.5399 23.4448C26.3498 23.3292 21.9862 18.1008 21.9573 18.0431C20.5413 16.2232 23.142 14.8944 22.6508 13.1901C22.4389 13.1131 21.3987 13.1709 19.53 13.3635H19.3277C18.1429 13.3057 17.4493 13.0457 15.3109 11.9192C14.8293 11.6496 9.75298 12.4873 0.0820312 14.4323C0.51549 15.1833 1.06466 16.1943 1.46922 16.9454C8.46236 17.5809 16.7848 20.2673 16.8137 20.2962C17.6517 20.9317 19.2698 26.9978 17.0736 28.8176C16.958 28.9043 16.7846 29.0487 16.669 29.1354C16.5823 29.1931 16.4957 29.2798 16.4091 29.3376C17.1893 29.8864 17.6804 30.3197 18.1139 31.6485C18.1428 31.764 18.2007 31.8796 18.2296 31.9951C19.1832 32.4284 19.4143 32.8617 19.0676 33.5839C18.8075 34.1327 17.6228 35.1437 16.0912 35.9237C14.6753 36.6458 15.7155 38.2345 14.9353 39.1589C14.6463 39.5055 13.9817 40.3144 9.18474 42.9141C9.18474 42.9719 11.2943 48.4025 13.2304 49.5002C14.2996 50.1068 15.3399 52.4755 14.7908 57.155C14.7908 57.2417 14.7908 57.3572 14.8197 57.4728C15.5422 55.2197 19.53 54.2953 28.1992 52.2155C30.511 51.657 31.6667 49.7987 31.6667 46.6404C31.6667 44.214 31.0214 41.8549 29.7306 39.5633C28.9215 38.119 27.4477 37.2524 26.6386 35.7792C26.3207 35.1726 25.8295 34.0172 26.2919 33.2083C26.6675 32.5151 27.5057 32.1395 28.7482 32.1106C30.3376 31.9951 30.3085 30.1464 31.4933 29.5976C32.7648 29.0198 34.2386 29.0776 35.539 28.5288C38.6021 27.2289 40.7984 24.4269 44.0927 23.5314C47.5315 22.6071 51.2303 22.7226 54.5245 21.105C56.3162 20.2384 59.0325 18.1297 60.4774 16.541C61.1131 15.8188 61.2864 15.5011 61.2864 15.5011C60.7085 12.208 59.2347 9.17499 58.599 5.91084C58.2233 4.06212 57.7032 2.24227 57.3275 0.393555" fill="#C5C5C5"/>
</svg>
