<svg width="82" height="39" viewBox="0 0 82 39" fill="none" xmlns="http://www.w3.org/2000/svg">
<path d="M24.041 1.07738C22.4805 4.63039 16.9612 1.22181 16.0076 5.41032C15.8535 6.06507 15.6898 6.48872 15.5164 6.6813C14.2449 8.06784 12.2798 8.27005 10.8927 9.4255C9.76575 10.3499 10.3148 12.083 9.13005 12.9785C8.72549 13.2674 7.56962 13.5851 7.16506 13.6718L5.14222 21.0089C5.04589 21.1437 3.58171 21.24 0.749775 21.2978C0.576392 21.8466 0.518597 21.9621 0.0273438 22.3954C0.297052 22.588 0.807655 22.7517 1.55898 22.8865C2.59928 23.0887 5.749 23.6375 10.1414 27.5083C13.2045 30.1658 13.3201 30.2814 15.3718 30.3969C17.7414 30.5413 17.4814 32.0434 17.308 33.0256C17.2791 33.2567 17.2791 33.6899 17.4814 33.8055C17.6548 33.8825 24.3492 35.3172 37.5649 38.1096C39.1253 37.0408 40.2524 36.2608 44.0091 35.8275C45.5984 35.6542 46.8698 36.7519 48.4013 36.8963C48.5458 36.8674 48.7482 36.8386 48.8927 36.7808C49.8174 36.6075 53.7185 36.203 55.8858 36.1742C58.0531 36.1742 59.6714 34.5276 61.752 34.2388C62.9368 34.0655 63.6304 34.0944 66.6357 34.2966C67.8783 34.3832 68.2538 34.2966 68.3405 34.2966C73.4842 32.6501 77.3275 28.8371 81.8644 26.1795C76.5762 25.9195 48.6904 19.8534 52.2736 14.7406C44.5292 16.3582 46.003 11.3609 46.0319 11.3031C46.581 10.2343 47.7079 9.80102 48.4881 8.99221C47.5634 8.44337 39.4433 3.7349 36.9292 2.57945C34.9353 2.43502 32.9124 2.78167 30.9185 2.31949C28.9535 1.68399 26.8152 2.52168 24.908 1.45289L24.33 1.13514L24.0122 0.990723" fill="#C5C5C5"/>
</svg>
