<svg width="19" height="13" viewBox="0 0 19 13" fill="none" xmlns="http://www.w3.org/2000/svg">
<path d="M17.1753 0.693848C13.9388 1.53155 10.5867 1.96484 7.43691 3.14917L6.80108 3.38027C5.32732 2.94698 3.36227 2.34036 1.88851 1.90707C1.77292 3.38026 1.88855 4.88236 1.74406 6.38444C1.65737 7.07771 1.42624 7.51099 1.25286 7.65542C1.10837 7.77097 0.674892 8.17537 0.328125 11.2373C1.02166 11.4395 3.13122 12.075 3.99813 12.1617C4.25821 12.1906 4.72056 12.1906 5.443 11.9595C6.25212 11.6995 6.6566 11.3818 6.62771 11.0062C6.62771 10.9774 6.62769 10.6596 6.97446 10.3707C8.36153 9.27306 10.0954 10.2552 11.5692 9.70635C12.0894 9.50414 12.4071 9.01308 12.9273 8.78199C11.8292 8.05983 9.97976 7.27991 9.48851 7.16436C8.70828 6.99105 8.27485 6.70217 8.07257 6.29777C7.7547 5.6045 8.91068 4.82458 10.8757 4.39128C12.8407 3.95799 14.8635 4.27575 16.8285 3.90022C17.4643 3.78468 18.0421 3.43804 18.7067 3.35138C18.7067 3.35138 18.7646 3.35138 18.7935 3.35138C18.2734 2.4559 17.5798 1.67598 17.1753 0.693848Z" fill="#C5C5C5"/>
</svg>
