<svg width="53" height="38" viewBox="0 0 53 38" fill="none" xmlns="http://www.w3.org/2000/svg">
<path d="M49.3473 0.825596C49.3473 0.825596 49.1161 0.970022 49.0294 1.05668C48.2203 1.54775 47.1799 1.31666 46.3997 1.89438C45.7639 2.35656 45.9663 3.45424 44.9837 3.65645C43.0187 4.06086 41.805 5.70738 40.1001 6.51619C39.7341 6.68951 39.4643 6.83393 39.2909 6.94948C39.6666 7.84495 40.0713 8.88486 35.9967 8.71154C35.8523 8.71154 35.6788 8.71154 35.5343 8.71154C35.6691 9.40481 35.4573 10.127 34.8986 10.878C35.4477 11.7735 36.1122 12.9001 32.6156 12.4956C31.7198 12.3801 30.9108 12.9001 30.0439 12.9578C32.1823 13.8533 32.9913 14.171 31.9221 14.7777C31.8065 14.8354 31.662 14.8932 31.5464 14.9221C30.7951 15.1821 29.4081 15.1532 28.7435 14.8643C28.599 14.8065 28.2522 14.6621 25.2179 15.6442C23.224 16.2797 22.1549 18.4173 20.0454 18.8506C19.4867 18.9662 18.5525 18.6195 17.2424 17.8107C18.1672 19.0817 18.745 19.8327 11.9253 20.2949C13.6013 20.7282 13.4279 21.3637 12.7632 21.6526C11.7807 22.0859 8.74654 21.7392 7.73513 21.5659C6.9838 22.2014 6.69492 22.4325 5.48124 22.4614H4.98986C4.61419 22.4614 4.5564 22.4614 4.09405 22.5769C5.51001 24.0213 2.62032 23.9635 2.50473 23.9635C1.72451 23.9635 1.08887 23.7902 0.799894 23.7324C0.482024 23.9635 0.424138 24.0213 0.164062 24.2812C1.70525 25.013 2.235 25.5715 1.75338 25.9566C2.21573 26.4477 2.8226 27.141 0.510816 27.7476C1.26214 28.3253 1.72461 28.6431 0.626517 29.3363L0.539741 29.4808L0.684192 29.5674C1.26214 29.3941 2.15795 29.3074 3.02486 29.8563C10.2781 27.5165 8.31308 30.3473 8.28419 30.3762C8.1686 30.5495 7.90851 30.6651 7.73513 30.7518C6.9838 31.1273 6.08794 30.7806 5.33661 31.1273C4.93205 31.3006 5.10545 31.8206 4.81648 32.0516C5.39442 32.456 6.29025 32.3983 6.63702 33.1782C6.8393 33.6693 6.55036 33.987 5.77014 34.1603C5.68345 34.1603 5.56793 34.1892 5.48124 34.2181C5.27896 34.8536 5.0767 35.2291 3.51624 35.2869C12.1276 38.9555 16.6356 36.9912 21.2014 34.2759C21.6926 33.987 22.1259 33.727 23.3974 33.727H24.0332C24.5149 33.7656 24.8616 33.7559 25.0735 33.6982C25.5936 32.6197 26.0175 32.0324 26.345 31.9361L26.7785 31.8494C29.1192 31.8494 31.3154 34.3337 31.3154 34.3625C31.4021 34.3625 31.4887 34.3048 31.5754 34.2759C31.9799 32.3501 32.2014 31.3487 32.24 31.2717C33.1069 29.7985 34.9275 31.8783 35.7366 30.3762C36.4879 29.0186 33.3382 28.5853 34.3496 27.401C34.5519 27.1699 34.9853 26.881 35.9678 26.881C36.6035 26.7366 36.6034 26.7366 36.5745 26.3033C35.5631 25.5811 33.9739 26.0144 33.2515 24.6856C33.1937 24.599 33.1647 24.4545 33.1647 24.3679C33.078 23.7902 33.8005 23.588 33.7427 23.0391C33.656 22.3747 32.789 22.1437 32.789 21.4215C32.789 21.046 32.8468 20.8438 33.1936 20.2083C31.6621 15.8753 37.2682 15.442 39.0309 15.4132C39.7533 15.4709 40.4758 15.6442 41.1982 15.6731C41.4487 15.6346 41.6413 15.4613 41.7762 15.1532C40.2157 14.614 39.4643 14.1903 39.5221 13.8822C39.5221 13.8822 39.5511 13.6511 39.6089 13.5644C40.3313 12.4379 41.7472 12.1201 42.5563 11.0802C43.2787 10.1559 41.9207 8.62489 43.25 7.9605C44.4926 7.32501 45.9085 7.9605 47.18 7.41166C47.1222 7.06502 46.9198 6.02512 50.7053 4.26306C50.4742 3.42535 50.3297 2.96318 52.3525 1.37443C51.37 1.48998 50.0119 1.63441 49.3183 0.767822" fill="#C5C5C5"/>
</svg>
