<svg width="17" height="8" viewBox="0 0 17 8" fill="none" xmlns="http://www.w3.org/2000/svg">
<path d="M4.73319 0.422409C3.192 0.807559 1.84339 0.884594 0.6875 0.653504C2.8259 1.75118 3.14384 1.92449 3.28832 2.55999C3.34612 2.79108 3.37502 2.9644 5.45562 3.91764C5.71569 4.03319 6.64043 4.46648 7.10278 4.72645C7.39176 4.89977 7.53624 5.24642 7.82522 5.39085C11.5241 7.47066 12.2464 7.73063 12.7665 7.93283C13.3734 6.71961 15.7719 5.04421 16.8411 4.75535C17.0145 4.23539 17.0723 3.16661 16.8411 2.01116C14.4427 1.20235 13.0267 1.00015 12.9978 1.00015C11.0905 0.769057 9.15443 0.826828 7.21831 0.682397C6.38029 0.624624 5.57118 0.393523 4.70426 0.422409" fill="#C5C5C5"/>
</svg>
