<svg width="23" height="24" viewBox="0 0 23 24" fill="none" xmlns="http://www.w3.org/2000/svg">
<path d="M10.3322 0.865723C9.00293 1.84786 7.35572 2.25226 6.02645 3.23439C6.91263 4.25504 7.14387 4.9772 6.72004 5.40086C6.19989 5.9497 5.39071 6.20969 5.21733 6.26746C4.14813 6.58521 3.02112 6.55632 1.95192 6.87407C1.77854 6.93184 1.69186 6.98961 1.69186 7.24958C1.69186 7.79842 1.40287 8.23172 0.59375 8.80944C0.622647 8.92499 0.738286 9.01166 0.824977 9.09832C1.25844 9.38719 1.86526 9.90714 2.70328 10.6293C3.25233 10.456 3.7147 10.3404 4.43713 10.2826C5.07287 10.2826 6.25766 10.2826 6.77781 10.8026C7.41355 11.467 6.89338 12.3336 7.12456 13.0557C9.92759 13.7779 9.23408 16.031 7.32686 17.0998C5.01508 18.4286 5.07286 22.0105 9.20516 23.1082C9.78311 23.2526 10.5923 23.3681 11.1413 23.0793C11.3147 22.9926 11.5747 22.8482 12.0082 22.7037C12.066 22.7037 12.1238 22.6748 12.1816 22.646C13.0774 22.4149 14.0021 22.5015 14.869 22.2993C15.7648 22.0971 16.4584 21.375 17.412 21.3172C18.6546 21.2594 19.7526 20.4795 20.9952 20.3928C20.215 19.3818 19.8394 18.0819 18.6835 17.3598C16.3717 15.8962 15.2254 15.0585 15.2447 14.8467C15.3025 14.2112 17.961 11.3225 17.961 11.2937C19.0591 10.4848 20.5329 10.7159 21.6888 10.0804C21.6021 9.04054 21.5732 8.95388 22.4112 7.88508C21.7177 7.53845 21.3709 7.2496 20.0127 6.2097C18.8568 5.28534 17.2386 5.80528 16.0538 4.9387C15.5914 4.59206 15.158 3.95655 15.6781 2.91664C14.1755 1.87674 12.2104 2.07894 10.7078 1.06793L10.3033 0.865723" fill="#C5C5C5"/>
</svg>
