<svg width="23" height="5" viewBox="0 0 23 5" fill="none" xmlns="http://www.w3.org/2000/svg">
<path d="M5.75461 0.272199C1.15995 0.734379 -0.0248487 0.994352 0.870966 1.83205C1.13104 2.06314 1.50676 2.03426 1.65125 2.03426C9.39571 0.38774 8.23982 2.52532 8.23982 2.55421C8.12423 2.75641 7.74854 3.13193 6.67934 3.50746C10.7539 2.84307 13.9037 2.92973 15.9843 3.79632C19.1919 5.0962 21.6481 3.99852 22.5728 3.47857C22.5728 3.44968 22.5728 3.39191 22.5728 3.36303C21.0124 2.49644 20.9546 2.46755 22.1972 1.71651C21.8504 1.36988 20.0876 1.34099 18.5561 1.45653C18.4405 1.45653 18.0938 1.48542 17.7759 1.45653C16.9379 1.39876 16.5333 0.4744 15.7242 0.387741C15.6664 0.387741 14.4238 0.734378 14.3949 0.734378C10.8406 1.7454 11.4185 0.734378 11.852 0.243312C11.852 0.214426 11.823 0.15665 11.7941 0.127764C10.9561 -0.0744396 8.70213 -0.0166638 5.75461 0.272199Z" fill="#C5C5C5"/>
</svg>
