<svg width="54" height="53" viewBox="0 0 54 53" fill="none" xmlns="http://www.w3.org/2000/svg">
<path d="M10.1782 0.591476C9.13792 0.909225 7.72186 1.31363 6.65266 1.60249C7.0187 4.00968 7.64487 5.56954 8.53106 6.28207C8.53106 6.28207 11.5653 8.96849 10.6984 10.9905C10.4864 11.4912 10.3322 14.2932 10.2359 19.3964C10.1974 21.0333 9.11855 22.4969 6.99942 23.7871C2.54924 26.4736 -0.138128 28.0912 0.0352559 31.6153L0.410934 31.8753C2.63602 33.2618 5.46786 33.6373 7.17279 35.9194C7.59662 36.4971 8.07824 38.1051 8.61766 40.7434C8.96442 42.4188 10.9296 42.8232 11.4497 44.3542C11.5364 44.643 11.5363 45.1341 10.4382 45.4229C8.21311 46.0007 5.98803 45.3652 3.76294 45.5385C3.68588 45.9622 5.12108 46.9058 8.0686 48.3693C9.88913 49.2648 10.5827 51.258 12.0564 52.5001C13.7903 52.269 15.3797 51.0558 17.2292 51.749C19.4831 51.4024 21.737 51.0847 23.991 50.738C26.4377 50.0833 27.9212 49.6692 28.4413 49.4959C27.401 47.9649 28.5857 47.2139 31.9378 47.2717C35.6655 47.3294 36.3301 47.3583 37.3126 46.6362C42.7453 42.6884 46.4924 40.7048 48.5537 40.6856H49.1027C48.4959 39.7612 47.1377 39.7323 46.5598 38.7213C46.4635 38.5288 46.396 37.8259 46.3575 36.6126C44.4214 35.9483 41.7918 35.0239 44.5082 33.3485C43.6798 31.6153 43.9494 30.7295 45.3172 30.691C45.3172 30.691 45.5773 30.691 45.664 30.691C45.8373 30.1132 45.7508 29.4488 46.1553 28.9289C46.7044 28.1778 47.7445 28.6689 48.3514 28.0912C48.9004 27.5712 48.4381 26.6469 49.1027 26.1558C50.0564 25.4625 51.6169 25.087 53.8419 24.7404C53.8997 24.4515 54.073 23.7294 53.7552 22.054L52.9751 13.7636L10.2071 0.533691" fill="#C5C5C5"/>
</svg>
