<svg width="32" height="11" viewBox="0 0 32 11" fill="none" xmlns="http://www.w3.org/2000/svg">
<path d="M23.4881 0.400793C20.3383 0.689655 17.3619 1.78733 14.241 2.13396C12.2471 2.33617 10.2242 2.07619 8.2014 2.33617C8.14361 2.33617 8.08582 2.33617 8.02803 2.33617C7.68126 2.39394 7.24788 2.45171 6.93001 2.53837C6.23647 2.71169 1.49724 4.87815 0.167969 6.43801C1.72842 7.18905 2.99991 7.07351 4.1558 6.98686C7.4212 6.72688 8.20147 7.21794 7.27676 9.03778C7.68132 9.09555 8.606 9.32664 8.77938 10.0777C8.91424 10.0392 9.28994 9.87549 9.90642 9.58662C10.2243 8.34451 10.3398 7.969 11.6691 7.3335C13.4607 6.4958 15.4258 6.61133 17.3041 6.23581C18.8068 5.94694 19.8181 4.73374 21.2052 4.24267C23.0546 3.57829 25.1064 4.09824 26.9558 3.43386C29.3639 2.58653 30.8762 2.07619 31.4927 1.90287C28.8052 1.55623 26.2911 0.198589 23.4881 0.400793Z" fill="#C5C5C5"/>
</svg>
