<svg width="98" height="19" viewBox="0 0 98 19" fill="none" xmlns="http://www.w3.org/2000/svg">
<path d="M39.1527 0.392326C34.2979 0.334554 29.8189 2.35659 25.0797 2.9632C24.3477 3.05949 21.0534 2.97284 15.1969 2.70324C14.7057 4.81193 12.3071 5.12969 7.16338 5.01414C1.49952 4.84083 0.777164 4.84083 0.199219 5.7363C3.03115 5.88073 3.40685 6.60287 3.66693 7.09394C3.60913 7.23837 3.55134 7.44059 3.49355 7.58502C4.28341 8.49012 4.32187 9.42412 3.60907 10.387C4.95761 12.1587 5.59328 13.1023 5.51622 13.2178C7.45233 14.0555 9.96648 13.5645 11.3824 15.6732C15.0235 15.4998 18.0866 18.3596 21.8143 17.7241C22.1322 16.7708 23.9816 14.0267 34.4135 18.2152C38.3435 19.8039 41.5511 16.6553 45.221 16.6264C46.4925 16.6264 47.6195 17.1752 48.8332 17.4063C51.0294 16.8575 53.7458 16.1931 55.0462 17.6086C61.2302 17.1464 78.3373 16.9442 78.4529 16.9442C81.2559 17.0308 82.0074 17.0597 84.2036 16.742L84.608 16.6553C85.0993 16.742 85.7639 16.8864 86.2262 16.9731C87.8734 15.7598 90.561 16.1931 92.526 16.7709C94.3176 17.2908 96.1958 17.3486 97.9585 17.8974C97.0627 16.9442 95.5023 16.8575 94.8954 15.5287C94.8954 15.471 93.8263 9.9248 94.2598 9.80925C94.2598 9.23153 94.2308 9.00044 94.5487 8.71158L94.3464 8.53825C89.8095 8.36493 87.2666 3.56983 82.7009 3.45428C78.3663 3.33874 74.234 5.36077 69.8705 4.6675C69.726 4.6675 69.5238 4.60973 69.3793 4.58085C68.8302 4.4653 54.5548 3.1943 54.4393 3.1943C49.1511 3.07875 44.3253 0.536758 39.0371 0.392326" fill="#C5C5C5"/>
</svg>
