<svg width="47" height="22" viewBox="0 0 47 22" fill="none" xmlns="http://www.w3.org/2000/svg">
<path d="M43.9429 1.14801C37.8744 1.20579 29.2053 -1.22066 23.7148 1.35022C21.9809 2.15903 21.1718 4.00775 19.5536 4.961C17.9064 5.94313 16.1438 6.72306 14.5833 7.84962C14.4099 7.96517 14.2077 8.13848 14.0632 8.25403C12.4739 9.64057 11.578 11.6626 9.90199 12.9914C6.39579 15.7645 4.2573 17.5169 3.4867 18.2487C3.4867 18.2487 3.22661 18.5087 3.11103 18.5953C1.95513 19.7219 1.46391 20.3285 0.972656 21.1662L20.3339 20.9351C20.5458 18.0272 20.7576 16.4673 20.9695 16.2555C22.5589 14.609 24.8419 14.9556 26.7202 14.2335L27.3269 5.3654C38.7703 5.3654 43.0472 5.36541 46.2259 5.27875C46.3415 5.07654 46.6592 2.47677 46.3125 1.32132C46.0524 1.23466 45.7346 1.17691 43.8852 1.17691" fill="#C5C5C5"/>
</svg>
