<svg width="18" height="6" viewBox="0 0 18 6" fill="none" xmlns="http://www.w3.org/2000/svg">
<path d="M11.5262 0.467613C10.6015 0.467613 9.70564 0.785359 8.75203 0.814245C7.85622 0.843131 6.96045 0.698705 6.09353 0.785364L4.15747 1.21866C3.40614 1.42087 3.05927 2.14301 2.42353 2.48964C1.78779 2.83628 1.0943 3.06737 0.487458 3.44289C0.429664 3.47178 0.342951 3.52956 0.285156 3.58733C2.39466 3.47179 3.00151 4.2806 3.00151 4.7139C3.49276 5.00276 3.72399 5.1183 3.95516 5.40716C4.93767 5.37827 5.92006 5.66714 6.90257 5.32051C7.82728 4.97387 8.08747 3.87618 9.01219 3.52955L9.41679 3.414C10.2452 3.414 11.3818 3.94359 12.8266 5.00275C12.8844 4.22283 13.867 3.78954 15.543 3.78954C16.0631 3.78954 16.5832 3.99174 17.1034 3.87619C17.479 3.78953 17.6235 3.38512 17.9992 3.24069C16.169 2.62445 15.2058 2.14301 15.1095 1.79638C15.0517 1.56529 14.9939 1.3342 14.9939 1.07422C14.5027 0.814246 12.3065 0.438721 11.5552 0.438721" fill="#C5C5C5"/>
</svg>
