<svg width="42" height="32" viewBox="0 0 42 32" fill="none" xmlns="http://www.w3.org/2000/svg">
<path d="M33.6696 0.223145C33.0916 0.512007 32.6292 0.685328 31.0688 0.858646C27.5722 1.26305 28.497 5.65376 25.7518 6.72255C25.7132 6.93438 25.7036 7.21362 25.7228 7.56026C25.7421 7.90689 24.9714 8.56165 23.4109 9.52452C23.1797 9.64007 23.122 9.66895 22.9486 10.2467C22.9486 10.3045 22.6886 10.9688 20.9547 12.9042C20.4057 13.5108 19.8566 14.0885 19.3076 14.6951C17.67 16.4668 16.495 17.3912 15.7822 17.4682C14.2795 17.6127 13.7304 16.1684 12.6612 15.5906C11.4186 14.9551 10.2338 15.6773 9.02014 15.6773C6.59277 15.6195 2.2293 18.8259 2.17151 18.8548C1.189 19.6058 1.42014 20.8768 0.871094 21.8301C2.62419 23.0818 3.67421 23.698 4.02097 23.6788C6.04378 23.5921 7.17075 23.5343 8.15326 24.632C9.28989 25.8838 9.35733 27.7036 8.35556 30.0915L15.0019 30.1493L17.6027 29.7449C18.1229 29.7738 30.6064 30.2937 33.2361 30.1782C34.0741 30.1493 35.4901 30.0915 40.865 31.5358C41.1251 30.8137 41.2695 30.4959 41.5585 30.0049C39.6224 28.6761 37.3972 27.8384 35.7212 26.1341L35.5189 25.903C35.6923 24.9498 35.2301 24.4876 34.5943 24.0254C31.9069 21.9745 31.7912 18.0171 31.7912 17.9882C31.7912 17.9882 33.8139 14.3485 36.9637 12.6731C35.2492 10.6703 33.8718 9.43786 32.8315 8.97568C30.1151 7.76245 28.4969 6.89587 28.9304 5.27824C29.046 4.18056 30.0863 3.68948 35.4612 3.97834C34.2861 1.8215 33.6985 0.56978 33.6985 0.223145" fill="#C5C5C5"/>
</svg>
