<svg width="12" height="10" viewBox="0 0 12 10" fill="none" xmlns="http://www.w3.org/2000/svg">
<path d="M1.04633 0.580078C0.670662 1.04226 1.53749 2.71765 2.57779 3.52647C3.58919 3.58424 3.76261 3.52648 3.8782 3.4687C3.76261 1.93773 5.90107 2.74654 6.82578 3.55536C6.94137 3.64202 9.57087 5.9818 8.29939 7.16614C7.72145 7.68609 8.50169 9.01487 9.22412 9.3615C10.2355 9.85257 11.7093 7.42611 11.7671 6.01069H11.1891L10.3222 5.86627C9.51311 5.31743 9.02182 4.99966 9.02182 4.45083C9.02182 4.19085 7.86606 3.4976 7.34591 3.20874C6.94135 2.97765 3.38698 0.984486 1.0174 0.580078" fill="#C5C5C5"/>
</svg>
