<svg width="75" height="27" viewBox="0 0 75 27" fill="none" xmlns="http://www.w3.org/2000/svg">
<path d="M28.3045 0.858879C27.7554 1.14774 27.5242 1.29216 26.3105 1.4366C26.0505 1.92766 25.7326 2.50538 24.1432 2.44761C23.3341 2.38984 22.6696 2.4765 21.9183 3.08311C22.005 4.35411 22.0338 5.04737 19.5487 5.01849C12.6711 4.67185 11.9487 4.23856 10.5617 3.37197C9.03012 2.41872 6.14031 0.801092 3.97302 0.685547C9.29011 4.13264 11.4574 5.95249 10.4749 6.14507C10.2437 6.20284 9.9258 6.20283 9.69462 6.17394C6.83379 5.97174 3.94412 6.00064 1.08329 5.82732H0.765465C0.592081 6.43393 0.563254 6.4917 0.476562 7.04054C0.592152 7.1272 0.707726 7.27163 0.823316 7.27163C2.0081 7.27163 4.75335 7.53161 4.2621 9.2359C5.3313 10.2758 6.94951 10.5069 7.84533 11.8068C8.71225 13.1067 8.39436 14.6954 8.91451 16.0819C9.37687 16.1108 9.78147 16.1686 10.9374 16.0819C12.5845 14.9554 14.3183 13.771 21.9472 13.9444C25.7038 14.031 28.9402 16.2264 32.639 16.5441C34.2862 16.6019 38.1296 16.7174 43.1577 19.866C43.5045 20.0971 43.8223 20.3282 44.198 20.5304C45.8451 21.4837 48.0703 19.6927 49.5441 21.6281C50.3243 22.668 50.2953 24.3145 51.7979 24.8345H52.087C53.9653 24.9789 55.4679 25.0367 56.5371 25.9899C57.3463 26.0477 57.9243 25.9899 58.4155 25.7588C58.271 22.3502 62.9523 24.1123 65.2063 23.2746C65.6687 21.1082 65.8709 20.8193 66.7667 20.2704L72.055 18.9706C72.8063 19.0572 73.0375 19.0861 74.2512 19.4327L74.7424 19.5772C74.6268 19.375 74.5112 19.1439 74.3956 18.9417C73.6732 18.7395 71.7948 18.1906 70.9279 18.1328C64.7728 17.8729 59.8892 14.0599 54.312 12.1823C52.2507 11.489 49.8426 10.0062 47.0877 7.7338C44.2557 5.39401 40.5281 6.92499 37.465 5.59622C36.1646 5.0185 36.2802 3.40087 35.2688 2.59205C32.8992 2.18764 30.9052 0.252268 28.3045 0.858879Z" fill="#C5C5C5"/>
</svg>
