<svg width="35" height="9" viewBox="0 0 35 9" fill="none" xmlns="http://www.w3.org/2000/svg">
<path d="M19.8638 0.821934C19.1414 0.821934 18.3324 0.821934 16.5118 0.821934C16.0206 1.71741 17.321 2.49734 16.7141 3.39281C16.5696 3.59501 16.0494 4.08608 14.2578 4.20162C10.8479 4.40382 9.89427 4.0572 6.31101 1.39966C5.24182 1.63075 2.81456 2.52622 2.81456 2.52622C2.75676 2.55511 2.69883 2.61288 2.66993 2.67065C2.38096 2.9884 2.49662 3.50836 2.20765 3.82611C1.80309 4.28829 1.10956 4.31716 0.762789 4.866C0.560508 5.18375 0.849417 5.58816 0.878315 5.58816C1.13839 5.79036 2.90114 5.53039 3.42129 5.35708C4.11482 5.12599 5.12627 4.92378 8.16048 5.15487C12.8804 5.50151 15.4812 5.67483 15.9628 5.67483C16.454 5.67483 16.9453 5.64593 17.2632 5.58816C18.8525 5.32818 19.806 5.70371 20.5863 6.10811L20.7018 6.16589H20.8175C21.1835 6.16589 23.5723 6.84954 27.984 8.21682C29.0243 7.75464 29.8334 7.49465 32.4919 7.75463C33.301 7.09024 33.4167 7.0036 34.3414 6.77251C33.8501 5.93481 32.9255 5.67483 32.2319 5.15487C31.6829 4.72158 32.0874 3.94164 31.625 3.47946C31.625 3.47946 31.2205 3.21949 30.4114 2.69953C30.4114 2.69953 27.8395 2.46845 27.0592 2.43957H26.7992L26.4812 2.46845C25.412 2.46845 24.3141 2.20847 20.673 0.821934C20.4419 0.764161 20.4129 0.76416 19.8638 0.76416" fill="#C5C5C5"/>
</svg>
