<svg width="50" height="12" viewBox="0 0 50 12" fill="none" xmlns="http://www.w3.org/2000/svg">
<path d="M37.4675 0.584961C37.4675 1.30712 37.4963 2.37591 34.2887 1.9715C32.3815 3.01141 30.7055 2.14482 30.4166 1.9715L30.0987 1.91373C30.0987 1.91373 29.8674 1.91373 29.7807 1.91373C29.6651 2.1063 29.5208 2.2411 29.3474 2.31813L28.7983 2.54923C27.7291 2.54923 27.6713 2.54922 26.082 2.11593L25.4751 1.94262C24.4348 1.79819 24.2036 2.83808 23.5101 3.24249L22.9032 3.50247C21.7762 3.50247 21.1694 3.53136 19.869 2.4048L19.7824 2.34702C19.8595 3.56025 19.609 4.26314 19.031 4.45572C19.031 4.45572 14.8988 5.29342 14.2052 5.32231C13.5984 5.32231 12.8758 5.1201 12.4135 4.74458C12.1534 4.54237 10.9686 3.50248 12.4424 2.607C10.8241 1.94262 8.62796 1.48043 7.58766 1.336C8.65686 1.74041 8.65693 1.79818 8.74362 2.23148C7.84781 3.47359 4.98699 2.57811 4.95809 2.57811C4.59206 2.44331 3.42647 2.83808 1.46146 3.76244C1.23028 3.87799 0.999156 3.99354 0.796875 4.10909C1.23033 4.25352 2.21283 4.39795 3.85998 4.05131C9.06148 2.95364 12.6737 4.19574 10.7375 5.23565C10.5931 5.32231 10.3908 5.40896 10.2174 5.46673C10.3908 5.92891 10.5642 6.47776 8.59917 6.82439L8.68577 7.05548C8.68577 7.05548 8.68577 7.31546 8.68577 7.431C10.9398 6.96882 11.2577 7.71986 11.2577 8.21093C11.6911 8.47091 12.8181 9.22195 10.7375 10.0019C15.9679 9.27972 20.9093 12.1395 26.1397 11.244C30.9944 10.4063 35.6181 8.55757 40.5306 8.0665C42.5534 7.8643 44.2584 6.53553 46.339 6.41999C46.3679 6.41999 50.0956 5.29342 48.8241 4.2824C47.437 3.21361 43.6514 4.34017 44.2294 1.9715C43.8248 1.50932 43.0639 1.34563 41.9465 1.48043L41.6287 1.5382H41.3107C40.9254 1.5382 39.6444 1.23008 37.4675 0.613842" fill="#C5C5C5"/>
</svg>
