<svg width="45" height="16" viewBox="0 0 45 16" fill="none" xmlns="http://www.w3.org/2000/svg">
<path d="M29.4082 0.658691C27.5587 0.97644 25.7959 1.92968 23.8598 1.75636H23.513C22.5016 1.75636 21.6059 2.33409 20.5656 2.30521C19.2941 2.30521 18.1092 1.6697 16.8088 1.64081C14.8149 1.58304 12.9077 0.572031 10.8849 1.0631C10.7404 1.09198 10.5671 1.20752 10.4227 1.29418C10.1337 1.52527 9.78686 1.61194 7.3017 2.42075C6.78155 2.59407 6.03031 3.20068 5.0478 4.24058C3.22728 6.23373 2.53359 6.75368 0.0195312 7.50472C1.31991 8.1691 1.4356 8.45796 1.75347 9.15123C3.39098 9.65193 4.1712 10.2586 4.09414 10.9711V11.0577C9.49793 11.3755 9.84461 11.9821 10.5093 13.0798C10.5093 13.0798 11.1451 13.436 12.4166 14.1486C13.3702 14.6396 23.8598 15.1885 25.3336 14.8418C30.3617 13.5997 32.4713 13.0798 39.5511 15.044C39.6089 14.9863 39.6667 14.9285 39.6956 14.8707C39.5511 13.9175 39.9845 13.0798 40.9382 12.4154C42.0074 11.6932 43.3076 12.0399 44.4635 11.6643C44.608 11.2022 44.3769 10.9422 43.77 10.9133C42.7875 10.8555 41.9207 11.4333 40.9382 11.4333C35.1298 10.9422 35.9967 6.92701 36.2279 6.66704C36.3146 6.55149 36.4302 6.37815 36.4591 6.26261C34.5808 3.80728 31.6911 2.62295 29.4082 0.687573" fill="#C5C5C5"/>
</svg>
