<svg width="28" height="7" viewBox="0 0 28 7" fill="none" xmlns="http://www.w3.org/2000/svg">
<path d="M16.4759 0.1225C16.5915 0.613567 17.0249 1.04686 17.8051 1.42238C19.2211 2.11565 17.7185 2.63561 17.4006 2.72227C16.4374 3.03039 14.1063 2.78967 10.4074 2.00011C10.1763 2.17343 9.91618 2.60671 10.4074 2.8378C11.7367 3.4733 9.74277 4.48433 8.21122 4.71542C6.04392 5.03316 5.66832 4.48432 4.57022 2.8378C4.13676 2.20231 3.61655 1.65348 1.79602 1.74013C1.0158 1.76902 -0.313439 1.82678 0.12002 3.04001C0.3223 3.58885 0.5535 4.31101 5.37934 5.03317C6.59303 5.20648 8.93371 4.83096 10.9854 4.48432C13.4706 4.05103 14.7421 3.84883 15.7824 3.9066C16.5048 3.93549 16.9382 4.22435 16.2158 4.77319C15.2044 5.52423 13.9329 5.7842 12.9504 6.59302C12.9504 6.65079 12.9504 6.70857 12.9504 6.73746C14.0774 7.19964 22.1108 5.8131 22.1686 5.8131C23.4112 5.55312 24.307 4.59987 25.4918 4.16658C24.6827 3.61774 25.2895 3.01112 26.561 2.2312C27.6302 1.56681 27.11 0.729114 26.0119 0.238048C25.4918 0.006958 25.4629 0.0069505 25.2028 0.151382C24.8561 0.324699 23.8736 0.729114 22.053 0.700228C21.4558 0.700228 19.6353 0.517274 16.5915 0.151382H16.447" fill="#C5C5C5"/>
</svg>
