<svg width="44" height="23" viewBox="0 0 44 23" fill="none" xmlns="http://www.w3.org/2000/svg">
<path d="M34.9535 0.859459C31.2546 1.17721 30.3587 2.27487 32.3237 4.09471C33.0172 4.7302 34.3176 4.61467 34.4332 5.91455C34.4332 6.00121 34.4332 6.14565 34.4332 6.2323C34.4043 6.89669 33.7686 7.30108 33.653 7.93658C33.5086 8.71651 34.491 9.17869 34.2598 9.9875C34.0575 10.6808 33.2773 10.7386 32.8728 11.1719C32.9595 11.9518 33.075 13.0206 28.6537 13.6272C27.3244 13.8005 25.5617 13.2517 24.348 12.3273C24.2324 12.2406 24.0302 12.154 23.8858 12.154C23.6835 12.3851 23.3944 12.7028 23.799 13.3383C24.637 14.6382 24.1168 15.1582 22.8742 15.707C22.7876 15.7359 22.672 15.7937 22.5853 15.8225C24.1747 17.2669 22.0941 17.4402 21.6606 17.4402C20.3313 17.4979 18.8287 17.0935 18.0485 16.458C17.9329 16.3714 17.7596 16.2847 17.6151 16.2847C15.7657 16.1692 13.945 16.7758 12.0667 16.6025C10.3907 16.4291 8.94591 14.8982 7.12538 15.8514C6.14288 16.7373 4.03337 17.6616 0.796875 18.6245C0.796875 18.6245 0.912429 18.74 0.941326 18.7978C1.02802 18.7978 1.14354 18.7978 1.23023 18.7978C1.46141 18.7786 2.47295 18.8363 4.26458 18.9711C5.99842 19.0867 7.58774 18.1623 9.29268 18.1046C10.3041 18.0757 13.425 17.989 17.2683 18.3356C21.8919 18.7689 22.2098 20.5599 22.3254 21.1376C22.7877 23.6796 25.0994 22.3508 27.1222 21.1954C25.3017 19.7511 24.6082 19.2022 26.0241 19C28.7694 18.5956 31.8614 23.4196 33.8264 20.271C33.9998 19.9822 34.3465 19.8377 34.4621 19.8377C34.5488 19.8377 34.6645 19.8088 34.7512 19.7799C35.0209 19.7414 36.0707 20.0784 37.9009 20.791C38.8834 21.1665 38.4499 19.1445 39.5191 19.2022C40.7906 19.2889 41.4552 19.9244 41.4841 19.9533C42.3799 20.8199 43.796 19.52 43.796 19.4911C43.9405 18.1623 42.6689 17.6712 42.2065 16.6891C41.802 15.8514 42.3511 14.9848 42.1488 14.1471C41.831 12.8761 40.9351 12.1829 40.6172 11.9229C39.6347 11.1718 39.4614 10.7674 39.4614 10.5652C39.4614 10.2956 40.4728 9.55421 42.4956 8.34099C42.4089 8.02324 42.2932 7.47441 37.6986 3.43033C35.878 1.84159 35.4736 1.40829 34.9535 0.830566" fill="#C5C5C5"/>
</svg>
