<svg width="70" height="8" viewBox="0 0 70 8" fill="none" xmlns="http://www.w3.org/2000/svg">
<path d="M5.08294 0.147217C3.58028 0.291648 1.96204 0.464965 0.488281 0.840486C1.3263 1.59153 8.05938 2.11148 10.8046 1.76485C15.197 -0.141647 17.162 3.44025 17.0464 3.87354C16.6419 5.20231 14.1278 5.28897 14.7058 7.05104C14.8792 7.10881 15.1103 7.16658 15.2837 7.16658C17.6532 6.93549 19.9362 7.77319 22.3058 7.59987C24.3864 7.42655 26.1202 6.04002 28.2297 5.8667C29.1544 5.80893 29.3278 6.09779 29.3567 6.12668C29.7613 6.87772 30.4258 7.05103 42.6494 6.21333C46.1459 5.95336 49.3536 4.13353 52.908 4.22018C58.0902 4.33573 61.2207 4.33573 62.2996 4.22018C64.0623 4.04687 64.7558 3.90243 64.7847 3.90243C66.4896 3.58468 68.3102 2.54478 69.5816 1.21601C67.4432 0.204992 49.7293 1.41821 46.3194 2.34257C46.1749 2.37146 29.2411 5.20231 23.8951 3.09361C23.8951 2.97807 23.8373 2.86252 23.8084 2.74698C24.4441 2.08259 24.6464 2.02483 28.3164 0.753831L5.11186 0.176104" fill="#C5C5C5"/>
</svg>
