<svg width="20" height="15" viewBox="0 0 20 15" fill="none" xmlns="http://www.w3.org/2000/svg">
<path d="M16.8408 2.38812C14.2401 2.27257 11.7548 3.28359 9.15406 3.19693C6.90007 2.93695 5.13741 2.41698 0.918407 0.741579C0.658331 0.65492 0.340553 0.510487 0.109375 0.423828C4.38617 5.13229 6.00442 6.89437 5.1664 8.25202C5.77324 9.60968 11.6682 13.3649 13.9511 14.0581L14.1823 14.1159C14.5291 13.076 14.6735 12.6716 16.1184 12.7583C15.0781 10.0718 16.6097 10.2741 18.1123 10.9096C18.3724 11.0251 18.6613 11.1695 18.9213 11.314C19.1236 11.4006 19.3549 11.545 19.5572 11.6606C18.6325 8.86824 18.7287 7.4432 19.8461 7.38543C19.7594 6.98102 19.2971 5.71002 16.8987 2.41699" fill="#C5C5C5"/>
</svg>
