<svg width="51" height="17" viewBox="0 0 51 17" fill="none" xmlns="http://www.w3.org/2000/svg">
<path d="M28.3343 1.41842C23.6241 1.99614 19.0294 3.3249 14.348 4.07595C14.7815 4.50924 15.5039 4.53813 15.7929 5.17363C15.1572 6.38685 2.1823 12.7996 2.06671 12.8574C1.0842 13.2907 1.05531 13.2907 0.535156 13.5506C2.1534 14.1861 3.77163 13.5506 5.38987 13.5506C7.38379 13.5506 7.58609 14.3306 7.67278 15.4282C7.73058 16.2659 7.81725 16.2948 8.10622 16.4104C10.6781 14.8216 16.5442 14.0128 16.602 13.9839L17.1222 13.9262C17.8735 13.8395 19.0293 13.7529 19.983 13.3484C21.6301 12.6841 22.6993 11.182 24.3175 10.4887C25.878 9.82432 27.6408 9.79542 29.1723 9.07327C29.259 9.04438 29.3457 8.98662 29.4324 8.95773C35.8765 4.79811 43.5632 4.53813 50.643 2.34278C49.0825 1.56285 44.8924 -0.0259007 39.4886 1.70727C37.3502 2.40054 36.9168 2.285 36.5411 2.0828C36.5411 1.99614 36.5411 1.8806 36.5411 1.79394C33.8248 1.56285 31.0506 1.8806 28.3343 1.41842Z" fill="#C5C5C5"/>
</svg>
