<svg width="29" height="14" viewBox="0 0 29 14" fill="none" xmlns="http://www.w3.org/2000/svg">
<path d="M28.9885 0.38846C27.0524 0.532891 25.7232 0.417346 25.1453 0.38846C23.5271 0.330688 22.0532 0.966182 20.4927 1.19727C18.8167 1.42836 17.1696 1.25505 15.4935 1.31282C13.2973 1.37059 12.2859 1.31283 11.1011 0.735103C8.32696 1.42837 5.95744 2.00608 3.2122 0.966176L3.09668 1.16838C3.00999 2.23717 2.95213 3.16154 0.1491 3.56594C0.1491 3.6526 0.120146 3.79704 0.0912491 3.88369C0.987064 4.80805 1.07385 4.92359 0.727081 5.81907C1.50731 6.25236 2.43195 6.25237 3.18328 6.80121C4.07909 7.43671 4.05031 8.10109 4.02141 8.21663C3.96362 8.76547 3.67459 9.16989 3.06775 9.48763C2.5765 9.74761 1.42067 10.5564 0.0625 11.8852L0.438002 12.5496C1.59389 12.8962 3.0966 13.965 4.28139 13.705C6.56427 13.214 8.81822 12.5785 11.1011 12.0296C26.9946 8.21663 26.9079 7.92778 26.6189 7.03231C26.041 5.21247 25.9544 4.95249 26.7346 4.31699C25.3475 2.03498 24.8852 1.25505 28.9308 0.417352" fill="#C5C5C5"/>
</svg>
