<svg width="29" height="15" viewBox="0 0 29 15" fill="none" xmlns="http://www.w3.org/2000/svg">
<path d="M24.7705 0.887092C21.534 1.14707 10.1774 2.36029 0.265625 7.27095C1.07475 7.01098 1.56604 6.92433 2.20178 6.92433C2.23068 6.92433 8.32799 7.27095 8.96373 7.35761C10.3508 7.53092 10.0329 8.19531 9.88846 8.48417C8.93485 10.4484 8.18352 12.0083 10.7843 14.7814C13.9052 13.7992 15.35 13.5682 16.4481 13.4815C18.2397 13.3082 21.0427 12.0083 22.1119 11.2284C22.661 10.824 23.1523 10.6218 23.8747 10.5351C23.5858 10.3329 23.239 10.2174 23.0367 9.89961L22.1119 7.84869C22.1119 7.06876 23.1233 6.49103 23.8169 6.08663C23.9325 5.99997 24.1059 5.9133 24.2215 5.82664C22.9789 6.1155 21.8519 6.83766 20.5226 6.751C19.6557 6.69323 19.0489 6.23106 19.5401 5.48002C20.1759 4.52677 22.1987 4.06458 23.0656 3.86237C25.4641 3.31353 27.5735 2.82247 27.8914 2.24475C28.3249 1.52259 28.1226 0.684888 24.7705 0.887092Z" fill="#C5C5C5"/>
</svg>
