<svg width="49" height="13" viewBox="0 0 49 13" fill="none" xmlns="http://www.w3.org/2000/svg">
<path d="M20.0557 0.978599C17.9751 0.863054 17.6572 1.26745 17.5127 1.44077C17.8306 3.63612 14.074 2.79843 11.7911 2.10516C8.93029 1.23857 7.02303 1.23856 6.32949 1.29633C5.53963 2.2592 4.90379 2.84656 4.42217 3.05839C3.43967 3.4628 2.95804 3.81907 2.97731 4.12719C3.46856 4.35828 3.61303 4.44495 4.21987 4.79158C4.45105 4.93602 5.02909 5.28264 6.30057 5.1671C8.0633 2.97174 17.8016 8.34459 17.8305 8.48902C18.0617 10.1644 7.91878 10.6844 2.11043 10.02C1.53248 9.96222 1.33021 9.93334 0.492188 10.2511C2.4572 10.9155 4.59556 10.3088 6.58947 11.0021C6.73395 11.031 6.93636 11.0888 7.08085 11.1177C8.03446 11.2332 8.95914 10.8577 9.94165 10.9732C10.8664 11.0888 11.6465 11.7243 12.6001 11.8109C15.8752 12.0805 18.6878 12.2057 21.0381 12.1865C21.2404 11.6376 20.6914 10.8288 21.4427 10.4533L27.7134 9.06674C28.6188 8.87416 30.0252 9.12452 31.9324 9.81779C34.0419 10.5688 35.1111 8.28682 36.9316 8.17127C37.5673 8.14238 38.2031 8.17126 39.4746 8.34458L40.0236 8.43124C41.4396 8.57567 42.0175 8.54679 42.5087 7.73797C42.8555 7.18913 42.9423 7.0736 48.924 5.83149C47.4503 5.36931 46.1788 4.38717 44.5894 4.24274C40.8039 4.06942 27.9736 3.34727 21.1827 1.1808C20.6337 1.00748 20.518 0.978593 20.0557 0.949707" fill="#C5C5C5"/>
</svg>
