<svg width="16" height="8" viewBox="0 0 16 8" fill="none" xmlns="http://www.w3.org/2000/svg">
<path d="M4.41596 0.956288C3.43345 0.927402 3.17328 0.956299 0.167969 1.21628C0.880768 2.44876 1.71877 3.08424 2.68202 3.12276C3.43335 3.15164 4.09802 3.18053 4.70486 3.41162C5.25391 3.61382 5.60062 4.16268 6.09187 4.42265L9.99311 5.75142L10.3399 5.86696C13.4608 5.86696 15.2524 7.94676 15.2524 7.97565C15.3391 7.97565 15.4257 7.97565 15.5124 7.97565C15.2523 7.68679 15.1079 7.31127 14.8189 7.05129C14.8189 7.05129 14.7032 6.96463 14.1831 6.73354C12.1025 5.83807 11.9293 5.78029 11.4669 5.37588C11.149 5.11591 11.0622 4.71151 10.7732 4.42265C10.2531 3.96047 9.61745 3.67159 9.0973 3.20941C9.03951 3.15164 8.95276 3.06498 8.86607 3.00721C8.51931 2.63169 8.54827 2.37173 8.57717 2.25618C8.46158 2.08287 8.37472 2.02509 7.68119 1.50513C7.47891 1.3607 7.10332 1.10073 4.32918 0.98518" fill="#C5C5C5"/>
</svg>
