<svg width="25" height="12" viewBox="0 0 25 12" fill="none" xmlns="http://www.w3.org/2000/svg">
<path d="M10.8538 1.00277C9.58228 1.52272 8.94658 1.69604 8.36864 1.81158C8.19525 2.70705 7.90629 3.14035 6.7504 3.16924C6.34584 3.22701 5.99901 3.83363 5.97012 3.83363C5.82563 4.09361 5.56555 4.38245 4.69863 4.46911C3.16707 4.61354 1.63547 4.29581 0.132812 4.44024C3.36931 4.58467 3.97622 5.3357 4.1785 6.02897C4.40968 6.86667 8.28199 9.26423 8.77324 9.52421C8.85993 9.58198 9.00441 9.63976 9.12 9.66865C10.0447 9.98639 10.9982 9.9864 11.9229 10.2175C12.9055 10.4486 13.5702 11.3152 14.5527 11.5463C14.5238 11.5463 9.3223 8.54208 9.14892 8.39764C8.65767 7.90658 8.33977 7.27108 7.67513 6.95333C7.35726 6.8089 6.43252 6.37561 6.20134 5.94232C5.76788 5.07573 6.75029 4.61356 7.18375 4.44024C7.7039 4.23804 8.83092 3.97806 10.2758 4.44024C11.6051 4.06472 11.8653 3.97806 12.5877 4.00694C15.4485 4.03583 18.3093 4.46911 21.1701 4.58466H21.3146C21.3146 4.58466 22.1237 4.7002 24.002 5.19127C23.8286 4.72909 23.7997 4.7291 23.3085 4.61355C22.0948 4.32469 21.6036 3.51588 21.4013 3.19813C19.6386 3.40033 16.1131 3.42922 14.1481 2.27377C13.2523 1.72493 10.8538 0.973877 10.8538 0.973877" fill="#C5C5C5"/>
</svg>
