<svg width="24" height="13" viewBox="0 0 24 13" fill="none" xmlns="http://www.w3.org/2000/svg">
<path d="M16.944 0.141427C16.7128 0.141427 16.7127 0.141427 16.5394 0.141427C17.1462 0.719152 18.5911 2.07682 16.4238 2.16348C15.9326 2.16348 15.4413 2.10571 14.9211 2.16348C14.8344 3.08784 14.7767 3.63667 12.4649 3.46335C12.4649 3.9833 12.4071 4.84989 9.95088 4.18551C8.30374 3.75221 6.28095 2.82787 5.81859 2.59678C5.58742 2.48123 5.52951 2.45233 4.98046 2.74119C4.34472 3.11672 3.73796 3.60779 3.07332 3.89665C2.40868 4.2144 1.59964 4.06996 0.992802 4.50326C0.790521 4.64769 0.472552 4.99433 0.530347 5.77426C1.97521 4.93656 2.37979 4.70546 3.79575 4.82101C4.12325 4.87878 4.36406 4.83063 4.51818 4.67657C5.61628 3.66555 8.33256 4.50325 8.9683 4.79212C11.3668 5.94757 12.147 8.57623 14.0253 10.2227C14.5744 10.6849 14.8057 10.7427 15.5859 10.916C17.811 11.4071 19.4003 12.2737 20.2672 12.7647C20.3539 12.8225 20.4694 12.8803 20.5561 12.9092C18.8801 10.3864 18.0711 9.04802 18.1289 8.89396C18.2155 8.63398 18.5911 8.46067 19.0823 8.4029C20.1226 8.28735 21.1919 8.51845 22.2322 8.43179C23.7927 8.34513 23.3592 7.68075 22.8968 6.90082L18.0132 0.545832C17.7531 0.25697 17.4352 0.0836514 16.9729 0.0258789" fill="#C5C5C5"/>
</svg>
