<svg width="23" height="14" viewBox="0 0 23 14" fill="none" xmlns="http://www.w3.org/2000/svg">
<path d="M9.35344 0.336455C9.03557 0.365341 8.63102 0.423108 7.7352 0.827516C6.666 1.26081 6.6082 2.12739 6.63709 2.21404C6.72378 2.38736 6.98384 2.93621 6.3481 3.60059C5.48118 4.49607 3.3428 4.98713 2.38919 5.04491C2.3025 5.04491 2.21585 5.0449 2.15805 5.13156C1.40672 5.79595 1.17556 6.83585 0.453125 7.50023C1.63791 8.28016 3.02498 8.71347 4.06528 9.72449C5.22117 10.8222 5.7991 12.3531 6.75271 13.5663C7.53293 13.6241 7.59068 13.6241 7.87965 13.6241C8.05304 13.6241 8.08198 13.6241 8.28426 13.1908C8.8911 11.9776 9.55569 11.3421 11.5785 11.1688C12.3876 11.1688 12.5322 11.1688 13.1679 11.0821C14.3816 10.9377 15.5952 10.7066 16.8378 10.6488C17.4736 10.62 18.0804 10.8799 18.7161 10.7933C18.8606 10.7933 18.9763 10.7644 19.4964 10.2733C19.8721 9.92668 20.0743 8.51125 20.0743 8.02019C20.0743 7.09583 19.5541 6.25813 19.5252 5.33377C19.5252 4.2072 20.1899 3.22507 20.45 2.84955C21.0857 1.95407 22.1839 1.52079 22.8485 0.654206C21.288 0.394229 20.45 0.336439 19.5252 0.365325C17.7047 0.509757 15.9132 0.943063 14.0926 1.14527C11.4919 1.43413 10.5961 1.00082 10.1048 0.567528C9.96031 0.451983 9.758 0.249784 9.35344 0.27867" fill="#C5C5C5"/>
</svg>
