<svg width="39" height="6" viewBox="0 0 39 6" fill="none" xmlns="http://www.w3.org/2000/svg">
<path d="M8.16706 0.910156C8.16706 1.63231 7.01124 1.83452 5.16181 1.43011C5.21961 1.6612 5.24842 1.71897 5.07503 1.92118L4.67061 2.21004C3.28354 2.21004 2.06978 1.45899 0.798296 1.08347L0.682771 1.19902L0.480469 1.40122C2.56107 2.03672 2.99445 2.15227 2.38761 2.64333C3.28343 3.16329 8.71611 2.98997 11.0568 2.90331C16.2583 2.72999 17.8478 2.67222 17.8767 3.59658C17.6455 3.82767 15.2181 4.13579 10.5945 4.52094C10.9124 4.54982 11.259 4.57871 11.5769 4.6076C13.0988 4.7424 15.3336 4.79054 18.2811 4.75203C20.0727 4.75203 21.72 5.56084 23.4828 5.67639C30.158 5.93636 37.5557 3.19217 38.0469 2.9322C37.8157 2.81665 37.6135 2.7011 35.0127 2.61445C31.6607 2.55667 28.3952 1.57454 25.0142 1.74786C23.5982 2.84554 20.9397 2.75888 20.3618 1.60343C20.1595 1.17013 20.0151 0.910159 18.9459 1.28568C19.0037 1.86341 19.726 2.00783 19.7549 2.58556C19.7549 2.72999 19.4081 2.93219 19.0325 2.98996C18.05 3.1344 15.4204 2.81665 14.2356 1.97895C13.6288 2.0945 12.4728 2.2967 11.6637 2.15227C10.4211 1.92118 9.40967 1.14125 8.19599 0.910156" fill="#C5C5C5"/>
</svg>
