<svg width="60" height="27" viewBox="0 0 60 27" fill="none" xmlns="http://www.w3.org/2000/svg">
<path d="M36.2255 0.792988C36.2255 0.792988 35.8786 0.792978 35.763 0.850751C32.9311 2.32395 31.9197 5.67476 29.1167 7.17685C27.0072 8.30341 22.9039 9.08334 20.9099 9.14111C20.2742 9.14111 20.043 9.14112 19.7829 9.37221C11.5472 15.5828 12.9054 17.0271 13.6278 17.807C16.4886 20.8689 0.306196 26.704 0.132812 26.7617C10.3624 26.6654 15.853 26.6462 16.6043 26.704C16.6043 20.4356 28.5388 20.2334 28.6833 20.2334C28.9145 20.2334 29.2323 20.2334 29.4923 20.2334C29.6368 20.0312 29.897 19.7424 30.1282 19.6557C30.4942 19.5209 32.1412 19.3669 35.0695 19.1935C36.6588 19.1069 37.208 17.3448 38.5951 16.9404C40.589 16.3627 42.6985 16.1605 44.7213 15.7561C44.7502 13.9362 44.8657 13.1274 46.9752 13.0696C49.5759 13.0696 49.7205 12.8385 50.0095 12.4053C50.7319 11.192 59.0543 11.8275 59.141 11.8275C59.1988 11.7409 59.2565 11.6253 59.2854 11.5676C58.7364 10.4121 57.176 10.3832 56.6558 9.1989C56.0779 7.87013 57.2626 6.48359 56.5401 5.15482C56.0489 4.25934 54.8642 3.42165 54.8642 3.42165C54.2285 3.13279 52.119 2.49727 45.8483 2.81502C41.4848 3.04611 40.1266 2.49729 38.9129 1.77513C38.2482 1.39961 37.0057 0.735209 36.2255 0.764095" fill="#C5C5C5"/>
</svg>
