<svg width="89" height="27" viewBox="0 0 89 27" fill="none" xmlns="http://www.w3.org/2000/svg">
<path d="M54.6268 0.342164C53.1242 0.342164 51.5926 0.399931 50.0899 0.313272C47.2291 1.46872 43.9638 0.313278 41.1608 1.78648C41.0259 2.30643 38.9839 2.70121 35.0346 2.97081L34.5432 3.08635C33.6763 3.08635 33.474 3.02858 32.3759 2.62417C30.671 2.01756 22.6953 1.69981 22.6375 1.69981C18.014 1.64204 13.535 -1.65099 8.79582 1.0932C7.9578 1.58427 7.58206 1.75759 6.36838 1.84425C8.94023 3.77963 9.05584 4.50179 8.91135 4.73288C7.3509 7.15932 4.43228 6.95711 2.23609 8.19922C2.56359 8.98878 1.99538 10.125 0.53125 11.6078C0.53125 11.6078 0.617857 11.7522 17.0604 13.3988C20.2969 13.601 23.2156 11.9833 26.3943 11.7522C32.5783 11.81 42.779 18.4249 41.1029 20.3026C39.4558 22.1513 37.6064 19.176 35.8725 20.3314C35.8725 21.0536 35.8726 21.2847 33.6186 22.989C34.919 22.9312 36.1615 22.2957 37.5197 22.5846C43.7037 16.5762 51.5928 17.7317 52.9509 19.2049C52.9509 19.6093 52.7774 19.9463 52.4306 20.2159C53.153 20.3603 53.2399 20.3603 54.7425 20.4181C59.4239 20.5336 60.5508 20.5625 61.3889 21.7469C61.0999 22.469 61.0132 22.7579 56.5342 23.5089H56.274C60.0884 24.3466 61.2155 24.5777 60.7243 26.3398C61.938 26.5131 67.6017 25.011 67.6595 25.011C65.4441 23.74 64.2207 22.729 63.9895 21.978C64.7986 20.707 66.6482 19.436 80.2299 18.165C80.2299 18.1361 80.2298 15.103 88.3788 15.7674C88.7545 15.3341 88.8412 15.2475 88.9568 14.9297C87.7431 14.2364 87.7143 14.1787 87.5698 13.5721C87.7432 13.341 88.0611 13.1388 88.3211 13.0232C88.1478 12.7921 87.9453 12.4744 87.8298 12.2433C88.0031 11.9159 88.2633 11.6656 88.61 11.4923L88.9279 11.3478C84.94 10.4523 80.6633 10.9434 76.8778 8.92138C73.3812 7.04377 69.3935 8.4592 65.7813 7.36153C64.4809 6.95712 64.2207 5.45503 63.0937 4.87731C61.8222 4.24181 60.3774 4.8773 59.1059 4.29958C58.9903 4.24181 58.7881 4.18403 58.6725 4.09738C56.3896 2.65306 56.5341 2.30643 56.8231 1.67093C56.274 0.371048 56.1873 0.371051 54.6268 0.342164Z" fill="#C5C5C5"/>
</svg>
