<svg width="12" height="15" viewBox="0 0 12 15" fill="none" xmlns="http://www.w3.org/2000/svg">
<path d="M1.21638 0.181966C0.291663 0.0953076 -0.170708 0.0375263 2.28556 4.37046C3.47035 6.45028 4.79961 8.81895 1.18745 7.6635C1.93878 8.93449 2.69015 9.85886 3.03692 10.1766C3.47038 10.581 4.0773 10.5232 4.56856 10.7543C5.31988 11.101 7.11138 12.1698 7.14028 14.134C7.14028 14.2207 7.19813 14.3651 7.19813 14.3651C7.45821 14.5384 8.29633 14.654 8.93207 14.6829C9.88568 14.7117 10.8392 14.5384 11.7639 14.5384C11.4172 14.0474 11.1281 13.4985 10.7814 13.0074C10.03 11.9964 8.58522 11.7076 8.12286 10.3788C7.7472 9.22336 8.78747 8.27011 10.2612 6.97023C10.6947 6.56582 10.9259 6.39251 10.4925 5.64147C9.65444 4.16827 7.92061 3.41722 7.42936 1.68404L7.37151 1.53962C5.26201 1.30853 3.29698 0.470819 1.21638 0.239729" fill="#C5C5C5"/>
</svg>
