<svg width="40" height="9" viewBox="0 0 40 9" fill="none" xmlns="http://www.w3.org/2000/svg">
<path d="M2.38304 1.00956C1.66061 1.06734 1.19824 1.12511 0.5625 1.21177C1.92067 1.58729 2.81654 3.00271 4.3192 3.06049C7.87356 3.2338 11.4568 2.39612 14.9823 3.43602C16.5427 3.8982 17.872 4.90921 19.4613 5.3425C20.9929 5.74691 22.6689 5.42917 24.1427 6.2091C24.4605 6.38242 25.0385 6.90237 23.7092 8.05782C26.31 8.23114 34.9214 7.59562 39.3427 6.96013C37.8689 6.23797 36.0195 5.77579 34.7191 5.51581C32.0894 4.99586 29.3731 5.22695 26.7723 4.67811C22.4955 3.78264 18.2476 2.65607 13.9419 1.90503C13.6241 1.84726 13.1906 1.78949 12.8728 1.73172C6.68875 0.749588 3.56783 0.980669 2.38304 1.06733" fill="#C5C5C5"/>
</svg>
