<svg width="86" height="37" viewBox="0 0 86 37" fill="none" xmlns="http://www.w3.org/2000/svg">
<path d="M66.1967 0.215785L42.7032 8.21727L32.2134 12.8968C32.2134 12.8968 26.7808 13.9656 23.3998 14.4567C23.6599 21.9671 23.6887 23.5559 20.8279 25.2602C17.2736 27.6866 10.6272 27.5999 6.95727 27.3688L0.0507812 28.5243C1.00439 30.8063 4.76101 30.2575 4.9055 33.3483C5.65683 33.5216 5.97477 33.5794 6.78389 34.2149C6.93801 34.3304 7.85313 34.3304 9.52917 34.2149L10.5116 34.2727C11.0125 34.6963 11.2629 35.2259 11.2629 35.8614C15.5108 35.0526 16.3777 34.8793 16.9845 36.6702V36.8147C17.129 36.7858 17.3025 36.728 17.447 36.6991L21.926 31.384C22.4751 31.0952 23.891 30.8352 27.6766 31.2396L27.9944 31.3263C30.4218 30.1131 35.6522 30.0553 38.7153 33.1461C40.3047 33.0883 41.8652 32.5395 43.4545 32.4817C46.2576 32.3662 48.7427 34.0127 51.5168 34.0994C53.9731 34.1571 55.967 32.424 58.3944 32.3951C62.2377 32.6262 66.0521 33.2328 69.8954 33.3772C71.5715 33.2328 72.5829 31.7018 74.1434 31.2974C73.9989 27.7444 77.1488 25.3179 83.3906 21.8227C84.0263 21.4568 84.5945 17.4801 85.0954 9.89268C81.6855 7.06182 81.5411 5.99303 80.992 2.44002L77.351 3.50882C72.7563 -0.679691 66.2544 0.244662 66.1967 0.273548" fill="#C5C5C5"/>
</svg>
