<svg width="27" height="12" viewBox="0 0 27 12" fill="none" xmlns="http://www.w3.org/2000/svg">
<path d="M23.9298 0.348145C23.5831 0.377031 22.5139 0.492572 20.6934 0.896979C21.9359 1.35916 20.3176 2.08132 20.2598 2.11021C18.9017 2.71682 16.6477 2.86124 15.3184 2.42795C13.6713 1.90799 8.55649 3.32343 7.94965 3.7856C8.23862 3.93004 8.3831 4.0167 10.9261 3.7856C13.0356 3.5834 13.729 3.67006 13.7579 4.16113C13.8157 4.8544 10.0013 6.67423 8.23855 7.19418C5.66669 7.97411 4.48197 7.45416 3.70175 7.13641C3.00821 6.84755 2.60364 6.67423 1.79452 6.732C0.118477 6.99198 -0.343911 7.39639 0.407418 7.91634C2.31464 9.24511 4.71315 8.23409 6.67816 9.274C7.71846 9.82284 8.35421 10.8916 9.4812 11.3249C9.53899 11.3249 9.62562 11.3827 9.68341 11.4116C10.3481 11.6427 10.6949 11.6716 10.8971 11.7004C11.3017 11.7293 11.504 11.7004 12.4576 11.2383C14.307 10.4006 15.6652 9.90949 18.0058 9.6784C20.4332 9.50509 22.1382 8.63849 25.2013 5.8943C24.0454 6.41425 22.5427 6.5298 22.8895 5.54767C22.8895 5.4899 22.9184 5.43213 22.9473 5.40324C22.9473 5.37435 22.9184 5.31658 22.8895 5.28769C22.6872 5.28769 22.6294 5.28769 22.0804 5.31657C20.4332 5.48989 17.399 5.77875 18.1504 4.59442C18.6127 3.87226 20.491 3.38119 22.2827 2.9479C24.5367 2.37018 25.4902 2.08131 26.2993 1.64802C25.5191 1.30138 24.6234 1.5036 23.8431 1.12807C23.8431 1.12807 23.4385 0.896975 23.9009 0.463681" fill="#C5C5C5"/>
</svg>
