<svg width="73" height="45" viewBox="0 0 73 45" fill="none" xmlns="http://www.w3.org/2000/svg">
<path d="M0.245351 0.29248C0.67881 0.812433 1.34342 1.62125 3.82858 3.18111C16.659 11.2115 17.7282 11.4137 18.1328 11.5004C20.7624 11.9914 22.1783 13.4357 24.5768 16.411C25.7905 17.8842 26.4552 18.6641 26.8309 18.953C29.9807 21.495 33.9685 22.7082 36.9738 25.4235C38.8522 27.0989 40.1525 29.3521 42.3487 30.7386C48.9084 34.8405 56.2483 37.4691 62.6346 41.8598C62.6346 41.8598 62.9236 42.062 63.8772 42.8997C64.0217 43.0153 64.195 43.1886 64.3395 43.3041C65.1293 43.073 67.2388 43.3234 70.668 44.0552C71.3326 40.9355 67.0558 34.4072 71.5348 34.6094C71.7082 34.6094 71.9105 34.6672 72.0839 34.6672C71.9683 34.4361 71.5445 34.1183 70.8124 33.7139C69.9455 34.3301 69.3869 34.6286 69.1365 34.6094C67.9517 34.5516 67.0559 33.6272 65.8711 33.4828C64.5129 33.3673 63.8481 33.1651 63.0101 32.5873C60.7272 31.0564 58.2422 29.8142 56.1038 28.081C54.6589 26.9256 52.5783 27.3878 51.1912 26.1168C50.5844 25.568 50.122 24.7014 51.1912 23.6326C50.3532 22.1016 48.1281 22.3327 47.4057 20.6284C45.2095 20.0796 44.1981 19.8196 43.7935 18.7508C42.4354 18.2308 41.3373 17.191 39.8636 16.8732C37.6674 16.671 35.9912 15.0245 33.795 14.7645C31.541 14.9956 14.405 4.71208 14.2894 4.62542C13.1335 3.44108 11.7176 2.74781 7.64304 2.3434C5.10008 2.11231 3.8286 1.96789 0.418727 0.408028L0.1875 0.29248" fill="#C5C5C5"/>
</svg>
