<svg width="119" height="53" viewBox="0 0 119 53" fill="none" xmlns="http://www.w3.org/2000/svg">
<path opacity="0.4" d="M24.3875 0.824851C17.6833 0.651533 12.482 2.00918 12.4242 2.03807C13.9268 3.0202 15.7762 3.45349 16.9032 4.98446C16.8454 5.18666 16.7587 5.41775 16.7009 5.61996C14.6781 6.69838 12.5783 7.2761 10.4013 7.35313C9.79449 9.17296 7.33825 9.63514 5.37324 9.7218C4.33294 9.63514 3.72601 9.57738 0.229441 8.53748C0.133116 10.4247 2.45463 12.88 7.19378 15.9035C7.86805 16.3464 10.9408 19.0424 16.412 23.9916C19.3884 26.678 23.2605 27.9202 26.5548 30.0866C29.8202 32.2242 29.5312 37.2793 33.6057 38.7814C36.2836 39.7635 41.9283 44.1927 50.5397 52.0691L51.0598 51.9246C49.2971 48.776 52.8225 48.9782 57.7351 49.2671C63.5723 49.1804 69.0627 51.9535 74.9577 51.3758C78.7722 51.0003 80.7372 47.1006 84.3783 46.4074C85.2452 46.234 85.9098 46.2629 89.2908 46.4074C98.1623 46.754 108.768 45.0497 116.108 43.5765C116.974 43.4032 119.055 38.0881 118.246 37.1349C118.246 37.1349 117.639 36.4705 116.917 36.095C116.801 36.095 103.537 35.1417 101.196 34.1018C100.994 34.0151 82.8178 24.7716 84.8984 22.0851C84.4649 21.3341 84.2338 20.9008 82.0665 19.7453C76.4893 17.0878 76.3449 16.9145 74.6688 14.7191L70.7099 14.4303C63.4278 11.0506 55.0765 12.2349 47.7365 9.08632C35.5708 3.85791 28.5488 1.66255 26.6705 1.11371C26.2081 0.969278 25.8613 0.882623 24.4454 0.824851" fill="#FF6858"/>
</svg>
