<svg width="18" height="6" viewBox="0 0 18 6" fill="none" xmlns="http://www.w3.org/2000/svg">
<path d="M10.2268 0.064537C10.0534 0.064537 9.96671 0.0645383 9.85113 0.122311C8.34847 0.815581 6.00769 1.01779 5.05408 1.10444C4.12937 1.16222 3.23367 0.757804 2.28006 0.873349C1.75991 0.931121 1.29749 1.13333 0.777344 1.24887L1.06642 1.50885C1.67326 1.45108 1.90436 1.42219 2.42451 1.56662C3.14694 1.76883 3.75382 2.20212 4.44735 2.43321C5.34317 2.72207 6.29681 2.8665 7.19263 3.15537C8.17513 3.47311 8.31954 3.76198 8.37734 3.9353L8.49286 4.19527C10.1111 3.55977 10.4001 3.44422 11.2671 3.58865C11.3827 3.58865 11.8162 3.70421 12.0763 3.99307C12.3075 4.25305 12.1918 4.62857 12.3941 4.91743C13.2321 4.91743 13.8389 5.03297 14.648 5.58181C14.8503 4.91743 15.226 4.25305 16.6998 3.73309L17.1044 3.47312L17.3067 3.35757C16.4109 2.63541 16.1508 2.43321 16.0352 2.17323C16.0352 2.14435 16.0351 2.05769 15.9773 2.0288C13.2321 0.728922 10.6313 0.0356445 10.169 0.0356445" fill="#C5C5C5"/>
</svg>
