<svg width="238" height="147" viewBox="0 0 238 147" fill="none" xmlns="http://www.w3.org/2000/svg">
<path d="M93.0343 0.958092C88.9309 4.02003 83.7872 4.9155 81.7644 5.14659H81.1287C72.9989 5.62803 68.9051 5.85911 68.8473 5.83985C69.0496 6.53312 69.1652 7.51526 69.0496 8.23742C69.6083 8.75737 71.0532 9.364 73.3842 10.0573C73.442 10.4328 73.5287 10.9238 73.6154 11.2705C72.7677 12.0408 69.2711 13.6391 63.1257 16.0656C56.0458 19.6186 50.6999 17.8854 50.6421 17.8565C50.3531 17.7025 49.1202 16.6433 46.9433 14.6791C45.0168 15.1798 40.9422 15.6901 34.7197 16.21C35.2398 16.73 36.0201 17.3077 36.6558 17.6832C36.338 18.752 36.02 19.8786 31.7143 20.4852H31.4832C31.3676 20.8607 31.1942 21.3229 31.0498 21.6695C38.4186 33.2529 24.8368 36.8348 19.0573 38.3658C11.1106 40.4745 2.09467 42.872 0.0429688 50.7869C0.24525 51.0468 0.534194 51.3935 0.736475 51.6535C2.93267 54.1377 2.9905 54.1955 2.67263 55.4087C4.98441 56.0442 6.19812 56.5834 6.31371 57.0263L6.48709 57.5174C10.2148 57.4018 13.4513 53.3 17.5258 56.1308C17.4872 56.5352 17.208 57.7581 16.6878 59.7994C29.287 68.1764 38.1295 53.1555 49.6018 54.4843C49.804 54.802 50.0931 55.2065 50.2953 55.4953C46.1341 63.3235 54.5432 64.0457 54.9188 64.0746C56.5756 63.9012 58.1939 63.9783 59.7736 64.3057C63.2702 64.2768 65.8999 67.1943 69.4253 67.0498C72.8641 66.8187 73.3842 66.7899 74.5401 67.2232C74.9639 67.4542 76.0139 69.197 77.6899 72.4516C77.3431 72.9137 76.7652 73.5492 76.245 73.8092C76.6207 74.4447 76.9386 75.3979 77.0542 76.149C80.6085 77.8244 88.4397 74.127 88.2085 79.6442C90.058 81.233 93.9591 84.4971 87.5728 90.1588C87.6306 90.5344 87.7172 91.0255 87.8039 91.401C87.4283 91.9209 86.8504 92.5564 86.3013 92.8453C87.4572 94.8673 87.7462 95.3295 86.3013 97.8715C86.5325 98.1603 86.8215 98.5359 87.0527 98.8247C90.0002 98.7958 90.4336 98.7958 92.3119 99.0847H92.5142C96.5309 98.1026 97.2534 99.7202 99.5651 105.064C104.67 106.297 106.433 108.453 104.853 111.535C113.089 112.806 107.656 119.478 107.57 119.536C100.461 124.302 92.0519 126.671 85.0298 131.611C86.5614 133.084 88.5842 133.922 90.2025 135.337C90.3469 135.279 105.72 131.408 104.246 146.083C111.846 142.183 116.759 122.685 124.966 131.408C125.081 131.351 137.883 122.771 138.172 119.132C138.557 114.356 141.774 110.302 147.824 106.971C162.706 98.7381 172.849 98.4203 180.275 98.1892C184.119 98.0448 186.777 94.694 190.563 94.4629C193.944 89.2634 196.169 85.797 199.607 84.6127C201.707 80.3183 203.663 77.7667 205.474 76.9578L209.664 60.0305C209.288 58.875 208.681 56.9396 212.264 56.7086H212.727C213.594 56.9396 214.374 57.4596 215.27 57.4885C216.772 56.593 217.032 56.4197 219.893 52.8667C224.228 47.4649 232.175 47.4939 236.365 41.8899C238.85 38.5391 237.752 35.5927 236.105 31.1153C235.392 30.8457 234.342 30.7494 232.955 30.8265C230.817 30.8842 225.124 31.0576 218.824 27.0713C218.689 26.9942 209.018 25.6269 189.811 22.9694C186.835 23.2872 184.321 25.1937 181.373 25.627H180.304C180.16 25.2514 179.986 24.7892 179.842 24.4426C180.593 23.4605 181.431 22.565 182.182 21.6118C179.986 19.5608 164.642 15.2279 162.879 19.012C162.648 19.532 161.983 20.9185 159.354 20.543C154.711 22.1221 152.043 22.5746 151.349 21.9006C152.852 19.3875 155.828 18.9542 157.822 17.1344C152.476 11.386 147.014 22.7961 141.177 18.0588C141.322 11.906 148.546 13.3792 151.58 10.2017C147.824 7.00494 145.81 4.56887 145.541 2.89347C140.368 2.31574 138.894 8.64184 134.242 9.01736C129.098 9.24845 123.954 8.41073 118.811 8.84403H118.348C117.501 10.3269 114.621 11.0586 109.708 11.0394C107.916 11.7615 107.425 11.8482 106.529 11.9637C105.171 12.6281 104.535 12.8881 102.657 13.0903H102.253C95.5484 15.5745 90.8093 11.3283 92.0808 7.6597C92.6298 6.12873 93.9013 5.34879 94.5659 4.94439C94.6526 4.59775 94.7682 4.13557 94.8549 3.78893C93.6123 3.24009 94.5948 1.16029 93.0055 0.929199" fill="#C5C5C5"/>
</svg>
