<svg width="47" height="28" viewBox="0 0 47 28" fill="none" xmlns="http://www.w3.org/2000/svg">
<path d="M11.0991 0.474609C10.9546 0.561268 5.83973 2.15002 5.81083 2.15002C4.94391 2.32333 3.58573 2.23669 3.09448 2.2078C1.8519 2.09226 1.303 2.09224 0.898438 2.35222C1.64977 6.33852 3.45101 8.84199 6.30221 9.86264C8.06494 10.4981 8.18055 12.0291 8.12275 12.1158C10.6079 13.1268 10.4345 14.3978 9.74099 14.9466C9.70246 16.3909 9.59637 17.1709 9.42299 17.2864C9.56748 18.1819 11.677 19.3951 12.3127 19.7418C13.353 20.2906 14.0755 20.7817 15.0291 21.706C15.9249 22.6015 16.0404 23.988 16.9941 24.8546C17.6587 25.4612 18.5258 25.8656 19.1326 26.5589C19.3349 26.1834 19.4216 25.6345 18.7858 25.0279C17.9189 24.2191 17.9766 22.9481 20.8374 22.8037C24.0739 22.6304 25.5189 24.3635 26.0102 24.9413C26.7615 25.8367 26.9925 25.9234 28.3796 26.039C30.518 26.2123 31.6161 26.3856 33.8701 27.6566C31.9437 25.3842 31.1056 24.0747 31.3561 23.7281C32.3386 22.2837 35.0838 20.8683 38.2337 21.1283L46.845 22.0526C46.9028 21.7927 45.9492 17.7775 41.788 16.622C39.5629 15.9865 39.4762 14.9466 39.2739 12.6646C37.829 11.6247 36.1241 11.0181 34.6215 10.0648C31.7029 8.2739 28.4953 11.2492 25.6056 9.48713C22.8892 8.53388 20.6931 12.1158 17.89 10.3826C17.8034 10.3248 15.7515 9.02495 17.023 7.75396C17.4853 7.29178 16.8208 4.37426 16.4163 3.82543C14.1912 3.82543 12.2839 3.76765 11.1569 0.821252L11.0702 0.532394" fill="#C5C5C5"/>
</svg>
