<svg width="45" height="33" viewBox="0 0 45 33" fill="none" xmlns="http://www.w3.org/2000/svg">
<path d="M5.42355 0.123119C2.44713 0.0942325 0.655519 1.19191 0.568827 1.24968L0.453125 1.50967L2.62042 2.66512L3.54515 5.12045L6.20365 6.47811C6.34814 7.63356 6.52153 9.74226 6.03028 10.7244C5.10556 12.5731 3.02498 13.3241 1.89799 14.9995C2.96719 15.6928 4.55654 15.3173 5.33677 16.6461C5.59684 17.0794 5.74127 17.8593 3.83406 18.3215C2.36993 18.6488 1.60903 18.8896 1.55124 19.0436L24.9581 26.7563C24.9581 27.4206 24.9581 28.3161 24.9581 28.9805C27.7034 30.1648 30.4485 31.3492 33.1938 32.5335C36.3725 26.9585 38.2797 23.6077 43.1344 23.6077C43.5101 23.6654 43.539 23.6654 44.0592 23.1455L41.0827 20.6035L38.8288 7.72022L41.3717 5.14934L41.8629 4.68715C40.0424 4.62938 39.031 4.05166 38.7709 3.87834C38.5975 3.7628 38.3663 3.58948 38.164 3.56059C38.164 3.56059 35.5055 3.58948 33.5116 5.0049C31.98 6.07369 31.3443 6.53587 23.0219 4.88936C20.7679 4.45606 16.8669 2.78067 16.0866 2.37627C15.711 2.20295 15.682 2.20294 15.3064 2.11628C13.6014 1.76964 11.8386 2.05851 10.1626 1.53856C8.7177 1.07638 5.45247 0.152011 5.45247 0.152011" fill="#C5C5C5"/>
</svg>
