<svg width="56" height="48" viewBox="0 0 56 48" fill="none" xmlns="http://www.w3.org/2000/svg">
<path d="M2.247 0.729616C2.10251 0.816275 1.90028 0.931821 1.7558 1.04737L1.49564 1.48069C1.06219 1.53846 0.48424 1.6251 0.0507812 1.68287C0.108576 1.79841 0.166363 1.94287 0.224158 2.02953C0.51313 2.54949 0.946589 3.06944 0.946589 3.06944C2.59373 5.03371 4.7611 6.47799 6.43714 8.41337C8.22877 10.4932 9.41345 13.0352 11.2051 15.115C11.2629 15.2017 11.3785 15.3172 11.4363 15.375C12.6789 16.7904 14.066 18.0614 15.3086 19.4768C16.4356 20.7478 16.7245 21.4411 16.8979 21.9322C17.4181 23.6076 16.4644 25.2541 16.869 26.9295C17.5047 29.587 19.2385 31.7824 19.8453 34.411C20.6256 37.6751 20.9436 39.0328 21.9839 40.6793C23.3998 42.9324 25.9138 43.8279 27.7921 45.5033C27.9077 45.5033 28.0232 45.5033 28.1388 45.5033C29.2947 43.4524 33.5138 42.2681 35.4788 45.7633C37.4439 49.2874 47.0666 45.3589 47.1244 45.2723C46.6909 37.7041 44.3791 27.5361 45.7084 20.0545C45.7662 19.6886 47.8372 19.188 51.9214 18.5525L51.0833 5.00481C52.3258 4.97593 53.7418 4.91813 55.9958 4.80259C48.444 4.35967 43.3292 4.19598 40.6514 4.31153H39.9579L37.6172 2.95387C23.2071 2.74204 15.742 2.61685 15.2218 2.57833C13.1412 2.4339 11.2629 1.56734 9.26901 1.16294C7.47738 0.816301 5.77242 1.76953 4.00969 1.50956C3.40285 1.4229 2.91167 1.30737 2.27593 0.671875" fill="#C5C5C5"/>
</svg>
