<svg width="64" height="35" viewBox="0 0 64 35" fill="none" xmlns="http://www.w3.org/2000/svg">
<path d="M0.96875 0.313965C4.11855 6.72671 6.77709 16.2592 11.4295 21.6609C11.4873 21.7476 19.6075 24.5784 20.3589 22.8741C20.7634 21.9305 21.1776 21.4683 21.6014 21.4876C22.295 20.8232 22.2661 19.7255 23.1042 19.1478C23.3064 19.0033 24 18.8012 25.2714 18.9167C28.479 19.2056 33.6516 20.9387 37.3216 22.9608C42.0896 25.5605 45.6439 30.2112 51.3077 31.3089C55.5845 31.4244 59.3702 33.6198 63.5025 34.3131C62.9823 33.9953 62.7222 33.8509 62.1731 33.6198C61.1617 33.2154 60.3237 32.811 59.9769 32.6377C58.1853 31.7711 56.8849 30.0957 54.9199 29.518C53.1861 28.998 51.0188 28.3625 49.7763 27.6115C48.9671 27.13 47.6475 25.8687 45.8174 23.8274C44.5748 22.4408 42.7253 22.0075 41.2226 20.9676C38.593 19.1478 38.5352 17.9923 39.6333 17.7035C40.0668 17.5879 40.9049 17.6746 41.1649 17.7035C41.714 17.7901 41.7717 17.7902 42.1763 17.7902C41.5116 17.2124 40.6736 16.7791 40.5002 16.6925C37.7838 15.3926 34.8074 14.7859 32.0333 13.6883C27.5831 11.9551 23.971 8.71983 19.5786 6.87111C11.6029 3.49142 9.58013 2.88483 0.96875 0.342835" fill="#C5C5C5"/>
</svg>
