<svg width="51" height="13" viewBox="0 0 51 13" fill="none" xmlns="http://www.w3.org/2000/svg">
<path d="M41.4959 0.762207C39.9354 0.935525 36.6989 2.00432 35.4275 2.55316C37.0168 2.49539 37.248 2.6687 37.4792 2.8709C37.4214 3.24642 37.3636 3.67973 35.1096 4.45966C36.7857 4.7774 36.8435 4.80629 37.0458 5.18181C36.2367 6.82833 26.9028 7.31939 25.1979 6.51058C25.0245 5.84619 24.9667 5.64398 23.0306 5.29735C22.2215 5.15292 21.5279 5.09515 21.4701 5.09515C20.5647 5.01812 19.0139 5.11441 16.8177 5.38401C15.8063 5.49956 15.1127 4.54631 14.1302 4.54631C11.7028 4.54631 9.65115 5.90397 7.39717 6.51058C8.75534 7.46382 10.2002 5.96174 11.5584 6.6839C11.2405 7.55049 9.85346 7.81046 6.61697 8.12821C5.20101 8.24376 3.98727 8.59038 3.58271 8.70593C8.14847 7.83934 8.72646 8.01267 9.04433 8.12821C9.04433 8.21487 9.04433 8.30153 9.04433 8.38819C8.60124 8.81185 5.85598 9.51475 0.808594 10.4969C3.06258 10.4391 5.31653 11.0457 7.54162 10.3236C12.589 8.72519 15.1801 7.97415 15.315 8.07044C15.2283 8.38819 15.1994 8.50373 14.2747 9.13923C16.9044 9.13923 19.3895 8.27264 21.9902 7.95489C24.1864 7.7238 24.3021 7.86823 24.5621 8.12821C23.7819 9.74584 13.2055 11.3635 13.0899 11.3924C11.4139 11.6234 10.7492 11.7968 10.0846 11.999C10.9804 12.6345 13.8124 12.4323 18.5226 11.4212C22.6838 10.5258 26.6138 8.90814 30.775 8.01266C32.191 7.69491 33.6358 8.15709 35.0807 7.83934C35.5142 7.75268 35.9187 7.57936 36.3522 7.46382C39.7043 6.53946 43.2587 7.08831 46.6108 6.22172C49.356 5.52845 51.0609 3.70861 50.9454 3.15977C50.9454 3.13089 50.7431 2.37984 48.5758 3.24643C47.8822 3.53529 46.2062 4.19968 44.5879 4.28633C43.0275 4.37299 42.5362 3.82416 42.045 3.27532C41.756 2.92868 41.2358 2.81314 41.1202 2.29319C41.0046 1.74435 42.1894 0.993303 41.4959 0.791099" fill="#C5C5C5"/>
</svg>
