<svg width="23" height="6" viewBox="0 0 23 6" fill="none" xmlns="http://www.w3.org/2000/svg">
<path d="M10.6602 0.195094C7.22146 -0.064882 3.40703 0.195094 2.54011 0.426184C2.59791 0.695789 2.0585 1.07131 0.921875 1.55275C2.04887 1.81273 3.26256 1.81273 4.36066 2.21713C5.45875 2.62154 6.44112 3.37258 7.65481 3.51701C8.98408 3.59404 11.6427 4.02734 15.6305 4.8169C18.9537 5.48128 22.0169 6.059 22.5948 5.51017C22.5948 5.45239 22.6525 5.39462 22.6525 5.36574C21.2654 5.04799 21.0055 4.49915 20.9766 4.3836C20.7165 3.5459 21.6701 3.17038 21.699 2.44822C21.1789 1.98604 17.9712 1.26389 16.7864 1.29278C17.0465 2.47711 14.9659 1.84161 13.7233 1.32166C11.7969 0.551356 10.7662 0.166207 10.6313 0.166207" fill="#C5C5C5"/>
</svg>
