<svg width="44" height="15" viewBox="0 0 44 15" fill="none" xmlns="http://www.w3.org/2000/svg">
<path d="M22.5625 0.758789C22.3602 1.01877 22.2157 1.1632 21.4355 1.24986C24.5564 3.15635 24.8742 4.22514 24.8164 4.65843L24.5275 5.06285C21.1465 5.00507 17.881 2.69417 17.5631 2.11645C17.332 1.71204 17.0142 1.56761 16.5518 1.39429C16.0317 1.68315 14.9625 2.37642 14.9625 2.37642C15.7716 3.53187 13.8066 3.76296 12.9975 3.61853C11.6971 3.41633 10.7723 2.31865 9.44302 2.2031L8.40277 2.11645C8.34497 1.94313 8.28727 1.68315 8.31617 1.50983C8.40286 1.45206 8.54733 1.3654 8.66292 1.30763C8.40284 1.30763 8.17164 1.27874 7.91156 1.27874C7.33362 1.49058 6.91944 1.60612 6.669 1.62538C5.6287 1.71204 4.64623 1.30763 3.63482 1.27874C2.65232 1.27874 1.81423 1.88536 0.860623 1.94313C0.802829 1.94313 0.74507 1.94313 0.716172 1.94313C0.542789 2.69417 1.75643 3.24301 1.75643 3.24301C2.82563 3.44521 3.72138 2.75194 4.76168 2.72306C6.26434 2.80971 6.4666 3.01192 6.72668 3.38744C6.37991 4.97619 4.58828 4.3118 3.83695 5.23616C4.15482 5.52502 7.79599 7.11377 10.2812 7.20043C12.9975 7.28709 13.1708 6.99822 13.4309 6.6227C13.8354 6.01609 14.24 5.58279 15.8005 5.58279H16.0028C17.1586 3.99405 20.3084 4.77398 20.2795 5.66946C20.2795 5.84277 20.1351 6.01609 20.0484 6.16052C21.4644 6.33384 22.678 5.20728 24.1229 5.55391C25.7411 5.92943 25.3366 7.05599 24.9032 7.34486C24.5564 7.57595 18.9502 8.7314 16.2917 8.81806C14.3266 8.87583 13.8355 8.9336 13.1998 9.10692C13.6911 9.25135 15.2226 9.16469 15.8583 9.10692C16.8986 9.02026 26.0301 8.41365 26.6948 9.68464C26.4925 10.1179 25.9724 10.4068 21.1466 10.3779C19.6728 10.3779 19.1814 10.4357 18.459 10.5223L18.5168 10.7823C18.1508 10.9749 16.8601 11.0519 14.6447 11.0134C14.6447 11.0134 14.4133 11.0134 14.2977 11.0134C17.8521 12.3133 19.037 12.2844 20.1929 12.2555C24.5564 12.14 23.1115 13.2665 23.1115 13.2665C22.9382 13.3532 22.6492 13.4399 22.3602 13.4976C23.0826 13.8154 23.8918 13.8154 24.5853 14.2198C24.9032 14.2198 24.9609 14.2487 25.3654 14.2198C26.2131 12.7947 26.9645 11.8704 27.6195 11.4467C28.891 10.609 30.5091 10.6957 31.8384 10.0313C31.4916 9.19358 31.2027 8.47142 33.3122 8.26922C32.0118 5.95832 41.4035 5.29394 43.3686 5.785C43.513 5.81389 43.7153 5.90055 43.8598 5.95832C43.8598 5.87166 43.8598 5.785 43.8598 5.69834C41.7792 5.23616 40.6907 4.9473 40.5944 4.83176C38.1477 4.71621 36.8281 4.53326 36.6354 4.28292C36.3465 4.28292 35.6529 4.19626 33.9191 4.22514C32.4164 4.22514 32.3009 4.08071 31.2606 2.66529C30.2492 2.66529 29.3823 3.32967 28.3709 3.32967H28.1686C26.0302 3.06969 27.0993 2.20311 27.5327 1.88536C27.6483 1.7987 27.7928 1.68315 27.8795 1.59649C27.5327 1.22097 26.2902 1.13431 25.5967 1.10543C24.7009 1.39429 24.0073 1.62538 22.6491 0.758789" fill="#C5C5C5"/>
</svg>
