<svg width="146" height="49" viewBox="0 0 146 49" fill="none" xmlns="http://www.w3.org/2000/svg">
<path d="M10.6749 2.238C7.55398 2.78684 3.42169 3.50899 0.300781 4.08672C1.80344 6.39762 1.80346 9.19958 2.75707 11.6838C7.40953 13.7636 12.6978 16.1034 6.39815 18.4721C5.93579 18.6454 5.27116 18.732 4.77991 18.8187C5.21337 19.3387 5.67565 19.8586 7.32279 19.8297C9.46119 19.5697 10.0103 19.6275 12.2354 20.8696C13.5646 21.6207 16.3099 23.2094 12.6977 25.8959C13.1986 26.2617 14.2293 26.7047 15.7898 27.2246C16.1943 27.369 16.7144 27.5424 17.119 27.6868C19.5753 20.4652 10.7905 14.4569 10.7038 14.3991C10.646 14.168 10.5593 13.8792 10.5015 13.6481C10.9446 13.2051 11.3877 12.8585 11.8308 12.6082C0.763109 9.80619 8.68097 4.02894 8.76766 3.97117C9.49009 3.59565 10.9639 3.07571 12.5244 3.91341C14.971 3.97118 16.3484 4.20226 16.6566 4.60667C18.0437 4.39484 19.0647 4.34669 19.7197 4.46223C19.8064 4.66444 19.951 4.92442 20.0377 5.12663C17.986 7.20644 18.7372 10.2395 17.5525 12.6082C21.3091 10.875 26.3661 15.0635 26.4239 15.0924C26.3083 15.5257 26.3661 16.1612 26.5684 16.5367C27.4931 16.6522 29.9205 16.9411 31.6543 18.6454C31.4809 19.5698 31.481 19.6564 30.3251 20.7252C30.3829 20.9563 30.4984 21.2451 30.5562 21.4762C40.6125 24.2204 44.976 31.9042 45.1494 33.3196C45.2361 34.5617 45.0337 34.735 43.7334 35.9483C43.7623 36.1793 43.7912 36.4682 43.82 36.6993C43.1554 37.4503 42.144 37.7103 41.4505 38.4325C41.855 40.5701 42.4041 40.599 43.5889 40.6567C48.7326 40.9456 53.4718 43.1987 58.5577 43.8342C66.5044 44.8452 73.8732 48.6871 82.0512 48.3694C86.7325 48.196 91.0382 45.8851 95.7484 45.914C100.545 45.914 103.348 47.3872 105.4 48.456C109.706 45.5674 110.544 45.1052 111.324 44.9319L111.7 44.8741C113.52 44.7297 115.341 44.6719 117.132 44.4408C117.036 44.2482 116.256 43.5935 114.792 42.4766C114.792 42.3032 114.792 42.0433 114.792 41.8699L115.11 41.4078C117.633 39.6938 122.276 38.4325 129.038 37.6237C131.254 36.1601 133.777 35.4091 136.609 35.3705C136.811 35.1683 137.072 34.8795 137.274 34.6773C138.805 33.0596 138.979 30.6621 140.539 29.0733C141.984 27.6001 144.845 28.2934 145.625 25.8092C131.793 28.2741 124.366 30.7776 123.345 33.3196C122.748 34.8024 114.522 37.1615 98.6671 40.3967H98.3781C96.3842 40.4834 94.6792 39.2124 92.6853 39.2702C90.9804 39.2702 90.6048 38.9813 90.1135 38.4903C89.0732 37.4215 90.4025 36.006 89.6512 34.9083C88.6975 33.4929 86.5013 33.7818 85.75 32.0775C85.1432 30.7199 85.1721 29.5933 86.6458 25.867C88.553 20.9563 90.258 19.1942 93.35 16.0167C93.1188 15.959 92.8298 15.8145 92.5986 15.8434C91.2405 15.9301 85.5766 15.3235 84.3051 14.6013C84.3051 14.6013 83.9295 12.0882 84.1607 10.9039C81.5021 9.45956 80.693 5.791 77.3409 5.18439C76.5318 5.04959 73.5554 6.03173 68.4117 8.1308L68.036 8.24635C66.9764 8.30412 62.3818 5.79101 54.252 0.707031L46.9988 1.42919L44.5136 2.90237L28.1866 4.66443C22.3494 3.94228 16.5989 2.72907 10.7327 2.238" fill="#C5C5C5"/>
</svg>
