<svg width="66" height="30" viewBox="0 0 66 30" fill="none" xmlns="http://www.w3.org/2000/svg">
<path d="M37.291 0.566406H36.7709C34.3435 0.566406 34.7192 3.65723 32.7831 4.20607C30.9337 4.72602 28.9108 4.00386 27.0902 4.87045C26.8879 4.95711 26.7725 5.27486 26.6569 5.44818C25.3276 7.67242 18.6523 6.54585 17.0051 5.07266C16.8028 5.07266 16.5428 5.13043 16.3405 5.1882C18.5945 9.17451 18.2477 9.17451 12.1793 9.05896C11.5436 9.17451 10.0409 8.94341 7.67135 8.36569C6.082 8.22126 4.52151 8.7701 2.93216 8.68344C2.03635 8.68344 1.71853 8.68344 0.996094 8.82787C1.38139 9.46336 1.51629 9.95444 1.4007 10.3011C1.4007 10.3011 1.51616 10.561 1.63175 10.5899C2.03631 10.7247 5.25362 11.1484 11.2835 11.8609C13.9999 12.1787 15.2134 15.1829 17.872 15.5873C23.1602 16.3961 17.4385 26.3618 17.3229 26.4774C19.8659 27.1129 22.2933 28.0661 24.9229 28.3839C26.8591 28.615 28.7952 27.3728 30.7602 28.3261C31.5983 28.7305 37.1465 29.0771 37.2043 29.0771C37.6955 29.0771 38.1579 29.106 38.6491 29.106C39.0826 29.106 39.6607 29.106 40.0652 29.106C39.5162 27.5462 41.5677 24.7153 51.2772 25.9863C53.4734 26.2752 55.5252 27.2573 57.808 27.0551C60.0042 26.8529 61.7092 25.293 63.7898 24.8309L63.8476 24.7153C58.7617 24.542 60.5533 22.3755 60.5533 22.3466C59.802 22 57.5481 20.989 59.1952 20.2091C59.253 20.2091 59.5708 20.0357 60.351 19.978H60.6688C60.6688 19.978 60.9001 19.8335 60.9868 19.7758C60.4956 19.4291 59.831 18.9669 60.4667 17.8981C59.7443 17.4649 59.6864 17.436 59.4552 17.0604C58.7328 17.4649 58.4726 17.5804 57.6057 17.6382L56.7678 17.5804C53.878 15.5584 60.9001 12.2365 62.1715 11.9476C62.4316 11.8898 62.8073 11.832 63.0674 11.7454C63.1829 11.2543 63.2118 10.7632 63.3852 10.2722C63.9342 9.05896 64.0209 8.82787 65.0323 8.1346C65.0034 8.1346 58.6173 5.82369 54.3116 6.14144H54.0225C52.9533 6.14144 52.4621 5.93925 51.6818 5.44818L51.3929 5.27486C49.8903 5.27486 49.4278 4.87045 48.9366 4.40827C46.9523 4.50456 44.2456 3.715 40.8164 2.0396L40.5565 1.92405C39.9785 1.98183 38.418 2.12626 37.2332 0.566406" fill="#C4C4C4"/>
</svg>
