<svg width="29" height="14" viewBox="0 0 29 14" fill="none" xmlns="http://www.w3.org/2000/svg">
<path d="M19.8672 1.90141C19.6745 1.90141 19.5108 1.90141 19.376 1.90141C19.7516 4.58784 16.4284 3.46128 15.8794 3.05687C15.6771 2.88355 15.5616 2.73912 15.4749 2.65246C14.4057 2.33471 13.4521 1.69921 12.3829 1.41035C11.8627 1.26592 10.8512 1.23704 10.2733 1.23704C8.33716 1.23704 6.95026 1.23703 5.56319 0.861506C2.32669 0.312668 0.159357 2.42137 0.101562 2.85467C2.73121 4.99225 3.80032 7.18761 3.80032 7.2165C5.36077 8.08308 5.62098 8.71858 6.28562 10.394C7.32592 10.5962 8.42394 10.2495 9.46425 10.6828C10.6201 11.1739 10.5623 11.8094 10.5334 12.2138C10.4756 12.3005 10.4179 12.4449 10.389 12.5316C12.7586 12.5701 14.2709 12.8012 14.9259 13.2248C15.7639 12.9649 15.9372 12.8493 16.1395 12.7049C16.1588 12.0309 18.1046 12.0501 21.9768 12.7627C19.6939 10.7984 18.4513 9.72959 20.4741 9.52738C21.8323 9.38295 23.0171 10.6539 24.4619 10.0473C24.5775 9.98956 24.6642 9.96069 24.8087 9.49851C24.9243 9.06522 25.0399 8.6608 25.5311 8.31417C26.3402 7.70755 27.4383 7.70755 28.1607 6.95651C28.3919 6.72542 28.4786 6.58099 28.0741 6.23435C25.9742 4.28934 24.7412 3.04723 24.3752 2.50802C22.8436 2.62357 21.3988 2.04584 19.8961 1.90141" fill="#C5C5C5"/>
</svg>
