<svg width="22" height="12" viewBox="0 0 22 12" fill="none" xmlns="http://www.w3.org/2000/svg">
<path d="M9.25129 0.33358C8.49996 0.420239 7.74855 0.477994 6.99722 0.564653C5.92802 3.48217 2.77827 3.22221 0.726562 4.66652C1.59348 5.15758 15.2618 10.7326 20.1744 11.8881C20.6367 11.0793 21.5326 10.5304 21.6771 9.49052C21.2436 8.94168 18.7007 8.0751 16.649 7.46849C15.7532 7.20851 15.0307 6.97742 14.944 6.42858C14.8284 5.61977 15.8687 5.67754 16.0132 5.07092C16.1576 4.4932 15.9553 3.91546 15.9842 3.36662C12.1987 6.19748 9.77133 3.33775 9.85802 2.41339C9.91581 1.74901 9.97369 1.25793 9.22236 0.304688" fill="#C5C5C5"/>
</svg>
