<svg width="24" height="16" viewBox="0 0 24 16" fill="none" xmlns="http://www.w3.org/2000/svg">
<path d="M20.8874 0.773926C20.714 1.32276 21.0896 1.92936 20.6562 2.44931C20.3672 2.79595 19.6158 2.73819 19.2979 2.7093C18.5466 3.69143 18.4311 3.83586 17.0151 3.80697C16.7261 3.80697 16.3504 3.80696 16.0904 3.77808C17.7375 4.96241 16.7262 5.2224 16.495 5.28017C16.3216 5.30906 12.5649 5.25129 9.90631 4.06696C9.46322 3.87438 9.17429 3.82623 9.03943 3.92252C8.51928 4.29804 8.51938 5.02018 8.05702 5.42459C7.42128 6.00232 4.73386 6.58006 1.03501 7.35999C0.861628 7.38888 0.717015 7.41776 0.543631 7.47554C0.514734 7.47554 0.485929 7.53331 0.457031 7.56219C3.9825 8.48655 6.66984 9.8442 7.39227 10.653C7.85462 11.1537 7.36352 12.1551 5.91866 13.6572H5.88973C7.3057 14.3505 7.68137 14.8415 7.88365 15.0726C8.02813 15.1882 8.23037 15.3037 8.37485 15.4193C8.54824 15.1882 8.77936 14.9571 9.58849 14.9282C10.3687 14.8993 13.085 15.3326 13.3451 15.3904C14.8478 15.737 16.0327 14.5815 17.4486 14.5527C18.6045 14.5527 19.7603 14.7549 20.9162 14.7838C19.0089 13.5416 16.5816 13.2817 14.9633 11.5774C13.7208 10.2775 14.3277 9.38203 15.4547 9.12205C18.5756 8.37101 22.8524 7.33109 22.5057 6.49339C21.6773 4.50987 22.0721 3.00779 23.6904 1.98714C22.5056 1.64051 20.9162 0.802796 20.9162 0.802796" fill="#C5C5C5"/>
</svg>
