<svg width="22" height="6" viewBox="0 0 22 6" fill="none" xmlns="http://www.w3.org/2000/svg">
<path d="M7.87666 0.163574C7.81886 0.394664 6.57617 0.490947 4.1488 0.452432C4.1488 0.452432 4.26447 0.683525 4.23558 0.827957C4.20668 1.14571 3.83092 1.23236 3.77312 1.52123C3.71533 1.7812 4.14881 1.92563 3.97542 2.18561C3.85983 2.33004 3.42637 2.38781 2.70394 2.30116C2.14526 2.24338 1.79853 2.22412 1.66368 2.24338C1.66368 2.24338 1.66365 2.33004 1.63475 2.35892C2.05858 3.12922 1.73117 3.91879 0.652344 4.7276C3.71545 5.04535 6.80732 4.69872 9.89933 4.95869C14.6096 5.39199 21.2849 4.84314 21.8918 4.2943C21.834 4.2943 15.4187 2.07007 13.1937 2.24338C11.98 2.33004 11.8066 2.64779 11.7488 2.76334C11.5176 3.19663 10.6218 3.22551 9.61042 2.8211C9.52373 2.79222 8.68563 2.44558 8.62784 1.89675C8.57005 1.29013 9.26364 1.23236 9.40812 0.741296C9.17694 0.423547 8.19438 0.250228 7.90541 0.192456" fill="#C5C5C5"/>
</svg>
