<svg width="17" height="6" viewBox="0 0 17 6" fill="none" xmlns="http://www.w3.org/2000/svg">
<path d="M3.17577 0.709473C2.829 0.940563 2.33783 1.08499 1.09525 1.14277C1.03746 1.14277 0.97967 1.14277 0.921875 1.14277C1.18195 1.40274 1.58634 1.57606 2.19319 1.69161C3.55136 1.95158 5.16968 2.81817 5.34306 3.02037C5.66093 3.42478 5.6898 4.06028 4.04265 4.95575C5.54531 4.89798 7.01918 4.55134 8.49294 4.52246C9.01309 4.52246 10.6891 4.52246 10.6313 5.56236C10.6313 5.88011 10.689 5.88011 10.8913 5.88011C13.0297 5.73568 14.7924 4.4358 16.873 4.08916C14.1374 4.16619 12.6155 4.18545 12.3072 4.14693C10.3133 3.82918 10.718 3.22258 10.8336 3.10703C10.8914 3.04926 10.978 2.99148 11.0647 2.93371C8.23273 2.93371 5.57424 2.41376 6.23887 1.69161C6.32556 1.57606 6.49893 1.51828 6.58563 1.4894C6.38334 1.43162 5.71871 1.20054 5.14076 1.20054C4.67841 1.20054 4.01387 1.20054 3.43592 0.911676L3.14684 0.73836" fill="#C5C5C5"/>
</svg>
