<svg width="21" height="7" viewBox="0 0 21 7" fill="none" xmlns="http://www.w3.org/2000/svg">
<path d="M12.2767 0.218018C11.6121 0.218018 5.25479 0.449105 4.24339 0.56465C3.11639 0.680195 2.07605 1.20014 0.949058 1.46012C0.862367 1.46012 0.746848 1.51789 0.660156 1.51789C0.920232 1.69121 1.38256 1.98008 1.35366 2.52892C1.32476 3.04887 2.79849 3.56882 2.94298 3.5977C3.83879 3.53993 6.20833 3.3955 6.69958 4.57984C9.30034 4.57984 10.1383 4.57984 10.8029 4.83981C12.6331 5.64863 15.282 6.18784 18.7497 6.45745C19.0098 6.02415 19.5012 5.90861 19.9924 5.82195C17.4495 2.76 17.8251 2.50002 20.2813 0.997937C17.5939 0.997937 14.9642 0.333558 12.2767 0.246899" fill="#C5C5C5"/>
</svg>
