<svg width="34" height="21" viewBox="0 0 34 21" fill="none" xmlns="http://www.w3.org/2000/svg">
<path d="M15.6179 0.351646C14.1153 1.24712 12.0347 1.62264 10.5609 1.79596C9.92519 1.85373 9.7518 1.88262 9.28944 3.24027C9.14495 3.64468 9.05831 3.90466 8.79824 4.19352C8.76934 4.22241 8.71149 4.28017 8.6537 4.33794C8.56701 4.4246 8.45149 4.51127 8.3648 4.59793C7.61347 5.20454 6.65981 5.40675 5.87959 5.95559C5.07046 6.53331 4.81038 7.63098 3.88567 8.09316C2.13257 9.01752 1.37167 9.66265 1.60285 10.0285C2.20969 11.0107 1.11155 12.0795 0.5625 12.5994C2.00736 13.1194 2.26743 13.2349 2.98986 13.6104C3.04765 13.6393 3.13437 13.6971 3.19216 13.726C5.73512 12.8016 6.48642 14.1304 6.05296 15.1414C5.90848 15.4592 5.27277 16.5569 3.01878 17.3657C3.48114 18.4922 2.5564 19.0699 1.63168 19.6477L1.9496 19.821L2.35412 19.9076C4.20354 19.6188 5.83143 19.9751 7.23776 20.9765C7.67122 20.8898 8.53811 19.8788 9.37613 18.9255C12.2659 15.6325 13.7686 14.3326 16.4849 13.6104C21.3108 12.5417 28.5929 10.8951 31.3092 6.9666C31.8294 6.18667 32.4362 5.86893 33.3898 5.46453C33.072 4.82903 29.8066 2.69144 29.7777 2.66256C27.8416 3.38471 25.6743 3.29805 24.8073 3.15362C24.3739 3.09584 24.2004 3.03806 24.1138 3.00918C23.1601 2.72031 22.4666 1.94039 21.4841 1.68041C20.0392 1.30489 18.5366 1.30489 17.1207 0.842707C16.5138 0.640504 15.9647 0.438299 15.6179 0.322754" fill="#C5C5C5"/>
</svg>
