<svg width="27" height="8" viewBox="0 0 27 8" fill="none" xmlns="http://www.w3.org/2000/svg">
<path d="M0.0484567 0.619141C0.0484567 0.619141 0.250667 0.763571 0.337359 0.821344C0.828612 1.22575 1.05989 1.86125 1.52225 2.26566C2.0135 2.69895 2.70691 2.8434 3.19816 3.27669C3.25595 3.33447 3.37159 3.42111 3.42939 3.50777C3.83395 3.96995 3.71841 4.51878 3.66061 4.83653L3.60276 5.00986C5.04763 5.06764 6.49249 4.74988 7.93735 4.95208C9.17994 5.1254 10.0469 5.732 11.0583 6.48305C11.4051 6.73339 11.6169 6.85858 11.694 6.85858C16.1441 6.48306 16.6065 6.42527 18.9183 6.68525C19.0917 6.68525 19.2363 6.71415 19.4097 6.74303C19.6697 6.42529 20.132 6.07866 21.6636 6.25197C23.224 6.42529 24.5532 7.32075 26.1137 7.52295C25.0156 6.74303 24.7845 6.5986 25.3625 5.90533C24.9579 5.7609 24.5822 5.61647 24.1776 5.50093C23.9175 5.50093 23.6864 5.50093 23.4841 5.44316C22.675 5.26984 22.2704 4.86542 21.8369 4.22992C21.6443 3.94106 21.0856 3.62333 20.1608 3.27669C20.1608 3.27669 20.0742 3.21891 20.0164 3.21891C17.878 2.78561 15.7397 3.79663 13.6013 3.30556C13.0811 3.19002 12.5031 2.93005 12.0696 2.72785L6.89709 0.965784C4.61421 0.561376 2.30241 0.965782 0.0195312 0.648033" fill="#C5C5C5"/>
</svg>
