<svg width="21" height="22" viewBox="0 0 21 22" fill="none" xmlns="http://www.w3.org/2000/svg">
<path d="M11.2287 0.113281C9.29256 0.113281 7.5009 1.00877 5.59368 1.12432C5.04463 3.81074 5.36247 4.35957 5.73813 4.67732C6.25828 5.11061 6.60503 5.91944 6.08488 6.90157C5.39135 8.14368 0.825637 10.4835 0.363281 10.599C0.594459 11.2056 1.34582 12.1589 2.38612 12.4477C3.94658 12.8521 5.42027 13.4298 5.56475 14.8742C6.95182 15.4519 8.599 15.4519 9.75489 16.5785C10.9686 17.7628 12.1822 20.1603 12.5868 21.6913C13.4248 21.1136 13.7138 19.8715 13.7138 19.8715C13.4537 19.496 12.9335 18.6871 14.0316 17.8783C14.0605 17.8783 17.6438 15.4519 19.8689 15.3075C20.0423 15.3075 20.2735 15.2497 20.418 15.2208C20.3891 14.9319 20.418 14.7009 20.4469 14.0076C18.6553 13.2277 18.3951 12.7077 18.3373 12.3899C18.2506 12.3033 18.1351 12.1589 18.0484 12.0433C15.2743 12.9677 10.9108 11.3212 11.7488 9.64575C12.0956 8.98137 13.3671 8.66362 14.2918 8.40364C15.7366 8.02812 17.7016 7.53706 17.6438 6.23718C17.6438 5.89054 17.4127 5.3706 16.4302 4.9373C13.1937 3.49299 15.2164 2.39531 16.17 1.84647C15.1297 1.84647 13.8293 1.58649 13.4536 0.459924C12.8757 0.199948 11.6043 0.17106 11.2287 0.142174" fill="#C5C5C5"/>
</svg>
