<svg width="21" height="13" viewBox="0 0 21 13" fill="none" xmlns="http://www.w3.org/2000/svg">
<path d="M12.2431 0.963458C11.723 1.48341 11.3184 2.11891 10.7982 2.63887C12.4165 3.50545 15.7686 5.32529 11.5496 6.65405C10.6827 6.94292 9.15112 7.26066 5.04771 7.46287C4.58536 7.48212 2.90926 8.45463 0.0195312 10.3804C2.87073 11.9402 5.07658 12.6624 6.63703 12.5469C9.17999 12.3158 10.1336 12.2291 11.0583 12.3735C11.1161 12.3735 11.1739 12.4024 11.2028 12.3735C12.7344 11.998 13.9192 10.9003 15.4218 10.4381C16.6355 8.8494 17.7913 8.27168 20.1609 7.14512C19.9297 6.9718 19.8431 6.88514 19.7853 6.62516L16.6933 7.11625L19.7275 0.385742C17.4157 0.587946 12.561 0.934588 12.3587 0.934588C12.3587 0.934588 12.3009 0.934588 12.272 0.934588" fill="#C5C5C5"/>
</svg>
