<svg width="38" height="50" viewBox="0 0 38 50" fill="none" xmlns="http://www.w3.org/2000/svg">
<path d="M30.0693 0.366211C29.8092 0.597301 29.0867 1.20395 29.4624 2.38828C30.0981 4.29478 26.9483 5.01692 25.1278 4.98803C24.2031 4.93026 23.8853 4.90136 23.394 5.16134C23.5096 6.25902 23.4807 6.9138 23.3073 7.12563C24.2609 8.13665 23.8564 9.03211 22.1226 9.78316C22.1226 9.78316 12.9043 12.4696 12.3263 12.614C11.4594 12.8451 10.6792 12.8162 10.3035 12.8162H9.78337C7.44269 12.4984 5.21756 13.4228 2.87688 13.3939C2.76129 13.3939 2.61682 13.3939 2.53013 13.3939C2.38564 14.5205 2.67459 15.647 2.32783 16.7447C2.03885 17.6113 1.31641 18.2468 1.22972 19.1712C1.17192 19.8067 1.48986 20.731 1.83662 21.3377C3.07921 23.5908 5.94006 24.9773 5.65108 28.1259C5.33321 31.7656 0.594125 32.7188 0.478536 36.5029C0.362947 39.3049 5.36206 46.151 5.41986 46.2087C7.24038 48.6352 12.7598 49.3862 13.3666 49.4728C15.1293 49.7039 21.2267 48.7218 21.8624 48.2308C23.7696 46.7287 32.2366 22.1176 32.5544 20.5577C32.7567 19.5467 32.2654 18.5068 32.67 17.4958C32.9011 16.8892 33.3924 16.3981 33.4502 15.7048C33.4502 15.5315 33.3924 15.3871 33.0456 14.9249C32.6122 14.3472 32.1209 13.0473 32.6989 12.1518C33.1034 11.4874 34.4038 10.2164 37.5247 12.614C37.987 12.3251 38.5362 11.9496 33.8548 4.20809C33.3347 3.3415 32.9589 2.99486 30.127 0.366211" fill="#C5C5C5"/>
</svg>
