<svg width="716" height="148" viewBox="0 0 716 148" fill="none" xmlns="http://www.w3.org/2000/svg">
<path d="M384.571 104.271C382.924 104.098 382.028 103.895 381.277 103.433L380.67 103C380.67 102.682 380.67 102.538 380.872 102.422C381.219 102.191 381.941 102.133 383.068 102.018C383.993 101.931 385.525 101.787 386.594 101.469C387.923 101.093 388.068 100.631 388.126 100.429C388.328 99.7936 388.704 99.1292 391.102 98.1471C391.824 97.8582 392.518 97.5694 393.24 97.2805C396.592 95.894 396.997 94.9985 397.69 92.6587C398.326 90.4633 398.673 89.7412 400.233 89.8278H400.551C404.799 90.7811 404.944 98.3782 402.487 99.938C402.43 99.9958 401.736 100.4 400.233 100.747C398.413 101.18 396.506 101.353 394.685 101.7C392.807 102.076 392.865 102.191 393.096 102.798C393.182 103 393.038 103.635 391.535 103.953C389.339 104.444 386.045 104.329 384.6 104.213M311.837 0.395996C309.669 0.453769 306.78 0.915953 304.699 1.55145C304.555 2.12918 304.323 2.9091 304.179 3.48682C302.098 3.92012 299.238 4.12233 297.099 3.9779C289.933 5.33555 288.632 5.59552 281.726 3.7468L281.119 3.57349L278.431 4.41118L278.663 4.64228C272.71 4.98891 270.311 5.07557 266.584 4.81559L262.885 5.39332C260.197 5.88438 257.452 5.82662 254.765 6.46212L255.285 7.5309L256.672 8.45526L256.932 8.77302L256.209 9.09076L256.903 9.52405L257.972 10.8817C253.233 11.055 245.739 10.9395 235.49 10.5351C235.143 11.4306 234.681 12.586 234.334 13.4815C240.904 15.6383 244.439 16.8515 244.94 17.1211C238.091 19.4609 232.08 15.2724 225.607 14.6947C224.394 14.3481 222.775 13.7992 221.504 13.6548C222.515 14.117 223.874 14.6947 224.885 15.1569C222.804 15.7346 219.799 15.9079 217.661 15.5613C217.757 15.6191 221.234 16.8226 228.092 19.1721C222.342 20.3564 213.73 18.421 211.997 16.659C211.765 15.5902 211.419 14.1459 211.188 13.0771C210.552 12.7304 209.714 12.2394 209.049 11.8638C208.645 12.9037 208.124 14.2614 207.72 15.3013C206.651 15.6191 205.177 15.9946 204.137 16.399C206.16 17.41 208.818 18.8543 210.783 19.9809C210.581 21.0497 210.321 22.494 210.147 23.5628C218.325 29.2245 229.364 27.1158 237.224 33.5574L237.6 33.9041C232.658 34.1929 231.213 33.904 227.832 32.0553C226.648 30.3799 224.394 28.5601 222.515 27.7513C221.446 27.7513 220.001 27.8091 218.932 27.8091C219.105 28.9067 219.308 30.3799 219.481 31.4776C218.181 32.8064 216.158 34.3662 214.424 35.0306C211.534 35.7817 206.911 36.2342 200.553 36.3883L197.664 35.695L197.201 35.5217C196.103 35.3773 194.658 35.1462 193.56 35.0017C197.721 33.7885 198.588 33.5574 201.536 34.4818L203.414 34.164L205.379 33.0375L205.639 32.9797L207.604 31.1599L209.309 30.5821H209.425L209.627 28.1846C205.581 26.5669 204.628 26.1914 202.316 21.5407C201.912 20.4719 201.391 19.0854 200.987 18.0166C199.947 17.6122 198.588 17.0923 197.548 16.6878C197.75 15.6191 198.039 14.2036 198.242 13.1348C196.854 12.0372 194.716 10.7373 192.982 10.5351C187.723 10.1884 184.525 10.1403 183.388 10.3906C182.522 12.2779 180.036 14.3673 175.933 16.659H176.28C178.1 17.6411 180.094 19.8364 180.932 21.7429C183.042 22.2918 185.758 23.4761 187.578 24.6893C186.856 25.527 185.903 26.6536 185.18 27.4913C176.54 23.9383 161.34 20.8764 158.017 20.6164C156.861 20.5393 154 20.2601 149.434 19.7787H148.798C149.636 20.4719 150.735 21.4252 151.573 22.1473C149.781 23.3606 147.122 24.5738 145.042 25.1515C144.204 24.4582 143.106 23.5339 142.268 22.8695C136.112 23.4761 130.073 24.9782 123.831 24.9782H123.513C121.317 24.8338 118.398 24.516 116.231 24.1694C116.636 23.7361 117.185 23.1873 117.56 22.754L114.295 22.2918C99.0951 25.1997 90.9846 27.2217 89.9636 28.3579C88.9522 28.3579 87.6228 28.329 86.6114 28.3001L84.4154 28.2135C82.3059 27.6069 79.5317 26.5381 77.5378 25.5848C78.4336 24.9493 79.6472 24.1116 80.543 23.4761C78.9826 22.1474 76.1507 21.1363 74.099 21.1941C74.1568 21.483 74.2435 21.8874 74.3013 22.1762C74.9371 24.025 76.2374 26.4225 77.5378 27.8668C76.7865 28.6468 75.775 29.6578 74.9948 30.4377C74.7347 30.3799 74.3591 30.2644 74.099 30.2066C71.6524 29.3785 66.8458 29.4267 59.6793 30.351C59.7949 31.4487 59.9681 32.9508 60.0837 34.0485C58.0224 34.9921 54.497 35.1076 49.5074 34.3951H48.9873H48.785C46.7044 33.8174 43.8435 33.3263 41.7051 33.2108C41.6184 33.2974 41.5029 33.413 41.4451 33.4996C43.5546 34.3373 46.4731 35.2328 48.6982 35.695C47.8891 36.4172 46.791 37.3704 45.9819 38.0637C44.4985 37.8326 41.2524 37.0719 36.2435 35.7817C33.373 35.3773 31.3022 34.1063 30.0307 31.9687C29.655 30.9288 29.1348 29.5711 28.7303 28.5312C20.5812 26.8847 17.9227 24.776 17.9227 24.7471L15.8131 23.8516L15.871 23.4183C22.9508 23.5917 29.5972 26.0181 36.5036 27.0869C51.0101 28.7334 51.877 28.8201 59.6504 26.0181C58.8605 25.2671 55.0941 23.5243 48.3515 20.7897C46.1842 20.4142 43.3234 19.7498 41.2139 19.0854C40.2507 18.7965 33.2672 17.7374 20.2634 15.9079C19.1653 15.8213 17.7204 15.7057 16.6512 15.6479C16.5646 15.1569 16.4201 14.4925 16.3334 14.0014C7.56791 15.2532 2.23144 16.659 0.324219 18.2188C2.37592 19.0276 5.12115 20.1253 7.17286 20.9341C6.39263 22.0607 5.43899 23.7361 4.2542 24.4005C6.10363 25.6426 8.53108 27.3758 10.2938 28.7623C10.3805 30.2066 10.4673 32.1131 10.554 33.5574L10.3227 33.7018C11.2185 34.2796 12.4322 35.0595 13.328 35.6661C12.7211 35.9261 11.8832 36.2727 11.2764 36.5327C13.3859 37.2838 16.1599 38.4392 18.1538 39.4213C16.863 41.5782 12.519 44.2261 5.12126 47.3651C6.91289 48.4627 9.71595 49.3871 11.8254 49.5604C11.1319 50.0226 10.1781 50.6581 9.4846 51.1203C7.26914 51.4862 4.81291 52.709 2.11583 54.7888L3.21394 57.1864L2.54936 58.8329C4.48548 61.5193 6.13269 63.8591 8.21329 64.2924C14.8982 65.159 18.5776 65.6597 19.2519 65.7945C21.1398 68.8179 24.8966 71.6103 30.5219 74.1715C29.1348 75.2403 26.7364 76.2513 24.9737 76.078C25.7828 76.8001 26.852 77.7534 27.6611 78.4755C31.8416 77.9556 35.4247 78.1578 38.4108 79.0822C38.6709 79.7465 39.0178 80.642 39.2778 81.3064C43.6124 82.6544 46.2614 83.9543 47.2246 85.206L50.5187 85.726L51.1257 85.9571C54.1888 85.6105 56.9148 86.0919 59.3036 87.4014C63.4841 87.8443 67.1828 88.4702 70.4001 89.279C71.0647 91.1855 70.978 94.1608 70.2267 96.0095C68.0883 95.9228 65.1985 96.2695 63.1468 96.8472C64.6784 96.905 66.8168 96.9627 68.2617 97.5405L68.6085 97.9449C64.9385 99.5914 63.3202 104.329 58.6389 104.415C66.6338 107.362 71.2863 109.172 72.5963 109.846C79.1271 109.846 93.9802 112.937 95.6563 113.688C100.299 113.688 103.844 114.391 106.29 115.797C109.065 116.836 112.012 117.443 114.7 118.743L115.393 119.09C116.462 118.974 117.907 118.83 118.976 118.743C114.873 115.912 112.214 111.464 107.967 108.806C110.827 105.166 111.116 104.791 117.156 103.318C116.944 102.913 112.234 99.8129 103.025 94.0164C103.459 93.612 104.008 93.0342 104.441 92.6298C104.846 91.5899 105.395 90.2034 105.799 89.1635C108.265 88.2776 110.895 88.5761 113.688 90.0589C114.18 89.1057 114.815 87.8058 115.307 86.8237C117.272 86.1882 119.901 85.3794 121.895 84.8594C123.311 84.6572 125.218 84.2817 126.634 84.4839L127.299 84.6861C130.227 84.2624 134.176 84.7053 139.147 86.0149C145.157 88.268 151.688 85.986 157.728 88.1236L158.132 88.2969C162.929 87.6903 167.553 89.7123 172.321 89.3079H172.581C173.65 89.6256 175.095 90.0301 176.164 90.3189C175.268 89.6256 174.055 88.7302 173.159 88.0369C173.043 85.8415 173.101 82.924 173.303 80.7576C173.505 80.6131 196.768 68.5965 234.941 82.3174C235.981 82.6063 237.397 82.9818 238.467 83.2707C238.467 83.444 238.409 83.6462 238.38 83.8195C248.282 82.9722 257.308 85.1964 265.457 90.4922C266.015 90.8774 268.414 92.6395 272.652 95.7784L274.53 94.5074H274.877C278.229 95.6918 280.657 96.5872 283.575 97.0494C285.338 96.7894 287.736 96.5872 289.528 96.7606C302.647 101.556 309.804 104.059 310.999 104.271C327.355 102.384 336.477 101.585 338.365 101.873H338.538L341.225 103.26C344.057 104.415 347.12 104.329 350.039 105.08C351.744 105.224 354.027 105.398 355.732 105.195C354.518 104.04 352.986 102.076 352.871 100.4L355.009 99.3603L355.529 99.2448L357.234 98.3493C364.343 100.025 371.721 102.711 379.37 106.409C383.3 107.275 387.288 106.784 391.246 106.957C411.821 111.348 432.83 112.85 453.549 116.23C454.618 115.97 456.034 115.623 457.103 115.392C458.115 113.457 459.675 111.03 461.033 109.326C460.109 108.662 458.895 107.795 457.999 107.16C458.635 106.264 459.473 105.051 460.109 104.127C466.678 104.666 470.579 105.022 471.812 105.195C483.689 107.304 485.336 108.633 488.11 110.857C494.612 114.786 500.189 120.13 507.471 122.787L508.107 123.018C516.401 124.982 541.657 133.85 541.715 133.879C541.657 134.948 541.599 136.364 541.541 137.404C541.05 138.501 540.674 140.379 539.605 140.928C537.495 141.419 534.577 141.679 532.438 141.592C533.103 143.354 534.288 145.636 535.53 147.052C581.939 146.185 556.076 117.01 555.701 116.721C555.441 116.519 554.978 116.432 554.689 116.317C551.915 115.277 549.517 113.457 546.627 112.677L544.258 112.272L542.697 113.081L542.061 113.543C540.992 113.688 539.576 113.861 538.507 113.977C538.102 113.486 537.553 112.85 537.149 112.359L535.241 112.475H535.01C533.652 111.695 531.745 110.568 530.878 109.268C528.682 109.066 525.792 108.488 523.711 107.795C528.017 99.938 538.391 91.6188 563.416 96.5006L564.543 96.7317C573.078 97.0975 577.586 97.3479 578.067 97.4827C581.15 98.0027 584.328 99.0907 587.603 100.747L587.748 101.036H588.124C590.146 101.238 592.863 101.469 594.856 101.671C594.654 100.574 594.394 99.1292 594.192 98.0315C595.666 97.1072 597.746 95.9806 599.451 95.5762L600.203 93.2942C606.965 94.3726 610.451 94.96 610.663 95.0563L610.779 95.114C611.877 95.2007 613.322 95.3451 614.42 95.4318C614.564 96.1828 614.767 97.165 614.911 97.916C616.009 98.2915 617.656 98.5226 618.523 99.2448C620.402 98.2626 623.262 97.5694 625.372 97.6271C624.65 96.8183 623.696 95.7206 622.974 94.9118C625.112 94.5363 628.088 94.5363 630.198 94.9696C630.458 95.4607 630.834 96.125 631.094 96.6161L631.383 99.2159L632.105 100.747L631.903 100.834C625.777 103.144 622.338 110.597 614.593 109.846C615.951 118.425 616.009 118.772 633.781 133.475C634.764 132.984 636.035 132.32 637.018 131.828C637.191 130.76 637.422 129.344 637.596 128.275C638.405 128.189 639.474 128.073 640.283 127.958C639.878 126.947 639.329 125.618 638.896 124.636C640.341 124.289 642.537 123.683 643.346 122.44C642.797 121.516 642.075 120.245 641.526 119.321C642.537 119.176 643.895 118.974 644.907 118.83C643.086 117.905 641.034 115.768 640.196 113.89L640.427 113.746C638.318 113.399 635.544 112.388 633.723 111.261C634.099 109.182 635.168 106.466 636.295 104.647C636.989 104.791 637.913 104.993 638.607 105.138H638.838C643.028 103.78 643.895 103.491 646.583 106.264C648.981 105.715 654.645 104.415 662.823 108.691L663.256 108.922C665.193 107.795 667.851 106.466 669.932 105.629H670.076C672.735 104.878 682.357 103.491 688.31 104.935C684.843 100.747 679.41 99.5914 675.249 96.4717C673.139 96.0095 670.394 94.8541 668.602 93.6697C673.457 93.7275 677.936 96.2117 682.849 95.7784C681.953 94.5652 680.624 92.8898 680.421 91.4166H680.537L682.184 91.0988L683.6 91.1566L684.351 91.301C692.067 99.1292 703.134 98.8981 712.41 103H712.7L714.809 103.578L714.058 102.769L713.566 102.364C712.96 101.469 712.15 100.256 711.544 99.3603C712.757 99.447 714.404 99.3603 715.589 99.6781C712.96 95.8651 712.411 95.0851 706.169 93.8719C704.204 93.352 701.574 92.6298 699.609 92.0521L702.094 94.1608L702.817 95.0851L702.73 95.2873C697.991 93.6697 696.517 92.9764 694.003 90.4056C678.89 82.9818 662.505 79.1977 646.756 73.5938C640.225 72.4094 639.561 72.265 636.411 71.6006C631.903 71.0807 627.626 69.5497 623.234 68.5965C624.881 69.983 627.308 71.6295 629.215 72.6116C620.748 75.1536 613.466 67.5565 613.409 67.4988C612.927 67.7106 605.433 66.9884 590.926 65.3323C590.58 65.91 590.117 66.7188 589.771 67.2966H589.568C585.609 65.3612 581.159 64.5813 577.576 61.8371C574.166 59.141 563.792 56.6183 546.454 54.2689C544.489 53.98 541.888 53.2578 540.125 52.3335C538.825 51.8713 537.12 51.178 535.762 50.9181C532.959 50.3115 530.242 49.2715 527.41 48.7516C522.96 47.4517 518.857 45.1408 514.233 44.4764H514.06C513.135 45.083 511.921 45.9207 511.026 46.5562C502.53 43.1284 494.602 40.4901 487.243 38.6414L484.498 39.7968L482.128 39.9413C484.575 40.3264 486.761 41.453 488.688 43.321C486.434 43.4943 483.457 43.8409 481.232 44.1876C479.99 43.8409 478.314 43.4654 477.187 42.8588C474.567 42.3003 470.762 41.867 465.772 41.5589C461.438 40.7501 460.253 40.5479 457.045 39.1325L456.352 38.7858C456.034 39.8257 455.63 41.2123 455.341 42.2522C454.185 42.1366 452.653 42.0789 451.526 41.8478C450.505 41.5397 445.496 39.4117 436.499 35.4639C437.366 35.2039 438.493 34.8284 439.36 34.5684C438.349 34.164 437.02 33.6152 436.008 33.1819C436.008 32.9797 436.008 32.7197 436.037 32.5175L433.841 31.0443C432.203 30.4858 424.642 28.9356 411.157 26.3936L409.192 28.7912C400.869 28.6468 397.315 27.0002 397.286 27.0002C390.408 26.798 389.542 25.8448 388.212 24.4583L386.941 24.3427C384.167 23.8805 381.421 23.1873 378.618 22.8984C373.475 22.6288 369.631 22.7058 367.088 23.1295C366.452 22.4651 365.586 21.5407 364.95 20.8764L364.805 20.7897C362.571 21.0015 358.843 20.4142 353.622 19.0276L350.877 19.2876C348.469 20.7512 345.849 21.4541 343.017 21.3963C340.936 21.3385 338.104 21.5407 336.053 21.974L335.186 21.8585C335.802 21.0112 339.096 19.5765 345.069 17.5544C349.114 16.2546 350.328 15.879 354.634 15.8502C356.338 15.3013 358.621 14.5214 360.297 13.8859L359.517 12.2971L358.91 12.2394L358.246 12.1527C356.252 11.3439 353.709 9.98624 351.975 8.77302C350.106 8.58044 344.211 7.79088 334.29 6.40434C332.209 6.80875 329.32 6.9243 327.21 6.66432L326.43 6.491L326.661 4.84448L326.748 4.78671C323.049 4.44007 319.379 3.68903 315.709 3.25574C316.894 2.76467 318.425 1.92697 319.697 1.84031L316.518 1.32036C315.131 1.03149 313.282 0.540427 311.837 0.395996Z" fill="#C5C5C5"/>
</svg>
