<svg width="145" height="69" viewBox="0 0 145 69" fill="none" xmlns="http://www.w3.org/2000/svg">
<path d="M84.5043 3.54423C78.3203 5.43147 72.9261 6.93356 68.3218 8.05049C68.3218 8.28158 68.3218 8.57044 68.3218 8.80153C67.137 9.55257 64.6518 10.7947 63.8427 10.0436C59.2769 11.488 54.5378 12.3834 50.1454 14.3477L49.3074 14.7232C44.7416 18.7673 36.5637 20.0961 32.1424 20.7893L31.7668 20.8471C31.3911 21.1648 30.8709 21.5404 30.4664 21.8292C32.1713 23.0424 36.1014 22.0892 35.8124 25.0067C38.3264 26.5088 40.5226 24.4001 42.8922 24.3134C42.8922 24.5445 42.9499 24.8334 42.9788 25.0356C42.6321 25.3533 42.1409 25.7867 41.7652 26.1044C43.0367 26.2199 44.2792 25.8155 45.5218 25.7866C45.5796 25.9889 45.6953 26.2777 45.753 26.4799C45.1751 26.9421 39.3379 28.4153 28.2413 30.8995C28.0101 30.9284 27.6923 30.9862 27.4322 31.0151C27.4033 30.784 27.3455 30.4951 27.3166 30.2929C27.856 29.8885 28.3762 29.5322 28.8771 29.2241C28.8771 29.2241 18.9941 31.9394 10.6428 35.0302C11.2785 35.1265 12.5115 35.1265 14.3417 35.0302C14.5728 35.0302 14.8908 35.0302 15.1219 35.0302C15.1219 35.2613 15.0641 35.5502 15.0352 35.7524C14.6018 36.0124 14.0238 36.3012 13.5904 36.5034C13.5904 36.7345 13.5326 37.0234 13.5037 37.2545C13.6963 37.3893 17.636 37.0427 25.3227 36.2146C32.7493 33.2393 34.1074 32.7193 36.3036 32.8927C36.4481 33.066 36.6215 33.326 36.766 33.4993C36.7082 33.557 31.0443 40.2587 23.5021 40.5764H23.1554C19.601 43.0606 14.5151 41.3563 11.3364 44.8805C9.51587 46.5848 0.384318 49.9355 0.297626 49.9644C0.35542 50.1666 0.442073 50.4555 0.528765 50.6577C1.28009 50.7733 2.06032 50.7733 2.78275 51.0043C2.58047 51.9287 2.55162 52.0154 0.210938 53.3441C1.22234 53.8352 1.56914 54.9329 2.32047 55.655C5.49917 55.2506 7.95542 52.5064 11.3364 52.7664C11.6639 53.2671 10.3538 55.1447 7.40633 58.3992C12.8968 57.5326 18.1272 55.5395 23.5888 54.4996C23.7044 54.6729 23.8778 54.9329 23.9934 55.1062C26.2474 55.424 28.0968 54.0952 30.1774 53.6908C30.3219 53.8641 30.5242 54.0663 30.6687 54.2396C30.0329 54.721 28.9734 55.3373 27.49 56.0883C19.312 60.3346 11.2208 64.7831 2.95621 68.856C3.59195 68.7405 4.20838 68.6539 4.80559 68.5961H5.03682C11.6543 66.0541 17.9538 62.7899 24.8314 60.9412C30.6397 56.5505 37.8063 55.3084 44.2793 52.5064C43.5279 52.3042 42.7477 52.2754 42.0253 52.0154C42.1987 51.7843 68.3218 37.1389 72.3385 40.6053C70.6913 42.6562 67.9461 42.4251 67.9172 42.4251C66.7035 42.3096 63.6115 43.725 58.6412 46.6714C58.8724 46.7003 59.1614 46.7581 59.3926 46.8158C59.4792 47.018 59.5948 47.278 59.6815 47.4802C59.1035 47.9039 58.3715 48.2987 57.4853 48.6646C57.6298 48.6357 74.448 43.2917 74.9104 42.974C74.7659 42.8006 74.5636 42.5985 74.4191 42.4251C74.5058 41.5586 74.5925 40.9231 77.1644 40.1431C79.4183 38.901 80.343 38.381 82.3948 38.9299C83.2809 38.7758 84.0323 38.7084 84.6487 38.7277C84.7932 38.901 84.9955 39.1321 85.1399 39.3343C86.9894 38.8432 87.2784 38.901 88.1453 39.0743C88.3957 39.4787 89.9466 39.5076 92.7978 39.161C93.106 39.8542 94.2426 40.1528 96.2076 40.0565C104.048 39.5943 108.614 39.3825 109.905 39.421C112.419 39.1032 114.442 36.4746 117.303 37.89C117.447 37.7167 117.62 37.5145 117.765 37.3412C115.973 36.5901 114.471 37.8322 112.824 38.0055C110.801 38.5255 109.366 38.6507 108.518 38.3811L108.229 38.2655C119.008 26.9999 133.398 11.979 144.177 0.713379C129.151 1.11779 114.268 3.31314 99.2707 4.12196C98.8373 4.20862 98.2304 4.2375 97.797 4.20861C97.8836 4.00641 97.9992 3.71754 98.057 3.51534C97.6525 3.24573 95.5237 3.50571 91.6707 4.29527C90.7653 4.44933 90.0332 4.42045 89.4745 4.20861C89.4745 4.20861 89.5902 3.86198 89.6191 3.71755C84.9666 5.94179 84.0708 5.10409 83.724 4.78634C84.2634 4.34342 84.9473 3.9679 85.7757 3.65978C85.4 3.57312 84.851 3.48645 84.4754 3.51534" fill="#C5C5C5"/>
</svg>
