<svg width="19" height="12" viewBox="0 0 19 12" fill="none" xmlns="http://www.w3.org/2000/svg">
<path d="M7.51496 0.112389C6.87922 0.285706 6.27235 0.285703 5.31874 0.199044C3.39226 -0.0127888 1.70658 0.22793 0.261719 0.9212C0.589221 1.24858 0.772244 1.45078 0.810774 1.52781C3.84499 2.27885 4.36519 3.72317 3.75835 4.12758C3.38269 4.38755 2.71796 4.32977 2.40009 4.30089C2.2845 4.30089 2.11125 4.27201 1.99566 4.24312C2.68919 5.51412 4.36517 5.7452 5.00091 7.07396C5.19356 7.47837 5.0202 8.25832 4.48078 9.41377C5.75226 10.367 5.83891 10.4537 6.24347 11.2625C6.27237 11.2625 10.896 11.7824 12.9477 10.1937C14.5081 9.00935 15.7219 9.03824 17.7158 9.58708C18.1781 9.70262 18.2647 9.70262 18.4959 9.58708C17.5423 8.63383 16.4442 7.8539 15.5772 6.814C14.8259 5.91853 14.4504 4.76307 13.5256 3.98314C11.734 2.45216 7.48603 0.0834961 7.48603 0.0834961" fill="#C5C5C5"/>
</svg>
