<svg width="39" height="27" viewBox="0 0 39 27" fill="none" xmlns="http://www.w3.org/2000/svg">
<path d="M19.1754 0.728661L18.5398 0.930864L17.4417 0.873101L17.9039 2.72182L14.8987 5.14825C14.6964 5.61044 14.4075 6.18817 14.2052 6.65035C16.6614 7.28585 18.193 9.13457 18.3085 9.94338C18.3663 10.2611 17.037 16.125 15.7077 16.7894C15.1009 17.1072 7.06745 18.2626 0.363281 19.187C2.70396 21.469 5.07354 23.751 7.41422 26.033C10.4773 25.2242 13.6272 25.773 16.7192 25.4842H16.8926C16.1702 22.4222 19.869 22.6244 23.7702 22.8267C23.828 22.8267 23.9145 22.8267 24.0012 22.8267C25.8121 20.9394 27.5171 19.938 29.1161 19.8225C29.2895 19.8225 29.4918 19.8225 29.6651 19.7936C29.4629 19.1292 28.8271 16.8472 29.8674 15.634C31.11 14.1897 33.075 14.854 34.5488 14.0741C35.0978 11.821 37.6119 11.4455 38.6811 9.71229C38.0742 9.59674 36.1671 9.19234 32.5838 6.1304C32.3141 5.89931 31.948 5.74524 31.4857 5.66821C26.8332 4.91717 25.8507 4.74387 23.8857 3.99282C23.5678 3.87728 23.1344 3.70396 22.8165 3.55952C21.3139 2.86625 20.2735 2.05744 19.1465 0.670898" fill="#C5C5C5"/>
</svg>
