<svg width="29" height="8" viewBox="0 0 29 8" fill="none" xmlns="http://www.w3.org/2000/svg">
<path d="M9.44954 0.346436C9.44954 0.346436 5.20155 1.73298 0.144531 2.3107L0.375759 2.48402C1.18488 3.11952 1.30054 4.33274 2.25415 4.85269C7.7061 6.7977 10.644 7.26952 11.0678 6.26813L11.2701 5.74817C13.7552 5.77706 16.2982 5.95037 18.1187 6.84584C18.8123 7.19248 19.997 7.07694 20.6328 6.99028L21.8753 6.75919C22.1643 6.81696 24.6205 6.58588 25.603 6.26813C26.7589 5.92149 27.6837 5.08379 28.8107 4.65049C27.4237 3.49504 25.2274 4.88158 24.0426 3.14841C24.0137 3.03286 23.9847 2.88843 23.9558 2.80177C23.7247 2.80177 23.4646 2.80178 22.8867 2.71512C22.6844 2.71512 22.4244 2.65734 22.2221 2.62845C21.4708 3.43727 19.9392 3.20618 19.6502 3.14841C18.2053 2.85954 17.1651 1.7041 15.7491 1.35746C14.5065 1.03971 13.3217 0.635306 12.0791 0.433102C11.3567 0.317557 10.6632 0.548647 9.94075 0.433102L9.47847 0.375328" fill="#C5C5C5"/>
</svg>
