<svg width="52" height="49" viewBox="0 0 52 49" fill="none" xmlns="http://www.w3.org/2000/svg">
<path d="M14.7971 0.368652C13.2656 0.77306 12.0808 2.1885 10.2891 1.78409C8.642 1.46635 6.93712 1.78408 5.28997 1.3219C5.14549 1.29302 4.94308 1.23524 4.79859 1.17746C3.58491 2.13071 0.955357 1.03305 0.92646 1.03305C0.810871 1.1197 0.66637 1.20635 0.550781 1.29301C2.83366 2.67955 4.48072 4.93268 6.96589 6.03036C9.27767 7.04137 11.9651 5.85704 14.1902 7.27247C14.248 7.30135 20.0275 11.3165 17.5424 12.1254C17.4268 12.1639 16.5888 12.2313 15.0283 12.3276C16.8778 13.4541 19.0739 13.7141 20.9233 14.8407C24.94 17.3249 28.3499 20.6757 32.4244 23.131C32.9445 23.4488 33.7537 23.8243 35.2275 24.4309C36.3834 24.922 37.4814 25.3553 38.5506 26.5974C38.6951 26.7707 38.8685 26.9729 38.9841 27.1462C39.8799 28.4461 39.9955 30.0637 40.7757 31.3925C41.7293 32.9524 43.0007 33.9056 43.6076 34.3678C44.7635 35.2344 45.0525 35.8121 45.0814 36.1299C45.1392 36.7076 44.8791 36.9964 44.5323 37.3142L40.0533 40.7228C39.4464 40.8383 38.4351 40.7805 37.048 40.5206C40.0245 42.7737 39.3308 43.4381 38.2038 43.5825C37.8859 43.6114 37.1347 43.7269 34.1583 43.0048C33.7923 42.9085 32.829 43.13 31.2686 43.6692C33.3492 44.5069 34.1294 45.1135 33.0602 46.3556C32.7712 46.7022 32.0777 47.4822 33.4648 48.4065C34.7074 47.3377 36.6435 46.6156 37.626 46.4134C37.4526 45.8067 37.2791 45.2001 38.7529 45.1712C38.4928 43.5536 38.8685 42.8892 41.816 43.3225C43.781 43.6114 44.359 43.7269 48.4336 42.2249C57.3339 38.9607 40.4867 26.1352 40.2267 26.0485C30.3438 22.5533 17.3111 13.3386 22.3393 10.7966C22.8016 10.5655 23.2928 10.3922 23.7263 10.1611C23.3217 8.63012 23.264 8.42793 23.842 8.05241C25.1134 7.15693 26.7606 7.99462 28.0321 7.07026C26.1538 5.91481 23.8997 5.51041 22.0214 4.32608C20.7788 3.54615 20.8656 3.11285 20.9812 2.56401C20.0276 1.29302 18.5827 1.9574 17.3979 1.61076C16.4443 1.3219 15.7217 0.570862 14.7103 0.397545" fill="#C5C5C5"/>
</svg>
