<svg width="15" height="9" viewBox="0 0 15 9" fill="none" xmlns="http://www.w3.org/2000/svg">
<path d="M10.1798 0.249512C8.82168 0.307284 7.52126 0.798342 6.16309 0.827228H5.46958C5.15171 0.769455 4.68934 0.711696 4.37147 0.68281C3.96691 1.31831 3.0711 1.89602 0.585938 3.10924C1.0194 3.8314 1.33725 4.64023 1.8285 5.3335C2.14637 5.76679 2.49315 6.17121 2.92661 6.48895C4.1114 7.38443 6.48102 8.22213 8.21486 8.85763C8.67721 8.49173 9.65978 8.01991 11.1624 7.44218C11.856 7.18221 13.1851 6.66227 13.4163 6.48895C13.5608 6.40229 14.1099 5.36239 14.1388 5.24684C14.1388 5.16018 14.0232 5.04463 13.9654 4.98686C13.792 4.81354 13.503 4.4669 13.3585 3.91806C13.2429 3.54254 13.3875 3.13815 13.2719 2.76262C13.243 2.67597 13.1852 2.56041 13.1274 2.50264C12.4339 1.63605 10.5555 0.336177 10.1798 0.278404" fill="#C5C5C5"/>
</svg>
