<svg width="18" height="16" viewBox="0 0 18 16" fill="none" xmlns="http://www.w3.org/2000/svg">
<path d="M13.0984 0.188965C12.2893 1.60439 11.0467 2.0666 7.78134 3.3376C7.83913 3.42426 7.83914 3.48201 8.2437 3.77088C8.56157 3.85754 8.70609 3.88643 9.71749 3.59757C11.0757 3.19316 12.4916 2.87541 13.7052 3.27982C15.2368 3.82865 15.3235 4.98411 13.9075 5.76404C12.8094 6.37065 11.5669 6.48621 10.411 6.86173C13.3874 10.848 7.00114 10.7613 6.91445 10.7613C6.3943 10.6747 6.13423 10.4725 6.01864 10.3859L5.1806 11.0213C3.59125 11.1369 3.09995 11.1658 1.25053 10.097C1.36612 10.588 1.07715 11.0213 0.441406 11.3968C1.74178 11.4835 2.95546 11.6857 3.50451 13.0434C4.08245 12.2346 4.77604 11.8012 5.90303 11.5702L6.33647 11.5124C7.49236 11.4258 8.59048 11.5991 8.79276 13.1589C8.96614 14.6032 9.39962 14.9499 10.4399 15.2099C10.8156 14.2855 12.8673 12.8412 15.2946 13.5344C15.1791 11.7146 15.8147 8.45045 17.8665 0.651156C15.5547 0.795587 14.1965 0.766718 13.0984 0.217879" fill="#C5C5C5"/>
</svg>
