<svg width="282" height="107" viewBox="0 0 282 107" fill="none" xmlns="http://www.w3.org/2000/svg">
<path opacity="0.4" d="M211.299 1.03319C210.933 1.01393 209.18 0.946534 206.04 0.830989C204.364 0.599899 202.958 0.609534 201.821 0.859881C204.171 3.36336 205.375 4.87507 205.433 5.39502C204.451 5.82832 202.399 6.69491 202.659 11.4034C196.504 13.0788 195.984 13.2232 191.129 11.3456L190.262 14.552L190.984 16.314H190.262L189.973 16.3718L190.378 16.6318C192.978 17.4117 195.752 17.0939 198.324 17.9316C203.728 15.303 214.102 23.3334 214.189 23.4489C212.513 24.6044 212.34 24.7199 208.178 23.6222C197.978 22.9001 188.268 27.753 177.981 26.1065C177.923 26.5109 177.836 27.0886 177.749 27.493C178.501 28.0419 179.455 28.8795 180.061 29.6017C179.888 30.035 179.686 30.6127 179.512 31.0171C161.885 35.4945 161.538 35.5812 148.766 34.6857C147.292 34.3679 146.02 33.3858 144.489 33.1836C143.005 33.1258 140.511 32.6059 137.004 31.6237L104.206 26.8575L72.4768 14.1764C72.5924 12.4625 72.5249 11.0278 72.2745 9.87238C65.9171 6.75266 58.3749 6.0594 53.1734 0.628786C52.6244 0.542127 51.9019 0.455466 51.3529 0.311035C51.1217 1.11985 50.5727 2.15976 49.9948 2.79525C49.099 2.85303 47.8852 3.08411 47.0183 3.37297C47.2495 4.18179 47.9142 5.1928 48.5789 5.74164C48.4344 6.17494 48.232 6.78155 48.0875 7.21485C43.3772 8.45696 37.1932 6.63713 36.4996 6.43493C36.1529 7.85036 35.7194 9.26577 35.4305 10.7101C36.0373 11.23 36.5576 12.2699 36.6153 13.0788C33.3789 13.281 30.1712 12.7321 26.9636 12.5877C26.9636 13.5506 28.2832 15.486 30.9225 18.3938C30.5468 19.1449 29.8245 20.0404 29.1887 20.5892C29.391 20.9936 29.651 21.5424 29.8533 21.9468C29.6221 22.2357 29.3044 22.6112 29.0732 22.9001C25.1143 23.6222 21.6175 26.3376 17.3407 25.8176C13.902 25.3843 10.7234 28.0418 7.19796 26.5975C6.33104 26.5975 5.14622 26.6553 4.2793 26.7709H4.22145C2.45872 27.6086 2.42981 27.6085 0.956048 27.6374C0.811561 28.0996 0.753816 28.764 0.464844 29.1395C1.01389 29.9195 12.1393 39.6541 21.9066 43.0049L24.7963 43.0627C26.9347 42.8605 28.9864 42.1094 31.1537 42.1961C35.6328 43.1494 38.5514 44.6226 39.8518 46.529C37.6267 49.7354 36.442 49.9087 34.6214 50.1398C35.4883 51.8152 37.569 52.5663 38.0891 54.5017C36.8465 55.0794 35.864 55.5416 33.7256 54.7905C37.8868 58.5168 43.3772 59.8456 48.0875 62.5609C60.0509 59.0657 67.7954 69.8691 78.2562 71.5157C80.6258 71.7756 82.9087 72.5267 85.2782 72.7867L86.4053 72.8733C88.9482 71.6601 89.5261 72.0645 91.7512 73.5955C93.5428 72.7674 96.6156 72.7674 100.969 73.5955C104.408 73.6532 107.703 72.4689 111.112 72.3534C114.041 71.4675 120.417 72.3052 130.242 74.8665C137.438 73.3066 142.928 83.7634 142.957 83.879C141.917 85.5255 140.096 86.6521 139.807 88.7608C147.899 93.0167 151.925 95.4142 151.887 95.9534C153.042 97.34 155.152 97.4555 156.134 99.0732L156.308 99.3331C159.93 99.5064 162.174 99.882 163.041 100.46C162.405 99.8531 161.712 98.8709 161.336 98.091C161.596 97.7444 161.943 97.2822 162.203 96.9356C162.376 96.9356 162.607 96.9356 162.81 96.9356L163.59 97.0511C165.295 96.9644 166.971 96.3289 168.705 96.7334C169.822 96.5215 171.537 96.666 173.848 97.1666C176.796 96.82 179.512 94.5958 182.691 96.1267C185.321 97.6288 190.724 96.0401 190.782 100.344C192.718 101.673 195.001 102.193 197.111 103.117L197.775 103.175C200.289 102.424 201.445 102.077 203.988 103.839C206.791 103.291 207.398 103.262 209.45 105.197C209.421 105.63 209.363 106.208 209.334 106.641C209.45 106.584 223.234 101.702 229.707 102.944C232.221 102.482 233.117 102.395 239.07 102.828C242.624 101.153 245.543 98.4088 249.357 97.2533L249.935 97.1378C250.378 96.5215 250.696 95.2698 250.888 93.3826C250.542 93.1226 250.022 92.8337 249.704 92.516L249.299 92.0538C250.542 91.3027 252.016 91.1583 253.374 90.6961C253.721 88.9052 253.836 88.2986 256.263 87.5475C256.003 86.1032 255.657 84.6878 255.454 83.2435C254.963 83.0124 254.298 82.6946 253.807 82.4347C251.929 82.4347 251.495 82.4347 249.386 81.3081C249.53 80.9037 249.733 80.3548 249.877 79.9215C250.715 79.7771 251.842 79.5172 252.651 79.2861C249.848 77.2929 246.063 77.1774 243.549 74.6065C245.629 73.971 245.716 73.9421 250.571 75.4731C247.007 73.6436 244.994 72.3534 244.531 71.6023C241.121 69.2625 232.25 62.8498 232.25 62.8498C233.146 61.781 234.562 61.3188 235.284 60.0478C235.486 60.0478 235.775 60.0478 236.006 60.0189L236.527 60.1056C237.885 58.8346 238.058 58.6902 239.59 58.719C240.726 58.488 242.277 58.3724 244.242 58.3724C243.414 57.7562 240.611 56.8703 235.833 55.7149C229.505 60.1056 226.557 55.4838 225.777 53.9528C220.305 52.4892 217.31 51.0257 216.79 49.5621C217.021 49.1866 217.339 48.6666 217.57 48.2911C217.83 48.2333 218.206 48.1756 218.495 48.1467C219.968 48.32 221.413 48.6089 222.887 48.7533C223.667 47.0201 235.949 44.0737 238.665 46.6735C238.405 48.06 237.278 49.071 237.018 50.4576C237.393 50.6598 237.885 50.9486 238.231 51.1797C243.491 49.3599 261.58 45.4025 263.401 45.6625C263.546 45.2581 263.777 44.7092 263.921 44.3048C264.383 44.3048 264.99 44.3048 265.453 44.3048C266.204 43.9004 267.273 43.496 268.082 43.236C268.14 42.8027 268.256 42.225 268.314 41.7917C269.469 41.4258 271.309 41.7339 273.833 42.7161C274.353 42.7449 275.047 42.7738 275.567 42.8894C274.122 40.4052 271.319 38.7298 270.885 35.5812C271.174 35.5234 271.55 35.4656 271.81 35.4078C272.773 34.9071 274.96 34.9842 278.37 35.6389C279.352 34.6279 279.815 33.2414 280.971 32.3748C280.971 32.3459 280.971 32.2881 280.971 32.2592C280.248 29.6017 280.422 29.4284 281.144 28.6484C280.951 28.4751 280.258 27.7626 279.063 26.5109C267.967 26.1835 261.378 24.7295 259.298 22.149C256.581 21.4269 254.125 20.0692 251.351 19.4626H251.178C237.769 16.5162 229.418 3.34409 215.374 1.6398C213.987 1.49537 212.629 1.14873 211.241 1.0043" fill="#FF6858"/>
</svg>
