<svg width="52" height="38" viewBox="0 0 52 38" fill="none" xmlns="http://www.w3.org/2000/svg">
<path d="M30.1806 0.499512C28.8514 0.528398 27.6087 1.04834 26.2794 1.01945C25.6244 1.0002 24.2566 1.36609 22.176 2.11713C22.176 2.81041 23.043 3.33036 22.5806 4.11029C22.5806 4.11029 22.2916 4.60136 20.7312 4.57247C20.5867 4.57247 20.4134 4.57247 20.2689 4.57247C20.0666 5.75681 18.246 6.68116 16.2521 5.52571L16.0787 5.43906C15.3563 5.46794 14.9805 5.49683 13.6224 5.20796C13.4779 5.20796 13.3046 5.15019 13.1601 5.12131C11.0217 4.83245 8.85443 5.32351 6.68714 5.00576C4.51985 4.68801 2.87264 2.14603 0.300781 3.53257C3.88404 4.86133 7.81409 5.00577 11.3396 6.68117C12.4954 7.23001 11.9175 8.38546 12.2354 9.25204C13.3624 9.65645 13.3913 9.88754 13.5647 11.2163C16.5989 12.8628 14.9806 13.845 14.4316 14.1338C14.5472 14.2494 14.7206 14.3938 14.8362 14.4516C15.7898 14.9426 16.5989 15.7515 17.697 16.0114C20.2399 16.618 20.4999 16.6758 21.1934 17.0224C22.0315 17.4846 22.1472 18.0912 22.2339 18.4668C22.4651 19.5355 22.5229 19.7377 22.0605 20.0555L21.5691 20.2577C20.9045 20.2577 20.3266 19.7377 19.6331 20.0555C18.8528 20.431 18.7373 21.3843 18.0727 21.8465C16.6567 22.8575 14.865 22.7708 13.3045 23.3774L9.54794 24.8506C9.54794 25.3995 9.54797 26.3527 5.96471 26.3238C5.79132 26.3238 5.53119 26.3238 5.3578 26.3238C4.76059 27.0941 4.25965 27.5563 3.85509 27.7104C4.08627 28.5481 5.38679 28.6925 5.2712 29.7902V30.079C6.50415 31.2152 6.56194 32.7943 5.44458 34.8164C5.96473 35.2208 8.88321 35.8274 8.91211 35.8274C10.1836 35.8274 10.9061 36.1451 11.5419 36.5207C11.5419 36.5207 16.0498 37.3295 17.119 37.3584L36.1624 35.8852C37.0871 35.6541 37.6072 34.7875 38.4741 34.412C40.1791 33.6898 42.0285 33.3721 43.7335 32.6499C43.7623 32.6499 50.582 29.2991 51.0154 29.068C51.3911 28.8658 51.4201 28.7214 51.4779 28.4036C50.5532 27.3637 48.0969 26.6416 46.9121 26.2949C38.9653 23.9263 45.7562 23.4063 45.814 23.4063C44.9759 22.8286 43.82 22.8575 43.0398 22.1642C42.5196 21.702 42.9243 21.3265 43.1555 21.0954C39.919 20.3732 41.1615 19.6222 41.306 19.5355C41.4505 19.4778 41.624 19.42 41.7685 19.3622C39.3411 17.5135 41.5372 16.9647 42.5775 16.8202C42.5775 16.8202 42.6354 16.8202 42.6643 16.8202C42.0574 16.3003 40.6413 15.2604 37.4915 13.2095C37.0292 12.8917 36.4513 12.4873 37.1448 11.7651C38.1273 10.7541 39.6299 10.6964 40.6991 9.85865C39.8033 9.3387 38.4163 8.81875 37.7517 8.58766C31.7989 7.54776 33.0991 5.72792 33.128 5.72792C33.7638 5.17908 33.9661 4.13918 35.0064 4.05252H35.1798C35.4977 3.59034 35.5554 3.53256 36.0467 3.18592C36.0178 2.89706 35.9889 2.63709 35.9312 2.34823C35.9023 2.34823 30.4407 0.586167 30.1806 0.586167" fill="#C5C5C5"/>
</svg>
