<svg width="20" height="13" viewBox="0 0 20 13" fill="none" xmlns="http://www.w3.org/2000/svg">
<path d="M4.75829 0.302734C3.45791 0.504938 2.1574 0.707155 0.828125 0.880473C1.43497 1.92038 2.99555 1.77595 3.4868 2.96029C4.26703 4.89567 5.27841 7.26432 4.00693 8.65086L3.42895 9.0264C3.13998 9.0264 2.84138 9.11304 2.53314 9.28636C3.63124 9.89297 4.58483 10.7307 5.76962 11.2218L10.6243 12.6949C10.6243 12.6949 10.8267 12.6949 10.8845 12.6949C14.0921 12.4061 16.057 12.2617 18.1376 12.1172C18.1953 11.2506 18.2532 10.7596 19.6692 10.2974C18.8023 9.60411 17.5309 9.45968 17.0396 8.27535C16.8951 7.9576 16.7217 7.1199 18.1088 6.54218C17.7042 6.00297 16.2594 5.60818 13.7742 5.35783C12.3005 5.2134 11.26 5.12674 11.4623 3.71131C11.4623 3.65354 11.4623 3.5669 11.4623 3.48024C11.1155 3.42247 10.3354 3.30692 9.72853 2.93139C9.26617 2.61365 9.2083 2.00703 8.74595 1.68928C8.28359 1.40042 7.79242 1.16932 7.38786 0.822688C7.35896 0.793802 7.3012 0.736026 7.24341 0.70714C6.37649 0.620481 5.56735 0.331621 4.70044 0.302734" fill="#C5C5C5"/>
</svg>
