<svg width="30" height="8" viewBox="0 0 30 8" fill="none" xmlns="http://www.w3.org/2000/svg">
<path d="M19.8033 0.725586C18.185 0.870017 16.2489 1.56327 13.5325 2.92093C7.05955 6.15619 1.13561 3.06536 1.07782 3.03647C0.75995 3.6142 0.644396 4.30748 0.210938 4.82743C1.54021 5.28961 2.98503 5.17405 4.3143 5.60735C5.21011 5.89621 5.90372 6.61837 6.82843 6.87835C7.03072 6.93612 7.31963 6.96501 7.5797 6.96501C8.7067 7.02278 9.37133 7.19611 9.92037 7.94715C10.4116 8.20713 11.9143 7.28276 11.9432 7.28276C11.3364 6.87835 10.036 6.06953 11.2497 5.11629C11.3653 5.02963 11.5676 4.85632 12.0299 4.65412L18.9652 1.64995C24.08 0.523381 26.9698 2.05435 26.0162 3.58532C25.6694 4.16304 24.9759 4.56745 24.6002 4.79854C24.6002 5.0874 24.7158 5.43403 26.3052 6.44505C28.3569 5.31849 29.2527 4.8563 29.8884 4.56744C29.8884 4.50967 29.8884 4.4519 29.8884 4.39413C29.2527 3.96084 28.8481 3.52755 28.0101 2.5743C26.1318 0.465608 19.8611 0.754456 19.8033 0.754456" fill="#C5C5C5"/>
</svg>
