<svg width="19" height="7" viewBox="0 0 19 7" fill="none" xmlns="http://www.w3.org/2000/svg">
<path d="M0.49452 0.938478C0.49452 0.938478 0.407804 0.938478 0.378906 0.938478C0.725673 1.1118 1.01473 1.314 0.552371 1.86284C0.66796 1.89172 0.754631 1.92061 1.0725 1.86284L1.36149 1.80505L1.65039 1.74729C2.17054 1.68952 2.57514 1.66062 3.03749 1.89171C3.49985 2.09391 3.58658 2.81607 4.25122 2.81607C5.14703 2.81607 5.46487 3.07606 5.84053 3.39381C6.50517 4.00042 7.45874 3.3938 8.15228 3.88487C8.55684 4.17373 8.49911 4.66479 8.75918 5.01143C10.4063 4.92477 11.3888 4.89588 10.8686 5.61804C10.8686 5.61804 11.8223 6.42685 12.198 6.42685C17.3995 6.22465 18.0352 5.7047 18.4686 5.32918L15.9835 4.72257C15.9835 4.72257 15.4923 4.63591 14.2786 4.60702C12.6025 4.57814 11.6489 4.52036 11.5911 3.88487C11.5044 2.98939 10.4063 1.51621 9.42376 1.25623C9.36597 1.25623 9.27928 1.25623 9.25039 1.25623C7.86332 1.19846 6.50514 1.66063 5.08917 1.63174C3.52872 1.63174 2.11279 0.67849 0.523445 0.880693" fill="#C5C5C5"/>
</svg>
