<svg width="13" height="10" viewBox="0 0 13 10" fill="none" xmlns="http://www.w3.org/2000/svg">
<path d="M10.9111 0.0529785C10.3909 0.0529785 9.52394 0.226298 9.40835 0.630706C9.26386 1.17954 8.85934 1.72839 6.92322 1.84393C7.47227 2.76829 5.65162 3.40379 4.26455 3.02827C3.88888 2.91273 3.59992 2.76829 3.36874 2.65275C2.55962 2.19057 2.53073 2.21945 2.29956 2.45054C2.29956 2.45054 1.02804 4.0104 0.999144 4.09706C0.883555 4.61701 1.11478 5.36805 1.40375 6.06132C1.48081 6.23464 1.53859 6.35018 1.57712 6.40796C1.95279 6.89902 2.5596 7.07234 2.99306 7.44786C3.71549 8.02559 3.59991 8.45889 3.54212 8.60332C3.45543 8.74775 3.39777 8.83441 3.68674 9.00772C3.80233 9.0655 3.97558 9.0366 4.09117 9.0366C4.43794 9.0366 5.59384 9.09438 6.63415 9.15215C5.70943 8.40111 6.51855 7.76561 7.52995 7.65007C8.02121 7.59229 8.54135 7.65007 9.14819 7.76561C7.93451 7.24566 8.10802 6.78348 8.19471 6.63905C8.2814 6.40796 9.75501 4.99253 10.3908 4.76144C10.9398 4.55924 11.6623 4.47258 12.2402 4.41481C12.2402 4.41481 12.2981 4.41481 12.327 4.41481C10.7858 3.85634 9.92848 3.43267 9.7551 3.14381C9.46613 2.68163 9.3795 1.78615 10.362 1.29509C10.9977 0.97734 10.9688 0.19741 10.8821 0.0529785" fill="#C5C5C5"/>
</svg>
