<svg width="8" height="9" viewBox="0 0 8 9" fill="none" xmlns="http://www.w3.org/2000/svg">
<path d="M1.53868 0.608398C1.36529 0.695057 0.931905 0.955033 0.527344 1.53276C1.07639 1.70608 2.49227 2.19715 2.60786 2.91931C2.69455 3.49703 2.05879 3.90143 1.68313 4.10363C1.56754 4.16141 1.24975 4.30583 1.04747 4.91244C0.845192 5.46128 0.816196 6.29898 1.30745 6.96337C1.45194 7.16557 1.56768 7.22336 1.82776 7.3389C2.69467 7.71442 3.38822 8.34991 3.82167 8.72543C3.87947 8.7832 3.96601 8.86986 4.0238 8.92763C4.39946 8.49434 4.83295 8.23437 5.49759 8.11882C5.81546 7.13669 6.85574 6.93449 7.46258 6.2701C4.94852 5.2302 3.5904 4.47915 4.63071 1.61941C2.20334 0.752825 1.56757 0.637291 1.53868 0.637291" fill="#C5C5C5"/>
</svg>
