<svg width="202" height="51" viewBox="0 0 202 51" fill="none" xmlns="http://www.w3.org/2000/svg">
<path d="M78.5913 30.3908C78.5913 30.3908 72.5518 29.8131 70.7024 28.3976L70.3267 27.9355C70.8468 27.3866 71.2803 26.9244 75.9617 27.7044C77.6955 27.9932 80.5852 28.6287 80.6141 29.6686C80.6141 29.9286 80.4407 30.5063 78.6202 30.3908M159.533 32.8172C162.711 33.0194 165.89 32.4995 169.069 32.9906C170.311 33.1928 171.265 33.9438 170.629 34.5215C170.196 34.9259 169.155 35.0992 168.751 35.1859C168.202 35.2725 166.93 35.417 164.821 35.3014C161.787 35.0992 158.781 34.5793 155.747 34.3771C147.511 33.8282 147.367 35.9658 148.031 37.2657C148.552 38.3345 147.743 38.4789 146.962 38.5367H146.731C143.263 38.2767 141.298 34.2326 142.714 32.9328C143.812 31.9217 147.656 31.8062 148.812 31.8062C152.395 31.7773 155.92 32.5573 159.504 32.7883M109.194 0.435738C96.1609 0.117989 83.3882 3.95986 70.2978 2.86218C71.367 5.51972 74.4013 4.19095 76.0195 5.72192L76.3374 6.09744C75.6246 6.52111 73.7849 6.71368 70.8181 6.67517C70.7314 7.28178 70.6734 8.11947 70.6734 8.75497C69.8065 9.17864 68.9011 9.47713 67.9571 9.65045C72.9852 10.9214 75.5475 12.385 75.6439 14.0412C73.3321 15.2255 70.5001 14.6478 68.5351 13.9545L68.0439 13.7812C67.6682 14.3878 66.8013 15.7743 64.2583 14.2145C60.1838 12.9435 55.7625 13.8967 51.7458 12.2791L51.4279 12.1347C42.5854 11.9999 36.6422 11.3933 33.5984 10.3148C31.1999 9.56379 25.5648 8.43723 25.5359 8.43723C24.0044 9.33271 23.5131 9.53491 21.2303 8.78386C20.4019 8.72609 19.4964 8.81275 18.5139 9.04384C15.9517 9.73711 14.1311 10.1126 13.0523 10.1704H12.8212C12.1566 10.9503 11.0584 11.1814 10.3938 11.9902C10.7984 12.4524 11.1162 13.2612 11.0873 13.8678C9.64243 14.5033 7.30178 13.9834 4.06528 12.308C2.94792 13.2131 1.90757 13.9449 0.944329 14.5033C1.55117 14.7055 2.36042 15.1099 2.88057 15.5144C2.33152 16.4965 0.944378 16.4965 0.453125 17.5653C1.76313 17.8156 2.83229 18.2008 3.66068 18.7207C3.71847 19.0096 3.80519 19.414 3.86298 19.7317C4.20975 19.7703 5.14418 19.8377 6.66611 19.934C7.44633 19.9917 9.81587 20.165 14.2083 23.7758C14.1505 24.0936 14.0927 24.498 14.0349 24.7868C13.9193 24.8446 13.7458 24.9024 13.6013 24.9602C14.1215 25.1046 14.8151 25.3068 15.3064 25.4801C17.9842 24.3054 22.7233 23.8914 29.5238 24.238C33.2033 24.3728 36.0256 26.3178 37.9906 30.073C37.2104 31.1418 36.8927 31.5462 31.7778 31.0263C29.8128 30.9396 29.0903 30.9396 27.1831 31.2863C27.5877 31.7773 28.0789 32.4995 28.4257 33.0772C27.9922 33.4816 27.212 33.7994 26.634 33.8283C26.7689 33.9245 27.7033 35.0222 29.4372 37.1213C30.882 37.2368 31.9801 38.3634 33.425 38.4501C37.4128 38.6811 37.7018 39.2011 38.3086 40.3565C38.1064 40.6165 37.8462 40.9343 37.6728 41.1942C37.7306 41.5409 37.7018 42.0319 37.904 42.3208C37.8751 42.0319 37.8174 41.6275 37.7596 41.3098C43.8569 36.7169 48.3069 43.5629 53.6818 44.1406H53.8552L50.821 31.6618L63.5937 30.4197C64.6918 29.4953 73.2164 28.7443 73.7655 30.8818C78.129 32.6439 80.5563 37.2079 85.0931 38.6811C89.8901 40.241 94.7738 38.9989 99.5996 39.2878C102.403 39.4611 102.547 39.4611 107.489 41.772C110.378 43.1296 110.581 47.5781 114.453 47.8381C116.505 47.9536 120.839 48.5891 122.515 50.0623C124.336 47.2315 130 47.4048 130.057 47.4048C131.945 45.0361 136.848 44.3814 144.766 45.4405C144.853 45.1228 144.997 44.6895 145.084 44.3717C145.777 43.9962 147.598 43.043 151.326 43.9096C160.226 46.7115 169.618 46.5382 178.662 48.4447H179.096L179.558 48.5313C179.732 47.4914 180.541 46.7982 180.917 45.8738C179.009 44.2851 177.709 42.0897 175.628 40.7032C175.802 40.4143 176.004 40.0099 176.177 39.6922C178.431 39.0759 182.024 39.0952 186.956 39.7499C184.153 37.8145 187.447 32.9617 187.505 32.9328C191.464 32.8461 195.192 35.4748 199.295 33.9438C195.625 30.9974 197.908 29.7264 199.584 29.5531C199.931 29.5242 200.364 29.5531 200.711 29.5531C200.971 28.9754 201.318 28.2243 201.578 27.6466C201.434 27.3 201.26 26.8089 201 26.5489C198.399 26.9533 196.319 26.6933 196.29 26.6933C191.117 25.7112 187.707 20.1073 181.755 21.1761C177.68 21.8982 167.248 20.2228 167.161 20.1939C164.041 19.3274 162.249 16.612 159.735 14.9077C158.54 14.1182 153.31 11.2873 144.044 6.41519C143.581 6.58851 136.415 8.61054 134.421 8.20614C130.78 9.41936 129.508 7.74396 129.306 6.55962C129.104 6.47296 128.844 6.3863 128.67 6.29964C127.832 6.44408 125.636 6.87737 124.336 5.28863C120.203 6.12633 118.845 5.28863 117.834 4.7109C117.834 4.39315 117.834 3.98874 117.834 3.69988C115.984 0.984569 115.898 0.89792 109.136 0.493512" fill="#C5C5C5"/>
</svg>
