<svg width="34" height="11" viewBox="0 0 34 11" fill="none" xmlns="http://www.w3.org/2000/svg">
<path d="M31.8386 0.935493C29.0259 2.22575 26.2229 2.77458 23.4295 2.58201C22.8226 2.61089 22.2158 2.72644 19.1527 3.76634C11.177 6.50091 6.82319 7.91634 6.09112 8.01263C4.35729 8.18595 2.47899 8.61924 0.427283 9.31251C0.513975 9.51472 0.542879 9.57248 0.253906 10.0058C2.33451 9.69766 3.44222 9.5436 3.57707 9.5436C3.71193 9.5436 4.80041 9.14882 6.84248 8.35926C7.88278 7.92597 8.5763 7.98374 8.72078 8.0704C9.26983 8.35926 8.57624 8.96587 8.74962 9.39917C8.74962 9.39917 9.87665 8.90809 12.1306 7.92596C13.1998 7.4349 14.3558 7.92596 15.425 7.52156C15.6561 7.4349 16.523 6.91495 17.2454 6.36611C20.8865 3.62192 23.834 3.79524 24.2097 4.05521C24.2964 4.9218 22.2447 6.19279 23.2561 6.01947L29.4979 4.05521L30.8561 3.01531C30.7983 2.6109 30.7116 1.9754 33.4858 1.31102C32.9078 1.25324 32.4165 0.877725 31.8386 0.906611" fill="#C5C5C5"/>
</svg>
