<svg width="27" height="19" viewBox="0 0 27 19" fill="none" xmlns="http://www.w3.org/2000/svg">
<path d="M0.242188 0.050293C1.74485 1.87013 2.32266 4.32547 4.0854 5.97198C10.1538 11.5759 13.7949 13.2224 15.1531 13.829C17.5805 14.9267 22.6085 17.2087 26.6542 18.5086C24.8336 16.7177 22.3485 15.7644 20.7013 13.8002C19.7477 12.6447 19.4877 11.4315 19.1699 9.58277C18.7075 6.80969 18.563 6.75191 16.2512 5.76978C14.5174 5.01874 13.7949 4.49879 13.1881 3.80551C12.5813 3.14113 11.6566 3.11224 10.9053 2.73672C10.8764 2.73672 10.8185 2.76561 10.7896 2.7945C10.1538 4.20993 3.88312 2.7945 3.36296 1.63905C2.87171 0.541368 1.6869 0.281389 0.270937 0.0791854" fill="#C5C5C5"/>
</svg>
