<svg width="40" height="15" viewBox="0 0 40 15" fill="none" xmlns="http://www.w3.org/2000/svg">
<path d="M11.9502 0.708642C10.1586 1.07453 8.84843 1.21897 8.02005 1.14194L7.49992 1.08418C6.6041 1.63302 6.0551 2.70181 4.84142 2.73069C5.13039 4.17501 4.84147 4.175 0.015625 4.46386C1.80726 5.19565 2.85709 5.68672 3.16533 5.93707L5.39047 8.62349C5.65055 9.14344 5.67935 9.51895 4.92802 9.89447C4.1189 10.27 3.71446 10.7322 3.97454 11.8587C4.03233 11.8587 4.11904 11.9165 4.17684 11.9165C4.5814 11.6277 5.01479 11.3099 7.35547 11.4543L8.71355 11.541C8.71355 11.541 9.00257 11.541 9.11816 11.541C9.29154 11.2521 10.7654 10.944 13.5395 10.6166C14.4353 7.90132 18.1919 7.93021 18.3653 7.93021C18.7988 7.98798 19.7235 8.07463 20.3882 8.53681C20.5037 8.59459 20.6193 8.71014 20.706 8.7968C21.2261 9.28787 21.0528 10.2122 21.833 10.53C22.9504 11.0114 23.615 11.3773 23.8269 11.6276C24.6072 12.5231 23.8559 14.2274 23.8559 14.2274C24.4338 14.2852 24.8095 14.2274 26.5433 14.0252L27.3812 13.9097C31.0223 12.0609 32.5539 11.3099 35.2414 13.1008C37.0908 13.1586 38.7668 13.7075 39.3737 13.9097C37.8132 11.4254 35.5592 9.83671 32.6116 9.14345L31.8314 8.94124C31.369 8.24797 30.7333 7.3236 30.242 6.63033C28.0459 6.63033 26.2253 6.60144 25.185 6.48589C22.5265 6.2548 19.9257 5.446 17.2383 5.53266L8.4825 4.66607C8.4825 4.66607 8.16453 4.63719 8.02005 4.6083C6.4018 4.34833 5.70836 3.48172 6.48858 2.67291C6.48858 2.67291 7.73105 1.43079 10.1584 1.51745C10.5052 1.54634 10.881 1.57524 11.2278 1.60413C11.5167 1.19972 11.6612 0.997514 11.8634 0.650879" fill="#C5C5C5"/>
</svg>
