<svg width="8" height="5" viewBox="0 0 8 5" fill="none" xmlns="http://www.w3.org/2000/svg">
<path d="M6.41225 0.541016C5.97879 0.685447 5.57434 0.974304 5.08309 1.03208C4.64963 1.08985 4.15837 1.11873 3.08917 1.00318C2.07776 2.0142 1.47077 2.53416 1.124 2.76525C0.950614 2.88079 0.863993 2.93858 0.835096 3.02524C0.546123 3.54519 0.97954 4.26733 1.15292 4.52731C1.61528 4.52731 2.13549 4.46954 2.48226 4.32511C3.37808 3.97847 4.4472 4.06513 5.66089 4.52731L5.83427 4.38287C2.25101 3.57406 3.46482 2.53415 4.15835 2.12975C4.50512 1.92754 5.45875 1.43649 7.25038 1.14762C7.077 0.974307 6.78803 0.772106 6.35457 0.541016" fill="#C5C5C5"/>
</svg>
