<svg width="34" height="20" viewBox="0 0 34 20" fill="none" xmlns="http://www.w3.org/2000/svg">
<path d="M11.452 0.880859C10.8741 1.71856 9.86268 2.29629 8.41782 2.55627C7.26193 2.75847 6.04819 2.55625 5.47024 2.06518C4.63222 1.34303 3.93872 2.32517 3.1585 2.41183C2.89842 2.41183 2.63834 2.46961 2.60944 3.36508C3.62085 3.91392 4.51672 4.40499 4.11216 5.6471C6.8285 8.30463 3.90978 8.5935 2.92727 8.65127C2.78278 8.65127 2.60951 8.65127 2.49392 8.65127C2.86958 9.08456 3.0428 9.46007 2.86942 9.92225C2.55155 10.8466 0.788867 10.3844 0.933353 11.5688C1.07784 12.782 1.16464 13.3886 0.5 14.1974C7.78211 16.4506 7.31973 17.1149 5.35472 19.8591C5.5859 19.9458 5.73038 19.9747 10.5851 19.1947C19.6011 17.7504 24.2534 17.1149 31.2176 17.9526C30.553 16.335 28.328 15.6417 28.617 13.5042C28.617 13.4753 31.2466 9.46007 31.2755 9.43119C31.5067 9.11344 32.229 8.68015 32.4891 8.53572C32.6914 8.42018 32.9516 8.24685 33.1539 8.10242C33.0383 6.60034 32.576 4.00057 30.6687 3.24953C30.5243 3.19176 30.4952 3.19176 30.1774 3.13398C28.0101 2.87401 26.1028 4.02947 24.0222 4.20278C21.4793 4.43387 18.8787 2.72957 18.3874 2.29628C17.8962 1.86299 16.9713 1.51635 16.2778 1.48747C12.0299 2.2674 11.5676 2.35406 11.4809 0.909752" fill="#C5C5C5"/>
</svg>
