<svg width="157" height="40" viewBox="0 0 157 40" fill="none" xmlns="http://www.w3.org/2000/svg">
<path d="M45.1033 0.793701C44.8721 1.12108 43.7549 1.74693 41.7513 2.67129C42.5026 4.43335 45.2768 4.57778 45.219 7.00423C41.9536 9.22847 38.9194 8.10191 37.0989 7.43753C33.5156 6.13764 29.2099 7.43754 26.0601 4.49114C24.3841 3.89416 20.3 3.509 13.8077 3.33568C9.84879 5.96433 4.9073 4.75111 0.746094 6.65761C2.27765 8.59299 8.80842 10.2395 8.86622 10.2684C15.0791 11.3372 22.8235 16.4789 19.7893 19.8875C24.4129 23.2672 30.3946 21.1296 35.1916 23.7005C40.3931 25.6648 44.3809 29.7955 49.6402 31.6153C49.6402 31.6153 54.8995 32.2219 61.3725 32.7708C67.6432 33.3196 73.6539 35.4572 79.8957 36.1216C81.1672 36.1986 85.521 37.2385 92.9572 39.2413C102.416 38.1244 108.552 37.8259 111.365 38.3458C115.324 38.808 118.647 36.6127 122.288 35.7461C122.288 35.4861 122.288 35.1683 122.259 34.9084C120.448 33.4833 119.466 32.4627 119.311 31.8464C119.687 31.2976 156.155 28.9289 156.502 28.9289C156.444 28.8711 148.873 24.5093 146.417 24.596C144.683 26.8202 133.847 23.8449 132.286 21.9095C132.46 21.5918 132.72 21.1585 133.067 21.0429L132.604 19.9164C132.893 18.9054 133.269 17.5188 133.558 16.5078C122.384 14.8517 114.457 14.8324 109.775 16.45C100.037 19.8008 93.044 11.626 84.4037 10.4128L84.1725 10.4706C81.1383 10.124 78.1329 9.48845 75.0408 9.3729C73.3455 9.79657 72.4113 10.018 72.2379 10.0373C71.6985 9.97952 70.1862 9.604 67.701 8.91073L67.5565 8.96849C63.8866 8.5352 61.8927 4.80889 58.3383 4.17339C55.7665 3.71121 48.3687 1.74695 48.3109 1.71806C48.1953 1.66029 47.444 1.42919 45.1322 0.851464" fill="#C5C5C5"/>
</svg>
