<svg width="27" height="6" viewBox="0 0 27 6" fill="none" xmlns="http://www.w3.org/2000/svg">
<path d="M11.9552 0.719311C10.9149 0.979287 9.96127 1.15261 8.71868 0.805977C8.66089 0.805977 8.57418 0.719311 8.51638 0.719311C7.41828 1.06595 6.5514 1.84588 5.4822 2.25029C4.21072 2.74136 2.73686 2.88578 1.58097 2.94355C1.33052 2.94355 1.1187 3.03021 0.945312 3.20353C2.62135 5.02337 3.11252 5.05225 5.19313 5.1678C7.6205 5.31223 7.90962 5.05225 8.0541 4.90782C8.92102 4.12789 12.5042 3.95458 14.2669 3.95458C15.9141 3.63683 17.2723 2.45249 19.035 2.4236H19.295C22.4544 2.90504 24.304 3.27093 24.8434 3.52128C25.0746 3.08799 25.219 2.79913 26.0281 2.13474C24.4677 1.90365 22.9651 1.3837 21.4046 1.32593C20.162 1.32593 18.9193 1.09484 17.6768 1.00818C15.7695 1.1815 13.8624 0.69043 11.9552 0.69043" fill="#C5C5C5"/>
</svg>
