<svg width="60" height="29" viewBox="0 0 60 29" fill="none" xmlns="http://www.w3.org/2000/svg">
<path d="M26.9193 0.894105C24.6075 0.894105 22.3824 2.04956 20.0128 1.64515C19.1844 2.26139 18.5004 2.56951 17.961 2.56951C17.961 2.56951 17.701 2.56951 17.6143 2.56951C17.0074 3.20501 16.2849 3.4361 13.5686 3.17612C12.8365 4.2738 12.1624 4.84191 11.5459 4.88042C10.1299 4.93819 9.263 3.55165 7.90483 3.43611C7.07644 4.24492 5.06318 4.70709 1.86522 4.82264C4.177 5.97809 1.25846 7.04688 1.22957 7.07576C1.14287 7.10465 0.998402 7.16242 0.882812 7.19131C2.73224 7.94235 2.47209 8.43342 1.89415 9.04003L1.80755 9.24223C3.16572 9.61775 5.33291 8.49119 5.85306 10.3977C10.5922 8.6934 14.0021 7.48018 18.6545 10.7443C20.2439 11.8998 21.1686 13.7774 22.9602 14.7018C30.5313 18.6881 33.2478 19.1213 35.2128 19.4391C35.3573 19.4391 50.2392 22.6455 50.0658 28.0183C50.7305 27.8739 52.7822 26.8917 52.8111 26.8917C47.7252 24.7253 50.7884 23.3965 51.453 23.1654C54.0249 22.2411 56.3366 23.0499 59.0241 23.9742C58.7062 23.6276 58.6483 23.5698 57.4924 23.1076L45.8469 18.8903C43.853 18.8903 42.1191 18.6014 39.605 17.3304C37.2355 16.1461 36.224 13.4019 33.7967 12.3042C32.1495 11.582 30.3001 11.3798 28.7396 10.3688C27.9498 9.84886 27.7573 8.81859 28.1618 7.27799C27.6706 6.67138 26.948 5.71812 29.8377 4.85153C30.1267 3.98494 29.9534 3.08948 30.04 2.22289C27.9594 2.02069 27.4972 1.87625 26.8614 0.865234" fill="#C4C4C4"/>
</svg>
