<svg width="72" height="50" viewBox="0 0 72 50" fill="none" xmlns="http://www.w3.org/2000/svg">
<path d="M30.8826 0.217347C26.8948 0.795072 23.1864 1.70979 19.7572 2.96153C13.8237 5.11837 10.1055 6.20644 8.60285 6.22569C9.0941 7.67001 10.6835 8.59435 10.5968 10.3564C10.5968 10.7319 10.25 11.4541 8.22717 12.3785C7.9093 12.7251 7.67815 12.9851 7.62036 16.3937C7.60109 17.1832 6.87866 18.252 5.45306 19.6C5.68424 21.5354 3.77697 22.142 3.05454 23.4997C7.79369 25.435 2.04316 28.237 0.193739 29.0747C0.164841 29.1903 0.107022 29.3058 0.078125 29.4214C0.800556 30.2013 1.9276 30.519 2.56334 31.4434C3.34356 32.5699 2.10096 33.4365 2.18766 34.4764C2.33214 36.0652 4.41275 35.1697 4.99069 36.354C5.04849 36.4696 5.13517 36.614 5.16407 36.7296C5.27966 37.394 2.04318 40.9758 2.01428 41.0047C2.44774 42.1313 3.74813 42.1313 4.47056 42.8534C5.30859 43.6911 4.49947 44.8755 5.10631 45.7421C5.193 45.8576 5.33747 45.9154 5.45306 46.0021C6.49336 46.782 6.23326 48.313 6.05988 49.2085C6.05988 49.3529 6.03101 49.5262 6.00212 49.6417C9.3253 48.5152 12.0994 46.2043 15.4804 45.2221C16.9542 44.7888 18.3124 45.6266 19.7572 45.6843C24.6409 45.7999 25.0454 45.7999 27.2705 46.9553C29.0428 45.2222 32.6646 44.3074 38.1359 44.2111C39.3495 42.449 39.4362 40.1671 40.7655 38.4628C41.4013 37.6539 43.0195 36.4985 44.8978 35.5164C47.9898 33.8987 53.2491 32.8588 60.589 32.4544C64.1723 32.2811 64.808 32.2522 67.0331 33.1188C67.9578 33.4847 68.5936 33.5617 68.9403 33.3499C69.9229 32.801 73.1304 27.7171 71.4255 26.3305C70.6741 25.7336 69.865 24.4529 68.9981 22.4887C65.6749 21.8821 62.2362 23.5863 58.9997 21.9398C58.2772 21.5932 56.37 17.8957 57.786 16.8558C57.9593 16.7403 58.2195 16.6247 58.3929 16.5092C57.4393 15.4693 58.1328 13.6206 56.6012 12.8695C56.3315 12.7347 55.8114 12.6866 55.0408 12.7251C51.024 12.9851 49.3479 13.0717 49.2902 11.5119C47.4407 10.7031 44.6088 12.6673 43.5107 10.0964C42.3837 10.1542 41.3145 9.72092 40.1875 9.69204C32.5298 10.5297 28.2241 6.08127 30.9405 0.188477" fill="#C5C5C5"/>
</svg>
