<svg width="30" height="9" viewBox="0 0 30 9" fill="none" xmlns="http://www.w3.org/2000/svg">
<path d="M21.2973 0.810059C18.6002 1.75368 17.2131 2.23511 17.1361 2.25437C15.8357 2.42769 14.5064 2.34103 13.1771 2.51435C12.0213 2.65878 11.0389 3.43871 9.85406 3.52537C9.27612 3.55426 6.29974 3.69869 3.93016 3.06319C3.75678 3.38094 3.43875 3.95866 1.41594 3.95866C1.41594 4.33418 1.32938 4.47862 1.01151 4.70971C0.953715 5.43187 0.895815 5.80738 0 6.03848C2.34068 8.00274 6.61761 8.89821 6.64651 8.9271C7.28225 9.00413 10.4706 8.67676 16.2115 7.94498L16.6159 7.88719C18.1764 8.17606 19.3035 8.35901 19.997 8.43604C22.4533 7.685 22.6265 7.62723 24.0136 6.18292C25.6897 4.44974 26.7012 3.535 27.048 3.43871C27.3658 3.35205 29.5908 2.6299 29.5908 2.6299C29.5908 2.6299 26.4988 1.50333 21.644 0.867832L21.2107 0.810059" fill="#C5C5C5"/>
</svg>
