<svg width="64" height="12" viewBox="0 0 64 12" fill="none" xmlns="http://www.w3.org/2000/svg">
<path d="M50.6628 0.281982C50.1715 0.281982 49.6224 0.281986 49.1601 0.455304C49.1023 4.35495 44.1608 2.564 44.103 2.47734C43.9297 2.21737 43.9297 2.01516 44.103 1.40854C40.8088 3.02617 39.0266 3.84463 38.7569 3.86388H38.5259C36.4742 3.77722 36.2718 2.88175 36.792 2.27514C37.4277 1.49521 38.5259 1.58186 39.2772 1.00414C38.1599 1.00414 37.1966 0.927114 36.3875 0.773054L36.0984 0.715281C36.0984 0.715281 36.0118 0.91748 35.9829 1.00414C36.6187 2.21736 34.4513 2.21736 33.6133 1.9285C32.8813 1.67815 32.0239 1.83221 31.0414 2.39068C31.3882 2.93952 31.995 3.95053 29.741 4.29717H29.4521C28.4118 4.29717 27.8338 4.12386 27.227 3.25727C25.8688 3.69057 24.5396 3.4017 23.6727 3.11283C24.3084 3.4017 24.7032 3.62317 24.8574 3.77723L25.002 4.09497L24.684 4.29717L24.2506 4.49938C23.6534 4.49938 23.085 4.44161 22.5456 4.32606C21.6787 4.15274 20.8119 4.32606 19.945 4.15274C19.9161 7.35912 16.1594 4.8749 16.1305 4.81712C16.0727 4.73046 16.0149 4.58604 15.9571 4.49938C15.3503 4.52827 14.7724 4.75935 14.1655 4.75935H13.5008C13.0769 4.509 12.9132 3.98906 13.0096 3.1995C12.0271 3.37282 11.6514 3.43059 11.0735 3.48836C11.3914 4.15274 11.7959 5.01933 9.57078 5.10599H9.25295C7.37463 6.49253 5.06283 5.19265 3.09782 6.08813C4.19592 6.08813 5.46739 6.26144 5.43849 7.1858C6.94115 8.19681 5.43849 8.659 5.43849 8.659C4.57157 8.89009 3.64677 8.54345 3.3578 8.42791C3.21331 8.37013 3.01108 8.31237 2.86659 8.25459C2.60652 8.71677 2.43316 8.91897 1.45066 8.94786C1.27727 8.94786 1.07501 8.91897 0.930526 8.89008C1.2484 9.0634 1.99964 9.52558 0.84375 10.1322C1.27721 10.5944 1.42168 10.7099 1.1905 11.0277C1.55654 10.9699 3.39643 10.8062 6.70998 10.5366C6.61365 9.20783 7.98141 8.57234 10.8133 8.63011C12.4027 8.63011 13.9343 9.12118 15.5236 9.26561C16.6795 6.95471 17.113 6.11701 22.459 6.03035C25.8111 6.17478 28.672 8.25459 32.0529 8.37013C32.4768 8.27384 33.9216 8.27384 36.3875 8.37013C37.3411 8.28347 37.8902 8.37013 38.7282 8.74566C39.5373 7.87907 40.3367 7.46503 41.1265 7.50355C41.1265 7.50355 41.2421 7.33023 41.2999 7.24357C39.4794 3.97942 46.4148 3.97943 46.4726 3.97943C54.1786 4.17201 58.4554 5.00007 59.303 6.46364C60.1314 6.40587 60.6996 6.32884 61.0079 6.23255C61.0079 6.23255 56.2976 4.29717 56.2976 4.26829L56.0953 3.92166C56.5577 3.60391 57.2802 3.11283 60.1988 3.83499C61.4992 4.09497 62.5684 3.19949 63.7821 3.11283C61.7015 2.47734 60.5167 2.15959 60.2278 2.15959C58.4939 2.18848 57.9448 2.21737 56.7022 1.61076C56.1821 1.37967 54.9106 1.37966 54.7372 2.24625C54.4193 3.63279 51.6741 3.4017 51.2695 2.30402C51.3273 2.18848 51.3851 2.01516 51.4718 1.9285C51.0383 1.14857 50.865 0.830822 52.0498 0.541959C51.7319 0.4553 51.3273 0.310869 50.6915 0.281982" fill="#C5C5C5"/>
</svg>
