<svg width="21" height="12" viewBox="0 0 21 12" fill="none" xmlns="http://www.w3.org/2000/svg">
<path d="M13.1673 0.341119C11.2312 0.601096 10.9133 0.861066 10.6821 1.03438C10.3353 1.29436 9.78633 1.75654 8.19698 2.36315C6.83881 2.8831 5.42278 3.22975 4.0646 3.7497C2.53305 4.32742 1.46386 4.44296 0.828125 4.12521C1.46386 4.7896 1.95512 5.13623 3.71785 5.48287C4.18021 4.84737 4.44034 4.55851 5.22057 4.1541L6.00076 3.83635C6.78099 3.72081 6.83876 3.72081 7.15663 3.7497C7.15663 3.7497 9.6129 4.06744 10.133 4.24076C10.6917 2.87348 11.2216 2.0454 11.7224 1.75654L12.5026 1.38103C15.0456 1.06328 15.3924 2.56536 14.1209 4.1541C13.7741 4.61628 12.4449 6.0606 11.0867 6.75387C11.0867 6.75387 13.1673 6.40722 12.4737 7.5049C12.3581 7.7071 12.1559 7.90931 12.0403 8.02485C12.5315 7.82265 13.1095 7.85154 13.5141 7.44714C13.9186 7.04273 13.7741 6.46501 14.0631 6.03172C14.4099 5.51176 15.3635 4.81849 16.6061 4.55851C18.9179 4.06744 18.6 6.11837 18.311 6.72498C17.8487 7.67823 16.3171 8.31372 15.4791 8.66035L15.1901 8.74701C14.4965 9.32473 13.9475 9.75804 11.7802 10.1625C11.3564 10.2587 10.9422 10.5669 10.5377 11.0868C11 10.8268 11.4045 10.6535 11.9247 10.538C12.3292 10.4513 12.7338 10.6824 13.1384 10.5957C13.8319 10.4513 14.4388 10.018 15.1323 9.87357C16.4038 9.61359 17.5307 8.92034 18.8022 8.71814C19.0912 8.66037 19.8714 8.60258 20.5938 9.06476C19.8425 7.76488 20.3049 6.17615 19.5536 4.90515C18.8889 3.77859 17.5308 3.05643 16.5194 2.50759C14.9012 1.641 14.4099 1.23659 15.0456 0.398893C14.7277 0.225576 13.7742 0.312234 13.254 0.398893" fill="#C5C5C5"/>
</svg>
