<svg width="17" height="8" viewBox="0 0 17 8" fill="none" xmlns="http://www.w3.org/2000/svg">
<path d="M14.7347 0.333984C13.4054 0.333984 10.2556 0.420647 10.0533 1.22946C11.556 2.96264 8.34837 2.84709 7.68373 2.8182C6.81682 2.76043 6.1522 2.55823 5.71874 2.24048C5.54536 2.52934 5.60314 2.87598 5.34306 3.13595C5.34306 3.13595 4.80366 3.44407 3.72482 4.06031C3.32026 4.26252 3.34917 4.32029 3.37807 4.60915C3.37807 4.72469 3.3781 5.18687 2.68457 5.73571C2.13552 6.169 1.32644 6.54453 0.921875 6.71784C2.48233 6.48675 3.95607 5.70683 5.60322 5.82238C6.90359 5.90904 9.38879 6.77562 11.2382 7.46889C11.3249 7.09337 11.6427 6.83339 11.6716 6.45787C11.6716 6.14012 11.4694 5.85126 11.556 5.53351C11.556 5.53351 11.5848 5.38908 11.7871 5.24465C11.999 5.07133 12.9528 4.94616 14.6481 4.86913C14.937 4.31066 15.2644 3.9544 15.6305 3.80034C15.197 3.51147 14.7058 3.30927 14.2435 3.02041L13.8967 2.70266C14.1568 2.15382 14.1856 2.06716 15.2259 1.7783C16.2662 1.48943 16.7286 1.1428 16.7864 1.02726C16.9887 0.478421 15.6016 0.391758 14.7347 0.391758" fill="#C5C5C5"/>
</svg>
