<svg width="72" height="52" viewBox="0 0 72 52" fill="none" xmlns="http://www.w3.org/2000/svg">
<path d="M55.476 0.102539C51.6616 0.998013 48.2517 3.02005 44.5528 4.23327C43.4548 4.6088 42.4722 4.72434 41.2874 4.86878C40.9118 4.89766 40.5361 4.95542 40.1893 5.01319C39.2068 5.15763 38.6 6.13977 37.5886 6.19754C36.635 6.25531 35.7681 5.47539 34.7856 5.79314C33.3407 6.25532 31.2023 7.38189 30.8844 7.9885C30.5569 9.64464 24.9508 13.4672 14.0662 19.4563C15.2799 20.1785 16.0312 20.7562 15.3666 22.3161C15.3666 22.8649 15.6267 23.356 15.54 23.9048C15.3088 25.3202 13.6905 25.898 13.5171 27.3423C13.3726 28.671 15.1354 29.8554 13.9217 31.2708C13.4883 31.7908 10.3095 34.5927 9.18254 35.286C8.95136 35.4304 8.6335 35.6038 8.37342 35.7193C6.98635 36.3837 5.36817 36.1526 4.01 36.9325C2.9408 37.5391 2.36279 38.7812 1.14911 39.1856C1.09131 39.2723 1.00466 39.3878 0.917969 39.4745C2.18945 39.9944 12.4769 42.392 12.5058 42.392C14.6731 41.3521 15.8578 41.9587 18.2274 43.6919C21.7529 43.1142 24.1225 43.8652 25.3362 45.945C28.197 46.465 30.2487 46.8694 29.7863 48.747C31.1156 49.4691 31.3756 49.6136 31.4912 50.4513C32.4159 50.9424 35.8548 50.3357 36.346 50.1624C36.4616 50.1335 47.9049 47.5627 49.7543 51.1446C52.0468 47.7745 52.5188 45.4251 51.1703 44.0963C47.4425 40.3989 52.5285 39.2145 54.9559 38.6368C52.384 38.4346 52.2395 36.4992 53.1642 35.6326C54.0022 34.8238 56.1117 34.4772 62.1513 34.2461C65.7634 34.1017 68.9132 33.0906 69.231 32.7151C67.4972 31.1553 66.8037 30.5198 69.9535 28.5844C67.0926 25.2625 66.2547 24.2803 71.3406 19.9185C68.4797 19.8896 65.6478 20.6696 62.787 20.554C60.0996 20.4385 58.1345 18.1276 55.4182 18.1853C52.4706 18.2431 49.6098 19.3119 46.6045 19.023C46.3156 19.023 45.9399 18.9364 45.651 18.8786C42.4723 18.1853 43.8882 15.3834 44.495 14.1702C44.5528 14.0546 44.6106 13.9391 44.6684 13.8235C44.0615 13.2458 42.5878 13.2169 42.8479 12.0614C39.5247 11.917 38.7156 11.8593 40.3627 10.4438C42.0387 8.99951 42.9634 8.03664 43.1368 7.5552C44.0326 5.47539 51.8061 1.4313 56.1984 0.391397C56.054 0.333625 55.8806 0.218074 55.7361 0.160302H55.476" fill="#C5C5C5"/>
</svg>
