<svg width="64" height="40" viewBox="0 0 64 40" fill="none" xmlns="http://www.w3.org/2000/svg">
<path d="M49.3184 0.0836417C49.2606 3.03004 49.0872 3.46333 48.0758 3.66553C47.4979 3.78108 46.92 3.89662 30.044 3.86773C29.8995 6.23641 30.6508 9.78943 29.3505 11.7826C27.9345 13.9779 25.3916 13.1402 23.4555 13.9491L23.0798 19.4374C16.3467 19.5241 7.33072 19.6396 0.597656 19.7263C1.1756 21.4595 3.89195 21.084 4.03644 23.1926C4.12313 24.3192 2.96734 25.2724 3.60308 26.4568C4.68192 28.5173 5.21166 29.6054 5.1924 29.7209C4.78784 31.6274 2.73612 33.4184 1.75362 34.285C2.30267 34.2272 2.38941 34.1983 2.70728 34.1983C5.91487 34.285 9.06452 33.4762 12.301 33.7361C12.9656 33.7939 14.2082 33.9095 16.6356 35.3826H18.9763C20.45 37.7513 23.3399 38.0402 25.276 39.7156C25.8154 39.6386 26.1622 39.3497 26.3163 38.849C26.5186 38.1557 28.3968 36.3359 32.009 38.1268C32.1823 38.2135 32.4136 38.3291 32.5869 38.3868C33.3383 37.4625 34.2919 37.2892 36.5748 37.578C37.8174 37.7513 38.5687 37.838 41.0827 37.2025L41.4006 37.1158C55.3676 37.0003 62.7171 36.9329 63.4492 36.9136C63.5937 36.4803 63.7094 36.1626 63.7094 35.2093L61.9754 34.2272L57.5542 5.28318C59.4614 5.28318 62.0045 5.28317 63.9406 5.25428C61.4265 4.35881 54.78 1.93237 49.3473 0.0258789" fill="#C5C5C5"/>
</svg>
