<svg width="21" height="11" viewBox="0 0 21 11" fill="none" xmlns="http://www.w3.org/2000/svg">
<path d="M9.54682 0.0825195C7.49511 1.46906 5.00995 1.7868 2.87156 2.94225C3.16053 4.38657 3.27605 4.9643 0.993164 6.78413C0.155143 7.44851 0.501903 8.34398 1.16654 9.73052C1.25323 9.78829 1.36893 9.81717 1.45562 9.81717C3.56512 9.81717 4.48977 9.96162 5.00993 10.0772C5.3278 9.38389 6.2815 7.33295 9.98035 9.06612C11.0206 9.60534 11.5985 9.88457 11.7141 9.90383C14.0837 9.47054 14.3726 9.41277 15.4707 9.84607C17.0312 10.366 18.6495 9.9616 20.2099 10.0194C20.3255 10.0194 20.47 10.0194 20.5567 10.0194C19.9498 9.78829 19.4586 9.5572 18.7361 8.92171C17.4069 7.79514 15.6441 7.33296 14.3437 6.11974C12.8699 4.76208 11.9741 3.51997 11.6563 2.39341C11.4829 1.81568 10.8183 1.06465 9.54682 0.0825195Z" fill="#C5C5C5"/>
</svg>
