<svg width="16" height="7" viewBox="0 0 16 7" fill="none" xmlns="http://www.w3.org/2000/svg">
<path d="M2.65549 0.616699C2.22203 1.30997 1.52853 1.68549 1.15287 1.85881C0.748306 2.03213 0.690501 2.40766 0.690501 2.40766C0.603809 3.38979 2.42427 3.36088 2.42427 3.36088C2.48206 3.36088 2.53994 3.30312 2.59773 3.27423C3.29127 2.84094 4.27369 2.58097 5.2273 2.60986C6.3543 2.63874 6.73004 3.21646 6.93232 3.50532C6.96122 3.5631 7.01895 3.62086 7.04785 3.67864C9.33073 3.67864 12.0471 4.60299 11.2957 6.24951C11.0646 6.76946 11.0068 7.05834 12.8851 6.9428H13.2897C13.2897 6.9428 13.9832 6.2784 13.9543 6.04731C13.9543 5.90288 13.9543 5.12296 15.2836 3.85197C14.8212 3.50533 13.4342 2.43654 11.8448 0.847795C10.8912 0.905567 9.7353 1.02111 9.04176 0.732247C8.83948 0.645588 2.68436 0.645592 2.62657 0.645592" fill="#C5C5C5"/>
</svg>
