<svg width="92" height="31" viewBox="0 0 92 31" fill="none" xmlns="http://www.w3.org/2000/svg">
<path d="M10.3048 0.921959L0.710938 1.84632C1.54896 5.2549 2.67604 9.81894 3.51406 13.2564C4.43878 13.4297 4.84323 13.4875 6.11471 13.603C6.77935 11.841 7.12624 10.9455 10.3916 11.0033L10.5939 11.061C11.0948 9.98262 14.832 10.0115 21.8059 11.1477C24.2911 11.5232 25.0424 14.5852 27.6143 14.8451C31.6792 15.2303 33.7695 15.4421 33.8851 15.4806C34.0585 15.5384 34.2897 15.6539 34.4342 15.7406C36.6015 16.7805 37.844 18.947 39.8379 20.1602C41.6585 21.2579 43.8545 21.4023 45.6751 22.5C49.2005 24.6087 53.3329 25.1864 57.0895 26.6885C57.7831 26.7174 59.0545 26.804 62.8111 27.9306L63.5048 28.1328C63.7649 28.595 64.1116 29.2305 64.3428 29.6927C65.9032 29.866 67.3192 30.617 68.8796 30.8481C69.7177 30.2126 70.7579 28.5372 70.7579 28.5083C66.77 24.9457 65.7877 23.097 67.8105 22.9622C68.6196 22.9044 69.4286 22.9044 70.2377 22.8466C70.2377 22.8178 71.3359 19.2358 75.6994 19.698C77.5488 19.8713 79.3403 18.8025 81.2187 19.3803C83.1837 19.9869 82.7215 20.8824 82.288 21.7201C85.3897 21.7201 88.3082 21.4312 91.0438 20.8535C87.4316 19.3803 83.2993 20.6513 79.8027 18.687C76.2195 16.6072 73.7633 19.958 70.7291 20.5646C67.4926 21.2001 65.2097 18.427 62.2044 18.2248C60.3839 18.1093 57.6097 17.936 54.2576 14.0652C54.1421 13.9497 53.8819 13.6319 53.5929 12.7364C52.2058 8.51906 37.0638 8.86569 36.9193 8.89457C34.0103 9.02937 30.0128 7.84503 24.9269 5.34155C23.0196 6.78587 16.3155 7.79689 15.1885 4.76384C14.9573 4.85049 14.6683 4.96603 14.4371 5.0238H14.1193C10.8539 4.76383 10.3916 1.78854 10.3338 0.893066" fill="#C5C5C5"/>
</svg>
