<svg width="76" height="37" viewBox="0 0 76 37" fill="none" xmlns="http://www.w3.org/2000/svg">
<path d="M22.5603 0.65113C22.4736 1.11331 22.4159 1.5466 21.9824 1.951C19.5551 4.29079 16.1162 3.51085 13.3421 4.81074C12.7642 5.07071 12.533 5.27292 13.2554 6.775C13.8623 7.98822 14.6136 9.51921 11.9839 10.848C9.55656 12.0901 5.79997 11.2524 4.73077 9.72141C3.97945 8.65262 4.06608 8.56595 8.37177 5.04183C8.42956 4.43522 8.31396 4.34856 7.9094 4.11747C4.86556 5.81213 3.26657 6.79426 3.11245 7.06386C2.41891 8.91258 2.27445 9.23034 0.974078 10.1258C0.887386 10.1836 0.742942 10.2991 0.65625 10.3569C2.82354 10.4725 2.67901 11.2813 2.59232 11.6279C4.49954 12.61 4.87524 12.8122 4.44178 13.881C3.74825 15.2676 2.9391 16.8563 4.32617 17.2029C4.47066 17.2318 4.67292 17.2607 4.8463 17.2607C7.9672 17.4918 10.9437 16.1919 14.0935 16.423C17.2722 16.683 19.9596 19.0805 23.2828 18.6473C25.9702 18.3006 30.9984 17.6362 31.4318 18.8206C31.7208 19.6005 31.2873 19.976 30.247 20.8426C29.5824 21.4203 27.9353 23.2691 27.4729 25.06C27.0394 26.7354 29.4957 26.5332 29.8713 27.8331C30.3626 29.4507 27.8775 29.3063 27.7619 30.6928C29.0045 31.4439 29.6691 31.8483 28.8888 33.3504C28.9755 34.3325 31.2584 36.0946 31.2584 36.0946C31.952 36.4412 32.2987 36.6145 32.79 36.7878C35.1307 35.9212 37.7314 36.2101 40.0143 35.0835C41.2858 34.4192 41.9793 34.217 43.6554 33.9859C45.0425 33.7837 45.6493 32.426 46.8052 31.9061C46.2658 31.2513 46.0442 30.6736 46.1405 30.1729C45.9093 29.8262 45.4759 29.6529 45.2447 29.3063C44.7534 28.613 45.5337 27.8331 45.1003 27.1109C44.6379 26.3021 42.4706 26.6776 43.0196 25.6089C44.1177 23.5579 49.2903 24.1645 49.3481 24.1645C52.2571 24.7808 58.4892 23.8757 68.0446 21.4492C68.0446 21.4492 68.3625 21.1892 68.507 21.1026C66.1952 19.0035 65.4632 17.6459 66.3108 17.0296C66.3108 17.0296 66.5998 16.8274 66.7443 16.7119C66.9176 14.661 68.9983 14.2566 72.0903 13.8521H72.148C70.7032 12.9663 71.7628 11.5412 75.3268 9.57697C72.8994 8.50818 70.3564 11.1368 67.9579 9.40366C67.746 9.2496 68.5841 8.13266 70.472 6.05285C69.923 5.76398 69.5184 5.56178 64.9527 5.41734C58.2774 5.21514 61.9473 2.7887 61.9762 2.75981C60.5121 2.79833 56.0137 3.81899 48.4812 5.82177C45.0424 6.74613 42.066 4.46411 38.7428 4.46411C34.1963 5.17664 31.4799 5.43661 30.5938 5.24403C28.8021 4.83963 29.3512 1.89322 27.0972 2.00877C25.4404 2.14357 23.9281 1.66213 22.5603 0.564453" fill="#C5C5C5"/>
</svg>
