<svg width="27" height="9" viewBox="0 0 27 9" fill="none" xmlns="http://www.w3.org/2000/svg">
<path d="M5.51487 0.339355C3.98332 0.339355 2.53849 0.830424 1.03583 0.917083C1.46929 1.75478 1.35369 2.44806 0.660156 3.14133C1.49818 3.14133 1.87374 3.14132 2.365 3.25686C3.17412 3.40129 3.89657 3.86348 4.73459 4.03679C5.48592 4.18122 6.23733 3.97903 6.98866 4.12346C7.33543 4.21012 7.88441 4.32566 8.54905 4.58564C9.35818 4.91302 9.7532 5.63517 9.73394 6.75211C10.3697 7.17577 12.7391 7.67646 16.8426 8.25418C17.2182 8.25418 17.3916 8.28308 17.9696 7.93644C18.3164 7.73424 18.952 7.32983 21.5239 7.21429C21.6395 5.39445 23.9225 5.01892 24.7027 4.90338C25.3095 4.41231 25.4251 4.32565 26.1186 4.239C25.9645 3.85385 25.8971 3.56499 25.9163 3.37241C25.5407 3.11243 21.235 1.55258 20.1658 1.46592H19.8769C19.0678 1.46592 18.6343 1.35038 17.8541 0.917083L17.565 0.772654C13.5483 1.23483 9.56055 0.426014 5.57273 0.339355" fill="#C5C5C5"/>
</svg>
