<svg width="14" height="3" viewBox="0 0 14 3" fill="none" xmlns="http://www.w3.org/2000/svg">
<path d="M8.35595 0.271517C8.04771 0.233002 7.84536 0.261885 7.74904 0.358172C7.57566 0.53149 7.05563 1.08033 5.35069 1.08033C3.73245 1.08033 2.08521 0.589285 1.1027 0.155991C1.04491 0.127105 0.958197 0.0693359 0.900403 0.0693359C0.582533 0.0693359 0.322535 0.415934 0.438124 0.618138C0.524816 0.791455 2.72103 1.88916 4.97502 2.09136C5.29289 2.09136 5.61078 2.12025 5.89975 2.09136C7.518 2.03359 9.07837 1.57142 10.6966 1.6003C11.7658 1.6003 12.835 1.88913 13.9042 1.7447C13.2973 1.36918 10.5232 0.502623 8.32702 0.242646" fill="#C5C5C5"/>
</svg>
