<svg width="25" height="16" viewBox="0 0 25 16" fill="none" xmlns="http://www.w3.org/2000/svg">
<path d="M18.396 0.62325C14.8705 0.565477 14.7549 0.623253 14.5237 0.738798C13.859 1.08543 11.1138 1.89426 9.3222 1.92314H9.1199C7.99291 2.58753 7.18377 2.76084 4.95869 2.70306C4.69861 2.70306 4.35185 2.70306 4.06288 2.70306C3.34045 3.65631 2.35786 4.17625 2.35786 4.20514C2.01109 4.40734 2.0401 4.86953 1.75113 5.07174C1.40437 5.33171 0.913013 5.18728 0.566246 5.47614C0.508451 5.53391 0.392933 5.67834 0.277344 5.88055C2.33868 7.1708 3.35005 8.20108 3.31152 8.97138C3.5427 9.37578 4.43863 9.31801 4.87209 9.08692C6.98159 7.93147 11.5762 9.49133 12.0386 10.5023C12.183 10.8201 12.3852 11.8022 8.88867 11.3689C6.83697 11.109 6.20135 11.3112 5.94127 11.3978C7.61731 12.5244 7.96397 12.7555 7.81949 13.3332C7.58831 14.3153 9.03316 14.5464 9.43773 14.5753C10.6803 14.6331 11.5184 14.8931 13.0788 15.5286C11.8362 13.7954 11.4028 13.2177 13.0788 12.9866C11.3161 11.8311 13.7434 11.2245 13.7723 11.2245C15.6506 10.7912 17.529 11.86 19.4073 11.1667C19.3495 10.6468 18.8582 10.329 17.9046 10.1557C16.5464 10.0113 15.2749 10.8201 13.9168 10.4157C13.3966 10.2713 10.9694 9.26025 12.0964 8.39366C12.4432 8.13368 13.05 8.01813 13.5413 7.93147C13.6569 7.93147 13.8301 7.87371 13.9457 7.87371C13.7723 7.6715 13.4835 7.35375 11.7207 6.4005C9.17776 4.98507 9.03324 4.63844 8.97545 4.46513C8.54199 3.30968 10.4492 2.81861 12.0096 2.90527C13.5412 2.99193 14.8993 4.03183 16.4887 3.82963C14.6681 0.941 20.5632 1.5765 20.621 1.5765C21.1989 1.72093 21.5457 1.92313 21.7769 2.03867C22.5282 1.66315 23.1062 1.43207 24.1176 1.28764C22.2104 1.11433 20.3321 0.709915 18.396 0.652142" fill="#C5C5C5"/>
</svg>
