<svg width="38" height="29" viewBox="0 0 38 29" fill="none" xmlns="http://www.w3.org/2000/svg">
<path d="M33.574 0.0585938L31.2623 0.405215C30.6265 0.491873 29.7886 0.578538 29.1528 0.63631C29.0083 2.77389 26.812 3.87158 26.4942 5.9225L26.3497 7.13572C21.6106 5.72992 16.4669 4.95 10.9187 4.79594C10.832 5.34478 10.7452 5.92249 10.6874 6.47132C10.7163 6.5291 10.7741 6.58688 10.8319 6.61576C18.3452 5.46031 17.7961 9.15776 17.5071 9.61994C16.987 10.3999 15.9756 10.7465 14.9353 11.0931C14.9353 11.1509 14.9065 11.2376 14.8776 11.2953C15.0221 11.4975 15.3109 11.9308 16.409 12.3353C18.6052 13.173 18.7787 14.3284 18.8076 16.0327C18.8365 19.1813 18.8654 20.2501 17.7384 21.0589C17.4494 21.29 16.8714 21.6944 15.3109 21.7233C14.0683 21.7233 12.8837 21.2033 11.6411 21.1744H11.2076C9.70491 21.1744 8.98243 20.6834 8.08661 19.6146C6.56469 20.4812 5.62077 20.9145 5.25474 20.9145C4.47451 20.9145 3.66537 20.9145 2.88514 20.9145C2.88514 21.0011 2.8852 21.1455 2.94299 21.2322C4.21447 23.0232 5.80381 25.2185 0.949074 25.1896C0.775691 25.1896 0.544477 25.2185 0.371094 25.2474C2.10493 26.1429 3.28975 26.9228 4.56123 28.1071C6.75742 27.2983 8.4046 26.7784 9.4738 26.8073H9.8493C10.4272 26.9228 10.7163 27.0095 11.3809 27.3272C11.8626 27.5005 12.3923 27.4524 12.9703 27.1828C14.9064 26.2873 18.3741 25.9118 19.8478 27.5872C20.8303 27.0672 21.3504 26.8072 23.0554 26.6917H23.2288C23.6622 26.1429 23.2288 25.4207 23.6623 24.9008C24.0668 24.4386 24.6158 24.2653 25.396 24.1208C25.4346 23.909 25.4442 23.6394 25.425 23.312C25.1938 17.4192 25.5118 17.1881 26.0608 16.726C27.2456 15.7727 28.806 15.5416 29.9908 14.5884C29.9908 14.5884 30.1835 14.1166 30.5688 13.1729C30.8577 12.3641 31.5802 11.382 32.3893 10.371C33.4007 9.07111 33.8052 8.49337 34.152 7.77122C34.701 6.64465 34.2676 5.25812 35.1057 4.18933C35.7125 3.4094 36.6661 2.88943 37.0996 1.93618C37.1863 1.76287 37.3596 1.24293 37.244 0.463L33.5451 0.0874641" fill="#C5C5C5"/>
</svg>
